<?xml version="1.0" standalone="no"?>
<!DOCTYPE svg PUBLIC "-//W3C//DTD SVG 20010904//EN"
 "http://www.w3.org/TR/2001/REC-SVG-20010904/DTD/svg10.dtd">
<svg version="1.0" xmlns="http://www.w3.org/2000/svg"
 width="400.000000pt" height="400.000000pt" viewBox="0 0 400.000000 400.000000"
 preserveAspectRatio="xMidYMid meet">
<metadata>
Created by potrace 1.14, written by Peter Selinger 2001-2017
</metadata>
<g transform="translate(0.000000,400.000000) scale(0.100000,-0.100000)"
fill="#000000" stroke="none">
<path d="M0 2000 l0 -2000 2000 0 2000 0 0 2000 0 2000 -2000 0 -2000 0 0
-2000z m1047 1515 c37 -8 100 -26 138 -39 39 -14 79 -26 91 -26 19 0 23 -10
39 -129 10 -71 15 -137 12 -145 -13 -33 -34 -14 -66 59 -44 99 -105 164 -196
207 -65 31 -77 33 -175 33 -96 0 -110 -3 -165 -29 -79 -39 -173 -135 -214
-217 -72 -149 -86 -325 -37 -476 50 -154 156 -280 286 -342 49 -23 67 -26 165
-26 100 0 116 3 170 28 107 50 105 46 105 228 0 186 -4 195 -88 208 -29 4 -58
13 -64 19 -26 26 7 32 193 32 l190 0 -3 -22 c-2 -15 -11 -24 -24 -26 -49 -7
-59 -34 -62 -179 -3 -109 -1 -139 12 -158 15 -23 14 -25 -33 -60 -200 -146
-516 -168 -741 -49 -126 66 -231 197 -274 343 -21 70 -21 237 -1 316 83 325
408 522 742 450z m2240 0 c205 -48 352 -194 409 -405 23 -85 23 -260 0 -354
-51 -211 -213 -375 -415 -417 -81 -17 -252 -6 -326 20 -249 88 -391 337 -358
628 30 270 181 467 404 527 71 19 208 20 286 1z m-882 -25 c6 -32 35 -227 35
-240 0 -5 -10 -10 -23 -10 -19 0 -26 9 -40 54 -20 63 -51 111 -90 140 -26 19
-44 21 -206 24 -174 4 -179 3 -204 -20 l-27 -23 -6 -213 -7 -214 166 4 c188 3
194 6 212 81 7 25 17 42 25 42 12 0 15 -26 16 -152 1 -136 -1 -153 -15 -153
-11 0 -21 15 -29 46 -17 64 -43 73 -223 74 l-144 2 3 -249 2 -248 27 -23 c26
-23 30 -24 197 -20 191 4 208 9 266 74 31 35 44 61 84 157 13 33 18 37 35 28
18 -10 18 -14 4 -88 -8 -43 -22 -109 -32 -148 l-17 -70 -440 0 c-382 0 -439 2
-439 15 0 10 16 17 55 22 79 11 96 34 105 140 4 46 5 261 3 478 -4 423 -5 436
-55 459 -13 6 -41 11 -63 11 -36 0 -52 12 -43 35 2 6 156 10 433 10 l430 0 5
-25z m-1742 -1886 c43 -120 85 -227 94 -236 9 -10 24 -18 35 -18 10 0 18 -4
18 -10 0 -6 -40 -10 -100 -10 -60 0 -100 4 -100 10 0 6 11 10 25 10 37 0 40
22 14 98 l-24 67 -89 0 -89 0 -29 -69 c-15 -38 -28 -73 -28 -78 0 -5 14 -11
30 -14 56 -12 30 -24 -50 -24 -78 0 -105 12 -55 24 30 8 36 19 141 265 78 183
96 215 119 208 5 -2 45 -102 88 -223z m513 210 c48 -16 52 -20 58 -53 8 -49 7
-81 -2 -81 -4 0 -17 20 -30 43 -32 60 -87 91 -153 85 -99 -10 -163 -97 -162
-223 1 -139 68 -225 178 -225 54 0 98 17 143 55 42 35 55 24 17 -15 -73 -76
-198 -94 -296 -42 -45 23 -59 37 -84 86 -58 113 -31 258 62 335 21 17 52 36
68 40 49 15 145 12 201 -5z m546 -39 c6 -64 -5 -77 -27 -32 -19 40 -57 60
-106 55 -28 -3 -34 -8 -42 -37 -5 -19 -7 -112 -5 -206 3 -184 9 -205 54 -205
13 0 24 -4 24 -10 0 -6 -43 -10 -110 -10 -67 0 -110 4 -110 10 0 6 11 10 24
10 52 0 56 15 56 229 0 140 -3 200 -12 209 -17 17 -83 15 -117 -3 -16 -8 -34
-28 -41 -45 -16 -39 -33 -39 -26 0 3 17 8 43 11 58 l6 29 209 -1 208 0 4 -51z
m238 44 c0 -4 -13 -12 -29 -17 -28 -10 -28 -12 -35 -101 -9 -106 2 -320 16
-338 6 -7 19 -13 29 -13 11 0 19 -4 19 -10 0 -6 -40 -10 -100 -10 -60 0 -100
4 -100 10 0 6 11 10 25 10 14 0 29 8 35 19 11 22 14 400 2 417 -4 6 -19 14
-34 18 -56 13 -26 23 72 23 55 0 100 -3 100 -8z m220 -2 c0 -5 -9 -11 -19 -14
-11 -3 -22 -10 -24 -17 -7 -17 125 -358 134 -349 12 13 129 318 129 336 0 10
-11 23 -25 29 -42 19 -28 27 50 26 82 -1 100 -9 57 -27 -15 -6 -33 -20 -39
-30 -6 -10 -48 -110 -93 -222 -46 -112 -89 -210 -96 -218 -16 -18 -26 4 -129
273 -58 150 -74 182 -97 195 -15 9 -28 19 -28 22 0 3 41 6 90 6 50 0 90 -5 90
-10z m560 2 c0 -5 -11 -11 -25 -15 -14 -3 -30 -14 -35 -24 -11 -20 -14 -360
-4 -398 4 -15 17 -25 35 -29 60 -12 25 -23 -71 -23 -96 0 -131 11 -71 23 26 5
29 11 34 59 9 68 9 292 0 342 -5 30 -12 40 -34 48 -52 18 -30 26 71 26 55 0
100 -4 100 -9z m482 -3 c11 -16 10 -106 -1 -106 -5 0 -14 13 -19 29 -17 49
-108 81 -140 49 -9 -9 -12 -69 -12 -209 0 -214 4 -229 56 -229 13 0 24 -4 24
-10 0 -6 -43 -10 -110 -10 -112 0 -136 8 -77 25 l32 10 0 215 0 215 -59 0
c-51 -1 -61 -4 -82 -28 -13 -16 -24 -35 -24 -43 0 -8 -5 -14 -11 -14 -8 0 -10
15 -5 46 3 26 6 52 6 59 0 17 411 18 422 1z m218 4 c0 -5 -11 -12 -25 -16 -14
-3 -25 -9 -25 -13 2 -13 106 -184 113 -185 5 -1 31 41 59 91 l50 93 -26 11
c-14 7 -23 16 -20 20 7 12 141 12 148 0 3 -4 -12 -15 -32 -23 -33 -13 -46 -28
-95 -119 l-58 -104 3 -105 3 -105 33 -10 c58 -17 34 -25 -78 -25 -67 0 -110 4
-110 10 0 6 11 10 24 10 45 0 56 23 56 117 0 85 0 86 -51 172 -82 138 -92 150
-127 162 -18 6 -30 15 -27 20 8 12 185 12 185 -1z m-2957 -998 c10 -1 29 -13
42 -27 35 -34 34 -85 -3 -126 -24 -27 -37 -33 -86 -37 l-57 -5 3 -66 c3 -57 6
-66 23 -69 11 -2 24 -8 29 -13 6 -5 -21 -9 -67 -9 -45 0 -77 4 -77 10 0 6 9
10 20 10 19 0 20 7 20 156 0 147 -1 156 -20 161 -42 11 -16 18 68 18 48 -1 95
-2 105 -3z m247 -4 c0 -5 -9 -8 -19 -8 -10 0 -22 -7 -25 -16 -12 -30 -7 -279
6 -292 7 -7 30 -12 51 -12 32 0 46 7 73 36 35 36 39 32 28 -25 l-6 -31 -124 0
c-76 0 -124 4 -124 10 0 6 8 10 19 10 16 0 19 11 24 81 3 45 3 115 0 157 -5
61 -9 76 -25 80 -38 9 -16 17 52 17 39 0 70 -3 70 -7z m396 -154 c47 -134 63
-168 82 -175 37 -14 25 -19 -48 -19 -40 0 -70 4 -70 10 0 6 9 10 21 10 18 0
20 4 14 27 -3 15 -13 42 -20 60 -13 32 -16 33 -68 33 -61 0 -70 -6 -92 -69
-14 -41 -14 -43 5 -48 39 -10 19 -23 -35 -23 -58 0 -69 9 -33 25 16 7 40 53
87 165 59 141 74 169 92 170 3 0 33 -75 65 -166z m194 154 c0 -4 -7 -8 -15 -8
-21 0 -20 -4 22 -82 42 -77 42 -77 89 14 28 56 30 68 7 68 -9 0 -13 3 -10 6 5
6 77 8 105 4 4 0 -6 -7 -23 -14 -23 -10 -41 -34 -73 -97 -42 -82 -43 -85 -35
-149 7 -57 11 -65 31 -68 12 -2 22 -8 22 -13 0 -5 -36 -9 -81 -9 -51 0 -78 4
-74 10 3 6 14 10 24 10 22 0 31 26 31 88 0 66 -98 232 -136 232 -9 0 -13 3
-11 8 7 10 127 10 127 0z m454 0 c37 -10 45 -16 50 -41 13 -63 0 -78 -22 -27
-26 57 -108 77 -168 41 -40 -24 -64 -77 -64 -141 0 -94 57 -160 138 -160 65 1
82 16 82 74 0 40 -3 48 -25 56 -39 15 -30 20 35 20 l60 0 -16 -25 c-12 -18
-15 -36 -10 -66 6 -39 6 -40 -36 -59 -134 -61 -278 15 -278 146 0 90 31 141
105 175 47 22 88 24 149 7z m334 -8 c18 -11 37 -32 43 -46 13 -35 -4 -87 -36
-111 l-24 -18 40 -67 c22 -37 52 -74 67 -83 l27 -14 -28 -1 c-44 0 -65 16
-112 91 -40 61 -48 69 -76 69 -30 0 -31 -2 -25 -31 3 -17 6 -49 6 -70 0 -35 3
-39 25 -39 14 0 25 -4 25 -10 0 -6 -32 -10 -75 -10 -43 0 -75 4 -75 10 0 6 9
10 19 10 28 0 31 18 31 160 0 142 -3 160 -31 160 -10 0 -19 3 -19 8 0 4 42 8
93 9 77 2 98 -1 125 -17z m389 -6 c62 -46 88 -115 73 -192 -29 -156 -218 -195
-307 -63 -18 26 -23 48 -23 93 0 85 37 151 100 177 38 16 127 7 157 -15z m243
17 c0 -3 -10 -11 -22 -16 -21 -9 -23 -18 -26 -95 -2 -47 0 -105 3 -129 12 -84
92 -119 152 -67 l28 24 0 134 c0 130 0 133 -22 136 -47 7 -21 21 37 21 59 -1
79 -12 40 -22 -18 -5 -20 -14 -20 -104 -1 -127 -11 -171 -50 -205 -25 -23 -39
-28 -85 -28 -46 0 -60 5 -85 28 -39 34 -49 78 -50 205 0 90 -2 99 -20 104 -42
11 -17 21 50 21 39 0 70 -3 70 -7z m305 1 c6 -4 51 -59 100 -122 48 -63 94
-122 102 -130 11 -12 13 5 13 108 0 121 0 122 -25 128 -41 10 -19 23 40 23 59
0 81 -13 40 -23 l-25 -6 0 -165 c0 -131 -3 -165 -13 -165 -8 0 -60 59 -116
130 -56 72 -104 130 -107 130 -2 0 -4 -52 -4 -115 0 -114 0 -116 25 -125 40
-15 30 -20 -40 -20 -62 0 -91 15 -42 22 21 3 22 7 25 133 3 149 0 171 -28 180
-11 4 -18 11 -15 16 7 11 56 12 70 1z m578 -21 c60 -37 92 -93 92 -160 0 -73
-26 -119 -85 -148 -38 -20 -60 -23 -157 -23 -69 0 -113 4 -113 10 0 6 9 10 19
10 28 0 31 18 31 160 0 142 -3 160 -31 160 -10 0 -19 5 -19 11 0 8 35 10 113
8 97 -4 117 -7 150 -28z"/>
<path d="M3067 3479 c-188 -43 -307 -251 -307 -535 0 -200 49 -335 164 -450
86 -86 152 -116 261 -117 89 -2 165 32 226 101 96 109 133 228 133 427 0 154
-13 223 -64 331 -81 170 -263 277 -413 243z"/>
<path d="M501 1658 c-18 -46 -35 -89 -38 -95 -4 -10 14 -13 72 -13 58 0 76 3
73 13 -3 6 -17 49 -32 95 -15 45 -31 82 -35 82 -4 0 -23 -37 -40 -82z"/>
<path d="M384 797 c-3 -8 -4 -45 -2 -83 l3 -69 39 1 c50 2 76 31 76 85 0 50
-27 79 -75 79 -21 0 -38 -6 -41 -13z"/>
<path d="M1027 753 c-2 -10 -14 -42 -26 -70 l-21 -53 54 0 54 0 -25 67 c-28
79 -29 79 -36 56z"/>
<path d="M1990 776 c0 -18 -3 -54 -6 -79 -6 -43 -5 -46 18 -52 26 -7 78 9 90
28 4 7 8 33 8 58 0 56 -21 79 -73 79 -35 0 -37 -2 -37 -34z"/>
<path d="M2347 799 c-29 -17 -57 -88 -57 -144 0 -60 29 -127 64 -150 34 -23
92 -22 118 1 69 62 61 236 -13 288 -27 18 -85 21 -112 5z"/>
<path d="M3473 804 c-18 -8 -18 -285 -1 -302 16 -16 81 -15 123 2 49 21 68 64
63 142 -4 67 -21 101 -69 137 -26 19 -94 31 -116 21z"/>
</g>
</svg>
