<svg xmlns="http://www.w3.org/2000/svg" xmlns:xlink="http://www.w3.org/1999/xlink" version="1.1" class="marks" width="795" height="282" viewBox="0 0 795 282"><rect width="795" height="282" fill="white"/><g fill="none" stroke-miterlimit="10" transform="translate(47,5)"><g class="mark-group role-frame root" role="graphics-object" aria-roledescription="group mark container"><g transform="translate(0,0)"><path class="background" aria-hidden="true" d="M0.5,0.5h620v240h-620Z" stroke="#ddd"/><g><g class="mark-rect role-mark marks" role="graphics-symbol" aria-roledescription="rect mark container"><path d="M280,220h20v20h-20Z" fill="rgb(211, 238, 180)"/><path d="M560,180h20v20h-20Z" fill="rgb(194, 231, 181)"/><path d="M560,140h20v20h-20Z" fill="rgb(226, 244, 183)"/><path d="M40,40h20v20h-20Z" fill="rgb(61, 173, 193)"/><path d="M80,120h20v20h-20Z" fill="rgb(229, 245, 184)"/><path d="M440,200h20v20h-20Z" fill="rgb(226, 244, 183)"/><path d="M20,120h20v20h-20Z" fill="rgb(222, 242, 182)"/><path d="M580,60h20v20h-20Z" fill="rgb(60, 172, 193)"/><path d="M420,200h20v20h-20Z" fill="rgb(213, 239, 180)"/><path d="M40,100h20v20h-20Z" fill="rgb(178, 225, 182)"/><path d="M320,80h20v20h-20Z" fill="rgb(98, 194, 191)"/><path d="M200,60h20v20h-20Z" fill="rgb(226, 244, 183)"/><path d="M420,140h20v20h-20Z" fill="rgb(43, 154, 191)"/><path d="M500,180h20v20h-20Z" fill="rgb(227, 244, 184)"/><path d="M260,140h20v20h-20Z" fill="rgb(231, 246, 186)"/><path d="M60,40h20v20h-20Z" fill="rgb(173, 223, 183)"/><path d="M560,200h20v20h-20Z" fill="rgb(83, 187, 192)"/><path d="M400,0h20v20h-20Z" fill="rgb(216, 240, 180)"/><path d="M180,100h20v20h-20Z" fill="rgb(215, 239, 180)"/><path d="M460,160h20v20h-20Z" fill="rgb(190, 230, 181)"/><path d="M520,140h20v20h-20Z" fill="rgb(78, 184, 193)"/><path d="M200,200h20v20h-20Z" fill="rgb(225, 244, 183)"/><path d="M500,220h20v20h-20Z" fill="rgb(222, 242, 181)"/><path d="M0,40h20v20h-20Z" fill="rgb(201, 234, 181)"/><path d="M160,0h20v20h-20Z" fill="rgb(163, 219, 184)"/><path d="M60,20h20v20h-20Z" fill="rgb(195, 231, 181)"/><path d="M80,40h20v20h-20Z" fill="rgb(148, 213, 185)"/><path d="M0,180h20v20h-20Z" fill="rgb(202, 234, 181)"/><path d="M480,220h20v20h-20Z" fill="rgb(198, 232, 181)"/><path d="M540,140h20v20h-20Z" fill="rgb(224, 243, 182)"/><path d="M260,200h20v20h-20Z" fill="rgb(237, 248, 188)"/><path d="M60,100h20v20h-20Z" fill="rgb(208, 236, 180)"/><path d="M120,80h20v20h-20Z" fill="rgb(227, 244, 184)"/><path d="M220,160h20v20h-20Z" fill="rgb(218, 240, 180)"/><path d="M140,160h20v20h-20Z" fill="rgb(187, 228, 181)"/><path d="M560,0h20v20h-20Z" fill="rgb(56, 169, 193)"/><path d="M360,20h20v20h-20Z" fill="rgb(234, 247, 187)"/><path d="M520,180h20v20h-20Z" fill="rgb(221, 242, 181)"/><path d="M440,180h20v20h-20Z" fill="rgb(152, 214, 185)"/><path d="M540,160h20v20h-20Z" fill="rgb(201, 234, 181)"/><path d="M0,80h20v20h-20Z" fill="rgb(207, 236, 180)"/><path d="M320,140h20v20h-20Z" fill="rgb(70, 180, 194)"/><path d="M140,180h20v20h-20Z" fill="rgb(222, 242, 182)"/><path d="M220,200h20v20h-20Z" fill="rgb(222, 242, 182)"/><path d="M160,40h20v20h-20Z" fill="rgb(225, 243, 182)"/><path d="M400,40h20v20h-20Z" fill="rgb(90, 190, 192)"/><path d="M180,180h20v20h-20Z" fill="rgb(214, 239, 180)"/><path d="M40,0h20v20h-20Z" fill="rgb(169, 221, 183)"/><path d="M260,180h20v20h-20Z" fill="rgb(220, 241, 180)"/><path d="M0,140h20v20h-20Z" fill="rgb(233, 247, 186)"/><path d="M380,120h20v20h-20Z" fill="rgb(70, 181, 194)"/><path d="M460,140h20v20h-20Z" fill="rgb(122, 203, 188)"/><path d="M340,100h20v20h-20Z" fill="rgb(230, 245, 185)"/><path d="M560,100h20v20h-20Z" fill="rgb(187, 228, 181)"/><path d="M240,160h20v20h-20Z" fill="rgb(192, 230, 181)"/><path d="M500,0h20v20h-20Z" fill="rgb(232, 246, 186)"/><path d="M540,100h20v20h-20Z" fill="rgb(192, 230, 181)"/><path d="M200,160h20v20h-20Z" fill="rgb(190, 229, 181)"/><path d="M260,0h20v20h-20Z" fill="rgb(232, 246, 186)"/><path d="M580,120h20v20h-20Z" fill="rgb(128, 206, 187)"/><path d="M360,100h20v20h-20Z" fill="rgb(172, 222, 183)"/><path d="M0,120h20v20h-20Z" fill="rgb(231, 246, 186)"/><path d="M540,0h20v20h-20Z" fill="rgb(105, 197, 190)"/><path d="M340,200h20v20h-20Z" fill="rgb(234, 247, 187)"/><path d="M20,0h20v20h-20Z" fill="rgb(232, 246, 186)"/><path d="M220,220h20v20h-20Z" fill="rgb(206, 236, 180)"/><path d="M540,200h20v20h-20Z" fill="rgb(149, 214, 185)"/><path d="M400,80h20v20h-20Z" fill="rgb(205, 235, 180)"/><path d="M340,40h20v20h-20Z" fill="rgb(221, 242, 181)"/><path d="M140,40h20v20h-20Z" fill="rgb(171, 222, 183)"/><path d="M440,80h20v20h-20Z" fill="rgb(145, 212, 185)"/><path d="M20,200h20v20h-20Z" fill="rgb(178, 225, 182)"/><path d="M80,180h20v20h-20Z" fill="rgb(38, 142, 187)"/><path d="M100,120h20v20h-20Z" fill="rgb(108, 198, 190)"/><path d="M80,0h20v20h-20Z" fill="rgb(208, 236, 180)"/><path d="M260,40h20v20h-20Z" fill="rgb(208, 236, 180)"/><path d="M220,20h20v20h-20Z" fill="rgb(227, 244, 183)"/><path d="M160,200h20v20h-20Z" fill="rgb(133, 207, 187)"/><path d="M400,120h20v20h-20Z" fill="rgb(170, 221, 183)"/><path d="M80,80h20v20h-20Z" fill="rgb(222, 242, 181)"/><path d="M120,100h20v20h-20Z" fill="rgb(228, 245, 184)"/><path d="M500,160h20v20h-20Z" fill="rgb(219, 241, 180)"/><path d="M500,200h20v20h-20Z" fill="rgb(106, 197, 190)"/><path d="M240,100h20v20h-20Z" fill="rgb(137, 209, 186)"/><path d="M340,140h20v20h-20Z" fill="rgb(216, 240, 180)"/><path d="M220,80h20v20h-20Z" fill="rgb(235, 248, 187)"/><path d="M120,60h20v20h-20Z" fill="rgb(237, 248, 188)"/><path d="M440,20h20v20h-20Z" fill="rgb(233, 247, 186)"/><path d="M240,20h20v20h-20Z" fill="rgb(131, 207, 187)"/><path d="M300,60h20v20h-20Z" fill="rgb(207, 236, 180)"/><path d="M360,80h20v20h-20Z" fill="rgb(223, 243, 182)"/><path d="M160,180h20v20h-20Z" fill="rgb(238, 248, 188)"/><path d="M420,40h20v20h-20Z" fill="rgb(224, 243, 182)"/><path d="M240,180h20v20h-20Z" fill="rgb(205, 235, 180)"/><path d="M520,220h20v20h-20Z" fill="rgb(197, 232, 181)"/><path d="M40,160h20v20h-20Z" fill="rgb(124, 204, 188)"/><path d="M140,80h20v20h-20Z" fill="rgb(225, 243, 183)"/><path d="M340,180h20v20h-20Z" fill="rgb(56, 169, 193)"/><path d="M360,120h20v20h-20Z" fill="rgb(228, 244, 184)"/><path d="M300,80h20v20h-20Z" fill="rgb(235, 247, 187)"/><path d="M280,0h20v20h-20Z" fill="rgb(223, 242, 182)"/><path d="M180,220h20v20h-20Z" fill="rgb(105, 197, 190)"/><path d="M60,220h20v20h-20Z" fill="rgb(237, 248, 188)"/><path d="M480,120h20v20h-20Z" fill="rgb(229, 245, 184)"/><path d="M80,160h20v20h-20Z" fill="rgb(174, 223, 182)"/><path d="M440,120h20v20h-20Z" fill="rgb(234, 247, 187)"/><path d="M280,200h20v20h-20Z" fill="rgb(227, 244, 183)"/><path d="M380,180h20v20h-20Z" fill="rgb(236, 248, 188)"/><path d="M200,120h20v20h-20Z" fill="rgb(230, 245, 185)"/><path d="M100,100h20v20h-20Z" fill="rgb(223, 243, 182)"/><path d="M60,140h20v20h-20Z" fill="rgb(217, 240, 180)"/><path d="M180,120h20v20h-20Z" fill="rgb(231, 246, 186)"/><path d="M300,160h20v20h-20Z" fill="rgb(55, 168, 193)"/><path d="M520,100h20v20h-20Z" fill="rgb(228, 245, 184)"/><path d="M100,60h20v20h-20Z" fill="rgb(201, 234, 181)"/><path d="M320,160h20v20h-20Z" fill="rgb(139, 210, 186)"/><path d="M540,120h20v20h-20Z" fill="rgb(101, 195, 190)"/><path d="M200,80h20v20h-20Z" fill="rgb(233, 247, 186)"/><path d="M480,180h20v20h-20Z" fill="rgb(231, 246, 185)"/><path d="M360,180h20v20h-20Z" fill="rgb(212, 238, 180)"/><path d="M180,140h20v20h-20Z" fill="rgb(234, 247, 187)"/><path d="M300,180h20v20h-20Z" fill="rgb(237, 248, 188)"/><path d="M360,220h20v20h-20Z" fill="rgb(227, 244, 184)"/><path d="M20,80h20v20h-20Z" fill="rgb(237, 248, 188)"/><path d="M160,120h20v20h-20Z" fill="rgb(234, 247, 187)"/><path d="M40,80h20v20h-20Z" fill="rgb(35, 74, 158)"/><path d="M360,0h20v20h-20Z" fill="rgb(237, 248, 188)"/><path d="M200,180h20v20h-20Z" fill="rgb(238, 249, 189)"/><path d="M440,0h20v20h-20Z" fill="rgb(140, 210, 186)"/><path d="M380,200h20v20h-20Z" fill="rgb(153, 215, 185)"/><path d="M0,0h20v20h-20Z" fill="rgb(192, 230, 181)"/><path d="M300,120h20v20h-20Z" fill="rgb(109, 198, 190)"/><path d="M600,40h20v20h-20Z" fill="rgb(232, 246, 186)"/><path d="M520,40h20v20h-20Z" fill="rgb(28, 49, 133)"/><path d="M160,20h20v20h-20Z" fill="rgb(203, 235, 181)"/><path d="M340,120h20v20h-20Z" fill="rgb(220, 241, 180)"/><path d="M260,80h20v20h-20Z" fill="rgb(215, 239, 180)"/><path d="M240,60h20v20h-20Z" fill="rgb(222, 242, 181)"/><path d="M80,140h20v20h-20Z" fill="rgb(173, 223, 183)"/><path d="M320,20h20v20h-20Z" fill="rgb(228, 245, 184)"/><path d="M160,60h20v20h-20Z" fill="rgb(231, 246, 185)"/><path d="M600,120h20v20h-20Z" fill="rgb(51, 165, 193)"/><path d="M180,60h20v20h-20Z" fill="rgb(226, 244, 183)"/><path d="M260,160h20v20h-20Z" fill="rgb(174, 223, 182)"/><path d="M60,120h20v20h-20Z" fill="rgb(215, 240, 180)"/><path d="M220,60h20v20h-20Z" fill="rgb(204, 235, 180)"/><path d="M340,20h20v20h-20Z" fill="rgb(164, 219, 183)"/><path d="M120,40h20v20h-20Z" fill="rgb(222, 242, 181)"/><path d="M480,80h20v20h-20Z" fill="rgb(221, 242, 181)"/><path d="M300,200h20v20h-20Z" fill="rgb(231, 246, 185)"/><path d="M600,80h20v20h-20Z" fill="rgb(228, 245, 184)"/><path d="M300,220h20v20h-20Z" fill="rgb(217, 240, 180)"/><path d="M380,140h20v20h-20Z" fill="rgb(209, 237, 180)"/><path d="M240,140h20v20h-20Z" fill="rgb(211, 238, 180)"/><path d="M40,140h20v20h-20Z" fill="rgb(213, 239, 180)"/><path d="M380,0h20v20h-20Z" fill="rgb(173, 223, 183)"/><path d="M200,220h20v20h-20Z" fill="rgb(236, 248, 188)"/><path d="M520,0h20v20h-20Z" fill="rgb(231, 246, 185)"/><path d="M320,40h20v20h-20Z" fill="rgb(234, 247, 187)"/><path d="M420,20h20v20h-20Z" fill="rgb(171, 222, 183)"/><path d="M100,140h20v20h-20Z" fill="rgb(149, 214, 185)"/><path d="M320,100h20v20h-20Z" fill="rgb(173, 223, 183)"/><path d="M220,120h20v20h-20Z" fill="rgb(234, 247, 187)"/><path d="M360,200h20v20h-20Z" fill="rgb(205, 235, 180)"/><path d="M40,200h20v20h-20Z" fill="rgb(228, 244, 184)"/><path d="M0,160h20v20h-20Z" fill="rgb(224, 243, 182)"/><path d="M220,180h20v20h-20Z" fill="rgb(33, 112, 176)"/><path d="M560,80h20v20h-20Z" fill="rgb(236, 248, 188)"/><path d="M400,140h20v20h-20Z" fill="rgb(232, 246, 186)"/><path d="M140,100h20v20h-20Z" fill="rgb(227, 244, 184)"/><path d="M380,40h20v20h-20Z" fill="rgb(44, 158, 192)"/><path d="M440,40h20v20h-20Z" fill="rgb(236, 248, 188)"/><path d="M440,160h20v20h-20Z" fill="rgb(230, 245, 185)"/><path d="M260,60h20v20h-20Z" fill="rgb(121, 203, 188)"/><path d="M20,60h20v20h-20Z" fill="rgb(221, 242, 181)"/><path d="M300,140h20v20h-20Z" fill="rgb(33, 95, 168)"/><path d="M100,180h20v20h-20Z" fill="rgb(211, 238, 180)"/><path d="M500,100h20v20h-20Z" fill="rgb(167, 221, 183)"/><path d="M100,80h20v20h-20Z" fill="rgb(238, 249, 189)"/><path d="M20,140h20v20h-20Z" fill="rgb(223, 243, 182)"/><path d="M320,120h20v20h-20Z" fill="rgb(225, 243, 183)"/><path d="M500,120h20v20h-20Z" fill="rgb(237, 248, 188)"/><path d="M540,180h20v20h-20Z" fill="rgb(103, 196, 190)"/><path d="M240,120h20v20h-20Z" fill="rgb(217, 240, 180)"/><path d="M60,80h20v20h-20Z" fill="rgb(236, 248, 188)"/><path d="M100,160h20v20h-20Z" fill="rgb(223, 243, 182)"/><path d="M180,160h20v20h-20Z" fill="rgb(174, 223, 182)"/><path d="M540,40h20v20h-20Z" fill="rgb(231, 246, 186)"/><path d="M60,160h20v20h-20Z" fill="rgb(231, 246, 185)"/><path d="M460,100h20v20h-20Z" fill="rgb(34, 133, 185)"/><path d="M140,60h20v20h-20Z" fill="rgb(228, 245, 184)"/><path d="M220,140h20v20h-20Z" fill="rgb(182, 226, 182)"/><path d="M80,20h20v20h-20Z" fill="rgb(106, 197, 190)"/><path d="M480,160h20v20h-20Z" fill="rgb(35, 70, 155)"/><path d="M260,220h20v20h-20Z" fill="rgb(228, 245, 184)"/><path d="M520,60h20v20h-20Z" fill="rgb(41, 151, 190)"/><path d="M200,100h20v20h-20Z" fill="rgb(36, 138, 186)"/><path d="M140,140h20v20h-20Z" fill="rgb(176, 224, 182)"/><path d="M100,200h20v20h-20Z" fill="rgb(237, 248, 188)"/><path d="M280,40h20v20h-20Z" fill="rgb(238, 249, 189)"/><path d="M360,160h20v20h-20Z" fill="rgb(236, 248, 188)"/><path d="M0,200h20v20h-20Z" fill="rgb(237, 248, 188)"/><path d="M20,20h20v20h-20Z" fill="rgb(236, 248, 188)"/><path d="M560,160h20v20h-20Z" fill="rgb(238, 248, 188)"/><path d="M400,100h20v20h-20Z" fill="rgb(236, 248, 188)"/><path d="M560,60h20v20h-20Z" fill="rgb(238, 249, 189)"/><path d="M120,20h20v20h-20Z" fill="rgb(235, 247, 187)"/><path d="M560,20h20v20h-20Z" fill="rgb(235, 247, 187)"/><path d="M460,200h20v20h-20Z" fill="rgb(196, 232, 181)"/><path d="M380,60h20v20h-20Z" fill="rgb(237, 248, 188)"/><path d="M340,60h20v20h-20Z" fill="rgb(228, 245, 184)"/><path d="M580,140h20v20h-20Z" fill="rgb(236, 248, 188)"/><path d="M480,0h20v20h-20Z" fill="rgb(236, 248, 188)"/><path d="M20,220h20v20h-20Z" fill="rgb(230, 245, 185)"/><path d="M360,140h20v20h-20Z" fill="rgb(229, 245, 185)"/><path d="M520,20h20v20h-20Z" fill="rgb(232, 246, 186)"/><path d="M420,0h20v20h-20Z" fill="rgb(210, 237, 180)"/><path d="M460,60h20v20h-20Z" fill="rgb(235, 247, 187)"/><path d="M420,100h20v20h-20Z" fill="rgb(209, 237, 180)"/><path d="M160,80h20v20h-20Z" fill="rgb(220, 242, 181)"/><path d="M600,140h20v20h-20Z" fill="rgb(224, 243, 182)"/><path d="M120,160h20v20h-20Z" fill="rgb(231, 246, 185)"/><path d="M380,20h20v20h-20Z" fill="rgb(231, 246, 186)"/><path d="M80,200h20v20h-20Z" fill="rgb(234, 247, 187)"/><path d="M120,140h20v20h-20Z" fill="rgb(231, 246, 185)"/><path d="M280,60h20v20h-20Z" fill="rgb(238, 248, 188)"/><path d="M160,160h20v20h-20Z" fill="rgb(167, 221, 183)"/><path d="M500,140h20v20h-20Z" fill="rgb(238, 249, 189)"/><path d="M520,160h20v20h-20Z" fill="rgb(221, 242, 181)"/><path d="M0,100h20v20h-20Z" fill="rgb(231, 246, 185)"/><path d="M200,20h20v20h-20Z" fill="rgb(238, 248, 188)"/><path d="M220,40h20v20h-20Z" fill="rgb(230, 245, 185)"/><path d="M20,160h20v20h-20Z" fill="rgb(236, 248, 188)"/><path d="M280,140h20v20h-20Z" fill="rgb(172, 223, 183)"/><path d="M180,80h20v20h-20Z" fill="rgb(231, 246, 185)"/><path d="M300,0h20v20h-20Z" fill="rgb(236, 248, 188)"/><path d="M340,160h20v20h-20Z" fill="rgb(222, 242, 182)"/><path d="M460,0h20v20h-20Z" fill="rgb(235, 247, 187)"/><path d="M280,160h20v20h-20Z" fill="rgb(233, 247, 186)"/><path d="M320,200h20v20h-20Z" fill="rgb(227, 244, 184)"/><path d="M460,220h20v20h-20Z" fill="rgb(232, 246, 186)"/><path d="M600,180h20v20h-20Z" fill="rgb(231, 246, 185)"/><path d="M340,0h20v20h-20Z" fill="rgb(226, 244, 183)"/><path d="M240,80h20v20h-20Z" fill="rgb(234, 247, 187)"/><path d="M200,140h20v20h-20Z" fill="rgb(226, 244, 183)"/><path d="M60,180h20v20h-20Z" fill="rgb(229, 245, 184)"/><path d="M100,40h20v20h-20Z" fill="rgb(221, 242, 181)"/><path d="M440,60h20v20h-20Z" fill="rgb(230, 245, 185)"/><path d="M260,120h20v20h-20Z" fill="rgb(231, 246, 185)"/><path d="M560,120h20v20h-20Z" fill="rgb(192, 230, 181)"/><path d="M0,20h20v20h-20Z" fill="rgb(238, 248, 188)"/><path d="M120,180h20v20h-20Z" fill="rgb(235, 247, 187)"/><path d="M40,20h20v20h-20Z" fill="rgb(233, 247, 186)"/><path d="M60,200h20v20h-20Z" fill="rgb(228, 245, 184)"/><path d="M380,100h20v20h-20Z" fill="rgb(133, 207, 187)"/><path d="M320,220h20v20h-20Z" fill="rgb(237, 248, 188)"/><path d="M580,200h20v20h-20Z" fill="rgb(222, 242, 182)"/><path d="M500,60h20v20h-20Z" fill="rgb(137, 209, 186)"/><path d="M580,40h20v20h-20Z" fill="rgb(238, 249, 188)"/><path d="M380,160h20v20h-20Z" fill="rgb(120, 202, 188)"/><path d="M480,100h20v20h-20Z" fill="rgb(223, 243, 182)"/><path d="M420,220h20v20h-20Z" fill="rgb(197, 232, 181)"/><path d="M580,180h20v20h-20Z" fill="rgb(231, 246, 185)"/><path d="M360,60h20v20h-20Z" fill="rgb(229, 245, 184)"/><path d="M320,180h20v20h-20Z" fill="rgb(229, 245, 185)"/><path d="M280,100h20v20h-20Z" fill="rgb(216, 240, 180)"/><path d="M580,100h20v20h-20Z" fill="rgb(236, 248, 188)"/><path d="M580,0h20v20h-20Z" fill="rgb(234, 247, 187)"/><path d="M420,60h20v20h-20Z" fill="rgb(231, 246, 185)"/><path d="M160,100h20v20h-20Z" fill="rgb(214, 239, 180)"/><path d="M500,80h20v20h-20Z" fill="rgb(200, 233, 181)"/><path d="M280,20h20v20h-20Z" fill="rgb(224, 243, 182)"/><path d="M600,220h20v20h-20Z" fill="rgb(228, 245, 184)"/><path d="M380,80h20v20h-20Z" fill="rgb(239, 249, 189)"/><path d="M460,20h20v20h-20Z" fill="rgb(229, 245, 184)"/><path d="M420,180h20v20h-20Z" fill="rgb(224, 243, 182)"/><path d="M140,220h20v20h-20Z" fill="rgb(230, 246, 185)"/><path d="M360,40h20v20h-20Z" fill="rgb(237, 248, 188)"/><path d="M480,140h20v20h-20Z" fill="rgb(238, 249, 189)"/><path d="M160,220h20v20h-20Z" fill="rgb(237, 248, 188)"/><path d="M0,220h20v20h-20Z" fill="rgb(232, 246, 186)"/><path d="M60,60h20v20h-20Z" fill="rgb(238, 248, 188)"/><path d="M400,160h20v20h-20Z" fill="rgb(232, 246, 186)"/><path d="M40,120h20v20h-20Z" fill="rgb(234, 247, 187)"/><path d="M400,180h20v20h-20Z" fill="rgb(178, 225, 182)"/><path d="M120,220h20v20h-20Z" fill="rgb(237, 248, 188)"/><path d="M40,220h20v20h-20Z" fill="rgb(229, 245, 185)"/><path d="M160,140h20v20h-20Z" fill="rgb(238, 248, 188)"/><path d="M140,200h20v20h-20Z" fill="rgb(231, 246, 186)"/><path d="M580,80h20v20h-20Z" fill="rgb(225, 243, 183)"/><path d="M220,100h20v20h-20Z" fill="rgb(229, 245, 184)"/><path d="M280,120h20v20h-20Z" fill="rgb(238, 249, 189)"/><path d="M420,120h20v20h-20Z" fill="rgb(238, 249, 189)"/><path d="M460,120h20v20h-20Z" fill="rgb(237, 248, 188)"/><path d="M440,220h20v20h-20Z" fill="rgb(237, 248, 188)"/><path d="M440,100h20v20h-20Z" fill="rgb(33, 115, 177)"/><path d="M20,100h20v20h-20Z" fill="rgb(238, 248, 188)"/><path d="M400,200h20v20h-20Z" fill="rgb(238, 248, 188)"/><path d="M180,20h20v20h-20Z" fill="rgb(236, 248, 188)"/><path d="M580,160h20v20h-20Z" fill="rgb(233, 247, 186)"/><path d="M140,120h20v20h-20Z" fill="rgb(236, 248, 188)"/><path d="M80,100h20v20h-20Z" fill="rgb(224, 243, 182)"/><path d="M300,40h20v20h-20Z" fill="rgb(230, 245, 185)"/><path d="M60,0h20v20h-20Z" fill="rgb(235, 248, 187)"/><path d="M240,220h20v20h-20Z" fill="rgb(236, 248, 188)"/><path d="M240,40h20v20h-20Z" fill="rgb(225, 243, 183)"/><path d="M420,80h20v20h-20Z" fill="rgb(235, 247, 187)"/><path d="M20,180h20v20h-20Z" fill="rgb(237, 248, 188)"/><path d="M340,220h20v20h-20Z" fill="rgb(237, 248, 188)"/><path d="M240,0h20v20h-20Z" fill="rgb(237, 248, 188)"/><path d="M140,0h20v20h-20Z" fill="rgb(233, 247, 186)"/><path d="M520,200h20v20h-20Z" fill="rgb(226, 244, 183)"/><path d="M260,20h20v20h-20Z" fill="rgb(239, 249, 189)"/><path d="M520,120h20v20h-20Z" fill="rgb(232, 246, 186)"/><path d="M100,220h20v20h-20Z" fill="rgb(230, 245, 185)"/><path d="M520,80h20v20h-20Z" fill="rgb(235, 247, 187)"/><path d="M180,200h20v20h-20Z" fill="rgb(226, 244, 183)"/><path d="M480,200h20v20h-20Z" fill="rgb(210, 237, 180)"/><path d="M480,20h20v20h-20Z" fill="rgb(231, 246, 185)"/><path d="M80,60h20v20h-20Z" fill="rgb(223, 242, 182)"/><path d="M40,60h20v20h-20Z" fill="rgb(239, 249, 189)"/><path d="M200,0h20v20h-20Z" fill="rgb(236, 248, 188)"/><path d="M120,120h20v20h-20Z" fill="rgb(236, 248, 188)"/><path d="M260,100h20v20h-20Z" fill="rgb(224, 243, 182)"/><path d="M460,40h20v20h-20Z" fill="rgb(237, 248, 188)"/><path d="M380,220h20v20h-20Z" fill="rgb(231, 246, 185)"/><path d="M500,40h20v20h-20Z" fill="rgb(232, 246, 186)"/><path d="M440,140h20v20h-20Z" fill="rgb(232, 246, 186)"/><path d="M480,40h20v20h-20Z" fill="rgb(225, 243, 183)"/><path d="M200,40h20v20h-20Z" fill="rgb(238, 249, 189)"/><path d="M180,0h20v20h-20Z" fill="rgb(228, 244, 184)"/><path d="M420,160h20v20h-20Z" fill="rgb(239, 249, 189)"/><path d="M140,20h20v20h-20Z" fill="rgb(226, 244, 183)"/><path d="M540,220h20v20h-20Z" fill="rgb(196, 232, 181)"/><path d="M540,60h20v20h-20Z" fill="rgb(229, 245, 185)"/><path d="M560,40h20v20h-20Z" fill="rgb(237, 248, 188)"/><path d="M580,220h20v20h-20Z" fill="rgb(237, 248, 188)"/></g><g class="mark-group role-legend" role="graphics-symbol" aria-roledescription="legend" aria-label="Gradient legend titled 'Total distance / km' for fill color with values from 0 to 177"><g transform="translate(638,0)"><path class="background" aria-hidden="true" d="M0,0h105v216h-105Z" pointer-events="none"/><g><g class="mark-group role-legend-entry"><g transform="translate(0,16)"><path class="background" aria-hidden="true" d="M0,0h0v0h0Z" pointer-events="none"/><g><g class="mark-rect role-legend-gradient" pointer-events="none"><path d="M0,0h16v200h-16Z" fill="url(#gradient_0)" stroke="#ddd" stroke-width="0" opacity="1"/></g><g class="mark-text role-legend-label" pointer-events="none"><text text-anchor="start" transform="translate(18,146.6141854074192)" font-family="sans-serif" font-size="10px" fill="#000" opacity="1">50</text><text text-anchor="start" transform="translate(18,90.11532626086489)" font-family="sans-serif" font-size="10px" fill="#000" opacity="1">100</text><text text-anchor="start" transform="translate(18,33.616467114310566)" font-family="sans-serif" font-size="10px" fill="#000" opacity="1">150</text></g></g><path class="foreground" aria-hidden="true" d="" pointer-events="none" display="none"/></g></g><g class="mark-text role-legend-title" pointer-events="none"><text text-anchor="start" transform="translate(0,9)" font-family="sans-serif" font-size="11px" font-weight="bold" fill="#000" opacity="1">Total distance / km</text></g></g><path class="foreground" aria-hidden="true" d="" pointer-events="none" display="none"/></g></g><g class="mark-group role-axis" role="graphics-symbol" aria-roledescription="axis" aria-label="X-axis titled 'Day of month' for a discrete scale with 31 values: 01, 02, 03, 04, 05, ending with 31"><g transform="translate(0.5,240.5)"><path class="background" aria-hidden="true" d="M0,0h0v0h0Z" pointer-events="none"/><g><g class="mark-rule role-axis-tick" pointer-events="none"><line transform="translate(10,0)" x2="0" y2="5" stroke="#888" stroke-width="1" opacity="1"/><line transform="translate(30,0)" x2="0" y2="5" stroke="#888" stroke-width="1" opacity="1"/><line transform="translate(50,0)" x2="0" y2="5" stroke="#888" stroke-width="1" opacity="1"/><line transform="translate(70,0)" x2="0" y2="5" stroke="#888" stroke-width="1" opacity="1"/><line transform="translate(90,0)" x2="0" y2="5" stroke="#888" stroke-width="1" opacity="1"/><line transform="translate(110,0)" x2="0" y2="5" stroke="#888" stroke-width="1" opacity="1"/><line transform="translate(130,0)" x2="0" y2="5" stroke="#888" stroke-width="1" opacity="1"/><line transform="translate(150,0)" x2="0" y2="5" stroke="#888" stroke-width="1" opacity="1"/><line transform="translate(170,0)" x2="0" y2="5" stroke="#888" stroke-width="1" opacity="1"/><line transform="translate(190,0)" x2="0" y2="5" stroke="#888" stroke-width="1" opacity="1"/><line transform="translate(210,0)" x2="0" y2="5" stroke="#888" stroke-width="1" opacity="1"/><line transform="translate(230,0)" x2="0" y2="5" stroke="#888" stroke-width="1" opacity="1"/><line transform="translate(250,0)" x2="0" y2="5" stroke="#888" stroke-width="1" opacity="1"/><line transform="translate(270,0)" x2="0" y2="5" stroke="#888" stroke-width="1" opacity="1"/><line transform="translate(290,0)" x2="0" y2="5" stroke="#888" stroke-width="1" opacity="1"/><line transform="translate(310,0)" x2="0" y2="5" stroke="#888" stroke-width="1" opacity="1"/><line transform="translate(330,0)" x2="0" y2="5" stroke="#888" stroke-width="1" opacity="1"/><line transform="translate(350,0)" x2="0" y2="5" stroke="#888" stroke-width="1" opacity="1"/><line transform="translate(370,0)" x2="0" y2="5" stroke="#888" stroke-width="1" opacity="1"/><line transform="translate(390,0)" x2="0" y2="5" stroke="#888" stroke-width="1" opacity="1"/><line transform="translate(410,0)" x2="0" y2="5" stroke="#888" stroke-width="1" opacity="1"/><line transform="translate(430,0)" x2="0" y2="5" stroke="#888" stroke-width="1" opacity="1"/><line transform="translate(450,0)" x2="0" y2="5" stroke="#888" stroke-width="1" opacity="1"/><line transform="translate(470,0)" x2="0" y2="5" stroke="#888" stroke-width="1" opacity="1"/><line transform="translate(490,0)" x2="0" y2="5" stroke="#888" stroke-width="1" opacity="1"/><line transform="translate(510,0)" x2="0" y2="5" stroke="#888" stroke-width="1" opacity="1"/><line transform="translate(530,0)" x2="0" y2="5" stroke="#888" stroke-width="1" opacity="1"/><line transform="translate(550,0)" x2="0" y2="5" stroke="#888" stroke-width="1" opacity="1"/><line transform="translate(570,0)" x2="0" y2="5" stroke="#888" stroke-width="1" opacity="1"/><line transform="translate(590,0)" x2="0" y2="5" stroke="#888" stroke-width="1" opacity="1"/><line transform="translate(610,0)" x2="0" y2="5" stroke="#888" stroke-width="1" opacity="1"/></g><g class="mark-text role-axis-label" pointer-events="none"><text text-anchor="middle" transform="translate(9.5,15)" font-family="sans-serif" font-size="10px" fill="#000" opacity="1">01</text><text text-anchor="middle" transform="translate(29.5,15)" font-family="sans-serif" font-size="10px" fill="#000" opacity="1">02</text><text text-anchor="middle" transform="translate(49.5,15)" font-family="sans-serif" font-size="10px" fill="#000" opacity="1">03</text><text text-anchor="middle" transform="translate(69.5,15)" font-family="sans-serif" font-size="10px" fill="#000" opacity="1">04</text><text text-anchor="middle" transform="translate(89.5,15)" font-family="sans-serif" font-size="10px" fill="#000" opacity="1">05</text><text text-anchor="middle" transform="translate(109.5,15)" font-family="sans-serif" font-size="10px" fill="#000" opacity="1">06</text><text text-anchor="middle" transform="translate(129.5,15)" font-family="sans-serif" font-size="10px" fill="#000" opacity="1">07</text><text text-anchor="middle" transform="translate(149.5,15)" font-family="sans-serif" font-size="10px" fill="#000" opacity="1">08</text><text text-anchor="middle" transform="translate(169.5,15)" font-family="sans-serif" font-size="10px" fill="#000" opacity="1">09</text><text text-anchor="middle" transform="translate(189.5,15)" font-family="sans-serif" font-size="10px" fill="#000" opacity="1">10</text><text text-anchor="middle" transform="translate(209.5,15)" font-family="sans-serif" font-size="10px" fill="#000" opacity="1">11</text><text text-anchor="middle" transform="translate(229.5,15)" font-family="sans-serif" font-size="10px" fill="#000" opacity="1">12</text><text text-anchor="middle" transform="translate(249.5,15)" font-family="sans-serif" font-size="10px" fill="#000" opacity="1">13</text><text text-anchor="middle" transform="translate(269.5,15)" font-family="sans-serif" font-size="10px" fill="#000" opacity="1">14</text><text text-anchor="middle" transform="translate(289.5,15)" font-family="sans-serif" font-size="10px" fill="#000" opacity="1">15</text><text text-anchor="middle" transform="translate(309.5,15)" font-family="sans-serif" font-size="10px" fill="#000" opacity="1">16</text><text text-anchor="middle" transform="translate(329.5,15)" font-family="sans-serif" font-size="10px" fill="#000" opacity="1">17</text><text text-anchor="middle" transform="translate(349.5,15)" font-family="sans-serif" font-size="10px" fill="#000" opacity="1">18</text><text text-anchor="middle" transform="translate(369.5,15)" font-family="sans-serif" font-size="10px" fill="#000" opacity="1">19</text><text text-anchor="middle" transform="translate(389.5,15)" font-family="sans-serif" font-size="10px" fill="#000" opacity="1">20</text><text text-anchor="middle" transform="translate(409.5,15)" font-family="sans-serif" font-size="10px" fill="#000" opacity="1">21</text><text text-anchor="middle" transform="translate(429.5,15)" font-family="sans-serif" font-size="10px" fill="#000" opacity="1">22</text><text text-anchor="middle" transform="translate(449.5,15)" font-family="sans-serif" font-size="10px" fill="#000" opacity="1">23</text><text text-anchor="middle" transform="translate(469.5,15)" font-family="sans-serif" font-size="10px" fill="#000" opacity="1">24</text><text text-anchor="middle" transform="translate(489.5,15)" font-family="sans-serif" font-size="10px" fill="#000" opacity="1">25</text><text text-anchor="middle" transform="translate(509.5,15)" font-family="sans-serif" font-size="10px" fill="#000" opacity="1">26</text><text text-anchor="middle" transform="translate(529.5,15)" font-family="sans-serif" font-size="10px" fill="#000" opacity="1">27</text><text text-anchor="middle" transform="translate(549.5,15)" font-family="sans-serif" font-size="10px" fill="#000" opacity="1">28</text><text text-anchor="middle" transform="translate(569.5,15)" font-family="sans-serif" font-size="10px" fill="#000" opacity="1">29</text><text text-anchor="middle" transform="translate(589.5,15)" font-family="sans-serif" font-size="10px" fill="#000" opacity="1">30</text><text text-anchor="middle" transform="translate(609.5,15)" font-family="sans-serif" font-size="10px" fill="#000" opacity="1">31</text></g><g class="mark-rule role-axis-domain" pointer-events="none"><line transform="translate(0,0)" x2="620" y2="0" stroke="#888" stroke-width="1" opacity="1"/></g><g class="mark-text role-axis-title" pointer-events="none"><text text-anchor="middle" transform="translate(310,30)" font-family="sans-serif" font-size="11px" font-weight="bold" fill="#000" opacity="1">Day of month</text></g></g><path class="foreground" aria-hidden="true" d="" pointer-events="none" display="none"/></g></g><g class="mark-group role-axis" role="graphics-symbol" aria-roledescription="axis" aria-label="Y-axis titled 'Month' for a discrete scale with 12 values: January, February, March, April, May, ending with December"><g transform="translate(0.5,0.5)"><path class="background" aria-hidden="true" d="M0,0h0v0h0Z" pointer-events="none"/><g><g class="mark-rule role-axis-tick" pointer-events="none"><line transform="translate(0,10)" x2="-5" y2="0" stroke="#888" stroke-width="1" opacity="1"/><line transform="translate(0,30)" x2="-5" y2="0" stroke="#888" stroke-width="1" opacity="1"/><line transform="translate(0,50)" x2="-5" y2="0" stroke="#888" stroke-width="1" opacity="1"/><line transform="translate(0,70)" x2="-5" y2="0" stroke="#888" stroke-width="1" opacity="1"/><line transform="translate(0,90)" x2="-5" y2="0" stroke="#888" stroke-width="1" opacity="1"/><line transform="translate(0,110)" x2="-5" y2="0" stroke="#888" stroke-width="1" opacity="1"/><line transform="translate(0,130)" x2="-5" y2="0" stroke="#888" stroke-width="1" opacity="1"/><line transform="translate(0,150)" x2="-5" y2="0" stroke="#888" stroke-width="1" opacity="1"/><line transform="translate(0,170)" x2="-5" y2="0" stroke="#888" stroke-width="1" opacity="1"/><line transform="translate(0,190)" x2="-5" y2="0" stroke="#888" stroke-width="1" opacity="1"/><line transform="translate(0,210)" x2="-5" y2="0" stroke="#888" stroke-width="1" opacity="1"/><line transform="translate(0,230)" x2="-5" y2="0" stroke="#888" stroke-width="1" opacity="1"/></g><g class="mark-text role-axis-label" pointer-events="none"><text text-anchor="end" transform="translate(-7,12.5)" font-family="sans-serif" font-size="10px" fill="#000" opacity="1">Jan</text><text text-anchor="end" transform="translate(-7,32.5)" font-family="sans-serif" font-size="10px" fill="#000" opacity="1">Feb</text><text text-anchor="end" transform="translate(-7,52.5)" font-family="sans-serif" font-size="10px" fill="#000" opacity="1">Mar</text><text text-anchor="end" transform="translate(-7,72.5)" font-family="sans-serif" font-size="10px" fill="#000" opacity="1">Apr</text><text text-anchor="end" transform="translate(-7,92.5)" font-family="sans-serif" font-size="10px" fill="#000" opacity="1">May</text><text text-anchor="end" transform="translate(-7,112.5)" font-family="sans-serif" font-size="10px" fill="#000" opacity="1">Jun</text><text text-anchor="end" transform="translate(-7,132.5)" font-family="sans-serif" font-size="10px" fill="#000" opacity="1">Jul</text><text text-anchor="end" transform="translate(-7,152.5)" font-family="sans-serif" font-size="10px" fill="#000" opacity="1">Aug</text><text text-anchor="end" transform="translate(-7,172.5)" font-family="sans-serif" font-size="10px" fill="#000" opacity="1">Sep</text><text text-anchor="end" transform="translate(-7,192.5)" font-family="sans-serif" font-size="10px" fill="#000" opacity="1">Oct</text><text text-anchor="end" transform="translate(-7,212.5)" font-family="sans-serif" font-size="10px" fill="#000" opacity="1">Nov</text><text text-anchor="end" transform="translate(-7,232.5)" font-family="sans-serif" font-size="10px" fill="#000" opacity="1">Dec</text></g><g class="mark-rule role-axis-domain" pointer-events="none"><line transform="translate(0,0)" x2="0" y2="240" stroke="#888" stroke-width="1" opacity="1"/></g><g class="mark-text role-axis-title" pointer-events="none"><text text-anchor="middle" transform="translate(-30.766666412353516,120) rotate(-90) translate(0,-2)" font-family="sans-serif" font-size="11px" font-weight="bold" fill="#000" opacity="1">Month</text></g></g><path class="foreground" aria-hidden="true" d="" pointer-events="none" display="none"/></g></g></g><path class="foreground" aria-hidden="true" d="" display="none"/></g></g></g><defs><linearGradient id="gradient_0" x1="0" x2="0" y1="1" y2="0"><stop offset="0" stop-color="rgb(239, 249, 189)"/><stop offset="0.0559336363766867" stop-color="rgb(228, 245, 184)"/><stop offset="0.11243249552324103" stop-color="rgb(215, 240, 180)"/><stop offset="0.16893135466979536" stop-color="rgb(198, 233, 181)"/><stop offset="0.22543021381634967" stop-color="rgb(179, 225, 182)"/><stop offset="0.281929072962904" stop-color="rgb(155, 216, 184)"/><stop offset="0.3384279321094583" stop-color="rgb(131, 207, 187)"/><stop offset="0.3949267912560126" stop-color="rgb(107, 198, 190)"/><stop offset="0.45142565040256694" stop-color="rgb(86, 188, 192)"/><stop offset="0.5079245095491213" stop-color="rgb(67, 178, 194)"/><stop offset="0.5644233686956756" stop-color="rgb(53, 166, 193)"/><stop offset="0.6209222278422298" stop-color="rgb(42, 152, 190)"/><stop offset="0.6774210869887842" stop-color="rgb(35, 136, 186)"/><stop offset="0.7339199461353385" stop-color="rgb(33, 119, 179)"/><stop offset="0.7904188052818929" stop-color="rgb(33, 102, 171)"/><stop offset="0.8469176644284472" stop-color="rgb(34, 86, 163)"/><stop offset="0.9034165235750015" stop-color="rgb(35, 70, 155)"/><stop offset="0.9599153827215559" stop-color="rgb(31, 58, 142)"/><stop offset="1" stop-color="rgb(28, 49, 133)"/></linearGradient></defs></svg>