<svg xmlns="http://www.w3.org/2000/svg" xmlns:xlink="http://www.w3.org/1999/xlink" version="1.1" class="marks" width="551" height="347" viewBox="0 0 551 347"><rect width="551" height="347" fill="white"/><g fill="none" stroke-miterlimit="10" transform="translate(41,10)"><g class="mark-group role-frame root" role="graphics-object" aria-roledescription="group mark container"><g transform="translate(0,0)"><path class="background" aria-hidden="true" d="M0.5,0.5h500v300h-500Z" stroke="#ddd"/><g><g class="mark-group role-axis" aria-hidden="true"><g transform="translate(0.5,300.5)"><path class="background" aria-hidden="true" d="M0,0h0v0h0Z" pointer-events="none"/><g><g class="mark-rule role-axis-grid" pointer-events="none"><line transform="translate(13,-300)" x2="0" y2="300" stroke="#ddd" stroke-width="1" opacity="1"/><line transform="translate(43,-300)" x2="0" y2="300" stroke="#ddd" stroke-width="1" opacity="1"/><line transform="translate(73,-300)" x2="0" y2="300" stroke="#ddd" stroke-width="1" opacity="1"/><line transform="translate(103,-300)" x2="0" y2="300" stroke="#ddd" stroke-width="1" opacity="1"/><line transform="translate(133,-300)" x2="0" y2="300" stroke="#ddd" stroke-width="1" opacity="1"/><line transform="translate(163,-300)" x2="0" y2="300" stroke="#ddd" stroke-width="1" opacity="1"/><line transform="translate(193,-300)" x2="0" y2="300" stroke="#ddd" stroke-width="1" opacity="1"/><line transform="translate(223,-300)" x2="0" y2="300" stroke="#ddd" stroke-width="1" opacity="1"/><line transform="translate(253,-300)" x2="0" y2="300" stroke="#ddd" stroke-width="1" opacity="1"/><line transform="translate(282,-300)" x2="0" y2="300" stroke="#ddd" stroke-width="1" opacity="1"/><line transform="translate(312,-300)" x2="0" y2="300" stroke="#ddd" stroke-width="1" opacity="1"/><line transform="translate(342,-300)" x2="0" y2="300" stroke="#ddd" stroke-width="1" opacity="1"/><line transform="translate(372,-300)" x2="0" y2="300" stroke="#ddd" stroke-width="1" opacity="1"/><line transform="translate(402,-300)" x2="0" y2="300" stroke="#ddd" stroke-width="1" opacity="1"/><line transform="translate(432,-300)" x2="0" y2="300" stroke="#ddd" stroke-width="1" opacity="1"/><line transform="translate(462,-300)" x2="0" y2="300" stroke="#ddd" stroke-width="1" opacity="1"/><line transform="translate(492,-300)" x2="0" y2="300" stroke="#ddd" stroke-width="1" opacity="1"/></g></g><path class="foreground" aria-hidden="true" d="" pointer-events="none" display="none"/></g></g><g class="mark-group role-axis" aria-hidden="true"><g transform="translate(0.5,0.5)"><path class="background" aria-hidden="true" d="M0,0h0v0h0Z" pointer-events="none"/><g><g class="mark-rule role-axis-grid" pointer-events="none"><line transform="translate(0,300)" x2="500" y2="0" stroke="#ddd" stroke-width="1" opacity="1"/><line transform="translate(0,250)" x2="500" y2="0" stroke="#ddd" stroke-width="1" opacity="1"/><line transform="translate(0,200)" x2="500" y2="0" stroke="#ddd" stroke-width="1" opacity="1"/><line transform="translate(0,150)" x2="500" y2="0" stroke="#ddd" stroke-width="1" opacity="1"/><line transform="translate(0,100)" x2="500" y2="0" stroke="#ddd" stroke-width="1" opacity="1"/><line transform="translate(0,50)" x2="500" y2="0" stroke="#ddd" stroke-width="1" opacity="1"/><line transform="translate(0,0)" x2="500" y2="0" stroke="#ddd" stroke-width="1" opacity="1"/></g></g><path class="foreground" aria-hidden="true" d="" pointer-events="none" display="none"/></g></g><g class="mark-group role-axis" role="graphics-symbol" aria-roledescription="axis" aria-label="X-axis titled 'Time' for a time scale with values from Wednesday, 26 June 2024, 10:38:23 AM to Wednesday, 26 June 2024, 2:49:03 PM"><g transform="translate(0.5,300.5)"><path class="background" aria-hidden="true" d="M0,0h0v0h0Z" pointer-events="none"/><g><g class="mark-rule role-axis-tick" pointer-events="none"><line transform="translate(13,0)" x2="0" y2="5" stroke="#888" stroke-width="1" opacity="1"/><line transform="translate(43,0)" x2="0" y2="5" stroke="#888" stroke-width="1" opacity="1"/><line transform="translate(73,0)" x2="0" y2="5" stroke="#888" stroke-width="1" opacity="1"/><line transform="translate(103,0)" x2="0" y2="5" stroke="#888" stroke-width="1" opacity="1"/><line transform="translate(133,0)" x2="0" y2="5" stroke="#888" stroke-width="1" opacity="1"/><line transform="translate(163,0)" x2="0" y2="5" stroke="#888" stroke-width="1" opacity="1"/><line transform="translate(193,0)" x2="0" y2="5" stroke="#888" stroke-width="1" opacity="1"/><line transform="translate(223,0)" x2="0" y2="5" stroke="#888" stroke-width="1" opacity="1"/><line transform="translate(253,0)" x2="0" y2="5" stroke="#888" stroke-width="1" opacity="1"/><line transform="translate(282,0)" x2="0" y2="5" stroke="#888" stroke-width="1" opacity="1"/><line transform="translate(312,0)" x2="0" y2="5" stroke="#888" stroke-width="1" opacity="1"/><line transform="translate(342,0)" x2="0" y2="5" stroke="#888" stroke-width="1" opacity="1"/><line transform="translate(372,0)" x2="0" y2="5" stroke="#888" stroke-width="1" opacity="1"/><line transform="translate(402,0)" x2="0" y2="5" stroke="#888" stroke-width="1" opacity="1"/><line transform="translate(432,0)" x2="0" y2="5" stroke="#888" stroke-width="1" opacity="1"/><line transform="translate(462,0)" x2="0" y2="5" stroke="#888" stroke-width="1" opacity="1"/><line transform="translate(492,0)" x2="0" y2="5" stroke="#888" stroke-width="1" opacity="1"/></g><g class="mark-text role-axis-label" pointer-events="none"><text text-anchor="middle" transform="translate(13.198138297872342,15)" font-family="sans-serif" font-size="10px" fill="#000" opacity="1">10:45</text><text text-anchor="middle" transform="translate(43.118351063829785,15)" font-family="sans-serif" font-size="10px" fill="#000" opacity="1">11 AM</text><text text-anchor="middle" transform="translate(73.03856382978724,15)" font-family="sans-serif" font-size="10px" fill="#000" opacity="1">11:15</text><text text-anchor="middle" transform="translate(102.95877659574468,15)" font-family="sans-serif" font-size="10px" fill="#000" opacity="1">11:30</text><text text-anchor="middle" transform="translate(132.8789893617021,15)" font-family="sans-serif" font-size="10px" fill="#000" opacity="1">11:45</text><text text-anchor="middle" transform="translate(162.79920212765958,15)" font-family="sans-serif" font-size="10px" fill="#000" opacity="1">12 PM</text><text text-anchor="middle" transform="translate(192.71941489361703,15)" font-family="sans-serif" font-size="10px" fill="#000" opacity="1">12:15</text><text text-anchor="middle" transform="translate(222.63962765957444,15)" font-family="sans-serif" font-size="10px" fill="#000" opacity="1">12:30</text><text text-anchor="middle" transform="translate(252.55984042553192,15)" font-family="sans-serif" font-size="10px" fill="#000" opacity="1">12:45</text><text text-anchor="middle" transform="translate(282.4800531914894,15)" font-family="sans-serif" font-size="10px" fill="#000" opacity="1">01 PM</text><text text-anchor="middle" transform="translate(312.4002659574468,15)" font-family="sans-serif" font-size="10px" fill="#000" opacity="1">01:15</text><text text-anchor="middle" transform="translate(342.3204787234043,15)" font-family="sans-serif" font-size="10px" fill="#000" opacity="1">01:30</text><text text-anchor="middle" transform="translate(372.24069148936167,15)" font-family="sans-serif" font-size="10px" fill="#000" opacity="1">01:45</text><text text-anchor="middle" transform="translate(402.16090425531917,15)" font-family="sans-serif" font-size="10px" fill="#000" opacity="1">02 PM</text><text text-anchor="middle" transform="translate(432.0811170212766,15)" font-family="sans-serif" font-size="10px" fill="#000" opacity="1">02:15</text><text text-anchor="middle" transform="translate(462.001329787234,15)" font-family="sans-serif" font-size="10px" fill="#000" opacity="1">02:30</text><text text-anchor="middle" transform="translate(491.9215425531915,15)" font-family="sans-serif" font-size="10px" fill="#000" opacity="1">02:45</text></g><g class="mark-rule role-axis-domain" pointer-events="none"><line transform="translate(0,0)" x2="500" y2="0" stroke="#888" stroke-width="1" opacity="1"/></g><g class="mark-text role-axis-title" pointer-events="none"><text text-anchor="middle" transform="translate(250,30)" font-family="sans-serif" font-size="11px" font-weight="bold" fill="#000" opacity="1">Time</text></g></g><path class="foreground" aria-hidden="true" d="" pointer-events="none" display="none"/></g></g><g class="mark-group role-axis" role="graphics-symbol" aria-roledescription="axis" aria-label="Y-axis titled 'Elevation gain / m' for a linear scale with values from 0.0 to 3.0"><g transform="translate(0.5,0.5)"><path class="background" aria-hidden="true" d="M0,0h0v0h0Z" pointer-events="none"/><g><g class="mark-rule role-axis-tick" pointer-events="none"><line transform="translate(0,300)" x2="-5" y2="0" stroke="#888" stroke-width="1" opacity="1"/><line transform="translate(0,250)" x2="-5" y2="0" stroke="#888" stroke-width="1" opacity="1"/><line transform="translate(0,200)" x2="-5" y2="0" stroke="#888" stroke-width="1" opacity="1"/><line transform="translate(0,150)" x2="-5" y2="0" stroke="#888" stroke-width="1" opacity="1"/><line transform="translate(0,100)" x2="-5" y2="0" stroke="#888" stroke-width="1" opacity="1"/><line transform="translate(0,50)" x2="-5" y2="0" stroke="#888" stroke-width="1" opacity="1"/><line transform="translate(0,0)" x2="-5" y2="0" stroke="#888" stroke-width="1" opacity="1"/></g><g class="mark-text role-axis-label" pointer-events="none"><text text-anchor="end" transform="translate(-7,303)" font-family="sans-serif" font-size="10px" fill="#000" opacity="1">0.0</text><text text-anchor="end" transform="translate(-7,253)" font-family="sans-serif" font-size="10px" fill="#000" opacity="1">0.5</text><text text-anchor="end" transform="translate(-7,203.00000000000003)" font-family="sans-serif" font-size="10px" fill="#000" opacity="1">1.0</text><text text-anchor="end" transform="translate(-7,153)" font-family="sans-serif" font-size="10px" fill="#000" opacity="1">1.5</text><text text-anchor="end" transform="translate(-7,103.00000000000001)" font-family="sans-serif" font-size="10px" fill="#000" opacity="1">2.0</text><text text-anchor="end" transform="translate(-7,52.999999999999986)" font-family="sans-serif" font-size="10px" fill="#000" opacity="1">2.5</text><text text-anchor="end" transform="translate(-7,3)" font-family="sans-serif" font-size="10px" fill="#000" opacity="1">3.0</text></g><g class="mark-rule role-axis-domain" pointer-events="none"><line transform="translate(0,300)" x2="0" y2="-300" stroke="#888" stroke-width="1" opacity="1"/></g><g class="mark-text role-axis-title" pointer-events="none"><text text-anchor="middle" transform="translate(-24.9013671875,150) rotate(-90) translate(0,-2)" font-family="sans-serif" font-size="11px" font-weight="bold" fill="#000" opacity="1">Elevation gain / m</text></g></g><path class="foreground" aria-hidden="true" d="" pointer-events="none" display="none"/></g></g><g class="mark-line role-mark marks" role="graphics-symbol" aria-roledescription="line mark container"><path d="M0.133,300L0.266,300L0.399,280L0.532,300L0.665,300L0.798,300L0.931,300L1.064,260L1.197,280L1.33,300L1.463,300L1.596,300L1.729,220L1.862,300L1.995,300L2.128,260L2.261,300L2.394,260L2.527,280L2.66,240L2.793,300L2.926,300L3.059,300L3.191,200L3.324,300L3.457,240L3.59,300L3.723,260L3.856,300L3.989,280L4.122,240L4.255,240L4.388,300L4.521,300L4.654,260L4.787,260L4.92,260L5.053,300L5.186,300L5.319,240L5.452,300L5.585,260L5.718,280L5.851,260L5.984,280L6.117,300L6.25,240L6.383,260L6.516,280L6.649,300L6.782,300L6.915,300L7.048,300L7.181,260L7.314,300L7.447,300L7.58,300L7.713,280L7.846,300L7.979,300L8.112,300L8.245,200L8.378,260L8.511,280L8.644,280L8.777,300L8.91,300L9.043,300L9.176,280L9.309,200L9.441,300L9.574,300L9.707,300L9.84,240L9.973,260L10.106,280L10.239,300L10.372,300L10.505,200L10.638,260L10.771,300L10.904,280L11.037,260L11.17,300L11.303,260L11.436,300L11.569,220L11.702,300L11.835,260L11.968,300L12.101,260L12.234,260L12.367,280L12.5,220L12.633,300L12.766,300L12.899,260L13.032,280L13.165,180L13.298,300L13.431,300L13.564,180L13.697,260L13.83,280L13.963,300L14.096,240L14.229,240L14.362,300L14.495,200L14.628,240L14.761,300L14.894,300L15.027,200L15.16,300L15.293,300L15.426,280L15.559,240L15.691,200L15.824,280L15.957,300L16.09,280L16.223,240L16.356,300L16.489,300L16.622,300L16.755,300L16.888,300L17.021,280L17.154,260L17.287,300L17.42,300L17.553,300L17.686,220L17.819,300L17.952,300L18.085,300L18.218,260L18.351,300L18.484,160L18.617,300L18.75,240L18.883,300L19.016,300L19.149,300L19.282,300L19.415,220L19.548,280L19.681,300L19.814,300L19.947,280L20.08,300L20.213,300L20.346,200L20.479,300L20.612,300L20.745,300L20.878,300L21.011,260L21.144,300L21.277,300L21.41,300L21.543,160L21.676,300L21.809,300L21.941,300L22.074,240L22.207,300L22.34,240L22.473,280L22.606,300L22.739,300L22.872,300L23.005,300L23.138,200L23.271,300L23.404,300L23.537,300L23.67,300L23.803,160L23.936,300L24.069,300L24.202,300L24.335,300L24.468,220L24.601,280L24.734,280L24.867,260L25,300L25.133,300L25.266,300L25.399,280L25.532,300L25.665,220L25.798,260L25.931,280L26.064,300L26.197,300L26.33,300L26.463,280L26.596,300L26.729,240L26.862,300L26.995,300L27.128,300L27.261,300L27.394,300L27.527,300L27.66,300L27.793,220L27.926,300L28.059,280L28.191,300L28.324,260L28.457,300L28.59,300L28.723,300L28.856,300L28.989,300L29.122,300L29.255,300L29.388,220L29.654,300L29.787,300L29.92,240L30.053,280L30.186,300L30.319,240L30.452,300L30.585,300L30.718,280L30.851,220L30.984,300L31.117,280L31.25,220L31.383,280L31.516,300L31.649,260L31.782,260L31.915,260L32.048,220L32.181,300L32.314,240L32.447,260L32.58,300L32.713,240L32.846,300L32.979,300L33.112,300L33.245,300L33.378,300L33.511,200L33.644,300L33.777,300L33.91,240L34.043,260L34.176,260L34.309,240L34.441,300L34.574,260L34.707,140L34.84,220L34.973,300L35.106,280L35.239,260L35.372,200L35.505,300L35.638,300L35.771,220L35.904,300L36.037,300L36.17,300L36.303,220L36.436,220L36.569,300L36.702,300L36.835,300L36.968,300L37.101,300L37.234,300L37.367,280L37.5,300L37.633,300L37.766,300L37.899,240L38.032,300L38.165,300L38.298,160L38.431,300L38.564,280L38.697,300L38.83,300L38.963,280L39.096,300L39.229,280L39.362,280L39.495,300L39.628,260L39.761,160L39.894,300L40.027,300L40.16,300L40.293,160L40.426,300L40.559,280L40.691,300L40.824,300L40.957,300L41.09,200L41.223,300L41.356,300L41.489,300L41.622,140L41.755,300L41.888,120L42.021,200L42.154,240L42.287,180L42.42,300L42.553,300L42.686,200L42.819,280L42.952,300L43.085,300L43.218,280L43.351,300L43.484,300L43.617,280L43.75,300L43.883,300L44.016,300L44.149,240L44.282,300L44.415,300L44.548,280L44.681,220L44.814,300L44.947,300L45.08,260L45.213,300L45.346,260L45.479,260L45.612,260L45.745,300L45.878,300L46.011,260L46.144,300L46.277,300L46.41,300L46.543,200L46.676,300L46.809,300L46.941,300L47.074,300L47.207,300L47.34,240L47.473,300L47.606,300L47.739,300L47.872,300L48.005,140L48.138,300L48.271,300L48.404,300L48.537,300L48.67,300L48.803,280L48.936,300L49.069,260L49.202,300L49.335,300L49.468,300L49.601,300L49.734,260L49.867,300L50,300L50.133,300L50.266,200L50.399,300L50.532,280L50.665,280L50.798,300L50.931,240L51.064,300L51.197,300L51.33,240L51.463,300L51.596,300L51.729,280L51.862,240L51.995,300L52.128,300L52.261,300L52.394,220L52.527,300L52.66,300L52.793,300L52.926,300L53.059,300L53.191,220L53.324,300L53.457,220L53.59,300L53.723,260L53.856,300L53.989,300L54.122,260L54.255,200L54.388,300L54.521,300L54.654,300L54.787,300L54.92,280L55.053,300L55.186,260L55.319,240L55.452,300L55.585,300L55.718,200L55.851,300L55.984,300L56.117,300L56.25,300L56.383,260L56.516,280L56.649,300L56.782,300L56.915,260L57.048,280L57.181,200L57.314,300L57.447,180L57.58,200L57.713,260L57.846,280L57.979,280L58.112,240L58.245,300L58.378,240L58.511,300L58.644,260L58.777,300L58.91,300L59.043,300L59.176,300L59.309,300L59.441,240L59.574,300L59.707,300L59.84,280L59.973,260L60.106,300L60.239,200L60.372,300L60.505,260L60.638,300L60.771,300L60.904,300L61.037,220L61.17,300L61.303,260L61.436,220L61.569,300L61.702,120L61.835,300L61.968,300L62.101,300L62.234,240L62.367,240L62.5,300L62.633,280L62.766,300L62.899,220L63.032,300L63.165,300L63.298,300L63.431,260L63.564,300L63.697,280L63.83,260L63.963,300L64.096,260L64.229,300L64.362,300L64.495,260L64.628,300L64.761,300L64.894,260L65.027,300L65.16,300L65.293,260L65.426,300L65.559,280L65.691,240L65.824,220L65.957,300L66.09,300L66.223,300L66.356,300L66.489,240L66.622,300L66.755,300L66.888,240L67.021,300L67.154,300L67.287,200L67.42,300L67.553,300L67.686,260L67.819,300L67.952,300L68.085,300L68.218,300L68.351,300L68.484,240L68.617,300L68.75,300L68.883,240L69.016,280L69.149,300L69.282,300L69.415,300L69.548,300L69.681,160L69.814,300L69.947,240L70.08,240L70.213,300L70.346,300L70.479,220L70.612,300L70.745,260L70.878,300L71.011,220L71.144,280L71.277,280L71.41,280L71.543,220L71.676,300L71.809,300L71.941,300L72.074,300L72.207,300L72.34,300L72.473,300L72.606,260L72.739,300L72.872,260L73.005,300L73.138,300L73.271,260L73.404,260L73.537,300L73.67,260L73.803,240L73.936,300L74.069,300L74.202,220L74.335,300L74.468,300L74.601,240L74.734,220L74.867,260L75,300L75.133,300L75.266,260L75.399,300L75.532,240L75.665,220L75.798,300L75.931,220L76.064,280L76.197,300L76.33,300L76.463,300L76.596,300L76.729,300L76.862,220L76.995,300L77.128,260L77.261,240L77.394,300L77.527,260L77.66,300L77.793,300L77.926,240L78.059,300L78.191,280L78.324,280L78.457,300L78.59,240L78.723,200L78.856,300L78.989,280L79.122,300L79.255,300L79.388,240L79.521,260L79.654,280L79.787,300L79.92,300L80.053,300L80.186,260L80.319,300L80.452,240L80.585,300L80.718,300L80.851,300L80.984,260L81.117,300L81.25,300L81.383,300L81.516,300L81.649,300L81.782,240L81.915,260L82.048,300L82.181,300L82.314,260L82.447,300L82.58,220L82.713,300L82.846,300L82.979,260L83.112,300L83.245,260L83.378,300L83.511,300L83.644,280L83.777,300L83.91,300L84.043,300L84.176,300L84.309,220L84.441,260L84.574,300L84.707,280L84.84,260L84.973,260L85.106,300L85.239,300L85.372,280L85.505,300L85.638,280L85.771,300L85.904,300L86.037,300L86.17,300L86.303,300L86.436,300L86.569,220L86.702,300L86.835,300L86.968,260L87.101,300L87.234,280L87.367,240L87.5,240L87.633,300L87.766,280L87.899,300L88.032,300L88.165,300L88.298,260L88.431,300L88.564,240L88.697,280L88.83,260L88.963,300L89.096,300L89.229,280L89.362,300L89.495,260L89.628,300L89.761,300L89.894,300L90.027,260L90.16,300L90.293,280L90.426,300L90.559,300L90.691,300L90.824,300L90.957,260L91.09,300L91.223,300L91.356,260L91.489,300L91.622,300L91.755,280L91.888,300L92.021,300L92.154,260L92.287,300L92.42,280L92.553,300L92.686,280L92.819,280L92.952,240L93.085,300L93.218,300L93.351,300L93.484,240L93.617,300L93.75,300L93.883,280L94.016,300L94.149,300L94.282,300L94.415,240L94.548,300L94.681,300L94.814,280L94.947,300L95.08,260L95.213,300L95.346,300L95.479,300L95.612,300L95.745,300L95.878,300L96.011,260L96.144,240L96.277,300L96.41,300L96.543,300L96.676,300L96.809,280L96.941,240L97.074,260L97.207,300L97.34,300L97.473,300L97.606,300L97.739,260L97.872,300L98.005,300L98.138,300L98.271,260L98.404,300L98.537,300L98.67,280L98.803,260L98.936,300L99.069,240L99.202,300L99.335,300L99.468,240L99.601,300L99.734,300L99.867,280L100,280L100.133,300L100.266,280L100.399,280L100.532,300L100.665,300L100.798,300L100.931,300L101.064,300L101.197,300L101.33,240L101.463,300L101.596,280L101.729,300L101.862,260L101.995,260L102.128,300L102.261,300L102.394,300L102.527,300L102.66,300L102.793,280L102.926,300L103.059,300L103.191,280L103.324,300L103.457,280L103.59,300L103.723,280L103.856,300L103.989,300L104.122,300L104.255,280L104.388,300L104.521,280L104.654,300L104.787,300L104.92,300L105.053,300L105.186,260L105.319,260L105.452,300L105.585,300L105.718,280L105.851,300L105.984,300L106.117,300L106.25,300L106.383,300L106.516,300L106.649,300L106.782,300L106.915,300L107.048,220L107.181,300L107.314,300L107.447,300L107.58,300L107.713,280L107.846,280L107.979,280L108.112,300L108.245,300L108.378,280L108.511,300L108.644,300L108.777,260L108.91,280L109.043,300L109.176,300L109.309,240L109.441,300L109.574,300L109.707,300L109.84,300L109.973,260L110.106,300L110.239,280L110.372,240L110.505,260L110.638,220L110.771,300L110.904,300L111.037,280L111.17,260L111.303,280L111.436,300L111.569,300L111.702,300L111.835,300L111.968,260L112.101,180L112.234,240L112.367,200L112.5,200L112.633,200L112.766,200L112.899,220L113.032,220L113.165,240L113.298,280L113.431,180L113.564,260L113.697,280L113.83,180L113.963,220L114.096,220L114.229,300L114.362,300L114.495,300L114.628,300L114.761,300L114.894,180L115.027,260L115.16,20L115.293,140L115.426,100L115.559,200L115.691,280L115.824,180L115.957,180L116.09,280L116.223,300L116.356,200L116.489,240L116.622,300L116.755,300L116.888,300L117.021,280L117.154,280L117.287,300L117.42,300L117.553,300L117.686,240L117.819,300L117.952,280L118.085,240L118.218,240L118.351,240L118.484,220L118.617,200L118.75,300L118.883,200L119.016,260L119.149,260L119.282,280L119.415,300L119.548,300L119.681,300L119.814,300L119.947,300L120.08,280L120.213,300L120.346,300L120.479,240L120.612,200L120.745,260L120.878,280L121.011,300L121.144,260L121.277,280L121.41,300L121.543,180L121.676,240L121.809,260L121.941,180L122.074,200L122.207,180L122.34,140L122.473,220L122.606,200L122.739,260L122.872,300L123.005,280L123.138,240L123.271,300L123.404,260L123.537,220L123.67,260L123.803,220L123.936,240L124.069,300L124.202,220L124.335,300L124.468,300L124.601,260L124.734,300L124.867,220L125,300L125.133,260L125.266,280L125.399,240L125.532,300L125.665,300L125.798,280L125.931,300L126.064,300L126.197,300L126.33,300L126.463,260L126.596,280L126.729,300L126.862,260L126.995,300L127.128,300L127.261,220L127.394,300L127.527,260L127.66,300L127.793,240L127.926,300L128.059,300L128.191,300L128.324,240L128.457,300L128.59,280L128.723,220L128.856,300L128.989,300L129.122,300L129.255,300L129.388,300L129.521,300L129.654,300L129.787,220L129.92,260L130.053,300L130.186,300L130.319,300L130.452,300L130.585,300L130.718,300L130.851,300L130.984,300L131.117,280L131.25,300L131.383,260L131.516,300L131.649,300L131.782,300L131.915,300L132.048,280L132.181,300L132.314,300L132.447,300L132.58,300L132.713,300L132.846,300L132.979,240L133.112,300L133.245,240L133.378,300L133.511,300L133.644,300L133.777,300L133.91,300L134.043,300L134.176,300L134.309,300L134.441,300L134.574,180L134.707,300L134.84,200L134.973,260L135.106,220L135.239,300L135.372,260L135.505,260L135.638,180L135.771,80L135.904,180L136.037,180L136.17,200L136.303,200L136.436,300L136.569,220L136.702,260L136.835,300L136.968,200L137.101,220L137.234,240L137.367,240L137.5,300L137.633,260L137.766,300L137.899,300L138.032,300L138.165,300L138.298,300L138.431,300L138.564,280L138.697,300L138.83,260L138.963,300L139.096,300L139.229,260L139.362,260L139.495,200L139.628,240L139.761,180L139.894,280L140.027,180L140.16,240L140.293,260L140.426,260L140.559,220L140.691,220L140.824,300L140.957,200L141.09,220L141.223,180L141.356,200L141.489,260L141.622,180L141.755,200L141.888,180L142.021,240L142.154,280L142.287,280L142.42,240L142.553,200L142.686,220L142.819,240L142.952,280L143.085,140L143.218,300L143.351,200L143.484,260L143.617,240L143.75,200L143.883,220L144.016,280L144.149,240L144.282,280L144.415,220L144.548,260L144.681,220L144.814,160L144.947,200L145.08,200L145.213,240L145.346,200L145.479,260L145.612,80L145.745,300L145.878,260L146.011,280L146.144,280L146.277,180L146.41,240L146.543,260L146.676,220L146.809,240L146.941,200L147.074,200L147.207,220L147.34,260L147.473,200L147.606,300L147.739,240L147.872,180L148.005,220L148.138,240L148.271,260L148.404,180L148.537,300L148.67,140L148.803,300L148.936,200L149.069,260L149.202,260L149.335,220L149.468,200L149.601,280L149.734,180L149.867,300L150,220L150.133,200L150.266,300L150.399,180L150.532,260L150.665,300L150.798,180L150.931,300L151.064,160L151.197,260L151.33,200L151.463,240L151.596,240L151.729,260L151.862,300L151.995,220L152.128,220L152.261,260L152.394,240L152.527,300L152.66,300L152.793,220L152.926,300L153.059,300L153.191,240L153.324,280L153.457,300L153.59,300L153.723,280L153.856,280L153.989,300L154.122,220L154.255,240L154.388,300L154.521,300L154.654,280L154.787,300L154.92,300L155.053,240L155.186,220L155.319,300L155.452,260L155.585,260L155.718,180L155.851,260L155.984,220L156.117,220L156.25,220L156.383,180L156.516,240L156.649,260L156.782,240L156.915,240L157.048,160L157.181,300L157.314,280L157.447,260L157.58,240L157.713,300L157.846,240L157.979,300L158.112,300L158.245,300L158.378,300L158.511,300L158.644,280L158.777,280L158.91,300L159.043,300L159.176,300L159.309,300L159.441,280L159.574,300L159.707,300L159.84,260L159.973,300L160.106,300L160.239,300L160.372,280L160.505,300L160.638,300L160.771,260L160.904,280L161.037,300L161.17,300L161.303,280L161.436,300L161.569,300L161.702,300L161.835,260L161.968,300L162.101,300L162.234,260L162.367,300L162.5,300L162.633,300L162.766,300L162.899,300L163.032,300L163.165,260L163.298,300L163.431,300L163.564,300L163.697,300L163.83,280L163.963,300L164.096,260L164.229,300L164.362,300L164.495,260L164.628,300L164.761,260L164.894,300L165.027,300L165.16,300L165.293,280L165.426,300L165.559,300L165.691,260L165.824,300L165.957,280L166.09,280L166.223,220L166.356,280L166.489,280L166.622,240L166.755,200L166.888,240L167.021,200L167.154,260L167.287,200L167.42,220L167.553,240L167.686,220L167.819,220L167.952,180L168.085,240L168.218,160L168.351,220L168.484,260L168.617,220L168.75,300L168.883,260L169.016,260L169.149,140L169.282,300L169.415,220L169.548,220L169.681,260L169.814,200L169.947,260L170.08,180L170.213,140L170.346,300L170.479,220L170.612,180L170.745,260L170.878,200L171.011,200L171.144,240L171.277,240L171.41,300L171.543,220L171.676,280L171.809,180L171.941,220L172.074,300L172.207,280L172.34,180L172.473,260L172.606,260L172.739,180L172.872,220L173.005,220L173.138,260L173.271,200L173.404,260L173.537,220L173.67,240L173.803,280L173.936,260L174.069,220L174.202,160L174.335,260L174.468,280L174.601,180L174.734,240L174.867,160L175,240L175.133,240L175.266,240L175.399,260L175.532,240L175.665,240L175.798,240L175.931,260L176.064,280L176.197,200L176.33,260L176.463,200L176.596,260L176.729,180L176.862,280L176.995,220L177.128,260L177.261,300L177.394,180L177.527,240L177.66,200L177.793,280L177.926,200L178.059,240L178.191,220L178.324,200L178.457,240L178.59,240L178.723,200L178.856,240L178.989,180L179.122,240L179.255,180L179.388,280L179.521,220L179.654,240L179.787,240L179.92,240L180.053,280L180.186,200L180.319,200L180.452,240L180.585,240L180.718,220L180.851,220L180.984,180L181.117,240L181.25,300L181.383,180L181.516,260L181.649,220L181.782,260L181.915,240L182.048,180L182.181,220L182.314,200L182.447,200L182.58,240L182.713,220L182.846,260L182.979,180L183.112,260L183.245,220L183.378,240L183.511,220L183.644,240L183.777,240L183.91,240L184.043,300L184.176,300L184.309,300L184.441,300L184.574,260L184.707,300L184.84,300L184.973,280L185.106,300L185.239,300L185.372,300L185.505,300L185.638,260L185.771,300L185.904,300L186.037,300L186.17,300L186.303,300L186.436,240L186.569,300L186.702,260L186.835,140L186.968,220L187.101,200L187.234,200L187.367,260L187.5,160L187.633,260L187.766,260L187.899,260L188.032,180L188.165,260L188.298,200L188.431,280L188.564,240L188.697,240L188.83,220L188.963,200L189.096,240L189.229,200L189.362,300L189.495,180L189.628,180L189.761,240L189.894,200L190.027,240L190.16,220L190.293,200L190.426,240L190.559,220L190.691,260L190.824,220L190.957,240L191.09,180L191.223,220L191.356,220L191.489,220L191.622,200L191.755,180L191.888,240L192.021,300L192.154,140L192.287,240L192.42,280L192.553,240L192.686,240L192.819,240L192.952,260L193.085,300L193.218,260L193.351,280L193.484,260L193.617,260L193.75,280L193.883,240L194.016,280L194.149,300L194.282,260L194.415,260L194.548,260L194.681,300L194.814,240L194.947,300L195.08,200L195.213,260L195.346,280L195.479,240L195.612,220L195.745,120L195.878,240L196.011,240L196.144,160L196.277,240L196.41,260L196.543,300L196.676,120L196.809,300L196.941,280L197.074,200L197.207,220L197.34,240L197.473,180L197.606,280L197.739,260L197.872,200L198.005,240L198.138,300L198.271,180L198.404,260L198.537,240L198.67,220L198.803,240L198.936,200L199.069,200L199.202,220L199.335,260L199.468,220L199.601,280L199.734,180L199.867,260L200,280L200.133,220L200.266,240L200.399,200L200.532,280L200.665,220L200.798,200L200.931,260L201.064,260L201.197,260L201.33,260L201.463,240L201.596,280L201.729,300L201.862,260L201.995,240L202.128,300L202.261,280L202.394,260L202.527,280L202.66,220L202.793,160L202.926,260L203.059,220L203.191,200L203.324,240L203.457,180L203.59,260L203.723,240L203.856,200L203.989,300L204.122,160L204.255,300L204.388,260L204.521,300L204.654,260L204.787,280L204.92,300L205.053,300L205.186,300L205.319,280L205.452,300L205.585,300L205.718,140L205.851,200L205.984,280L206.117,240L206.25,240L206.383,180L206.516,220L206.649,220L206.782,240L206.915,240L207.048,180L207.181,260L207.314,200L207.447,300L207.58,240L207.713,220L207.846,220L207.979,240L208.112,240L208.245,240L208.378,180L208.511,260L208.644,220L208.777,220L208.91,300L209.043,220L209.176,240L209.309,280L209.441,200L209.574,240L209.707,200L209.84,240L209.973,220L210.106,220L210.239,240L210.372,260L210.505,200L210.638,240L210.771,300L210.904,220L211.037,280L211.17,220L211.303,240L211.436,260L211.569,220L211.702,260L211.835,220L211.968,200L212.101,280L212.234,220L212.367,260L212.5,280L212.633,220L212.766,240L212.899,300L213.032,240L213.165,260L213.298,260L213.431,240L213.564,300L213.697,240L213.83,300L213.963,300L214.096,280L214.229,300L214.362,280L214.495,300L214.628,300L214.761,280L214.894,300L215.027,300L215.16,300L215.293,300L215.426,300L215.559,260L215.691,300L215.824,280L215.957,300L216.09,240L216.223,300L216.356,300L216.489,300L216.622,300L216.755,300L216.888,300L217.021,280L217.154,300L217.287,260L217.42,300L217.553,300L217.686,280L217.819,300L217.952,280L218.085,300L218.218,300L218.351,300L218.484,300L218.617,280L218.75,280L218.883,300L219.016,300L219.149,300L219.282,300L219.415,300L219.548,260L219.681,300L219.814,300L219.947,300L220.08,280L220.213,300L220.346,300L220.479,260L220.612,300L220.745,280L220.878,300L221.011,300L221.144,300L221.277,300L221.41,280L221.543,300L221.676,300L221.809,280L221.941,300L222.074,300L222.207,300L222.34,240L222.473,300L222.606,300L222.739,300L222.872,300L223.005,300L223.138,300L223.271,300L223.404,300L223.537,280L223.67,280L223.803,300L223.936,300L224.069,300L224.202,280L224.335,300L224.468,280L224.601,300L224.734,280L224.867,300L225,260L225.133,160L225.266,240L225.399,200L225.532,220L225.665,180L225.798,300L225.931,240L226.064,220L226.197,260L226.33,220L226.463,280L226.596,240L226.729,200L226.862,220L226.995,220L227.128,180L227.261,200L227.394,220L227.527,220L227.66,240L227.793,280L227.926,220L228.059,220L228.191,180L228.324,200L228.457,220L228.59,200L228.723,180L228.856,220L228.989,220L229.122,240L229.255,220L229.388,240L229.521,220L229.654,200L229.787,220L229.92,200L230.053,200L230.186,220L230.319,220L230.452,280L230.585,140L230.718,280L230.851,240L230.984,220L231.117,240L231.25,220L231.383,220L231.516,200L231.649,260L231.782,160L231.915,240L232.048,300L232.181,160L232.314,260L232.447,240L232.58,200L232.713,200L232.846,240L232.979,160L233.112,240L233.245,240L233.378,200L233.511,260L233.644,260L233.777,260L233.91,300L234.043,300L234.176,300L234.309,260L234.441,280L234.574,280L234.707,300L234.84,260L234.973,300L235.106,260L235.239,300L235.372,300L235.505,300L235.638,280L235.771,300L235.904,200L236.037,300L236.17,300L236.303,300L236.436,280L236.569,280L236.702,220L236.835,180L236.968,300L237.101,220L237.234,240L237.367,180L237.5,280L237.633,200L237.766,220L237.899,260L238.032,220L238.165,300L238.298,240L238.431,300L238.564,260L238.697,260L238.83,180L238.963,260L239.096,240L239.229,240L239.362,260L239.495,240L239.628,240L239.761,300L239.894,140L240.027,240L240.16,300L240.293,300L240.426,300L240.559,300L240.691,300L240.824,240L240.957,300L241.09,280L241.223,300L241.356,260L241.489,300L241.622,260L241.755,300L241.888,300L242.021,300L242.154,300L242.287,300L242.42,280L242.553,300L242.686,300L242.819,300L242.952,300L243.085,300L243.218,220L243.351,300L243.484,300L243.617,300L243.75,220L243.883,300L244.016,280L244.149,300L244.282,300L244.415,300L244.548,300L244.681,300L244.814,280L244.947,280L245.08,300L245.213,300L245.346,300L245.479,260L245.612,300L245.745,280L245.878,300L246.011,300L246.144,300L246.277,280L246.41,280L246.543,300L246.676,300L246.809,280L246.941,280L247.074,300L247.207,280L247.34,260L247.473,300L247.606,300L247.739,260L247.872,300L248.005,300L248.138,300L248.271,280L248.404,300L248.537,260L248.67,260L248.803,260L248.936,300L249.069,200L249.202,240L249.335,300L249.468,180L249.601,220L249.734,260L249.867,240L250,200L250.133,200L250.266,200L250.399,220L250.532,220L250.665,200L250.798,220L250.931,280L251.064,240L251.197,200L251.33,180L251.463,220L251.596,180L251.729,200L251.862,200L251.995,240L252.128,200L252.261,280L252.394,240L252.527,200L252.66,220L252.793,180L252.926,220L253.059,200L253.191,240L253.324,200L253.457,200L253.59,220L253.723,220L253.856,260L253.989,280L254.122,200L254.255,240L254.388,200L254.521,240L254.654,200L254.787,200L254.92,200L255.053,300L255.186,200L255.319,200L255.452,300L255.585,180L255.718,220L255.851,240L255.984,200L256.117,240L256.25,160L256.383,200L256.516,160L256.649,260L256.782,160L256.915,220L257.048,300L257.181,160L257.314,220L257.447,260L257.58,220L257.713,160L257.846,260L257.979,180L258.112,300L258.245,220L258.378,200L258.511,300L258.644,180L258.777,180L258.91,280L259.043,220L259.176,200L259.309,240L259.441,220L259.574,240L259.707,220L259.84,260L259.973,220L260.106,260L260.239,260L260.372,220L260.505,220L260.638,260L260.771,220L260.904,260L261.037,240L261.17,240L261.303,260L261.436,300L261.569,200L261.702,300L261.835,200L261.968,220L262.101,260L262.234,220L262.367,260L262.5,260L262.633,220L262.766,300L262.899,260L263.032,300L263.165,280L263.298,280L263.431,300L263.564,300L263.697,300L263.83,300L263.963,300L264.096,300L264.229,260L264.362,280L264.495,300L264.628,300L264.761,300L264.894,280L265.027,300L265.16,300L265.293,280L265.426,300L265.559,300L265.691,300L265.824,300L265.957,300L266.09,260L266.223,300L266.356,300L266.489,280L266.622,300L266.755,240L266.888,300L267.021,300L267.154,300L267.287,300L267.42,300L267.553,300L267.686,300L267.819,260L267.952,300L268.085,300L268.218,300L268.351,300L268.484,240L268.617,300L268.75,300L268.883,300L269.016,300L269.149,260L269.282,300L269.415,300L269.548,300L269.681,300L269.814,280L269.947,300L270.08,280L270.213,280L270.346,280L270.479,300L270.612,300L270.745,300L270.878,300L271.011,300L271.144,280L271.277,300L271.41,280L271.543,300L271.676,280L271.809,300L271.941,300L272.074,280L272.207,300L272.34,300L272.473,280L272.606,300L272.739,300L272.872,260L273.005,300L273.138,300L273.271,260L273.404,300L273.537,260L273.67,300L273.803,300L273.936,300L274.069,300L274.202,280L274.335,280L274.468,300L274.601,300L274.734,260L274.867,300L275,300L275.133,280L275.266,280L275.399,300L275.532,280L275.665,300L275.798,300L275.931,300L276.064,280L276.197,300L276.33,280L276.463,300L276.596,300L276.729,280L276.862,300L276.995,300L277.128,300L277.261,280L277.394,300L277.527,300L277.66,300L277.793,280L277.926,300L278.059,300L278.191,260L278.324,300L278.457,300L278.59,280L278.723,300L278.856,300L278.989,300L279.122,280L279.255,300L279.388,300L279.521,300L279.654,300L279.787,280L279.92,280L280.053,300L280.186,260L280.319,300L280.452,300L280.585,300L280.718,300L280.851,300L280.984,300L281.117,300L281.25,260L281.383,300L281.516,280L281.649,300L281.782,280L281.915,300L282.048,280L282.181,300L282.314,280L282.447,300L282.58,280L282.713,300L282.846,300L282.979,300L283.112,280L283.245,300L283.378,300L283.511,300L283.644,300L283.777,300L283.91,240L284.043,280L284.176,300L284.309,300L284.441,260L284.574,300L284.707,300L284.84,300L284.973,300L285.106,300L285.239,300L285.372,300L285.505,260L285.638,300L285.771,300L285.904,300L286.037,300L286.17,300L286.303,280L286.436,300L286.569,260L286.702,300L286.835,280L286.968,300L287.101,300L287.234,300L287.367,280L287.5,300L287.633,300L287.766,300L287.899,300L288.032,300L288.165,300L288.298,260L288.431,300L288.564,240L288.697,280L288.83,300L288.963,280L289.096,180L289.229,200L289.362,260L289.495,220L289.628,260L289.761,260L289.894,200L290.027,220L290.16,200L290.293,240L290.426,200L290.559,180L290.691,240L290.824,200L290.957,220L291.09,180L291.223,260L291.356,280L291.489,180L291.622,200L291.755,220L291.888,280L292.021,180L292.154,300L292.287,240L292.42,240L292.553,300L292.686,180L292.819,240L292.952,180L293.085,220L293.218,160L293.351,240L293.484,260L293.617,200L293.75,240L293.883,260L294.016,200L294.149,220L294.282,260L294.415,260L294.548,200L294.681,220L294.814,200L294.947,280L295.08,180L295.213,220L295.346,220L295.479,200L295.612,240L295.745,240L295.878,240L296.011,220L296.144,200L296.277,220L296.41,240L296.543,220L296.676,200L296.809,200L296.941,260L297.074,220L297.207,300L297.34,180L297.473,260L297.606,220L297.739,260L297.872,240L298.005,260L298.138,220L298.271,180L298.404,180L298.537,240L298.67,200L298.803,220L298.936,180L299.069,280L299.202,180L299.335,260L299.468,180L299.601,200L299.734,220L299.867,200L300,240L300.133,220L300.266,260L300.399,220L300.532,200L300.665,260L300.798,200L300.931,260L301.064,200L301.197,200L301.33,240L301.463,200L301.596,220L301.729,200L301.862,200L301.995,280L302.128,280L302.261,200L302.394,240L302.527,240L302.66,200L302.793,240L302.926,200L303.059,240L303.191,180L303.324,300L303.457,140L303.59,220L303.723,300L303.856,220L303.989,200L304.122,220L304.255,220L304.388,240L304.521,240L304.654,220L304.787,300L304.92,260L305.053,300L305.186,300L305.319,260L305.452,280L305.585,300L305.718,300L305.851,260L305.984,300L306.117,300L306.25,300L306.383,300L306.516,300L306.649,280L306.782,300L306.915,260L307.048,300L307.181,300L307.314,300L307.447,240L307.58,300L307.713,300L307.846,300L307.979,300L308.112,280L308.245,300L308.378,260L308.511,300L308.644,300L308.777,260L308.91,280L309.043,300L309.176,300L309.309,280L309.441,300L309.574,300L309.707,300L309.84,300L309.973,300L310.106,300L310.239,300L310.372,280L310.505,300L310.638,300L310.771,300L310.904,280L311.037,300L311.17,300L311.303,300L311.436,240L311.569,280L311.702,220L311.835,200L311.968,240L312.101,180L312.234,220L312.367,220L312.5,220L312.633,220L312.766,220L312.899,280L313.032,180L313.165,220L313.298,240L313.431,220L313.564,220L313.697,200L313.83,220L313.963,240L314.096,260L314.229,200L314.362,260L314.495,240L314.628,260L314.761,240L314.894,240L315.027,240L315.16,200L315.293,200L315.426,260L315.559,280L315.691,220L315.824,180L315.957,300L316.09,280L316.223,200L316.356,240L316.489,220L316.622,180L316.755,260L316.888,200L317.021,220L317.154,240L317.287,220L317.42,260L317.553,280L317.686,180L317.819,180L317.952,240L318.085,220L318.218,220L318.351,180L318.484,240L318.617,300L318.75,180L318.883,240L319.016,260L319.149,260L319.282,200L319.415,260L319.548,240L319.681,240L319.814,220L319.947,240L320.08,220L320.213,300L320.346,180L320.479,220L320.612,300L320.745,260L320.878,220L321.011,220L321.144,220L321.277,220L321.41,200L321.543,240L321.676,280L321.809,260L321.941,200L322.074,300L322.207,220L322.34,240L322.473,220L322.606,180L322.739,240L322.872,220L323.005,240L323.138,220L323.271,260L323.404,220L323.537,200L323.67,300L323.803,200L323.936,280L324.069,160L324.202,220L324.335,240L324.468,220L324.601,220L324.734,220L324.867,300L325,180L325.133,300L325.266,180L325.399,220L325.532,260L325.665,200L325.798,260L325.931,180L326.064,220L326.197,240L326.33,240L326.463,180L326.596,240L326.729,280L326.862,300L326.995,260L327.128,280L327.261,300L327.394,260L327.527,300L327.66,300L327.793,280L327.926,300L328.059,300L328.191,280L328.324,300L328.457,300L328.59,300L328.723,300L328.856,300L328.989,260L329.122,300L329.255,280L329.388,300L329.521,300L329.654,300L329.787,300L329.92,280L330.053,300L330.186,240L330.319,300L330.452,300L330.585,280L330.718,300L330.851,300L330.984,280L331.117,280L331.25,300L331.383,300L331.516,260L331.649,280L331.782,300L331.915,300L332.048,260L332.181,220L332.314,240L332.447,300L332.58,200L332.713,200L332.846,280L332.979,200L333.112,240L333.245,220L333.378,180L333.511,240L333.644,200L333.777,260L333.91,200L334.043,280L334.176,220L334.309,220L334.441,280L334.574,260L334.707,200L334.84,180L334.973,240L335.106,240L335.239,240L335.372,220L335.505,200L335.638,300L335.771,200L335.904,280L336.037,260L336.17,200L336.303,200L336.436,200L336.569,240L336.702,240L336.835,200L336.968,200L337.101,240L337.234,260L337.367,260L337.5,220L337.633,300L337.766,180L337.899,240L338.032,180L338.165,220L338.298,160L338.431,220L338.564,220L338.697,240L338.83,240L338.963,220L339.096,300L339.229,220L339.362,220L339.495,240L339.628,240L339.761,220L339.894,260L340.027,200L340.16,280L340.293,300L340.426,300L340.559,300L340.691,300L340.824,280L340.957,280L341.09,300L341.223,300L341.356,260L341.489,300L341.622,300L341.755,280L341.888,300L342.021,300L342.154,300L342.287,300L342.42,260L342.553,300L342.686,300L342.819,300L342.952,240L343.085,300L343.218,300L343.351,280L343.484,300L343.617,300L343.75,300L343.883,280L344.016,300L344.149,300L344.282,280L344.415,220L344.548,240L344.681,220L344.814,280L344.947,260L345.08,280L345.213,280L345.346,300L345.479,300L345.612,300L345.745,260L345.878,300L346.011,280L346.144,240L346.277,300L346.41,300L346.543,300L346.676,300L346.809,300L346.941,280L347.074,300L347.207,260L347.34,300L347.473,300L347.606,300L347.739,300L347.872,260L348.005,300L348.138,300L348.271,280L348.404,280L348.537,300L348.67,300L348.803,300L348.936,300L349.069,300L349.202,240L349.335,300L349.468,300L349.601,260L349.734,280L349.867,300L350,300L350.133,300L350.266,300L350.399,280L350.532,300L350.665,300L350.798,300L350.931,280L351.064,300L351.197,300L351.33,300L351.463,300L351.596,260L351.729,280L351.862,300L351.995,300L352.128,300L352.261,280L352.394,300L352.527,300L352.66,280L352.793,280L352.926,300L353.059,300L353.191,300L353.324,300L353.457,300L353.59,300L353.723,300L353.856,300L353.989,300L354.122,300L354.255,300L354.388,300L354.521,280L354.654,280L354.787,280L354.92,300L355.053,300L355.186,300L355.319,280L355.452,300L355.585,300L355.718,280L355.851,280L355.984,300L356.117,300L356.25,260L356.383,300L356.516,300L356.649,300L356.782,300L356.915,300L357.048,300L357.181,300L357.314,300L357.447,280L357.58,260L357.713,280L357.846,300L357.979,300L358.112,240L358.245,300L358.378,280L358.511,300L358.644,300L358.777,300L358.91,260L359.043,300L359.176,300L359.309,300L359.441,280L359.574,300L359.707,300L359.84,300L359.973,280L360.106,300L360.239,300L360.372,300L360.505,300L360.638,280L360.771,300L360.904,260L361.037,300L361.17,300L361.303,300L361.436,300L361.569,300L361.702,300L361.835,300L361.968,280L362.101,300L362.234,300L362.367,280L362.5,300L362.633,280L362.766,300L362.899,300L363.032,300L363.165,300L363.298,300L363.431,260L363.564,300L363.697,300L363.83,300L363.963,300L364.096,300L364.229,300L364.362,300L364.495,300L364.628,300L364.761,300L364.894,300L365.027,260L365.16,300L365.293,300L365.426,300L365.559,300L365.691,280L365.824,300L365.957,280L366.09,300L366.223,260L366.356,300L366.489,300L366.622,300L366.755,300L366.888,300L367.021,300L367.154,300L367.287,300L367.42,300L367.553,300L367.686,300L367.819,300L367.952,300L368.085,300L368.218,300L368.351,300L368.484,300L368.617,280L368.75,260L368.883,260L369.016,260L369.149,240L369.282,300L369.415,300L369.548,300L369.681,260L369.814,260L369.947,300L370.08,280L370.213,300L370.346,260L370.479,260L370.612,300L370.745,300L370.878,200L371.011,300L371.144,280L371.277,260L371.41,300L371.543,300L371.676,300L371.809,300L371.941,300L372.074,280L372.207,300L372.34,300L372.473,300L372.606,300L372.739,300L372.872,280L373.005,300L373.138,300L373.271,260L373.404,300L373.537,280L373.67,300L373.803,280L373.936,300L374.069,280L374.202,300L374.335,300L374.468,300L374.601,300L374.734,300L374.867,300L375,280L375.133,260L375.266,300L375.399,300L375.532,300L375.665,300L375.798,260L375.931,300L376.064,280L376.197,300L376.33,280L376.463,300L376.596,280L376.729,300L376.862,300L376.995,300L377.128,260L377.261,300L377.394,300L377.527,300L377.66,280L377.793,300L377.926,280L378.059,300L378.191,300L378.324,300L378.457,280L378.59,300L378.723,300L378.856,260L378.989,300L379.122,300L379.255,300L379.388,280L379.521,280L379.654,280L379.787,300L379.92,280L380.053,300L380.186,300L380.319,280L380.452,300L380.585,300L380.718,260L380.851,300L380.984,300L381.117,280L381.25,300L381.383,280L381.516,300L381.649,300L381.782,280L381.915,300L382.048,300L382.181,280L382.314,300L382.447,300L382.58,280L382.713,300L382.846,300L382.979,300L383.112,280L383.245,300L383.378,300L383.511,300L383.644,300L383.777,260L383.91,300L384.043,300L384.176,280L384.309,300L384.441,260L384.574,300L384.707,300L384.84,260L384.973,300L385.106,300L385.239,260L385.372,300L385.505,300L385.638,280L385.771,300L385.904,220L386.037,300L386.17,300L386.303,300L386.436,280L386.569,300L386.702,300L386.835,300L386.968,260L387.101,300L387.234,300L387.367,300L387.5,300L387.633,300L387.766,300L387.899,300L388.032,300L388.165,300L388.298,300L388.431,300L388.564,300L388.697,260L388.83,240L388.963,300L389.096,280L389.229,300L389.362,260L389.495,300L389.628,300L389.761,300L389.894,300L390.027,280L390.16,300L390.293,300L390.426,300L390.559,300L390.691,300L390.824,300L390.957,300L391.09,300L391.223,300L391.356,300L391.489,300L391.622,300L391.755,300L391.888,300L392.021,300L392.154,300L392.287,300L392.42,300L392.553,300L392.686,300L392.819,300L392.952,300L393.085,300L393.218,300L393.351,300L393.484,300L393.617,300L393.75,300L393.883,300L394.016,300L394.149,300L394.282,300L394.415,300L394.548,280L394.681,300L394.814,300L394.947,300L395.08,300L395.213,300L395.346,280L395.479,300L395.612,300L395.745,240L395.878,300L396.011,300L396.144,300L396.277,300L396.41,300L396.543,300L396.676,300L396.809,300L396.941,300L397.074,300L397.207,300L397.34,300L397.473,300L397.606,300L397.739,300L397.872,300L398.005,300L398.138,240L398.271,20L398.404,260L398.537,40L398.67,220L398.803,200L398.936,260L399.069,300L399.202,300L399.335,300L399.468,300L399.601,240L399.734,300L399.867,300L400,300L400.133,280L400.266,300L400.399,260L400.532,180L400.665,200L400.798,220L400.931,160L401.064,300L401.197,160L401.33,220L401.463,300L401.596,300L401.729,300L401.862,300L401.995,260L402.128,300L402.261,300L402.394,300L402.527,280L402.66,280L402.793,300L402.926,280L403.059,300L403.191,300L403.324,280L403.457,300L403.59,300L403.723,260L403.856,280L403.989,300L404.122,300L404.255,280L404.388,300L404.521,280L404.654,300L404.787,280L404.92,280L405.053,280L405.186,300L405.319,280L405.452,280L405.585,260L405.718,300L405.851,300L405.984,300L406.117,300L406.25,280L406.383,300L406.516,300L406.649,260L406.782,300L406.915,280L407.048,260L407.181,220L407.314,300L407.447,260L407.58,220L407.713,300L407.846,300L407.979,300L408.112,240L408.245,260L408.378,300L408.511,300L408.644,300L408.777,200L408.91,300L409.043,280L409.176,220L409.309,300L409.441,300L409.574,300L409.707,300L409.84,300L409.973,300L410.106,300L410.239,300L410.372,300L410.505,300L410.638,300L410.771,300L410.904,300L411.037,300L411.17,300L411.303,300L411.436,300L411.569,300L411.702,300L411.835,300L411.968,300L412.101,300L412.234,300L412.367,300L412.5,300L412.633,300L412.766,300L412.899,300L413.032,300L413.165,300L413.298,300L413.431,300L413.564,300L413.697,300L413.83,300L413.963,300L414.096,300L414.229,300L414.362,300L414.495,300L414.628,300L414.761,300L414.894,300L415.027,300L415.16,300L415.293,300L415.426,300L415.559,300L415.691,300L415.824,300L415.957,300L416.09,300L416.223,300L416.356,300L416.489,300L416.622,300L416.755,300L416.888,300L417.021,300L417.154,300L417.287,300L417.42,300L417.553,300L417.686,300L417.819,300L417.952,300L418.085,280L418.218,300L418.351,300L418.484,300L418.617,300L418.75,300L418.883,300L419.016,300L419.149,300L419.282,300L419.415,300L419.548,300L419.681,300L419.814,300L419.947,300L420.08,300L420.213,300L420.346,300L420.479,300L420.612,300L420.745,300L420.878,300L421.011,300L421.144,300L421.277,300L421.41,300L421.543,300L421.676,300L421.809,300L421.941,300L422.074,300L422.207,300L422.34,300L422.473,300L422.606,300L422.739,300L422.872,300L423.005,300L423.138,300L423.271,300L423.404,300L423.537,300L423.67,300L423.803,300L423.936,300L424.069,300L424.202,300L424.335,300L424.468,300L424.601,300L424.734,300L424.867,300L425,300L425.133,300L425.266,300L425.399,300L425.532,300L425.665,300L425.798,300L425.931,300L426.064,300L426.197,300L426.33,300L426.463,240L426.596,240L426.729,300L426.862,300L426.995,300L427.128,300L427.261,300L427.394,300L427.527,260L427.66,300L427.793,300L427.926,240L428.059,300L428.191,300L428.324,300L428.457,280L428.59,300L428.723,240L428.856,260L428.989,300L429.122,300L429.255,300L429.388,300L429.521,300L429.654,300L429.787,300L429.92,300L430.053,300L430.186,300L430.319,300L430.452,300L430.585,300L430.718,300L430.851,300L430.984,300L431.117,300L431.25,300L431.383,300L431.516,300L431.649,300L431.782,300L431.915,300L432.048,300L432.181,300L432.314,300L432.447,300L432.58,300L432.713,300L432.846,300L432.979,300L433.112,300L433.245,300L433.378,300L433.511,300L433.644,300L433.777,300L433.91,220L434.043,300L434.176,300L434.309,300L434.441,300L434.574,300L434.707,300L434.84,300L434.973,300L435.106,280L435.239,300L435.372,300L435.505,300L435.638,300L435.771,300L435.904,300L436.037,300L436.17,300L436.303,300L436.436,300L436.569,300L436.702,200L436.835,300L436.968,300L437.101,300L437.234,300L437.367,300L437.5,280L437.633,300L437.766,300L437.899,300L438.032,300L438.165,300L438.298,300L438.431,300L438.564,300L438.697,300L438.83,300L438.963,300L439.096,300L439.229,300L439.362,300L439.495,300L439.628,300L439.761,300L439.894,300L440.027,300L440.16,300L440.293,300L440.426,300L440.559,300L440.691,300L440.824,300L440.957,300L441.09,280L441.223,300L441.356,300L441.489,280L441.622,260L441.755,300L441.888,300L442.021,260L442.154,300L442.287,300L442.42,300L442.553,300L442.686,300L442.819,260L442.952,300L443.085,280L443.218,280L443.351,300L443.484,300L443.617,300L443.75,300L443.883,280L444.016,300L444.149,300L444.282,280L444.415,300L444.548,300L444.681,300L444.814,260L444.947,280L445.08,300L445.213,300L445.346,300L445.479,280L445.612,300L445.745,300L445.878,300L446.011,280L446.144,300L446.277,300L446.41,240L446.543,300L446.676,300L446.809,280L446.941,300L447.074,300L447.207,300L447.34,300L447.473,300L447.606,300L447.739,260L447.872,300L448.005,300L448.138,300L448.271,300L448.404,300L448.537,300L448.67,300L448.803,280L448.936,300L449.069,260L449.202,300L449.335,300L449.468,260L449.601,300L449.734,300L449.867,300L450,300L450.133,280L450.266,300L450.399,300L450.532,300L450.665,300L450.798,280L450.931,300L451.064,300L451.197,300L451.33,300L451.463,300L451.596,280L451.729,300L451.862,300L451.995,260L452.128,260L452.261,280L452.394,300L452.527,300L452.66,300L452.793,300L452.926,300L453.059,300L453.191,300L453.324,300L453.457,300L453.59,300L453.723,300L453.856,280L453.989,260L454.122,300L454.255,280L454.388,300L454.521,300L454.654,300L454.787,300L454.92,300L455.053,300L455.186,300L455.319,300L455.452,300L455.585,260L455.718,300L455.851,300L455.984,300L456.117,300L456.25,300L456.383,300L456.516,300L456.649,280L456.782,300L456.915,300L457.048,280L457.181,300L457.314,300L457.447,240L457.58,300L457.713,300L457.846,280L457.979,300L458.112,300L458.245,220L458.378,300L458.511,300L458.644,280L458.777,300L458.91,300L459.043,300L459.176,300L459.309,260L459.441,280L459.574,300L459.707,300L459.84,280L459.973,300L460.106,280L460.239,260L460.372,300L460.505,300L460.638,300L460.771,300L460.904,280L461.037,300L461.17,240L461.303,300L461.436,300L461.569,300L461.702,280L461.835,260L461.968,300L462.101,300L462.234,260L462.367,300L462.5,300L462.633,300L462.766,260L462.899,300L463.032,300L463.165,260L463.298,300L463.431,280L463.564,300L463.697,260L463.83,300L463.963,300L464.096,280L464.229,300L464.362,280L464.495,280L464.628,300L464.761,300L464.894,300L465.027,300L465.16,300L465.293,240L465.426,300L465.559,260L465.691,300L465.824,300L465.957,300L466.09,300L466.223,280L466.356,300L466.489,300L466.622,280L466.755,300L466.888,280L467.021,300L467.154,300L467.287,280L467.42,300L467.553,280L467.686,260L467.819,300L467.952,280L468.085,280L468.218,280L468.351,260L468.484,200L468.617,200L468.75,280L468.883,240L469.016,220L469.149,260L469.282,140L469.415,280L469.548,160L469.681,260L469.814,280L469.947,300L470.08,300L470.213,300L470.346,300L470.479,300L470.612,300L470.745,280L470.878,300L471.011,300L471.144,300L471.277,260L471.41,300L471.543,300L471.676,280L471.809,280L471.941,300L472.074,300L472.207,280L472.34,300L472.473,300L472.606,300L472.739,300L472.872,300L473.005,300L473.138,300L473.271,300L473.404,280L473.537,300L473.67,300L473.803,240L473.936,300L474.069,300L474.202,300L474.335,300L474.468,300L474.601,300L474.734,300L474.867,300L475,300L475.133,240L475.266,300L475.399,300L475.532,300L475.665,240L475.798,260L475.931,200L476.064,300L476.197,280L476.33,280L476.463,280L476.596,300L476.729,280L476.862,300L476.995,300L477.128,300L477.261,300L477.394,300L477.527,300L477.66,300L477.793,300L477.926,280L478.059,300L478.191,300L478.324,260L478.457,300L478.59,300L478.723,300L478.856,260L478.989,300L479.122,300L479.255,260L479.388,260L479.521,240L479.654,260L479.787,300L479.92,260L480.053,300L480.186,300L480.319,220L480.452,300L480.585,300L480.718,240L480.851,260L480.984,280L481.117,300L481.25,300L481.383,300L481.516,280L481.649,300L481.782,300L481.915,240L482.048,260L482.181,300L482.314,240L482.447,300L482.58,280L482.713,300L482.846,300L482.979,300L483.112,300L483.245,300L483.378,280L483.511,300L483.644,220L483.777,300L483.91,300L484.043,280L484.176,260L484.309,300L484.441,280L484.574,260L484.707,300L484.84,200L484.973,300L485.106,260L485.239,280L485.372,260L485.505,240L485.638,300L485.771,120L485.904,300L486.037,300L486.17,300L486.303,300L486.436,300L486.569,300L486.702,280L486.835,300L486.968,140L487.101,140L487.234,220L487.367,260L487.5,180L487.633,280L487.766,300L487.899,240L488.032,300L488.165,300L488.298,300L488.431,300L488.564,240L488.697,300L488.83,300L488.963,260L489.096,300L489.229,300L489.362,300L489.495,300L489.628,300L489.761,300L489.894,300L490.027,300L490.16,300L490.293,280L490.426,300L490.559,300L490.691,300L490.824,300L490.957,300L491.09,300L491.223,300L491.356,300L491.489,300L491.622,300L491.755,300L491.888,300L492.021,300L492.154,300L492.287,300L492.42,280L492.553,300L492.686,300L492.819,300L492.952,300L493.085,300L493.218,300L493.351,300L493.484,300L493.617,300L493.75,280L493.883,300L494.016,300L494.149,300L494.282,300L494.415,300L494.548,300L494.681,280L494.814,300L494.947,280L495.08,300L495.213,220L495.346,300L495.479,300L495.612,300L495.745,300L495.878,300L496.011,300L496.144,300L496.277,300L496.41,300L496.543,300L496.676,280L496.809,300L496.941,300L497.074,300L497.207,280L497.34,280L497.473,280L497.606,280L497.739,280L497.872,300L498.005,300L498.138,300L498.271,300L498.404,300L498.537,300L498.67,300L498.803,260L498.936,280L499.069,280L499.202,300L499.335,300L499.468,300L499.601,220L499.734,280L499.867,300L500,280" stroke="#4c78a8" stroke-width="2"/></g></g><path class="foreground" aria-hidden="true" d="" display="none"/></g></g></g></svg>