<svg xmlns="http://www.w3.org/2000/svg" xmlns:xlink="http://www.w3.org/1999/xlink" version="1.1" class="marks" width="360" height="347" viewBox="0 0 360 347"><rect width="360" height="347" fill="white"/><g fill="none" stroke-miterlimit="10" transform="translate(53,10)"><g class="mark-group role-frame root" role="graphics-object" aria-roledescription="group mark container"><g transform="translate(0,0)"><path class="background" aria-hidden="true" d="M0.5,0.5h300v300h-300Z" stroke="#ddd"/><g><g class="mark-group role-axis" aria-hidden="true"><g transform="translate(0.5,300.5)"><path class="background" aria-hidden="true" d="M0,0h0v0h0Z" pointer-events="none"/><g><g class="mark-rule role-axis-grid" pointer-events="none"><line transform="translate(26,-300)" x2="0" y2="300" stroke="#ddd" stroke-width="1" opacity="1"/><line transform="translate(62,-300)" x2="0" y2="300" stroke="#ddd" stroke-width="1" opacity="1"/><line transform="translate(98,-300)" x2="0" y2="300" stroke="#ddd" stroke-width="1" opacity="1"/><line transform="translate(134,-300)" x2="0" y2="300" stroke="#ddd" stroke-width="1" opacity="1"/><line transform="translate(169,-300)" x2="0" y2="300" stroke="#ddd" stroke-width="1" opacity="1"/><line transform="translate(205,-300)" x2="0" y2="300" stroke="#ddd" stroke-width="1" opacity="1"/><line transform="translate(241,-300)" x2="0" y2="300" stroke="#ddd" stroke-width="1" opacity="1"/><line transform="translate(277,-300)" x2="0" y2="300" stroke="#ddd" stroke-width="1" opacity="1"/></g></g><path class="foreground" aria-hidden="true" d="" pointer-events="none" display="none"/></g></g><g class="mark-group role-axis" aria-hidden="true"><g transform="translate(0.5,0.5)"><path class="background" aria-hidden="true" d="M0,0h0v0h0Z" pointer-events="none"/><g><g class="mark-rule role-axis-grid" pointer-events="none"><line transform="translate(0,300)" x2="300" y2="0" stroke="#ddd" stroke-width="1" opacity="1"/><line transform="translate(0,263)" x2="300" y2="0" stroke="#ddd" stroke-width="1" opacity="1"/><line transform="translate(0,225)" x2="300" y2="0" stroke="#ddd" stroke-width="1" opacity="1"/><line transform="translate(0,188)" x2="300" y2="0" stroke="#ddd" stroke-width="1" opacity="1"/><line transform="translate(0,150)" x2="300" y2="0" stroke="#ddd" stroke-width="1" opacity="1"/><line transform="translate(0,113)" x2="300" y2="0" stroke="#ddd" stroke-width="1" opacity="1"/><line transform="translate(0,75)" x2="300" y2="0" stroke="#ddd" stroke-width="1" opacity="1"/><line transform="translate(0,38)" x2="300" y2="0" stroke="#ddd" stroke-width="1" opacity="1"/><line transform="translate(0,0)" x2="300" y2="0" stroke="#ddd" stroke-width="1" opacity="1"/></g></g><path class="foreground" aria-hidden="true" d="" pointer-events="none" display="none"/></g></g><g class="mark-group role-axis" role="graphics-symbol" aria-roledescription="axis" aria-label="X-axis titled 'Time' for a time scale with values from Wednesday, 26 June 2024, 10:38:23 AM to Wednesday, 26 June 2024, 2:49:03 PM"><g transform="translate(0.5,300.5)"><path class="background" aria-hidden="true" d="M0,0h0v0h0Z" pointer-events="none"/><g><g class="mark-rule role-axis-tick" pointer-events="none"><line transform="translate(26,0)" x2="0" y2="5" stroke="#888" stroke-width="1" opacity="1"/><line transform="translate(62,0)" x2="0" y2="5" stroke="#888" stroke-width="1" opacity="1"/><line transform="translate(98,0)" x2="0" y2="5" stroke="#888" stroke-width="1" opacity="1"/><line transform="translate(134,0)" x2="0" y2="5" stroke="#888" stroke-width="1" opacity="1"/><line transform="translate(169,0)" x2="0" y2="5" stroke="#888" stroke-width="1" opacity="1"/><line transform="translate(205,0)" x2="0" y2="5" stroke="#888" stroke-width="1" opacity="1"/><line transform="translate(241,0)" x2="0" y2="5" stroke="#888" stroke-width="1" opacity="1"/><line transform="translate(277,0)" x2="0" y2="5" stroke="#888" stroke-width="1" opacity="1"/></g><g class="mark-text role-axis-label" pointer-events="none"><text text-anchor="middle" transform="translate(25.87101063829787,15)" font-family="sans-serif" font-size="10px" fill="#000" opacity="1">11 AM</text><text text-anchor="middle" transform="translate(61.775265957446805,15)" font-family="sans-serif" font-size="10px" fill="#000" opacity="1">11:30</text><text text-anchor="middle" transform="translate(97.67952127659575,15)" font-family="sans-serif" font-size="10px" fill="#000" opacity="1">12 PM</text><text text-anchor="middle" transform="translate(133.58377659574467,15)" font-family="sans-serif" font-size="10px" fill="#000" opacity="1">12:30</text><text text-anchor="middle" transform="translate(169.48803191489364,15)" font-family="sans-serif" font-size="10px" fill="#000" opacity="1">01 PM</text><text text-anchor="middle" transform="translate(205.39228723404256,15)" font-family="sans-serif" font-size="10px" fill="#000" opacity="1">01:30</text><text text-anchor="middle" transform="translate(241.29654255319147,15)" font-family="sans-serif" font-size="10px" fill="#000" opacity="1">02 PM</text><text text-anchor="middle" transform="translate(277.2007978723404,15)" font-family="sans-serif" font-size="10px" fill="#000" opacity="1">02:30</text></g><g class="mark-rule role-axis-domain" pointer-events="none"><line transform="translate(0,0)" x2="300" y2="0" stroke="#888" stroke-width="1" opacity="1"/></g><g class="mark-text role-axis-title" pointer-events="none"><text text-anchor="middle" transform="translate(150,30)" font-family="sans-serif" font-size="11px" font-weight="bold" fill="#000" opacity="1">Time</text></g></g><path class="foreground" aria-hidden="true" d="" pointer-events="none" display="none"/></g></g><g class="mark-group role-axis" role="graphics-symbol" aria-roledescription="axis" aria-label="Y-axis titled 'Elevation / m' for a linear scale with values from 400 to 1,200"><g transform="translate(0.5,0.5)"><path class="background" aria-hidden="true" d="M0,0h0v0h0Z" pointer-events="none"/><g><g class="mark-rule role-axis-tick" pointer-events="none"><line transform="translate(0,300)" x2="-5" y2="0" stroke="#888" stroke-width="1" opacity="1"/><line transform="translate(0,263)" x2="-5" y2="0" stroke="#888" stroke-width="1" opacity="1"/><line transform="translate(0,225)" x2="-5" y2="0" stroke="#888" stroke-width="1" opacity="1"/><line transform="translate(0,188)" x2="-5" y2="0" stroke="#888" stroke-width="1" opacity="1"/><line transform="translate(0,150)" x2="-5" y2="0" stroke="#888" stroke-width="1" opacity="1"/><line transform="translate(0,113)" x2="-5" y2="0" stroke="#888" stroke-width="1" opacity="1"/><line transform="translate(0,75)" x2="-5" y2="0" stroke="#888" stroke-width="1" opacity="1"/><line transform="translate(0,38)" x2="-5" y2="0" stroke="#888" stroke-width="1" opacity="1"/><line transform="translate(0,0)" x2="-5" y2="0" stroke="#888" stroke-width="1" opacity="1"/></g><g class="mark-text role-axis-label" pointer-events="none"><text text-anchor="end" transform="translate(-7,303)" font-family="sans-serif" font-size="10px" fill="#000" opacity="1">400</text><text text-anchor="end" transform="translate(-7,265.5)" font-family="sans-serif" font-size="10px" fill="#000" opacity="1">500</text><text text-anchor="end" transform="translate(-7,228)" font-family="sans-serif" font-size="10px" fill="#000" opacity="1">600</text><text text-anchor="end" transform="translate(-7,190.5)" font-family="sans-serif" font-size="10px" fill="#000" opacity="1">700</text><text text-anchor="end" transform="translate(-7,153)" font-family="sans-serif" font-size="10px" fill="#000" opacity="1">800</text><text text-anchor="end" transform="translate(-7,115.5)" font-family="sans-serif" font-size="10px" fill="#000" opacity="1">900</text><text text-anchor="end" transform="translate(-7,78)" font-family="sans-serif" font-size="10px" fill="#000" opacity="1">1,000</text><text text-anchor="end" transform="translate(-7,40.5)" font-family="sans-serif" font-size="10px" fill="#000" opacity="1">1,100</text><text text-anchor="end" transform="translate(-7,3)" font-family="sans-serif" font-size="10px" fill="#000" opacity="1">1,200</text></g><g class="mark-rule role-axis-domain" pointer-events="none"><line transform="translate(0,300)" x2="0" y2="-300" stroke="#888" stroke-width="1" opacity="1"/></g><g class="mark-text role-axis-title" pointer-events="none"><text text-anchor="middle" transform="translate(-36.0244140625,150) rotate(-90) translate(0,-2)" font-family="sans-serif" font-size="11px" font-weight="bold" fill="#000" opacity="1">Elevation / m</text></g></g><path class="foreground" aria-hidden="true" d="" pointer-events="none" display="none"/></g></g><g class="mark-line role-mark marks" role="graphics-symbol" aria-roledescription="line mark container"><path d="M0,289.5L0.08,289.5L0.16,289.725L0.239,289.65L0.319,289.65L0.399,289.65L0.479,289.65L0.559,289.8L0.638,289.65L0.718,289.575L0.798,289.65L0.878,289.725L0.957,289.8L1.037,289.5L1.117,289.5L1.197,289.65L1.277,289.5L1.356,289.5L1.436,289.35L1.516,289.275L1.596,289.05L1.676,289.275L1.755,289.275L1.835,289.425L1.915,289.05L1.995,289.35L2.074,289.125L2.154,289.125L2.234,288.975L2.314,289.05L2.394,288.975L2.473,288.75L2.553,288.525L2.633,288.6L2.713,288.675L2.793,288.525L2.872,288.375L2.952,288.225L3.032,288.225L3.112,288.225L3.191,288L3.271,288.075L3.351,287.925L3.431,287.85L3.511,287.7L3.59,287.625L3.67,287.625L3.75,287.4L3.83,287.25L3.91,287.175L3.989,287.175L4.069,287.25L4.149,287.7L4.229,287.85L4.309,287.7L4.388,288.075L4.468,288.15L4.548,288.225L4.628,288.15L4.707,288.375L4.787,288.675L4.867,288.675L4.947,288.3L5.027,288.15L5.106,288.075L5.186,288L5.266,288.075L5.346,288.225L5.426,288.3L5.505,288.225L5.585,287.85L5.665,288L5.745,288.075L5.824,288.075L5.904,287.85L5.984,287.7L6.064,287.625L6.144,287.7L6.223,288.225L6.303,287.85L6.383,287.7L6.463,287.7L6.543,287.625L6.622,287.475L6.702,287.625L6.782,287.475L6.862,287.7L6.941,287.4L7.021,287.4L7.101,287.25L7.181,287.4L7.261,287.25L7.34,287.1L7.42,287.025L7.5,286.725L7.58,286.8L7.66,286.95L7.739,286.8L7.819,286.725L7.899,286.275L7.979,286.65L8.059,286.725L8.138,286.275L8.218,286.125L8.298,286.05L8.378,286.05L8.457,285.825L8.537,285.6L8.617,285.6L8.697,285.225L8.777,285L8.856,285.15L8.936,285.15L9.016,284.775L9.096,284.85L9.176,284.925L9.255,284.85L9.335,284.625L9.415,284.25L9.495,284.175L9.574,284.175L9.654,284.1L9.734,283.875L9.814,283.875L9.894,283.95L9.973,283.95L10.053,283.95L10.133,284.025L10.213,283.95L10.293,283.8L10.372,283.875L10.452,283.875L10.532,283.95L10.612,283.65L10.691,283.65L10.771,283.65L10.851,283.8L10.931,283.65L11.011,284.025L11.09,283.5L11.17,283.725L11.25,283.5L11.33,283.875L11.41,283.875L11.489,284.025L11.569,284.1L11.649,283.8L11.729,283.725L11.809,284.1L11.888,284.1L11.968,284.025L12.048,284.175L12.128,284.175L12.207,283.8L12.287,284.325L12.367,284.325L12.447,284.325L12.527,284.85L12.606,284.7L12.686,284.7L12.766,284.925L12.846,285.075L12.926,284.55L13.005,284.775L13.085,285.3L13.165,285.6L13.245,285.375L13.324,285.375L13.404,285.15L13.484,285.075L13.564,285.225L13.644,285.375L13.723,285.75L13.803,286.05L13.883,285.675L13.963,285.825L14.043,286.05L14.122,286.35L14.202,286.35L14.282,285.825L14.362,285.975L14.441,286.2L14.521,286.35L14.601,286.5L14.681,286.2L14.761,286.125L14.84,286.05L14.92,285.9L15,285.975L15.08,285.975L15.16,285.975L15.239,285.9L15.319,286.125L15.399,285.825L15.479,285.675L15.559,285.6L15.638,285.675L15.718,285.75L15.798,285.975L15.878,285.9L15.957,286.05L16.037,285.825L16.117,286.125L16.197,286.2L16.277,286.35L16.356,286.5L16.436,286.95L16.516,287.1L16.596,287.175L16.676,286.875L16.755,287.25L16.835,287.175L16.915,287.325L16.995,287.175L17.074,287.25L17.154,287.7L17.234,287.7L17.314,287.775L17.394,287.85L17.473,287.85L17.553,288.075L17.633,287.775L17.793,288.6L17.872,288.6L17.952,288.375L18.032,288.3L18.112,288.375L18.191,288.15L18.271,288.375L18.351,288.45L18.431,288.375L18.511,288.075L18.59,288.375L18.67,288.3L18.75,288L18.83,287.925L18.91,287.925L18.989,287.775L19.069,287.625L19.149,287.475L19.229,287.175L19.309,287.4L19.388,287.175L19.468,287.025L19.548,287.1L19.628,286.875L19.707,287.025L19.787,287.1L19.867,287.175L19.947,287.25L20.027,287.475L20.106,287.1L20.186,287.4L20.266,287.55L20.346,287.325L20.426,287.175L20.505,287.025L20.585,286.8L20.665,286.8L20.745,286.65L20.824,286.05L20.904,285.75L20.984,286.2L21.064,286.125L21.144,285.975L21.223,285.6L21.303,285.675L21.383,286.05L21.463,285.75L21.543,285.825L21.622,285.825L21.702,286.275L21.782,285.975L21.862,285.675L21.941,286.05L22.021,286.05L22.101,286.05L22.181,286.125L22.261,286.275L22.34,286.275L22.42,286.2L22.5,286.2L22.58,286.2L22.66,286.5L22.739,286.275L22.819,286.425L22.899,286.425L22.979,285.9L23.059,286.05L23.138,285.975L23.218,285.975L23.298,286.125L23.378,286.05L23.457,286.05L23.537,285.975L23.617,285.9L23.697,285.975L23.777,285.825L23.856,285.3L23.936,285.45L24.016,285.45L24.096,285.9L24.176,285.375L24.255,285.45L24.335,285.375L24.415,285.375L24.495,285.375L24.574,285.45L24.654,285.075L24.734,285.525L24.814,286.125L24.894,286.875L24.973,286.275L25.053,286.275L25.133,285.6L25.213,285.225L25.293,285L25.372,284.55L25.452,284.775L25.532,284.925L25.612,284.55L25.691,284.475L25.771,284.475L25.851,284.775L25.931,284.7L26.011,284.7L26.09,284.85L26.17,284.775L26.25,284.775L26.33,284.85L26.41,284.85L26.489,284.625L26.569,284.775L26.649,284.775L26.729,284.7L26.809,284.4L26.888,284.55L26.968,284.625L27.048,284.475L27.128,284.85L27.207,284.7L27.287,284.55L27.367,284.4L27.447,284.4L27.527,284.85L27.606,284.7L27.686,285.075L27.766,285.45L27.846,285.6L27.926,285.225L28.005,285.225L28.085,285.6L28.165,285.675L28.245,285.975L28.324,286.05L28.404,285.825L28.484,285.975L28.564,286.35L28.644,286.5L28.723,287.1L28.803,286.5L28.883,287.025L28.963,287.1L29.043,287.55L29.122,287.625L29.202,287.625L29.282,287.55L29.362,287.55L29.441,287.4L29.521,287.775L29.601,287.85L29.681,287.925L29.761,288.075L29.84,287.925L29.92,287.925L30,287.925L30.08,287.925L30.16,287.55L30.239,287.775L30.319,287.7L30.399,287.625L30.479,288.15L30.559,287.925L30.638,288.075L30.718,288.15L30.798,287.925L30.878,287.925L30.957,288.15L31.037,288.075L31.117,287.85L31.197,288.225L31.277,288.375L31.356,288.525L31.436,288.225L31.516,288.375L31.596,288.525L31.676,288.675L31.755,288.675L31.835,288.75L31.915,288.45L31.995,288.75L32.074,288.45L32.154,288.525L32.234,288.375L32.314,288.6L32.394,288.825L32.473,288.675L32.553,288.3L32.633,288.375L32.713,288.45L32.793,288.45L32.872,288.45L32.952,288.375L33.032,288.525L33.112,288.375L33.191,288.15L33.271,288.375L33.351,288.525L33.431,288.15L33.511,288.525L33.59,288.525L33.67,288.75L33.75,288.9L33.83,288.75L33.91,288.675L33.989,289.125L34.069,289.275L34.149,289.125L34.229,289.05L34.309,288.675L34.388,289.5L34.468,289.05L34.548,288.675L34.628,288.525L34.707,288.45L34.787,288.375L34.867,288.15L34.947,288.375L35.027,288.15L35.106,288.3L35.186,288.15L35.266,288.375L35.346,288.6L35.426,288.675L35.505,288.675L35.585,288.9L35.665,288.675L35.745,289.425L35.824,289.65L35.904,289.575L35.984,289.425L36.064,289.5L36.144,289.125L36.223,289.425L36.303,289.275L36.383,289.35L36.463,289.35L36.543,289.5L36.622,289.2L36.702,289.65L36.782,289.5L36.862,289.2L36.941,289.425L37.021,288.75L37.101,289.125L37.181,289.275L37.261,289.65L37.34,289.425L37.42,289.2L37.5,289.2L37.58,289.125L37.66,289.125L37.739,288.825L37.819,289.05L37.899,289.125L37.979,289.125L38.059,288.975L38.138,289.125L38.218,289.05L38.298,288.9L38.378,289.05L38.457,288.9L38.537,288.9L38.617,289.05L38.697,288.9L38.777,288.975L38.856,289.125L38.936,288.975L39.016,288.975L39.096,289.125L39.176,288.975L39.255,288.975L39.335,288.9L39.415,288.675L39.495,288.375L39.574,288.375L39.654,288.375L39.734,288.45L39.814,288.6L39.894,288.375L39.973,288.525L40.053,288.9L40.133,288.675L40.213,288.825L40.293,288.975L40.372,288.6L40.452,288.825L40.532,288.825L40.612,288.675L40.691,288.675L40.771,288.675L40.851,288.825L40.931,288.9L41.011,288.9L41.09,288.675L41.17,288.825L41.25,288.825L41.33,288.6L41.41,288.525L41.489,288.6L41.569,288.675L41.649,288.675L41.729,288.9L41.809,288.375L41.888,288.45L41.968,288.225L42.048,288L42.128,288.15L42.207,288.225L42.287,287.925L42.367,288.15L42.447,288L42.527,288.15L42.606,287.85L42.686,287.775L42.766,287.7L42.846,287.625L42.926,287.325L43.005,287.325L43.085,287.775L43.165,287.85L43.245,288.375L43.324,289.05L43.404,289.65L43.484,290.175L43.564,290.025L43.644,290.1L43.723,289.95L43.803,290.175L43.883,290.175L43.963,290.025L44.043,289.875L44.122,290.175L44.202,290.025L44.282,289.8L44.362,289.95L44.441,290.175L44.521,289.875L44.601,290.1L44.681,290.4L44.761,290.175L44.84,289.875L44.92,289.725L45,289.95L45.08,289.95L45.16,289.8L45.239,290.25L45.319,290.025L45.399,289.725L45.479,289.95L45.559,289.65L45.638,289.575L45.718,289.8L45.798,289.875L45.878,290.025L45.957,290.325L46.037,290.475L46.117,290.175L46.197,290.25L46.277,290.1L46.356,289.875L46.436,290.1L46.516,289.95L46.596,289.95L46.676,290.1L46.755,289.875L46.835,289.875L46.915,289.8L46.995,289.725L47.074,289.95L47.154,289.725L47.234,289.35L47.314,290.175L47.394,290.1L47.473,290.25L47.553,290.25L47.633,290.025L47.713,289.875L47.793,289.8L47.872,289.875L47.952,289.875L48.032,289.875L48.112,289.725L48.191,289.725L48.271,289.5L48.351,289.65L48.431,289.65L48.511,289.65L48.59,289.5L48.67,289.575L48.75,290.1L48.83,290.25L48.91,290.325L48.989,290.475L49.069,290.25L49.149,290.1L49.229,290.325L49.309,290.325L49.388,290.175L49.468,290.4L49.548,290.1L49.628,290.1L49.707,290.1L49.787,289.95L49.867,290.1L49.947,289.95L50.027,289.95L50.106,289.95L50.186,289.875L50.266,290.1L50.346,290.1L50.426,290.1L50.505,290.1L50.585,289.8L50.665,289.65L50.745,289.725L50.824,289.65L50.904,289.5L50.984,289.35L51.064,289.425L51.144,289.5L51.223,289.425L51.303,289.425L51.383,289.35L51.463,289.35L51.543,289.425L51.622,289.425L51.702,289.5L51.782,289.65L51.862,289.8L51.941,289.5L52.021,289.875L52.101,290.025L52.181,289.875L52.261,289.95L52.34,289.875L52.42,289.65L52.5,289.425L52.58,289.575L52.66,289.5L52.739,289.65L52.819,289.8L52.899,289.8L52.979,289.65L53.059,289.65L53.138,289.425L53.218,289.35L53.298,289.2L53.378,289.35L53.457,289.35L53.537,289.275L53.617,289.35L53.697,289.2L53.777,289.2L53.856,289.2L53.936,289.275L54.016,289.125L54.096,289.575L54.176,289.5L54.255,289.65L54.335,290.025L54.415,290.175L54.495,290.175L54.574,290.025L54.654,290.1L54.734,290.1L54.814,289.95L54.894,290.025L54.973,290.025L55.053,289.95L55.133,290.025L55.213,290.1L55.293,289.95L55.372,290.1L55.452,290.025L55.532,290.025L55.612,289.95L55.691,289.875L55.771,289.65L55.851,289.65L55.931,289.725L56.011,289.875L56.09,289.65L56.17,289.725L56.25,289.875L56.33,289.8L56.41,289.875L56.489,289.875L56.569,289.95L56.649,289.725L56.729,289.875L56.809,289.875L56.888,289.8L56.968,289.8L57.048,289.65L57.128,289.65L57.207,289.875L57.287,289.875L57.367,289.875L57.447,289.875L57.527,290.175L57.606,290.025L57.686,289.8L57.766,289.875L57.846,289.875L57.926,289.875L58.005,289.875L58.085,289.8L58.165,289.575L58.245,289.425L58.324,289.65L58.404,289.65L58.484,289.65L58.564,289.725L58.644,289.575L58.723,289.65L58.803,289.65L58.883,289.65L58.963,289.5L59.043,289.725L59.122,289.725L59.202,289.65L59.282,289.5L59.362,289.575L59.441,289.35L59.521,289.65L59.601,289.65L59.681,289.425L59.761,289.425L59.84,289.425L59.92,289.35L60,289.275L60.08,289.35L60.16,289.275L60.239,289.2L60.319,289.275L60.399,289.425L60.479,289.5L60.559,289.5L60.638,289.575L60.718,289.65L60.798,289.425L60.878,289.65L60.957,289.575L61.037,289.725L61.117,289.575L61.197,289.425L61.277,289.575L61.356,289.575L61.436,289.725L61.516,289.725L61.596,289.725L61.676,289.65L61.755,289.65L61.835,289.65L61.915,289.575L61.995,289.65L62.074,289.575L62.154,289.575L62.234,289.5L62.314,289.65L62.394,289.65L62.473,289.65L62.553,289.575L62.633,289.575L62.713,289.5L62.793,289.65L62.872,289.65L62.952,289.65L63.032,289.8L63.112,289.65L63.191,289.5L63.271,289.575L63.351,289.65L63.431,289.575L63.511,289.65L63.59,289.65L63.67,289.65L63.75,289.65L63.83,289.725L63.91,289.725L63.989,289.725L64.069,289.875L64.149,289.95L64.229,289.65L64.309,289.875L64.388,289.95L64.468,290.025L64.548,290.1L64.628,290.025L64.707,289.95L64.787,289.875L64.867,289.875L64.947,290.025L65.027,289.95L65.106,289.95L65.186,290.1L65.266,289.95L65.346,289.875L65.426,289.95L65.505,290.1L65.585,289.875L65.665,290.025L65.745,290.025L65.824,290.175L65.904,290.325L65.984,290.175L66.064,290.175L66.144,290.1L66.223,289.875L66.303,289.725L66.383,289.425L66.463,289.425L66.543,289.575L66.622,289.5L66.702,289.35L66.782,289.275L66.862,289.35L66.941,289.35L67.021,289.425L67.101,289.5L67.181,289.35L67.261,288.9L67.34,288.675L67.42,288.3L67.5,287.925L67.58,287.55L67.66,287.175L67.739,286.875L67.819,286.575L67.899,286.35L67.979,286.275L68.059,285.825L68.138,285.675L68.218,285.6L68.298,285.15L68.378,284.85L68.457,284.55L68.537,284.625L68.617,284.925L68.697,285.975L68.777,286.35L68.856,287.1L68.936,286.65L69.016,286.5L69.096,285.45L69.176,284.85L69.255,284.1L69.335,283.725L69.415,283.65L69.495,283.2L69.574,282.75L69.654,282.675L69.734,282.9L69.814,282.525L69.894,282.3L69.973,282.45L70.053,282.6L70.133,282.6L70.213,282.525L70.293,282.45L70.372,282.45L70.452,282.45L70.532,282.75L70.612,282.525L70.691,282.525L70.771,282.45L70.851,282.225L70.931,282L71.011,281.775L71.09,281.475L71.17,281.1L71.25,281.1L71.33,280.725L71.41,280.575L71.489,280.425L71.569,280.35L71.649,280.35L71.729,280.5L71.809,280.5L71.888,280.5L71.968,280.575L72.048,280.5L72.128,280.65L72.207,280.65L72.287,280.425L72.367,280.05L72.447,279.9L72.527,279.825L72.606,279.825L72.686,279.675L72.766,279.6L72.846,279.675L72.926,279.225L73.005,279L73.085,278.85L73.165,278.4L73.245,278.025L73.324,277.575L73.404,276.975L73.484,276.675L73.564,276.3L73.644,276.15L73.723,276.15L73.803,276.075L73.883,275.85L73.963,275.85L74.043,275.7L74.122,275.4L74.202,275.25L74.282,274.95L74.362,274.725L74.441,274.725L74.521,274.425L74.601,274.425L74.681,274.425L74.761,274.275L74.84,274.275L74.92,273.975L75,273.975L75.08,273.825L75.16,273.75L75.239,273.525L75.319,273.525L75.399,273.6L75.479,273.525L75.559,273.75L75.638,273.975L75.718,274.275L75.798,274.725L75.878,274.575L75.957,274.5L76.037,274.725L76.117,274.575L76.197,274.95L76.277,274.95L76.356,274.65L76.436,274.725L76.516,274.575L76.596,274.95L76.676,274.725L76.755,274.8L76.835,275.025L76.915,275.325L76.995,275.1L77.074,275.625L77.154,275.55L77.234,275.25L77.314,275.325L77.394,275.475L77.473,275.55L77.553,275.7L77.633,275.85L77.713,275.925L77.793,276.15L77.872,275.85L77.952,275.7L78.032,276.225L78.112,276.3L78.191,276.6L78.271,276.975L78.351,277.2L78.431,277.35L78.511,277.425L78.59,277.425L78.67,277.35L78.75,277.425L78.83,277.275L78.91,277.65L78.989,277.65L79.069,277.65L79.149,278.025L79.229,277.95L79.309,278.4L79.388,278.925L79.468,278.925L79.548,279.15L79.628,279.3L79.707,279.6L79.787,279.375L79.867,279.9L79.947,279.675L80.027,280.05L80.106,280.2L80.186,280.275L80.266,280.8L80.346,281.25L80.426,281.7L80.505,282.15L80.585,282.375L80.665,282.975L80.745,282.525L80.824,282.6L80.904,282.225L80.984,282.075L81.064,281.775L81.144,281.85L81.223,281.7L81.303,281.55L81.383,281.1L81.463,280.275L81.543,279.825L81.622,279.375L81.702,279L81.782,278.625L81.862,278.625L81.941,278.325L82.021,278.175L82.101,278.175L82.181,277.8L82.261,277.5L82.34,277.275L82.42,277.05L82.5,277.05L82.58,276.9L82.66,277.125L82.739,277.5L82.819,278.175L82.899,278.625L82.979,278.925L83.059,278.925L83.138,278.85L83.218,278.85L83.298,278.7L83.378,278.7L83.457,278.775L83.537,278.625L83.617,278.475L83.697,278.1L83.777,277.875L83.856,277.425L83.936,277.35L84.016,276.9L84.096,276.675L84.176,276.525L84.255,276.375L84.335,276.075L84.415,275.775L84.495,276L84.574,275.625L84.654,275.325L84.734,274.875L84.814,274.5L84.894,274.35L84.973,273.9L85.053,273.525L85.133,273.075L85.213,272.85L85.293,272.775L85.372,272.7L85.452,272.475L85.532,272.1L85.612,271.8L85.691,271.575L85.771,271.5L85.851,270.9L85.931,270.975L86.011,270.6L86.09,270.45L86.17,270.225L86.25,269.85L86.33,269.55L86.41,269.475L86.489,269.25L86.569,269.175L86.649,268.875L86.729,268.725L86.809,268.425L86.888,267.9L86.968,267.525L87.048,267.15L87.128,266.925L87.207,266.55L87.287,266.4L87.367,265.575L87.447,265.875L87.527,265.725L87.606,265.65L87.686,265.575L87.766,265.125L87.846,264.9L87.926,264.75L88.005,264.45L88.085,264.225L88.165,263.85L88.245,263.475L88.324,263.175L88.404,263.025L88.484,262.65L88.564,262.65L88.644,262.425L88.723,261.975L88.803,261.675L88.883,261.45L88.963,261.3L89.043,260.85L89.122,260.85L89.202,260.25L89.282,260.25L89.362,259.875L89.441,259.725L89.521,259.575L89.601,259.275L89.681,258.9L89.761,258.825L89.84,258.375L89.92,258.45L90,258.15L90.08,257.775L90.16,257.775L90.239,257.325L90.319,257.175L90.399,257.175L90.479,256.725L90.559,256.725L90.638,256.2L90.718,256.05L90.798,255.675L90.878,255.45L90.957,255.225L91.037,255.075L91.117,255.075L91.197,254.775L91.277,254.475L91.356,254.325L91.436,254.1L91.516,254.1L91.596,254.1L91.676,253.8L91.755,253.875L91.835,254.025L91.915,253.8L91.995,253.725L92.074,253.725L92.154,253.725L92.234,253.65L92.314,253.575L92.394,253.575L92.473,253.275L92.553,253.05L92.633,253.05L92.713,253.125L92.793,253.05L92.872,253.125L92.952,253.125L93.032,252.9L93.112,252.6L93.191,252.675L93.271,252.525L93.351,252.375L93.431,251.925L93.511,251.775L93.59,251.475L93.67,251.175L93.75,250.875L93.83,250.425L93.91,250.2L93.989,250.05L94.069,249.825L94.149,249.6L94.229,249.075L94.309,249.15L94.388,249.075L94.468,248.925L94.548,248.7L94.628,248.925L94.707,248.7L94.787,248.7L94.867,248.775L94.947,248.775L95.027,248.775L95.106,248.925L95.186,248.85L95.266,248.775L95.346,248.925L95.426,249L95.505,249L95.585,249L95.665,248.925L95.745,249.075L95.824,249.15L95.904,249L95.984,249L96.064,249L96.144,249.15L96.223,249.075L96.303,249.15L96.383,249.15L96.463,249L96.543,248.925L96.622,249L96.702,249L96.782,248.925L96.862,249.075L96.941,249.15L97.021,249.15L97.101,249L97.181,249.075L97.261,249.15L97.34,249L97.42,249L97.5,249L97.58,249L97.66,249.075L97.739,249.15L97.819,249.15L97.899,249L97.979,249L98.059,249.3L98.138,249.3L98.218,249.3L98.298,249.225L98.378,249.225L98.457,249.075L98.537,249.075L98.617,249.3L98.697,249.15L98.777,249.225L98.856,249.075L98.936,249.225L99.016,249.3L99.096,249.375L99.176,249.3L99.255,249.3L99.335,249.45L99.415,249.3L99.495,249.3L99.574,249.225L99.654,249.15L99.734,248.85L99.814,248.775L99.894,248.7L99.973,248.475L100.053,248.1L100.133,247.875L100.213,247.5L100.293,247.35L100.372,246.975L100.452,246.675L100.532,246.45L100.612,246.15L100.691,245.85L100.771,245.4L100.851,245.175L100.931,244.65L101.011,244.35L101.09,244.2L101.17,243.9L101.25,243.9L101.33,243.75L101.41,243.6L101.489,243L101.569,243L101.649,242.7L101.729,242.4L101.809,242.25L101.888,241.875L101.968,241.725L102.048,241.275L102.128,240.675L102.207,240.825L102.287,240.525L102.367,240.075L102.447,239.925L102.527,239.55L102.606,239.175L102.686,238.95L102.766,238.725L102.846,238.725L102.926,238.425L103.005,238.35L103.085,237.9L103.165,237.6L103.245,237.6L103.324,237.525L103.404,237.075L103.484,236.925L103.564,236.775L103.644,236.325L103.723,236.025L103.803,235.725L103.883,235.575L103.963,235.2L104.043,235.05L104.122,234.75L104.202,234.525L104.282,234.45L104.362,234.3L104.441,234L104.521,233.475L104.601,233.325L104.681,233.25L104.761,232.8L104.84,232.575L104.92,232.05L105,231.825L105.08,231.6L105.16,231.375L105.239,231.225L105.319,231L105.399,230.775L105.479,230.55L105.559,230.4L105.638,230.325L105.718,229.95L105.798,229.8L105.878,229.425L105.957,229.275L106.037,228.825L106.117,228.75L106.197,228.45L106.277,228.3L106.356,228.3L106.436,227.85L106.516,227.625L106.596,227.25L106.676,227.175L106.755,226.8L106.835,226.575L106.915,226.275L106.995,225.9L107.074,225.675L107.154,225.45L107.234,225.075L107.314,224.85L107.394,224.4L107.473,224.175L107.553,223.725L107.633,223.65L107.713,223.35L107.793,223.125L107.872,222.9L107.952,222.675L108.032,222.6L108.112,222.225L108.191,221.85L108.271,221.625L108.351,221.4L108.431,221.1L108.511,220.8L108.59,220.35L108.67,220.125L108.75,220.125L108.83,219.675L108.91,219.525L108.989,219.225L109.069,219.075L109.149,218.85L109.229,218.4L109.309,218.1L109.388,217.725L109.468,217.35L109.548,217.125L109.628,216.825L109.707,216.675L109.787,216.225L109.867,216.075L109.947,215.775L110.027,215.55L110.106,215.25L110.186,215.025L110.266,214.8L110.346,214.575L110.426,214.575L110.505,214.65L110.585,214.65L110.665,214.65L110.745,214.5L110.824,214.5L110.904,214.5L110.984,214.425L111.064,214.65L111.144,214.725L111.223,214.725L111.303,214.725L111.383,214.575L111.463,214.65L111.543,214.65L111.622,214.65L111.702,214.725L111.782,214.8L111.862,214.575L111.941,214.575L112.021,214.425L112.101,213.825L112.181,213.525L112.261,213.15L112.34,212.775L112.42,212.625L112.5,212.1L112.58,211.95L112.66,211.8L112.739,211.65L112.819,211.2L112.899,211.05L112.979,210.675L113.059,210.6L113.138,210.375L113.218,210.15L113.298,209.85L113.378,209.475L113.457,209.25L113.537,208.875L113.617,208.875L113.697,208.425L113.777,207.975L113.856,207.75L113.936,207.375L114.016,207.15L114.096,206.85L114.176,206.475L114.255,206.25L114.335,205.95L114.415,205.8L114.495,205.5L114.574,205.275L114.654,204.825L114.734,204.525L114.814,204.225L114.894,203.925L114.973,203.55L115.053,203.1L115.133,202.875L115.213,202.875L115.293,202.275L115.372,202.05L115.452,201.975L115.532,201.75L115.612,201.525L115.691,201.3L115.771,201.15L115.851,201.15L115.931,201L116.011,200.925L116.09,200.775L116.17,200.625L116.25,200.55L116.33,200.325L116.41,200.25L116.489,200.4L116.569,200.25L116.649,200.1L116.729,199.95L116.809,199.95L116.888,199.725L116.968,199.8L117.048,199.425L117.128,199.275L117.207,199.2L117.287,198.975L117.367,198.675L117.447,198L117.527,197.775L117.606,197.55L117.686,197.025L117.766,196.8L117.846,196.65L117.926,196.65L118.005,195.975L118.085,195.975L118.165,195.9L118.245,195.525L118.324,195.225L118.404,195L118.484,194.55L118.564,194.475L118.644,194.325L118.723,193.95L118.803,193.725L118.883,193.725L118.963,193.275L119.043,193.125L119.122,192.9L119.202,192.6L119.282,192.375L119.362,192L119.441,191.625L119.521,191.325L119.601,191.175L119.681,190.875L119.761,190.8L119.84,190.35L119.92,190.2L120,190.125L120.08,189.825L120.16,189.6L120.239,189.225L120.319,189.15L120.399,188.85L120.479,188.475L120.559,188.325L120.638,188.175L120.718,188.025L120.798,187.875L120.878,187.65L120.957,187.575L121.037,187.575L121.117,187.425L121.197,187.2L121.277,187.5L121.356,187.425L121.436,187.275L121.516,187.2L121.596,186.9L121.676,186.375L121.755,186.225L121.835,185.925L121.915,185.55L121.995,185.325L122.074,184.875L122.154,184.725L122.234,184.5L122.314,184.125L122.394,184.125L122.473,183.6L122.553,183.75L122.633,183.6L122.713,183.675L122.793,183.525L122.872,183.45L122.952,183.6L123.032,183.6L123.112,183.6L123.191,183.525L123.271,183.6L123.351,183.675L123.431,183.075L123.511,182.7L123.59,182.625L123.67,182.4L123.75,182.175L123.83,181.725L123.91,181.425L123.989,181.125L124.069,180.9L124.149,180.675L124.229,180.225L124.309,180.075L124.388,179.7L124.468,179.7L124.548,179.475L124.628,179.175L124.707,178.875L124.787,178.65L124.867,178.425L124.947,178.2L125.027,177.75L125.106,177.6L125.186,177.3L125.266,177L125.346,177L125.426,176.7L125.505,176.475L125.585,176.4L125.665,176.025L125.745,175.8L125.824,175.425L125.904,175.2L125.984,174.9L126.064,174.6L126.144,174.375L126.223,174.225L126.303,173.85L126.383,173.625L126.463,173.625L126.543,173.325L126.622,173.25L126.702,172.95L126.782,172.725L126.862,172.575L126.941,172.275L127.021,172.125L127.101,171.825L127.181,171.45L127.261,171.375L127.34,171.075L127.42,170.925L127.5,170.85L127.58,170.55L127.66,170.325L127.739,170.325L127.819,170.1L127.899,169.95L127.979,169.8L128.059,169.575L128.138,169.575L128.218,169.35L128.298,169.35L128.378,169.425L128.457,169.35L128.537,169.35L128.617,169.275L128.697,169.35L128.777,169.35L128.856,169.275L128.936,169.275L129.016,169.275L129.096,169.425L129.176,169.425L129.255,169.65L129.335,169.5L129.415,169.65L129.495,169.575L129.574,169.65L129.654,169.425L129.734,169.575L129.814,169.575L129.894,169.575L129.973,169.65L130.053,169.65L130.133,169.65L130.213,169.575L130.293,169.65L130.372,169.5L130.452,169.65L130.532,169.65L130.612,169.575L130.691,169.65L130.771,169.575L130.851,169.575L130.931,169.65L131.011,169.65L131.09,169.65L131.17,169.575L131.25,169.5L131.33,169.5L131.41,169.575L131.489,169.575L131.569,169.8L131.649,169.8L131.729,169.65L131.809,169.725L131.888,169.8L131.968,169.875L132.048,169.8L132.128,169.8L132.207,169.8L132.287,169.65L132.367,169.725L132.447,169.65L132.527,169.65L132.606,169.65L132.686,169.725L132.766,169.725L132.846,169.65L132.926,169.725L133.005,169.725L133.085,169.65L133.165,169.65L133.245,169.725L133.324,169.725L133.404,169.5L133.484,169.5L133.564,169.65L133.644,169.65L133.723,169.65L133.803,169.65L133.883,169.65L133.963,169.65L134.043,169.725L134.122,169.65L134.202,169.575L134.282,169.575L134.362,169.95L134.441,170.325L134.521,170.25L134.601,170.325L134.681,170.25L134.761,170.625L134.84,170.55L134.92,170.55L135,170.4L135.08,169.875L135.16,169.65L135.239,169.275L135.319,168.975L135.399,168.525L135.479,168.525L135.559,168.3L135.638,168L135.718,167.85L135.798,167.55L135.878,167.475L135.957,167.25L136.037,166.875L136.117,166.575L136.197,166.275L136.277,165.825L136.356,165.45L136.436,165.15L136.516,164.85L136.596,164.625L136.676,164.55L136.755,164.25L136.835,163.95L136.915,163.5L136.995,163.125L137.074,162.825L137.154,162.45L137.234,162L137.314,161.7L137.394,161.4L137.473,161.175L137.553,160.875L137.633,160.65L137.713,160.35L137.793,159.975L137.872,159.675L137.952,159.3L138.032,158.925L138.112,158.625L138.191,158.325L138.271,158.25L138.351,157.65L138.431,157.575L138.511,157.35L138.59,157.05L138.67,156.825L138.75,156.525L138.83,156.225L138.91,155.85L138.989,155.7L139.069,155.175L139.149,154.95L139.229,154.95L139.309,154.425L139.388,154.275L139.468,154.05L139.548,153.675L139.628,153.3L139.707,153.075L139.787,152.55L139.867,152.325L139.947,152.1L140.027,151.725L140.106,151.575L140.186,151.425L140.266,151.275L140.346,151.275L140.426,151.425L140.505,151.5L140.585,151.35L140.665,151.275L140.745,151.2L140.824,151.35L140.904,151.2L140.984,151.35L141.064,151.2L141.144,151.2L141.223,151.2L141.303,151.35L141.383,151.275L141.463,151.275L141.543,150.9L141.622,150.9L141.702,150.975L141.782,151.05L141.862,150.975L141.941,150.9L142.021,150.6L142.101,150.15L142.181,150.15L142.261,149.85L142.34,149.625L142.42,149.175L142.5,149.1L142.58,148.725L142.66,148.425L142.739,148.275L142.819,147.975L142.899,148.2L142.979,147.975L143.059,147.975L143.138,147.825L143.218,147.675L143.298,147.225L143.378,147.075L143.457,146.85L143.537,146.625L143.617,146.475L143.697,146.25L143.777,146.025L143.856,146.025L143.936,145.425L144.016,145.2L144.096,145.2L144.176,145.5L144.255,145.575L144.335,145.725L144.415,145.725L144.495,145.5L144.574,145.8L144.654,145.725L144.734,145.875L144.814,145.725L144.894,145.8L144.973,145.65L145.053,145.8L145.133,145.8L145.213,145.8L145.293,145.8L145.372,145.8L145.452,145.725L145.532,145.725L145.612,145.8L145.691,145.8L145.771,145.8L145.851,145.8L145.931,145.5L146.011,145.725L146.09,145.8L146.17,145.95L146.25,145.65L146.33,145.725L146.41,145.65L146.489,145.8L146.569,145.8L146.649,145.8L146.729,145.875L146.809,145.875L146.888,145.8L146.968,145.725L147.048,145.8L147.128,145.875L147.207,146.025L147.287,145.875L147.367,145.95L147.447,145.875L147.527,145.875L147.606,146.025L147.686,146.1L147.766,146.025L147.846,145.95L147.926,146.1L148.005,146.1L148.085,146.025L148.165,145.95L148.245,146.1L148.324,146.025L148.404,145.875L148.484,146.175L148.564,146.175L148.644,146.025L148.723,146.1L148.803,146.1L148.883,146.1L148.963,146.025L149.043,146.25L149.122,146.1L149.202,145.95L149.282,145.8L149.362,145.8L149.441,145.425L149.521,145.2L149.601,145.2L149.681,144.75L149.761,144.45L149.84,144.3L149.92,144.075L150,143.7L150.08,143.325L150.16,142.95L150.239,142.65L150.319,142.35L150.399,141.975L150.479,141.675L150.559,141.6L150.638,141.375L150.718,141L150.798,140.55L150.878,140.25L150.957,139.8L151.037,139.425L151.117,139.05L151.197,138.825L151.277,138.45L151.356,138.375L151.436,138.15L151.516,137.775L151.596,137.475L151.676,137.025L151.755,136.725L151.835,136.35L151.915,136.125L151.995,135.75L152.074,135.375L152.154,135.075L152.234,134.775L152.314,134.625L152.394,134.55L152.473,134.175L152.553,133.95L152.633,133.575L152.713,133.35L152.793,132.975L152.872,132.6L152.952,132.225L153.032,132.225L153.112,131.85L153.191,131.475L153.271,131.475L153.351,131.025L153.431,130.725L153.511,130.5L153.59,130.125L153.67,129.9L153.75,129.375L153.83,129L153.91,128.475L153.989,128.325L154.069,127.8L154.149,127.5L154.229,127.5L154.309,126.975L154.388,126.675L154.468,126.525L154.548,126.225L154.628,125.7L154.707,125.55L154.787,125.1L154.867,125.1L154.947,124.8L155.027,124.425L155.106,124.425L155.186,123.975L155.266,123.525L155.346,123.45L155.426,123.15L155.505,122.775L155.585,122.55L155.665,122.25L155.745,122.025L155.824,121.725L155.904,121.575L155.984,121.275L156.064,121.125L156.144,120.975L156.223,120.675L156.303,120.375L156.383,120.225L156.463,119.925L156.543,119.775L156.622,119.55L156.702,119.325L156.782,119.175L156.862,119.175L156.941,118.8L157.021,118.8L157.101,118.425L157.181,118.125L157.261,117.975L157.34,117.675L157.42,117.525L157.5,117.375L157.58,117.075L157.66,117.075L157.739,116.925L157.819,116.925L157.899,116.85L157.979,116.775L158.059,116.85L158.138,116.85L158.218,117.075L158.298,117.15L158.378,117.15L158.457,117.225L158.537,117.075L158.617,117L158.697,117.075L158.777,117.075L158.856,117.075L158.936,117L159.016,117L159.096,117.075L159.176,117L159.255,117.075L159.335,117.075L159.415,117.15L159.495,117.225L159.574,117.225L159.654,117.075L159.734,117.075L159.814,117.225L159.894,117.15L159.973,117.225L160.053,117L160.133,117.075L160.213,117.15L160.293,117.15L160.372,117.15L160.452,117.15L160.532,117.15L160.612,117.15L160.691,117L160.771,117L160.851,117.225L160.931,117.225L161.011,117.3L161.09,117.075L161.17,117.225L161.25,117.225L161.33,117.225L161.41,117.225L161.489,117.075L161.569,117.075L161.649,117.075L161.729,117.225L161.809,117.3L161.888,117.225L161.968,117.225L162.048,117.15L162.128,117.075L162.207,117L162.287,117.075L162.367,117.075L162.447,117.15L162.527,117.225L162.606,117.225L162.686,117.15L162.766,117.15L162.846,117.075L162.926,117.15L163.005,117.075L163.085,117.15L163.165,117.3L163.245,117.225L163.324,117.225L163.404,117.225L163.484,117.15L163.564,117.225L163.644,117.225L163.723,117.075L163.803,117.3L163.883,117.3L163.963,117.15L164.043,117.375L164.122,117.225L164.202,117.3L164.282,117.3L164.362,117.3L164.441,117.375L164.521,117.3L164.601,117.225L164.681,117.3L164.761,117.45L164.84,117.3L164.92,117.375L165,117.45L165.08,117.375L165.16,117.3L165.239,117.375L165.319,117.3L165.399,117.3L165.479,117.3L165.559,117.45L165.638,117.375L165.718,117.375L165.798,117.3L165.878,117.45L165.957,117.525L166.037,117.45L166.117,117.525L166.197,117.525L166.277,117.525L166.356,117.45L166.436,117.45L166.516,117.525L166.596,117.525L166.676,117.45L166.755,117.45L166.835,117.6L166.915,117.45L166.995,117.525L167.074,117.525L167.154,117.45L167.234,117.45L167.314,117.45L167.394,117.525L167.473,117.45L167.553,117.45L167.633,117.45L167.713,117.45L167.793,117.525L167.872,117.45L167.952,117.375L168.032,117.6L168.112,117.45L168.191,117.45L168.271,117.45L168.351,117.45L168.431,117.525L168.511,117.525L168.59,117.6L168.67,117.675L168.75,117.525L168.83,117.675L168.91,117.6L168.989,117.675L169.069,117.6L169.149,117.75L169.229,117.675L169.309,117.675L169.388,117.6L169.468,117.675L169.548,117.6L169.628,117.6L169.707,117.6L169.787,117.675L169.867,117.6L169.947,117.675L170.027,117.675L170.106,117.675L170.186,117.675L170.266,117.975L170.346,117.75L170.426,117.675L170.505,117.825L170.585,117.825L170.665,117.675L170.745,117.675L170.824,117.675L170.904,117.675L170.984,117.675L171.064,117.75L171.144,117.75L171.223,117.75L171.303,117.6L171.383,117.675L171.463,117.675L171.543,117.675L171.622,117.75L171.702,117.75L171.782,117.675L171.862,117.825L171.941,117.675L172.021,117.75L172.101,117.675L172.181,117.75L172.261,117.75L172.34,117.75L172.42,117.675L172.5,117.675L172.58,117.75L172.66,117.75L172.739,117.75L172.819,117.825L172.899,117.9L172.979,117.75L173.059,117.9L173.138,117.675L173.218,117.6L173.298,117.6L173.378,117.525L173.457,117.075L173.537,116.7L173.617,116.55L173.697,116.25L173.777,116.1L173.856,115.95L173.936,115.575L174.016,115.275L174.096,114.9L174.176,114.675L174.255,114.3L174.335,113.85L174.415,113.625L174.495,113.25L174.574,112.95L174.654,112.5L174.734,112.35L174.814,112.275L174.894,111.825L174.973,111.45L175.053,111.15L175.133,111.075L175.213,110.625L175.293,110.625L175.372,110.4L175.452,110.175L175.532,110.175L175.612,109.725L175.691,109.5L175.771,109.05L175.851,108.75L175.931,108.225L176.011,108L176.09,107.85L176.17,107.475L176.25,107.25L176.33,107.1L176.41,106.725L176.489,106.425L176.569,106.275L176.649,106.125L176.729,105.75L176.809,105.45L176.888,105.075L176.968,105L177.048,104.55L177.128,104.25L177.207,103.95L177.287,103.575L177.367,103.35L177.447,103.125L177.527,102.9L177.606,102.6L177.686,102.225L177.766,101.925L177.846,101.7L177.926,101.4L178.005,101.025L178.085,100.65L178.165,100.5L178.245,100.2L178.324,100.2L178.404,99.75L178.484,99.6L178.564,99.3L178.644,99.15L178.723,98.925L178.803,98.775L178.883,98.475L178.963,98.025L179.043,97.575L179.122,97.35L179.202,96.975L179.282,96.675L179.362,96.225L179.441,96.15L179.521,95.7L179.601,95.55L179.681,95.1L179.761,94.725L179.84,94.425L179.92,94.05L180,93.825L180.08,93.525L180.16,93.375L180.239,93.075L180.319,92.7L180.399,92.55L180.479,92.175L180.559,92.025L180.638,91.65L180.718,91.275L180.798,91.05L180.878,90.675L180.957,90.375L181.037,90L181.117,89.625L181.197,89.55L181.277,89.475L181.356,89.1L181.436,88.875L181.516,88.65L181.596,88.275L181.676,88.05L181.755,87.675L181.835,87.45L181.915,87L181.995,87L182.074,86.4L182.154,86.1L182.234,86.175L182.314,85.875L182.394,85.5L182.473,85.2L182.553,84.9L182.633,84.675L182.713,84.45L182.793,84.15L182.872,84.225L182.952,84.075L183.032,84.075L183.112,84.15L183.191,84L183.271,83.925L183.351,84L183.431,84.075L183.511,83.925L183.59,83.925L183.67,83.925L183.75,84L183.83,84L183.91,84L183.989,83.925L184.069,84.075L184.149,83.925L184.229,84L184.309,84.075L184.388,84.15L184.468,83.925L184.548,84.075L184.628,84.075L184.707,84.075L184.787,84.075L184.867,84L184.947,84.15L185.027,84L185.106,84.075L185.186,84.15L185.266,84L185.346,83.925L185.426,83.925L185.505,84L185.585,83.925L185.665,83.925L185.745,83.925L185.824,83.925L185.904,83.925L185.984,83.925L186.064,83.925L186.144,84L186.223,83.925L186.303,83.925L186.383,83.925L186.463,83.925L186.543,83.85L186.622,83.85L186.702,83.925L186.782,83.925L186.862,83.7L186.941,83.625L187.021,83.325L187.101,82.95L187.181,82.725L187.261,82.275L187.34,81.975L187.42,81.675L187.5,81.375L187.58,81.075L187.66,80.775L187.739,80.7L187.819,80.25L187.899,79.95L187.979,79.725L188.059,79.425L188.138,79.125L188.218,78.75L188.298,78.45L188.378,78.225L188.457,78.075L188.537,77.7L188.617,77.55L188.697,77.325L188.777,77.175L188.856,76.95L188.936,76.725L189.016,76.5L189.096,76.125L189.176,75.75L189.255,75.6L189.335,75.525L189.415,75.225L189.495,74.775L189.574,74.775L189.654,74.7L189.734,74.325L189.814,74.1L189.894,73.8L189.973,73.35L190.053,73.2L190.133,72.825L190.213,72.525L190.293,72.3L190.372,72L190.452,71.85L190.532,71.775L190.612,71.325L190.691,70.875L190.771,70.65L190.851,70.35L190.931,70.05L191.011,69.6L191.09,69.375L191.17,69.375L191.25,68.925L191.33,68.7L191.41,68.55L191.489,68.4L191.569,68.025L191.649,67.875L191.729,67.65L191.809,67.425L191.888,67.125L191.968,66.9L192.048,66.6L192.128,66.6L192.207,66.15L192.287,65.85L192.367,65.85L192.447,65.7L192.527,65.4L192.606,65.1L192.686,64.8L192.766,64.5L192.846,64.125L192.926,63.9L193.005,63.825L193.085,63.675L193.165,63.3L193.245,63.3L193.324,63L193.404,62.775L193.484,62.475L193.564,62.025L193.644,61.8L193.723,61.5L193.803,61.275L193.883,60.975L193.963,60.825L194.043,60.525L194.122,60.15L194.202,60.15L194.282,59.775L194.362,59.7L194.441,59.175L194.521,58.875L194.601,58.65L194.681,58.35L194.761,58.05L194.84,57.75L194.92,57.75L195,57.3L195.08,57.375L195.16,56.925L195.239,56.625L195.319,56.475L195.399,56.1L195.479,55.95L195.559,55.5L195.638,55.2L195.718,54.975L195.798,54.75L195.878,54.3L195.957,54.075L196.037,54L196.117,54.15L196.197,54L196.277,53.925L196.356,54.15L196.436,54L196.516,54L196.596,54.075L196.676,54L196.755,54L196.835,54.075L196.915,54L196.995,54.075L197.074,54.075L197.154,54.075L197.234,54.075L197.314,54.15L197.394,54L197.473,54.075L197.553,54L197.633,54L197.713,54.075L197.793,54.15L197.872,54.225L197.952,54.15L198.032,54.225L198.112,54L198.191,54L198.271,54.075L198.351,54L198.431,54L198.511,54.225L198.59,54.15L198.67,54.075L198.75,54.075L198.83,54.225L198.91,54.075L198.989,54L199.069,54L199.149,54.15L199.229,54L199.309,53.7L199.388,53.475L199.468,53.475L199.548,53.1L199.628,52.725L199.707,52.65L199.787,52.275L199.867,52.05L199.947,51.75L200.027,51.3L200.106,51.075L200.186,50.7L200.266,50.55L200.346,50.175L200.426,50.1L200.505,49.8L200.585,49.5L200.665,49.425L200.745,49.275L200.824,48.9L200.904,48.45L200.984,48.225L201.064,48L201.144,47.775L201.223,47.475L201.303,47.1L201.383,47.1L201.463,46.725L201.543,46.65L201.622,46.5L201.702,46.125L201.782,45.75L201.862,45.375L201.941,45.15L202.021,44.925L202.101,44.55L202.181,44.175L202.261,43.95L202.34,43.8L202.42,43.65L202.5,43.35L202.58,43.35L202.66,42.9L202.739,42.675L202.819,42.225L202.899,41.925L202.979,41.4L203.059,41.1L203.138,40.8L203.218,40.575L203.298,40.35L203.378,40.05L203.457,40.125L203.537,39.825L203.617,39.525L203.697,39.3L203.777,39.075L203.856,38.775L203.936,38.625L204.016,38.25L204.096,38.175L204.176,38.25L204.255,38.25L204.335,38.325L204.415,38.325L204.495,38.25L204.574,38.175L204.654,38.25L204.734,38.25L204.814,38.1L204.894,38.1L204.973,38.175L205.053,38.1L205.133,38.1L205.213,38.175L205.293,38.175L205.372,38.175L205.452,38.025L205.532,38.1L205.612,38.175L205.691,38.175L205.771,37.95L205.851,38.025L205.931,38.025L206.011,37.95L206.09,38.025L206.17,38.025L206.25,38.1L206.33,38.025L206.41,38.1L206.489,38.25L206.569,38.175L206.649,37.875L206.729,37.65L206.809,37.35L206.888,37.275L206.968,37.125L207.048,37.05L207.128,36.975L207.207,36.975L207.287,37.05L207.367,37.275L207.447,37.125L207.527,37.2L207.606,37.125L207.686,36.9L207.766,36.9L207.846,36.975L207.926,36.975L208.005,37.05L208.085,37.125L208.165,37.05L208.245,37.05L208.324,36.9L208.404,36.9L208.484,36.975L208.564,36.975L208.644,37.05L208.723,36.9L208.803,36.975L208.883,37.05L208.963,36.975L209.043,36.9L209.122,36.9L209.202,36.9L209.282,36.975L209.362,36.975L209.441,37.05L209.521,36.825L209.601,37.125L209.681,37.125L209.761,36.975L209.84,36.9L209.92,36.9L210,36.9L210.08,36.9L210.16,36.9L210.239,36.825L210.319,36.9L210.399,36.9L210.479,36.9L210.559,36.825L210.638,36.825L210.718,36.9L210.798,36.9L210.878,36.975L210.957,36.825L211.037,36.75L211.117,36.75L211.197,36.825L211.277,36.825L211.356,36.75L211.436,36.9L211.516,36.9L211.596,36.825L211.676,36.75L211.755,36.75L211.835,36.75L211.915,36.75L211.995,36.825L212.074,36.825L212.154,36.825L212.234,36.825L212.314,36.975L212.394,36.975L212.473,36.975L212.553,36.975L212.633,37.05L212.713,36.975L212.793,36.9L212.872,36.825L212.952,36.9L213.032,36.9L213.112,36.9L213.191,36.825L213.271,36.825L213.351,36.975L213.431,36.9L213.511,36.825L213.59,36.975L213.67,37.05L213.75,36.9L213.83,36.9L213.91,36.9L213.989,37.05L214.069,37.05L214.149,37.125L214.229,37.125L214.309,37.125L214.388,37.2L214.468,37.125L214.548,36.975L214.628,36.9L214.707,36.975L214.787,37.05L214.867,36.825L214.947,36.975L215.027,36.9L215.106,36.9L215.186,36.9L215.266,36.9L215.346,36.75L215.426,36.9L215.505,36.975L215.585,36.975L215.665,36.9L215.745,36.9L215.824,36.9L215.904,36.9L215.984,36.825L216.064,36.825L216.144,36.825L216.223,36.825L216.303,36.9L216.383,36.825L216.463,36.9L216.543,36.75L216.622,36.975L216.702,37.05L216.782,37.35L216.862,37.5L216.941,37.8L217.021,37.875L217.101,37.875L217.181,37.8L217.261,37.95L217.34,37.95L217.42,37.875L217.5,37.95L217.58,37.875L217.66,37.875L217.739,37.875L217.819,37.875L217.899,37.875L217.979,37.95L218.059,37.8L218.138,37.875L218.218,37.95L218.298,37.95L218.378,37.95L218.457,37.95L218.537,37.95L218.617,37.95L218.697,37.95L218.777,37.95L218.856,37.95L218.936,37.95L219.016,37.8L219.096,38.025L219.176,38.025L219.255,38.1L219.335,38.1L219.415,38.025L219.495,38.025L219.574,37.95L219.654,38.1L219.734,37.95L219.814,37.95L219.894,38.1L219.973,38.175L220.053,38.25L220.133,38.475L220.213,38.475L220.293,38.55L220.372,38.85L220.452,39L220.532,39.15L220.612,39.225L220.691,39.375L220.771,39.525L220.851,39.525L220.931,39.825L221.011,39.825L221.09,39.825L221.17,39.75L221.25,39.6L221.33,39.45L221.41,39.3L221.489,39.075L221.569,39.075L221.649,39.075L221.729,39.075L221.809,38.925L221.888,38.775L221.968,39L222.048,38.925L222.128,38.925L222.207,38.775L222.287,38.625L222.367,38.625L222.447,38.7L222.527,38.325L222.606,38.325L222.686,38.25L222.766,38.1L222.846,38.1L222.926,38.1L223.005,38.175L223.085,38.175L223.165,38.25L223.245,38.175L223.324,38.175L223.404,38.25L223.484,38.325L223.564,38.325L223.644,38.325L223.723,38.25L223.803,38.25L223.883,38.325L223.963,38.175L224.043,38.325L224.122,38.25L224.202,38.25L224.282,38.175L224.362,38.175L224.441,38.1L224.521,38.175L224.601,38.175L224.681,38.325L224.761,38.325L224.84,38.325L224.92,38.4L225,38.325L225.08,38.175L225.16,38.25L225.239,38.25L225.319,38.325L225.399,38.325L225.479,38.175L225.559,38.4L225.638,38.325L225.718,38.325L225.798,38.25L225.878,38.25L225.957,38.175L226.037,38.175L226.117,38.175L226.197,38.25L226.277,38.1L226.356,38.175L226.436,38.325L226.516,38.325L226.596,38.25L226.676,38.25L226.755,38.175L226.835,38.175L226.915,38.175L226.995,38.25L227.074,38.175L227.154,38.25L227.234,38.4L227.314,38.25L227.394,38.4L227.473,38.4L227.553,38.475L227.633,38.4L227.713,38.325L227.793,38.25L227.872,38.325L227.952,38.25L228.032,38.25L228.112,38.325L228.191,38.25L228.271,38.25L228.351,38.4L228.431,38.25L228.511,38.325L228.59,38.325L228.67,38.25L228.75,38.4L228.83,38.325L228.91,38.325L228.989,38.325L229.069,38.25L229.149,38.325L229.229,38.325L229.309,38.25L229.388,38.25L229.468,38.325L229.548,38.25L229.628,38.325L229.707,38.4L229.787,38.4L229.867,38.325L229.947,38.325L230.027,38.325L230.106,38.325L230.186,38.325L230.266,38.175L230.346,38.175L230.426,38.25L230.505,38.175L230.585,38.325L230.665,38.175L230.745,38.25L230.824,38.25L230.904,38.1L230.984,38.1L231.064,38.1L231.144,37.95L231.223,38.25L231.303,38.55L231.383,38.475L231.463,38.475L231.543,38.175L231.622,38.175L231.702,38.175L231.782,38.4L231.862,38.325L231.941,38.325L232.021,38.475L232.101,38.475L232.181,38.325L232.261,38.4L232.34,38.475L232.42,38.55L232.5,38.7L232.58,39L232.66,39.075L232.739,39.375L232.819,39.75L232.899,39.975L232.979,40.125L233.059,40.2L233.138,40.425L233.218,40.275L233.298,40.05L233.378,40.05L233.457,39.975L233.537,40.05L233.617,39.9L233.697,40.05L233.777,40.05L233.856,40.05L233.936,40.05L234.016,39.975L234.096,40.125L234.176,40.425L234.255,41.55L234.335,42.375L234.415,43.8L234.495,45.225L234.574,46.95L234.654,48.075L234.734,48.075L234.814,49.65L234.894,50.625L234.973,52.05L235.053,52.8L235.133,53.7L235.213,54.975L235.293,55.95L235.372,57.075L235.452,58.35L235.532,59.175L235.612,60.225L235.691,60.6L235.771,61.8L235.851,62.4L235.931,63.675L236.011,65.325L236.09,67.125L236.17,68.7L236.25,70.125L236.33,71.925L236.41,73.575L236.489,75.075L236.569,75.6L236.649,75.75L236.729,75.675L236.809,75.675L236.888,75.675L236.968,75.75L237.048,75.825L237.128,75.975L237.207,75.9L237.287,76.05L237.367,76.125L237.447,75.9L237.527,76.05L237.606,76.2L237.686,77.025L237.766,77.4L237.846,78L237.926,78.45L238.005,78.825L238.085,79.425L238.165,79.8L238.245,79.8L238.324,80.325L238.404,81.675L238.484,81.675L238.564,83.025L238.644,83.55L238.723,84.3L238.803,85.05L238.883,84.825L238.963,83.775L239.043,83.625L239.122,82.65L239.202,82.35L239.282,81.975L239.362,81.825L239.441,81.825L239.521,81.825L239.601,82.2L239.681,82.725L239.761,82.5L239.84,82.8L239.92,82.875L240,83.025L240.08,82.95L240.16,82.95L240.239,82.8L240.319,82.35L240.399,81.975L240.479,81.675L240.559,81.15L240.638,81.45L240.718,80.925L240.798,80.625L240.878,80.7L240.957,80.7L241.037,81.15L241.117,81.15L241.197,81L241.277,81.075L241.356,81.225L241.436,81.3L241.516,81.225L241.596,81.15L241.676,81.225L241.755,81.15L241.835,81.15L241.915,81.15L241.995,81.075L242.074,81.225L242.154,81.225L242.234,81.075L242.314,81L242.394,81L242.473,81.075L242.553,81L242.633,81.075L242.713,81L242.793,81.075L242.872,81L242.952,80.925L243.032,80.85L243.112,80.925L243.191,80.85L243.271,80.775L243.351,80.625L243.431,80.7L243.511,80.7L243.59,80.7L243.67,80.7L243.75,80.625L243.83,80.7L243.91,80.925L243.989,80.775L244.069,80.775L244.149,80.7L244.229,80.55L244.309,80.25L244.388,80.25L244.468,80.1L244.548,79.8L244.628,79.8L244.707,79.8L244.787,79.95L244.867,79.725L244.947,79.575L245.027,79.875L245.106,79.875L245.186,79.875L245.266,79.5L245.346,79.875L245.426,79.8L245.505,79.5L245.585,79.5L245.665,79.8L245.745,80.25L245.824,81.375L245.904,82.35L245.984,82.725L246.064,84.3L246.144,85.8L246.223,86.925L246.303,88.425L246.383,88.65L246.463,90.675L246.543,92.4L246.622,94.125L246.702,96L246.782,98.175L246.862,98.55L246.941,99.9L247.021,101.175L247.101,102.15L247.181,103.05L247.261,103.5L247.34,104.25L247.42,105.225L247.5,106.125L247.58,107.175L247.66,108.45L247.739,109.725L247.819,110.1L247.899,111.825L247.979,113.475L248.059,114.45L248.138,115.275L248.218,116.25L248.298,118.2L248.378,119.625L248.457,120.375L248.537,121.725L248.617,122.925L248.697,123.3L248.777,124.275L248.856,125.325L248.936,126.675L249.016,128.325L249.096,128.85L249.176,130.05L249.255,131.475L249.335,132.9L249.415,134.4L249.495,136.125L249.574,138.15L249.654,138.525L249.734,140.475L249.814,142.875L249.894,144L249.973,145.275L250.053,147.075L250.133,148.8L250.213,149.925L250.293,151.425L250.372,152.475L250.452,154.575L250.532,156.525L250.612,156.9L250.691,158.775L250.771,160.2L250.851,160.125L250.931,160.125L251.011,160.35L251.09,160.5L251.17,160.875L251.25,160.95L251.33,161.1L251.41,161.475L251.489,161.85L251.569,162.45L251.649,162.825L251.729,163.125L251.809,163.5L251.888,163.875L251.968,164.025L252.048,165.15L252.128,166.8L252.207,167.775L252.287,168.675L252.367,169.95L252.447,170.325L252.527,172.275L252.606,173.1L252.686,174.225L252.766,175.8L252.846,177L252.926,178.575L253.005,180.075L253.085,181.2L253.165,182.475L253.245,183.9L253.324,185.775L253.404,186.15L253.484,187.575L253.564,189.15L253.644,189.525L253.723,190.05L253.803,191.625L253.883,192.675L253.963,194.4L254.043,196.125L254.122,198.525L254.202,199.725L254.282,201.075L254.362,201.45L254.441,202.65L254.521,203.85L254.601,205.125L254.681,206.325L254.761,207.975L254.84,209.475L254.92,211.65L255,212.775L255.08,214.2L255.16,215.775L255.239,216.15L255.319,217.2L255.399,218.55L255.479,220.275L255.559,221.55L255.638,222.975L255.718,223.575L255.798,223.725L255.878,223.5L255.957,223.275L256.037,223.275L256.117,223.5L256.197,223.575L256.277,223.65L256.356,223.65L256.436,223.725L256.516,223.575L256.596,223.65L256.676,223.725L256.755,223.5L256.835,223.5L256.915,223.575L256.995,223.65L257.074,223.575L257.154,223.65L257.234,223.425L257.314,223.275L257.394,223.275L257.473,223.425L257.553,224.625L257.633,226.2L257.713,227.625L257.793,229.275L257.872,231.225L257.952,232.875L258.032,233.25L258.112,234.675L258.191,236.175L258.271,237.825L258.351,239.25L258.431,240.225L258.511,241.875L258.59,243.075L258.67,244.725L258.75,245.775L258.83,246.9L258.91,247.275L258.989,248.7L259.069,250.35L259.149,251.775L259.229,253.2L259.309,254.625L259.388,255.825L259.468,257.025L259.548,258.15L259.628,260.25L259.707,261.675L259.787,264.075L259.867,264.45L259.947,265.5L260.027,267L260.106,267.375L260.186,268.425L260.266,269.25L260.346,268.95L260.426,269.625L260.505,269.85L260.585,270L260.665,270.075L260.745,270.3L260.824,270.45L260.904,270.45L260.984,270.45L261.064,270.375L261.144,271.125L261.223,271.65L261.303,271.65L261.383,271.95L261.463,272.475L261.543,273L261.622,273.225L261.702,273.225L261.782,273.45L261.862,273.525L261.941,273.825L262.021,273.45L262.101,273.45L262.181,273.75L262.261,274.2L262.34,274.725L262.42,275.025L262.5,274.95L262.58,275.25L262.66,275.775L262.739,276.075L262.819,276.375L262.899,276.6L262.979,276.975L263.059,276.975L263.138,276.975L263.218,277.125L263.298,277.275L263.378,277.5L263.457,277.575L263.537,277.575L263.617,277.65L263.697,277.65L263.777,277.65L263.856,277.8L263.936,277.95L264.016,278.25L264.096,278.925L264.176,278.925L264.255,279.3L264.335,279.75L264.415,279.75L264.495,280.275L264.574,280.35L264.654,280.275L264.734,280.275L264.814,280.35L264.894,280.275L264.973,280.125L265.053,280.275L265.133,280.275L265.213,280.125L265.293,280.125L265.372,280.125L265.452,280.2L265.532,280.2L265.612,280.2L265.691,280.05L265.771,280.125L265.851,280.05L265.931,279.975L266.011,280.05L266.09,280.05L266.17,280.125L266.25,280.125L266.33,280.05L266.41,280.125L266.489,280.2L266.569,280.125L266.649,280.275L266.729,280.275L266.809,280.35L266.888,280.2L266.968,280.125L267.048,280.2L267.128,280.275L267.207,280.5L267.287,280.425L267.367,280.425L267.447,280.5L267.527,280.5L267.606,280.425L267.686,280.425L267.766,280.425L267.846,280.2L267.926,280.65L268.005,280.725L268.085,280.65L268.165,280.65L268.245,280.725L268.324,280.725L268.404,280.8L268.484,280.8L268.564,280.95L268.644,280.8L268.723,280.8L268.803,280.8L268.883,280.875L268.963,280.95L269.043,281.025L269.122,281.1L269.202,281.1L269.282,281.025L269.362,281.25L269.441,281.1L269.521,281.175L269.601,281.4L269.681,281.25L269.761,281.325L269.84,281.325L269.92,281.325L270,281.625L270.08,281.55L270.16,281.55L270.239,281.625L270.319,281.625L270.399,281.775L270.479,281.7L270.559,281.7L270.638,281.775L270.718,281.775L270.798,281.775L270.878,281.775L270.957,281.7L271.037,281.925L271.117,282.075L271.197,281.925L271.277,281.775L271.356,281.7L271.436,281.85L271.516,281.85L271.596,281.85L271.676,282L271.755,282L271.835,282L271.915,282L271.995,282L272.074,282.075L272.154,282.15L272.234,282.225L272.314,282.15L272.394,282L272.473,282.525L272.553,282.45L272.633,282.45L272.713,282.45L272.793,282.525L272.872,282.525L272.952,282.675L273.032,282.75L273.112,282.825L273.191,282.825L273.271,282.9L273.351,282.75L273.431,282.9L273.511,283.05L273.59,283.2L273.67,283.2L273.75,283.2L273.83,283.275L273.91,283.275L273.989,283.2L274.069,283.35L274.149,283.35L274.229,283.275L274.309,283.275L274.388,283.425L274.468,283.2L274.548,283.425L274.628,283.425L274.707,283.35L274.787,283.425L274.867,283.575L274.947,283.275L275.027,283.425L275.106,283.425L275.186,283.35L275.266,283.35L275.346,283.425L275.426,283.425L275.505,283.425L275.585,283.275L275.665,283.2L275.745,283.2L275.824,283.2L275.904,283.125L275.984,283.2L276.064,283.125L276.144,282.975L276.223,282.975L276.303,283.05L276.383,283.2L276.463,283.2L276.543,283.125L276.622,283.2L276.702,282.975L276.782,283.125L276.862,283.125L276.941,283.125L277.021,283.05L277.101,282.9L277.181,283.05L277.261,283.05L277.34,282.9L277.42,282.975L277.5,282.975L277.58,282.975L277.66,282.825L277.739,283.05L277.819,283.05L277.899,282.9L277.979,282.9L278.059,282.825L278.138,283.05L278.218,282.9L278.298,282.9L278.378,282.975L278.457,282.9L278.537,282.975L278.617,282.9L278.697,282.825L278.777,282.9L278.856,282.9L278.936,282.9L279.016,283.05L279.096,283.125L279.176,282.9L279.255,282.975L279.335,282.825L279.415,282.825L279.495,282.825L279.574,282.9L279.654,282.9L279.734,282.825L279.814,282.975L279.894,283.125L279.973,283.05L280.053,283.275L280.133,283.2L280.213,283.425L280.293,283.425L280.372,283.35L280.452,283.425L280.532,283.35L280.612,283.2L280.691,283.35L280.771,283.275L280.851,283.2L280.931,283.125L281.011,282.975L281.09,282.6L281.17,282.225L281.25,282.15L281.33,281.925L281.41,281.625L281.489,281.475L281.569,280.875L281.649,280.8L281.729,280.275L281.809,280.125L281.888,280.05L281.968,280.2L282.048,280.5L282.128,281.1L282.207,281.1L282.287,281.175L282.367,281.175L282.447,281.1L282.527,281.4L282.606,281.475L282.686,281.625L282.766,281.475L282.846,281.475L282.926,281.625L283.005,281.55L283.085,281.475L283.165,281.625L283.245,281.625L283.324,281.55L283.404,281.55L283.484,281.625L283.564,281.7L283.644,281.7L283.723,281.7L283.803,281.7L283.883,281.85L283.963,282L284.043,281.925L284.122,282L284.202,282.15L284.282,281.925L284.362,282L284.441,282.375L284.521,282.75L284.601,283.05L284.681,283.05L284.761,283.2L284.84,283.2L284.92,283.35L285,283.35L285.08,283.125L285.16,283.2L285.239,283.575L285.319,283.65L285.399,283.425L285.479,283.275L285.559,282.9L285.638,282.9L285.718,282.825L285.798,282.75L285.878,282.675L285.957,282.75L286.037,282.675L286.117,282.675L286.197,282.675L286.277,282.675L286.356,282.75L286.436,282.75L286.516,282.75L286.596,282.825L286.676,283.425L286.755,283.35L286.835,283.425L286.915,283.5L286.995,283.35L287.074,283.65L287.154,283.65L287.234,283.95L287.314,283.8L287.394,284.1L287.473,284.1L287.553,283.95L287.633,283.8L287.713,283.575L287.793,283.425L287.872,283.575L287.952,283.425L288.032,283.575L288.112,283.575L288.191,283.275L288.271,283.425L288.351,283.65L288.431,283.425L288.511,283.275L288.59,283.2L288.67,283.2L288.75,283.2L288.83,283.275L288.91,283.2L288.989,283.275L289.069,283.275L289.149,283.05L289.229,282.9L289.309,282.9L289.388,282.675L289.468,282.675L289.548,282.6L289.628,282.6L289.707,282.75L289.787,283.125L289.867,283.125L289.947,283.275L290.027,283.2L290.106,283.2L290.186,282.9L290.266,282.9L290.346,282.9L290.426,282.825L290.505,282.675L290.585,282.825L290.665,282.75L290.745,282.6L290.824,282.75L290.904,282.375L290.984,282.45L291.064,282.3L291.144,282.225L291.223,282.075L291.303,281.85L291.383,282.15L291.463,281.475L291.543,281.625L291.622,281.625L291.702,281.775L291.782,281.85L291.862,282.15L291.941,282.675L292.021,282.6L292.101,282.675L292.181,282.075L292.261,281.475L292.34,281.175L292.42,281.025L292.5,280.575L292.58,280.5L292.66,280.575L292.739,280.35L292.819,280.35L292.899,280.575L292.979,280.575L293.059,280.575L293.138,280.35L293.218,280.425L293.298,280.575L293.378,280.425L293.457,280.425L293.537,280.5L293.617,280.5L293.697,280.5L293.777,280.5L293.856,280.725L293.936,281.25L294.016,281.25L294.096,281.25L294.176,281.175L294.255,281.4L294.335,281.775L294.415,281.925L294.495,282.075L294.574,282.3L294.654,282.45L294.734,282.45L294.814,282.675L294.894,282.9L294.973,282.975L295.053,283.05L295.133,283.125L295.213,283.125L295.293,283.35L295.372,283.5L295.452,283.425L295.532,283.575L295.612,284.175L295.691,284.25L295.771,284.25L295.851,284.325L295.931,284.4L296.011,284.4L296.09,284.4L296.17,284.55L296.25,284.475L296.33,284.85L296.41,285L296.489,285L296.569,285L296.649,285.15L296.729,285.225L296.809,285.15L296.888,285.225L296.968,285.15L297.048,285.225L297.128,284.925L297.207,285.225L297.287,285.375L297.367,285.45L297.447,285.525L297.527,285.525L297.606,285.75L297.686,285.75L297.766,285.825L297.846,286.125L297.926,286.125L298.005,286.05L298.085,286.35L298.165,286.35L298.245,286.5L298.324,286.425L298.404,286.35L298.484,286.275L298.564,286.2L298.644,286.125L298.723,286.275L298.803,286.35L298.883,286.575L298.963,286.65L299.043,286.65L299.122,286.65L299.202,286.65L299.282,286.5L299.362,286.425L299.441,286.35L299.521,286.35L299.601,286.35L299.681,286.425L299.761,286.125L299.84,286.05L299.92,286.125L300,286.05" stroke="#4c78a8" stroke-width="2"/></g></g><path class="foreground" aria-hidden="true" d="" display="none"/></g></g></g></svg>