<svg xmlns="http://www.w3.org/2000/svg" xmlns:xlink="http://www.w3.org/1999/xlink" version="1.1" class="marks" width="563" height="347" viewBox="0 0 563 347"><rect width="563" height="347" fill="white"/><g fill="none" stroke-miterlimit="10" transform="translate(53,10)"><g class="mark-group role-frame root" role="graphics-object" aria-roledescription="group mark container"><g transform="translate(0,0)"><path class="background" aria-hidden="true" d="M0.5,0.5h500v300h-500Z" stroke="#ddd"/><g><g class="mark-group role-axis" aria-hidden="true"><g transform="translate(0.5,300.5)"><path class="background" aria-hidden="true" d="M0,0h0v0h0Z" pointer-events="none"/><g><g class="mark-rule role-axis-grid" pointer-events="none"><line transform="translate(13,-300)" x2="0" y2="300" stroke="#ddd" stroke-width="1" opacity="1"/><line transform="translate(43,-300)" x2="0" y2="300" stroke="#ddd" stroke-width="1" opacity="1"/><line transform="translate(73,-300)" x2="0" y2="300" stroke="#ddd" stroke-width="1" opacity="1"/><line transform="translate(103,-300)" x2="0" y2="300" stroke="#ddd" stroke-width="1" opacity="1"/><line transform="translate(133,-300)" x2="0" y2="300" stroke="#ddd" stroke-width="1" opacity="1"/><line transform="translate(163,-300)" x2="0" y2="300" stroke="#ddd" stroke-width="1" opacity="1"/><line transform="translate(193,-300)" x2="0" y2="300" stroke="#ddd" stroke-width="1" opacity="1"/><line transform="translate(223,-300)" x2="0" y2="300" stroke="#ddd" stroke-width="1" opacity="1"/><line transform="translate(253,-300)" x2="0" y2="300" stroke="#ddd" stroke-width="1" opacity="1"/><line transform="translate(282,-300)" x2="0" y2="300" stroke="#ddd" stroke-width="1" opacity="1"/><line transform="translate(312,-300)" x2="0" y2="300" stroke="#ddd" stroke-width="1" opacity="1"/><line transform="translate(342,-300)" x2="0" y2="300" stroke="#ddd" stroke-width="1" opacity="1"/><line transform="translate(372,-300)" x2="0" y2="300" stroke="#ddd" stroke-width="1" opacity="1"/><line transform="translate(402,-300)" x2="0" y2="300" stroke="#ddd" stroke-width="1" opacity="1"/><line transform="translate(432,-300)" x2="0" y2="300" stroke="#ddd" stroke-width="1" opacity="1"/><line transform="translate(462,-300)" x2="0" y2="300" stroke="#ddd" stroke-width="1" opacity="1"/><line transform="translate(492,-300)" x2="0" y2="300" stroke="#ddd" stroke-width="1" opacity="1"/></g></g><path class="foreground" aria-hidden="true" d="" pointer-events="none" display="none"/></g></g><g class="mark-group role-axis" aria-hidden="true"><g transform="translate(0.5,0.5)"><path class="background" aria-hidden="true" d="M0,0h0v0h0Z" pointer-events="none"/><g><g class="mark-rule role-axis-grid" pointer-events="none"><line transform="translate(0,300)" x2="500" y2="0" stroke="#ddd" stroke-width="1" opacity="1"/><line transform="translate(0,273)" x2="500" y2="0" stroke="#ddd" stroke-width="1" opacity="1"/><line transform="translate(0,245)" x2="500" y2="0" stroke="#ddd" stroke-width="1" opacity="1"/><line transform="translate(0,218)" x2="500" y2="0" stroke="#ddd" stroke-width="1" opacity="1"/><line transform="translate(0,191)" x2="500" y2="0" stroke="#ddd" stroke-width="1" opacity="1"/><line transform="translate(0,164)" x2="500" y2="0" stroke="#ddd" stroke-width="1" opacity="1"/><line transform="translate(0,136)" x2="500" y2="0" stroke="#ddd" stroke-width="1" opacity="1"/><line transform="translate(0,109)" x2="500" y2="0" stroke="#ddd" stroke-width="1" opacity="1"/><line transform="translate(0,82)" x2="500" y2="0" stroke="#ddd" stroke-width="1" opacity="1"/><line transform="translate(0,55)" x2="500" y2="0" stroke="#ddd" stroke-width="1" opacity="1"/><line transform="translate(0,27)" x2="500" y2="0" stroke="#ddd" stroke-width="1" opacity="1"/><line transform="translate(0,0)" x2="500" y2="0" stroke="#ddd" stroke-width="1" opacity="1"/></g></g><path class="foreground" aria-hidden="true" d="" pointer-events="none" display="none"/></g></g><g class="mark-group role-axis" role="graphics-symbol" aria-roledescription="axis" aria-label="X-axis titled 'Time' for a time scale with values from Wednesday, 26 June 2024, 10:38:23 AM to Wednesday, 26 June 2024, 2:49:03 PM"><g transform="translate(0.5,300.5)"><path class="background" aria-hidden="true" d="M0,0h0v0h0Z" pointer-events="none"/><g><g class="mark-rule role-axis-tick" pointer-events="none"><line transform="translate(13,0)" x2="0" y2="5" stroke="#888" stroke-width="1" opacity="1"/><line transform="translate(43,0)" x2="0" y2="5" stroke="#888" stroke-width="1" opacity="1"/><line transform="translate(73,0)" x2="0" y2="5" stroke="#888" stroke-width="1" opacity="1"/><line transform="translate(103,0)" x2="0" y2="5" stroke="#888" stroke-width="1" opacity="1"/><line transform="translate(133,0)" x2="0" y2="5" stroke="#888" stroke-width="1" opacity="1"/><line transform="translate(163,0)" x2="0" y2="5" stroke="#888" stroke-width="1" opacity="1"/><line transform="translate(193,0)" x2="0" y2="5" stroke="#888" stroke-width="1" opacity="1"/><line transform="translate(223,0)" x2="0" y2="5" stroke="#888" stroke-width="1" opacity="1"/><line transform="translate(253,0)" x2="0" y2="5" stroke="#888" stroke-width="1" opacity="1"/><line transform="translate(282,0)" x2="0" y2="5" stroke="#888" stroke-width="1" opacity="1"/><line transform="translate(312,0)" x2="0" y2="5" stroke="#888" stroke-width="1" opacity="1"/><line transform="translate(342,0)" x2="0" y2="5" stroke="#888" stroke-width="1" opacity="1"/><line transform="translate(372,0)" x2="0" y2="5" stroke="#888" stroke-width="1" opacity="1"/><line transform="translate(402,0)" x2="0" y2="5" stroke="#888" stroke-width="1" opacity="1"/><line transform="translate(432,0)" x2="0" y2="5" stroke="#888" stroke-width="1" opacity="1"/><line transform="translate(462,0)" x2="0" y2="5" stroke="#888" stroke-width="1" opacity="1"/><line transform="translate(492,0)" x2="0" y2="5" stroke="#888" stroke-width="1" opacity="1"/></g><g class="mark-text role-axis-label" pointer-events="none"><text text-anchor="middle" transform="translate(13.198138297872342,15)" font-family="sans-serif" font-size="10px" fill="#000" opacity="1">10:45</text><text text-anchor="middle" transform="translate(43.118351063829785,15)" font-family="sans-serif" font-size="10px" fill="#000" opacity="1">11 AM</text><text text-anchor="middle" transform="translate(73.03856382978724,15)" font-family="sans-serif" font-size="10px" fill="#000" opacity="1">11:15</text><text text-anchor="middle" transform="translate(102.95877659574468,15)" font-family="sans-serif" font-size="10px" fill="#000" opacity="1">11:30</text><text text-anchor="middle" transform="translate(132.8789893617021,15)" font-family="sans-serif" font-size="10px" fill="#000" opacity="1">11:45</text><text text-anchor="middle" transform="translate(162.79920212765958,15)" font-family="sans-serif" font-size="10px" fill="#000" opacity="1">12 PM</text><text text-anchor="middle" transform="translate(192.71941489361703,15)" font-family="sans-serif" font-size="10px" fill="#000" opacity="1">12:15</text><text text-anchor="middle" transform="translate(222.63962765957444,15)" font-family="sans-serif" font-size="10px" fill="#000" opacity="1">12:30</text><text text-anchor="middle" transform="translate(252.55984042553192,15)" font-family="sans-serif" font-size="10px" fill="#000" opacity="1">12:45</text><text text-anchor="middle" transform="translate(282.4800531914894,15)" font-family="sans-serif" font-size="10px" fill="#000" opacity="1">01 PM</text><text text-anchor="middle" transform="translate(312.4002659574468,15)" font-family="sans-serif" font-size="10px" fill="#000" opacity="1">01:15</text><text text-anchor="middle" transform="translate(342.3204787234043,15)" font-family="sans-serif" font-size="10px" fill="#000" opacity="1">01:30</text><text text-anchor="middle" transform="translate(372.24069148936167,15)" font-family="sans-serif" font-size="10px" fill="#000" opacity="1">01:45</text><text text-anchor="middle" transform="translate(402.16090425531917,15)" font-family="sans-serif" font-size="10px" fill="#000" opacity="1">02 PM</text><text text-anchor="middle" transform="translate(432.0811170212766,15)" font-family="sans-serif" font-size="10px" fill="#000" opacity="1">02:15</text><text text-anchor="middle" transform="translate(462.001329787234,15)" font-family="sans-serif" font-size="10px" fill="#000" opacity="1">02:30</text><text text-anchor="middle" transform="translate(491.9215425531915,15)" font-family="sans-serif" font-size="10px" fill="#000" opacity="1">02:45</text></g><g class="mark-rule role-axis-domain" pointer-events="none"><line transform="translate(0,0)" x2="500" y2="0" stroke="#888" stroke-width="1" opacity="1"/></g><g class="mark-text role-axis-title" pointer-events="none"><text text-anchor="middle" transform="translate(250,30)" font-family="sans-serif" font-size="11px" font-weight="bold" fill="#000" opacity="1">Time</text></g></g><path class="foreground" aria-hidden="true" d="" pointer-events="none" display="none"/></g></g><g class="mark-group role-axis" role="graphics-symbol" aria-roledescription="axis" aria-label="Y-axis titled 'Cumulative elevation gain / m' for a linear scale with values from 0 to 1,100"><g transform="translate(0.5,0.5)"><path class="background" aria-hidden="true" d="M0,0h0v0h0Z" pointer-events="none"/><g><g class="mark-rule role-axis-tick" pointer-events="none"><line transform="translate(0,300)" x2="-5" y2="0" stroke="#888" stroke-width="1" opacity="1"/><line transform="translate(0,273)" x2="-5" y2="0" stroke="#888" stroke-width="1" opacity="1"/><line transform="translate(0,245)" x2="-5" y2="0" stroke="#888" stroke-width="1" opacity="1"/><line transform="translate(0,218)" x2="-5" y2="0" stroke="#888" stroke-width="1" opacity="1"/><line transform="translate(0,191)" x2="-5" y2="0" stroke="#888" stroke-width="1" opacity="1"/><line transform="translate(0,164)" x2="-5" y2="0" stroke="#888" stroke-width="1" opacity="1"/><line transform="translate(0,136)" x2="-5" y2="0" stroke="#888" stroke-width="1" opacity="1"/><line transform="translate(0,109)" x2="-5" y2="0" stroke="#888" stroke-width="1" opacity="1"/><line transform="translate(0,82)" x2="-5" y2="0" stroke="#888" stroke-width="1" opacity="1"/><line transform="translate(0,55)" x2="-5" y2="0" stroke="#888" stroke-width="1" opacity="1"/><line transform="translate(0,27)" x2="-5" y2="0" stroke="#888" stroke-width="1" opacity="1"/><line transform="translate(0,0)" x2="-5" y2="0" stroke="#888" stroke-width="1" opacity="1"/></g><g class="mark-text role-axis-label" pointer-events="none"><text text-anchor="end" transform="translate(-7,303)" font-family="sans-serif" font-size="10px" fill="#000" opacity="1">0</text><text text-anchor="end" transform="translate(-7,275.7272727272727)" font-family="sans-serif" font-size="10px" fill="#000" opacity="1">100</text><text text-anchor="end" transform="translate(-7,248.45454545454544)" font-family="sans-serif" font-size="10px" fill="#000" opacity="1">200</text><text text-anchor="end" transform="translate(-7,221.1818181818182)" font-family="sans-serif" font-size="10px" fill="#000" opacity="1">300</text><text text-anchor="end" transform="translate(-7,193.9090909090909)" font-family="sans-serif" font-size="10px" fill="#000" opacity="1">400</text><text text-anchor="end" transform="translate(-7,166.63636363636363)" font-family="sans-serif" font-size="10px" fill="#000" opacity="1">500</text><text text-anchor="end" transform="translate(-7,139.36363636363637)" font-family="sans-serif" font-size="10px" fill="#000" opacity="1">600</text><text text-anchor="end" transform="translate(-7,112.0909090909091)" font-family="sans-serif" font-size="10px" fill="#000" opacity="1">700</text><text text-anchor="end" transform="translate(-7,84.81818181818181)" font-family="sans-serif" font-size="10px" fill="#000" opacity="1">800</text><text text-anchor="end" transform="translate(-7,57.54545454545453)" font-family="sans-serif" font-size="10px" fill="#000" opacity="1">900</text><text text-anchor="end" transform="translate(-7,30.27272727272728)" font-family="sans-serif" font-size="10px" fill="#000" opacity="1">1,000</text><text text-anchor="end" transform="translate(-7,3)" font-family="sans-serif" font-size="10px" fill="#000" opacity="1">1,100</text></g><g class="mark-rule role-axis-domain" pointer-events="none"><line transform="translate(0,300)" x2="0" y2="-300" stroke="#888" stroke-width="1" opacity="1"/></g><g class="mark-text role-axis-title" pointer-events="none"><text text-anchor="middle" transform="translate(-36.0244140625,150) rotate(-90) translate(0,-2)" font-family="sans-serif" font-size="11px" font-weight="bold" fill="#000" opacity="1">Cumulative elevation gain / m</text></g></g><path class="foreground" aria-hidden="true" d="" pointer-events="none" display="none"/></g></g><g class="mark-line role-mark marks" role="graphics-symbol" aria-roledescription="line mark container"><path d="M0.133,300L0.266,300L0.399,299.945L0.532,299.945L0.665,299.945L0.798,299.945L0.931,299.945L1.064,299.836L1.197,299.782L1.33,299.782L1.463,299.782L1.596,299.782L1.729,299.564L1.862,299.564L1.995,299.564L2.128,299.455L2.261,299.455L2.394,299.345L2.527,299.291L2.66,299.127L2.793,299.127L2.926,299.127L3.059,299.127L3.191,298.855L3.324,298.855L3.457,298.691L3.59,298.691L3.723,298.582L3.856,298.582L3.989,298.527L4.122,298.364L4.255,298.2L4.388,298.2L4.521,298.2L4.654,298.091L4.787,297.982L4.92,297.873L5.053,297.873L5.186,297.873L5.319,297.709L5.452,297.709L5.585,297.6L5.718,297.545L5.851,297.436L5.984,297.382L6.117,297.382L6.25,297.218L6.383,297.109L6.516,297.055L6.649,297.055L6.782,297.055L6.915,297.055L7.048,297.055L7.181,296.945L7.314,296.945L7.447,296.945L7.58,296.945L7.713,296.891L7.846,296.891L7.979,296.891L8.112,296.891L8.245,296.618L8.378,296.509L8.511,296.455L8.644,296.4L8.777,296.4L8.91,296.4L9.043,296.4L9.176,296.345L9.309,296.073L9.441,296.073L9.574,296.073L9.707,296.073L9.84,295.909L9.973,295.8L10.106,295.745L10.239,295.745L10.372,295.745L10.505,295.473L10.638,295.364L10.771,295.364L10.904,295.309L11.037,295.2L11.17,295.2L11.303,295.091L11.436,295.091L11.569,294.873L11.702,294.873L11.835,294.764L11.968,294.764L12.101,294.655L12.234,294.545L12.367,294.491L12.5,294.273L12.633,294.273L12.766,294.273L12.899,294.164L13.032,294.109L13.165,293.782L13.298,293.782L13.431,293.782L13.564,293.455L13.697,293.345L13.83,293.291L13.963,293.291L14.096,293.127L14.229,292.964L14.362,292.964L14.495,292.691L14.628,292.527L14.761,292.527L14.894,292.527L15.027,292.255L15.16,292.255L15.293,292.255L15.426,292.2L15.559,292.036L15.691,291.764L15.824,291.709L15.957,291.709L16.09,291.655L16.223,291.491L16.356,291.491L16.489,291.491L16.622,291.491L16.755,291.491L16.888,291.491L17.021,291.436L17.154,291.327L17.287,291.327L17.42,291.327L17.553,291.327L17.686,291.109L17.819,291.109L17.952,291.109L18.085,291.109L18.218,291L18.351,291L18.484,290.618L18.617,290.618L18.75,290.455L18.883,290.455L19.016,290.455L19.149,290.455L19.282,290.455L19.415,290.236L19.548,290.182L19.681,290.182L19.814,290.182L19.947,290.127L20.08,290.127L20.213,290.127L20.346,289.855L20.479,289.855L20.612,289.855L20.745,289.855L20.878,289.855L21.011,289.745L21.144,289.745L21.277,289.745L21.41,289.745L21.543,289.364L21.676,289.364L21.809,289.364L21.941,289.364L22.074,289.2L22.207,289.2L22.34,289.036L22.473,288.982L22.606,288.982L22.739,288.982L22.872,288.982L23.005,288.982L23.138,288.709L23.271,288.709L23.404,288.709L23.537,288.709L23.67,288.709L23.803,288.327L23.936,288.327L24.069,288.327L24.202,288.327L24.335,288.327L24.468,288.109L24.601,288.055L24.734,288L24.867,287.891L25,287.891L25.133,287.891L25.266,287.891L25.399,287.836L25.532,287.836L25.665,287.618L25.798,287.509L25.931,287.455L26.064,287.455L26.197,287.455L26.33,287.455L26.463,287.4L26.596,287.4L26.729,287.236L26.862,287.236L26.995,287.236L27.128,287.236L27.261,287.236L27.394,287.236L27.527,287.236L27.66,287.236L27.793,287.018L27.926,287.018L28.059,286.964L28.191,286.964L28.324,286.855L28.457,286.855L28.59,286.855L28.723,286.855L28.856,286.855L28.989,286.855L29.122,286.855L29.255,286.855L29.388,286.636L29.654,286.636L29.787,286.636L29.92,286.473L30.053,286.418L30.186,286.418L30.319,286.255L30.452,286.255L30.585,286.255L30.718,286.2L30.851,285.982L30.984,285.982L31.117,285.927L31.25,285.709L31.383,285.655L31.516,285.655L31.649,285.545L31.782,285.436L31.915,285.327L32.048,285.109L32.181,285.109L32.314,284.945L32.447,284.836L32.58,284.836L32.713,284.673L32.846,284.673L32.979,284.673L33.112,284.673L33.245,284.673L33.378,284.673L33.511,284.4L33.644,284.4L33.777,284.4L33.91,284.236L34.043,284.127L34.176,284.018L34.309,283.855L34.441,283.855L34.574,283.745L34.707,283.309L34.84,283.091L34.973,283.091L35.106,283.036L35.239,282.927L35.372,282.655L35.505,282.655L35.638,282.655L35.771,282.436L35.904,282.436L36.037,282.436L36.17,282.436L36.303,282.218L36.436,282L36.569,282L36.702,282L36.835,282L36.968,282L37.101,282L37.234,282L37.367,281.945L37.5,281.945L37.633,281.945L37.766,281.945L37.899,281.782L38.032,281.782L38.165,281.782L38.298,281.4L38.431,281.4L38.564,281.345L38.697,281.345L38.83,281.345L38.963,281.291L39.096,281.291L39.229,281.236L39.362,281.182L39.495,281.182L39.628,281.073L39.761,280.691L39.894,280.691L40.027,280.691L40.16,280.691L40.293,280.309L40.426,280.309L40.559,280.255L40.691,280.255L40.824,280.255L40.957,280.255L41.09,279.982L41.223,279.982L41.356,279.982L41.489,279.982L41.622,279.545L41.755,279.545L41.888,279.055L42.021,278.782L42.154,278.618L42.287,278.291L42.42,278.291L42.553,278.291L42.686,278.018L42.819,277.964L42.952,277.964L43.085,277.964L43.218,277.909L43.351,277.909L43.484,277.909L43.617,277.855L43.75,277.855L43.883,277.855L44.016,277.855L44.149,277.691L44.282,277.691L44.415,277.691L44.548,277.636L44.681,277.418L44.814,277.418L44.947,277.418L45.08,277.309L45.213,277.309L45.346,277.2L45.479,277.091L45.612,276.982L45.745,276.982L45.878,276.982L46.011,276.873L46.144,276.873L46.277,276.873L46.41,276.873L46.543,276.6L46.676,276.6L46.809,276.6L46.941,276.6L47.074,276.6L47.207,276.6L47.34,276.436L47.473,276.436L47.606,276.436L47.739,276.436L47.872,276.436L48.005,276L48.138,276L48.271,276L48.404,276L48.537,276L48.67,276L48.803,275.945L48.936,275.945L49.069,275.836L49.202,275.836L49.335,275.836L49.468,275.836L49.601,275.836L49.734,275.727L49.867,275.727L50,275.727L50.133,275.727L50.266,275.455L50.399,275.455L50.532,275.4L50.665,275.345L50.798,275.345L50.931,275.182L51.064,275.182L51.197,275.182L51.33,275.018L51.463,275.018L51.596,275.018L51.729,274.964L51.862,274.8L51.995,274.8L52.128,274.8L52.261,274.8L52.394,274.582L52.527,274.582L52.66,274.582L52.793,274.582L52.926,274.582L53.059,274.582L53.191,274.364L53.324,274.364L53.457,274.145L53.59,274.145L53.723,274.036L53.856,274.036L53.989,274.036L54.122,273.927L54.255,273.655L54.388,273.655L54.521,273.655L54.654,273.655L54.787,273.655L54.92,273.6L55.053,273.6L55.186,273.491L55.319,273.327L55.452,273.327L55.585,273.327L55.718,273.055L55.851,273.055L55.984,273.055L56.117,273.055L56.25,273.055L56.383,272.945L56.516,272.891L56.649,272.891L56.782,272.891L56.915,272.782L57.048,272.727L57.181,272.455L57.314,272.455L57.447,272.127L57.58,271.855L57.713,271.745L57.846,271.691L57.979,271.636L58.112,271.473L58.245,271.473L58.378,271.309L58.511,271.309L58.644,271.2L58.777,271.2L58.91,271.2L59.043,271.2L59.176,271.2L59.309,271.2L59.441,271.036L59.574,271.036L59.707,271.036L59.84,270.982L59.973,270.873L60.106,270.873L60.239,270.6L60.372,270.6L60.505,270.491L60.638,270.491L60.771,270.491L60.904,270.491L61.037,270.273L61.17,270.273L61.303,270.164L61.436,269.945L61.569,269.945L61.702,269.455L61.835,269.455L61.968,269.455L62.101,269.455L62.234,269.291L62.367,269.127L62.5,269.127L62.633,269.073L62.766,269.073L62.899,268.855L63.032,268.855L63.165,268.855L63.298,268.855L63.431,268.745L63.564,268.745L63.697,268.691L63.83,268.582L63.963,268.582L64.096,268.473L64.229,268.473L64.362,268.473L64.495,268.364L64.628,268.364L64.761,268.364L64.894,268.255L65.027,268.255L65.16,268.255L65.293,268.145L65.426,268.145L65.559,268.091L65.691,267.927L65.824,267.709L65.957,267.709L66.09,267.709L66.223,267.709L66.356,267.709L66.489,267.545L66.622,267.545L66.755,267.545L66.888,267.382L67.021,267.382L67.154,267.382L67.287,267.109L67.42,267.109L67.553,267.109L67.686,267L67.819,267L67.952,267L68.085,267L68.218,267L68.351,267L68.484,266.836L68.617,266.836L68.75,266.836L68.883,266.673L69.016,266.618L69.149,266.618L69.282,266.618L69.415,266.618L69.548,266.618L69.681,266.236L69.814,266.236L69.947,266.073L70.08,265.909L70.213,265.909L70.346,265.909L70.479,265.691L70.612,265.691L70.745,265.582L70.878,265.582L71.011,265.364L71.144,265.309L71.277,265.255L71.41,265.2L71.543,264.982L71.676,264.982L71.809,264.982L71.941,264.982L72.074,264.982L72.207,264.982L72.34,264.982L72.473,264.982L72.606,264.873L72.739,264.873L72.872,264.764L73.005,264.764L73.138,264.764L73.271,264.655L73.404,264.545L73.537,264.545L73.67,264.436L73.803,264.273L73.936,264.273L74.069,264.273L74.202,264.055L74.335,264.055L74.468,264.055L74.601,263.891L74.734,263.673L74.867,263.564L75,263.564L75.133,263.564L75.266,263.455L75.399,263.455L75.532,263.291L75.665,263.073L75.798,263.073L75.931,262.855L76.064,262.8L76.197,262.8L76.33,262.8L76.463,262.8L76.596,262.8L76.729,262.8L76.862,262.582L76.995,262.582L77.128,262.473L77.261,262.309L77.394,262.309L77.527,262.2L77.66,262.2L77.793,262.2L77.926,262.036L78.059,262.036L78.191,261.982L78.324,261.927L78.457,261.927L78.59,261.764L78.723,261.491L78.856,261.491L78.989,261.436L79.122,261.436L79.255,261.436L79.388,261.273L79.521,261.164L79.654,261.109L79.787,261.109L79.92,261.109L80.053,261.109L80.186,261L80.319,261L80.452,260.836L80.585,260.836L80.718,260.836L80.851,260.836L80.984,260.727L81.117,260.727L81.25,260.727L81.383,260.727L81.516,260.727L81.649,260.727L81.782,260.564L81.915,260.455L82.048,260.455L82.181,260.455L82.314,260.345L82.447,260.345L82.58,260.127L82.713,260.127L82.846,260.127L82.979,260.018L83.112,260.018L83.245,259.909L83.378,259.909L83.511,259.909L83.644,259.855L83.777,259.855L83.91,259.855L84.043,259.855L84.176,259.855L84.309,259.636L84.441,259.527L84.574,259.527L84.707,259.473L84.84,259.364L84.973,259.255L85.106,259.255L85.239,259.255L85.372,259.2L85.505,259.2L85.638,259.145L85.771,259.145L85.904,259.145L86.037,259.145L86.17,259.145L86.303,259.145L86.436,259.145L86.569,258.927L86.702,258.927L86.835,258.927L86.968,258.818L87.101,258.818L87.234,258.764L87.367,258.6L87.5,258.436L87.633,258.436L87.766,258.382L87.899,258.382L88.032,258.382L88.165,258.382L88.298,258.273L88.431,258.273L88.564,258.109L88.697,258.055L88.83,257.945L88.963,257.945L89.096,257.945L89.229,257.891L89.362,257.891L89.495,257.782L89.628,257.782L89.761,257.782L89.894,257.782L90.027,257.673L90.16,257.673L90.293,257.618L90.426,257.618L90.559,257.618L90.691,257.618L90.824,257.618L90.957,257.509L91.09,257.509L91.223,257.509L91.356,257.4L91.489,257.4L91.622,257.4L91.755,257.345L91.888,257.345L92.021,257.345L92.154,257.236L92.287,257.236L92.42,257.182L92.553,257.182L92.686,257.127L92.819,257.073L92.952,256.909L93.085,256.909L93.218,256.909L93.351,256.909L93.484,256.745L93.617,256.745L93.75,256.745L93.883,256.691L94.016,256.691L94.149,256.691L94.282,256.691L94.415,256.527L94.548,256.527L94.681,256.527L94.814,256.473L94.947,256.473L95.08,256.364L95.213,256.364L95.346,256.364L95.479,256.364L95.612,256.364L95.745,256.364L95.878,256.364L96.011,256.255L96.144,256.091L96.277,256.091L96.41,256.091L96.543,256.091L96.676,256.091L96.809,256.036L96.941,255.873L97.074,255.764L97.207,255.764L97.34,255.764L97.473,255.764L97.606,255.764L97.739,255.655L97.872,255.655L98.005,255.655L98.138,255.655L98.271,255.545L98.404,255.545L98.537,255.545L98.67,255.491L98.803,255.382L98.936,255.382L99.069,255.218L99.202,255.218L99.335,255.218L99.468,255.055L99.601,255.055L99.734,255.055L99.867,255L100,254.945L100.133,254.945L100.266,254.891L100.399,254.836L100.532,254.836L100.665,254.836L100.798,254.836L100.931,254.836L101.064,254.836L101.197,254.836L101.33,254.673L101.463,254.673L101.596,254.618L101.729,254.618L101.862,254.509L101.995,254.4L102.128,254.4L102.261,254.4L102.394,254.4L102.527,254.4L102.66,254.4L102.793,254.345L102.926,254.345L103.059,254.345L103.191,254.291L103.324,254.291L103.457,254.236L103.59,254.236L103.723,254.182L103.856,254.182L103.989,254.182L104.122,254.182L104.255,254.127L104.388,254.127L104.521,254.073L104.654,254.073L104.787,254.073L104.92,254.073L105.053,254.073L105.186,253.964L105.319,253.855L105.452,253.855L105.585,253.855L105.718,253.8L105.851,253.8L105.984,253.8L106.117,253.8L106.25,253.8L106.383,253.8L106.516,253.8L106.649,253.8L106.782,253.8L106.915,253.8L107.048,253.582L107.181,253.582L107.314,253.582L107.447,253.582L107.58,253.582L107.713,253.527L107.846,253.473L107.979,253.418L108.112,253.418L108.245,253.418L108.378,253.364L108.511,253.364L108.644,253.364L108.777,253.255L108.91,253.2L109.043,253.2L109.176,253.2L109.309,253.036L109.441,253.036L109.574,253.036L109.707,253.036L109.84,253.036L109.973,252.927L110.106,252.927L110.239,252.873L110.372,252.709L110.505,252.6L110.638,252.382L110.771,252.382L110.904,252.382L111.037,252.327L111.17,252.218L111.303,252.164L111.436,252.164L111.569,252.164L111.702,252.164L111.835,252.164L111.968,252.055L112.101,251.727L112.234,251.564L112.367,251.291L112.5,251.018L112.633,250.745L112.766,250.473L112.899,250.255L113.032,250.036L113.165,249.873L113.298,249.818L113.431,249.491L113.564,249.382L113.697,249.327L113.83,249L113.963,248.782L114.096,248.564L114.229,248.564L114.362,248.564L114.495,248.564L114.628,248.564L114.761,248.564L114.894,248.236L115.027,248.127L115.16,247.364L115.293,246.927L115.426,246.382L115.559,246.109L115.691,246.055L115.824,245.727L115.957,245.4L116.09,245.345L116.223,245.345L116.356,245.073L116.489,244.909L116.622,244.909L116.755,244.909L116.888,244.909L117.021,244.855L117.154,244.8L117.287,244.8L117.42,244.8L117.553,244.8L117.686,244.636L117.819,244.636L117.952,244.582L118.085,244.418L118.218,244.255L118.351,244.091L118.484,243.873L118.617,243.6L118.75,243.6L118.883,243.327L119.016,243.218L119.149,243.109L119.282,243.055L119.415,243.055L119.548,243.055L119.681,243.055L119.814,243.055L119.947,243.055L120.08,243L120.213,243L120.346,243L120.479,242.836L120.612,242.564L120.745,242.455L120.878,242.4L121.011,242.4L121.144,242.291L121.277,242.236L121.41,242.236L121.543,241.909L121.676,241.745L121.809,241.636L121.941,241.309L122.074,241.036L122.207,240.709L122.34,240.273L122.473,240.055L122.606,239.782L122.739,239.673L122.872,239.673L123.005,239.618L123.138,239.455L123.271,239.455L123.404,239.345L123.537,239.127L123.67,239.018L123.803,238.8L123.936,238.636L124.069,238.636L124.202,238.418L124.335,238.418L124.468,238.418L124.601,238.309L124.734,238.309L124.867,238.091L125,238.091L125.133,237.982L125.266,237.927L125.399,237.764L125.532,237.764L125.665,237.764L125.798,237.709L125.931,237.709L126.064,237.709L126.197,237.709L126.33,237.709L126.463,237.6L126.596,237.545L126.729,237.545L126.862,237.436L126.995,237.436L127.128,237.436L127.261,237.218L127.394,237.218L127.527,237.109L127.66,237.109L127.793,236.945L127.926,236.945L128.059,236.945L128.191,236.945L128.324,236.782L128.457,236.782L128.59,236.727L128.723,236.509L128.856,236.509L128.989,236.509L129.122,236.509L129.255,236.509L129.388,236.509L129.521,236.509L129.654,236.509L129.787,236.291L129.92,236.182L130.053,236.182L130.186,236.182L130.319,236.182L130.452,236.182L130.585,236.182L130.718,236.182L130.851,236.182L130.984,236.182L131.117,236.127L131.25,236.127L131.383,236.018L131.516,236.018L131.649,236.018L131.782,236.018L131.915,236.018L132.048,235.964L132.181,235.964L132.314,235.964L132.447,235.964L132.58,235.964L132.713,235.964L132.846,235.964L132.979,235.8L133.112,235.8L133.245,235.636L133.378,235.636L133.511,235.636L133.644,235.636L133.777,235.636L133.91,235.636L134.043,235.636L134.176,235.636L134.309,235.636L134.441,235.636L134.574,235.309L134.707,235.309L134.84,235.036L134.973,234.927L135.106,234.709L135.239,234.709L135.372,234.6L135.505,234.491L135.638,234.164L135.771,233.564L135.904,233.236L136.037,232.909L136.17,232.636L136.303,232.364L136.436,232.364L136.569,232.145L136.702,232.036L136.835,232.036L136.968,231.764L137.101,231.545L137.234,231.382L137.367,231.218L137.5,231.218L137.633,231.109L137.766,231.109L137.899,231.109L138.032,231.109L138.165,231.109L138.298,231.109L138.431,231.109L138.564,231.055L138.697,231.055L138.83,230.945L138.963,230.945L139.096,230.945L139.229,230.836L139.362,230.727L139.495,230.455L139.628,230.291L139.761,229.964L139.894,229.909L140.027,229.582L140.16,229.418L140.293,229.309L140.426,229.2L140.559,228.982L140.691,228.764L140.824,228.764L140.957,228.491L141.09,228.273L141.223,227.945L141.356,227.673L141.489,227.564L141.622,227.236L141.755,226.964L141.888,226.636L142.021,226.473L142.154,226.418L142.287,226.364L142.42,226.2L142.553,225.927L142.686,225.709L142.819,225.545L142.952,225.491L143.085,225.055L143.218,225.055L143.351,224.782L143.484,224.673L143.617,224.509L143.75,224.236L143.883,224.018L144.016,223.964L144.149,223.8L144.282,223.745L144.415,223.527L144.548,223.418L144.681,223.2L144.814,222.818L144.947,222.545L145.08,222.273L145.213,222.109L145.346,221.836L145.479,221.727L145.612,221.127L145.745,221.127L145.878,221.018L146.011,220.964L146.144,220.909L146.277,220.582L146.41,220.418L146.543,220.309L146.676,220.091L146.809,219.927L146.941,219.655L147.074,219.382L147.207,219.164L147.34,219.055L147.473,218.782L147.606,218.782L147.739,218.618L147.872,218.291L148.005,218.073L148.138,217.909L148.271,217.8L148.404,217.473L148.537,217.473L148.67,217.036L148.803,217.036L148.936,216.764L149.069,216.655L149.202,216.545L149.335,216.327L149.468,216.055L149.601,216L149.734,215.673L149.867,215.673L150,215.455L150.133,215.182L150.266,215.182L150.399,214.855L150.532,214.745L150.665,214.745L150.798,214.418L150.931,214.418L151.064,214.036L151.197,213.927L151.33,213.655L151.463,213.491L151.596,213.327L151.729,213.218L151.862,213.218L151.995,213L152.128,212.782L152.261,212.673L152.394,212.509L152.527,212.509L152.66,212.509L152.793,212.291L152.926,212.291L153.059,212.291L153.191,212.127L153.324,212.073L153.457,212.073L153.59,212.073L153.723,212.018L153.856,211.964L153.989,211.964L154.122,211.745L154.255,211.582L154.388,211.582L154.521,211.582L154.654,211.527L154.787,211.527L154.92,211.527L155.053,211.364L155.186,211.145L155.319,211.145L155.452,211.036L155.585,210.927L155.718,210.6L155.851,210.491L155.984,210.273L156.117,210.055L156.25,209.836L156.383,209.509L156.516,209.345L156.649,209.236L156.782,209.073L156.915,208.909L157.048,208.527L157.181,208.527L157.314,208.473L157.447,208.364L157.58,208.2L157.713,208.2L157.846,208.036L157.979,208.036L158.112,208.036L158.245,208.036L158.378,208.036L158.511,208.036L158.644,207.982L158.777,207.927L158.91,207.927L159.043,207.927L159.176,207.927L159.309,207.927L159.441,207.873L159.574,207.873L159.707,207.873L159.84,207.764L159.973,207.764L160.106,207.764L160.239,207.764L160.372,207.709L160.505,207.709L160.638,207.709L160.771,207.6L160.904,207.545L161.037,207.545L161.17,207.545L161.303,207.491L161.436,207.491L161.569,207.491L161.702,207.491L161.835,207.382L161.968,207.382L162.101,207.382L162.234,207.273L162.367,207.273L162.5,207.273L162.633,207.273L162.766,207.273L162.899,207.273L163.032,207.273L163.165,207.164L163.298,207.164L163.431,207.164L163.564,207.164L163.697,207.164L163.83,207.109L163.963,207.109L164.096,207L164.229,207L164.362,207L164.495,206.891L164.628,206.891L164.761,206.782L164.894,206.782L165.027,206.782L165.16,206.782L165.293,206.727L165.426,206.727L165.559,206.727L165.691,206.618L165.824,206.618L165.957,206.564L166.09,206.509L166.223,206.291L166.356,206.236L166.489,206.182L166.622,206.018L166.755,205.745L166.888,205.582L167.021,205.309L167.154,205.2L167.287,204.927L167.42,204.709L167.553,204.545L167.686,204.327L167.819,204.109L167.952,203.782L168.085,203.618L168.218,203.236L168.351,203.018L168.484,202.909L168.617,202.691L168.75,202.691L168.883,202.582L169.016,202.473L169.149,202.036L169.282,202.036L169.415,201.818L169.548,201.6L169.681,201.491L169.814,201.218L169.947,201.109L170.08,200.782L170.213,200.345L170.346,200.345L170.479,200.127L170.612,199.8L170.745,199.691L170.878,199.418L171.011,199.145L171.144,198.982L171.277,198.818L171.41,198.818L171.543,198.6L171.676,198.545L171.809,198.218L171.941,198L172.074,198L172.207,197.945L172.34,197.618L172.473,197.509L172.606,197.4L172.739,197.073L172.872,196.855L173.005,196.636L173.138,196.527L173.271,196.255L173.404,196.145L173.537,195.927L173.67,195.764L173.803,195.709L173.936,195.6L174.069,195.382L174.202,195L174.335,194.891L174.468,194.836L174.601,194.509L174.734,194.345L174.867,193.964L175,193.8L175.133,193.636L175.266,193.473L175.399,193.364L175.532,193.2L175.665,193.036L175.798,192.873L175.931,192.764L176.064,192.709L176.197,192.436L176.33,192.327L176.463,192.055L176.596,191.945L176.729,191.618L176.862,191.564L176.995,191.345L177.128,191.236L177.261,191.236L177.394,190.909L177.527,190.745L177.66,190.473L177.793,190.418L177.926,190.145L178.059,189.982L178.191,189.764L178.324,189.491L178.457,189.327L178.59,189.164L178.723,188.891L178.856,188.727L178.989,188.4L179.122,188.236L179.255,187.909L179.388,187.855L179.521,187.636L179.654,187.473L179.787,187.309L179.92,187.145L180.053,187.091L180.186,186.818L180.319,186.545L180.452,186.382L180.585,186.218L180.718,186L180.851,185.782L180.984,185.455L181.117,185.291L181.25,185.291L181.383,184.964L181.516,184.855L181.649,184.636L181.782,184.527L181.915,184.364L182.048,184.036L182.181,183.818L182.314,183.545L182.447,183.273L182.58,183.109L182.713,182.891L182.846,182.782L182.979,182.455L183.112,182.345L183.245,182.127L183.378,181.964L183.511,181.745L183.644,181.582L183.777,181.418L183.91,181.255L184.043,181.255L184.176,181.255L184.309,181.255L184.441,181.255L184.574,181.145L184.707,181.145L184.84,181.145L184.973,181.091L185.106,181.091L185.239,181.091L185.372,181.091L185.505,181.091L185.638,180.982L185.771,180.982L185.904,180.982L186.037,180.982L186.17,180.982L186.303,180.982L186.436,180.818L186.569,180.818L186.702,180.709L186.835,180.273L186.968,180.055L187.101,179.782L187.234,179.509L187.367,179.4L187.5,179.018L187.633,178.909L187.766,178.8L187.899,178.691L188.032,178.364L188.165,178.255L188.298,177.982L188.431,177.927L188.564,177.764L188.697,177.6L188.83,177.382L188.963,177.109L189.096,176.945L189.229,176.673L189.362,176.673L189.495,176.345L189.628,176.018L189.761,175.855L189.894,175.582L190.027,175.418L190.16,175.2L190.293,174.927L190.426,174.764L190.559,174.545L190.691,174.436L190.824,174.218L190.957,174.055L191.09,173.727L191.223,173.509L191.356,173.291L191.489,173.073L191.622,172.8L191.755,172.473L191.888,172.309L192.021,172.309L192.154,171.873L192.287,171.709L192.42,171.655L192.553,171.491L192.686,171.327L192.819,171.164L192.952,171.055L193.085,171.055L193.218,170.945L193.351,170.891L193.484,170.782L193.617,170.673L193.75,170.618L193.883,170.455L194.016,170.4L194.149,170.4L194.282,170.291L194.415,170.182L194.548,170.073L194.681,170.073L194.814,169.909L194.947,169.909L195.08,169.636L195.213,169.527L195.346,169.473L195.479,169.309L195.612,169.091L195.745,168.6L195.878,168.436L196.011,168.273L196.144,167.891L196.277,167.727L196.41,167.618L196.543,167.618L196.676,167.127L196.809,167.127L196.941,167.073L197.074,166.8L197.207,166.582L197.34,166.418L197.473,166.091L197.606,166.036L197.739,165.927L197.872,165.655L198.005,165.491L198.138,165.491L198.271,165.164L198.404,165.055L198.537,164.891L198.67,164.673L198.803,164.509L198.936,164.236L199.069,163.964L199.202,163.745L199.335,163.636L199.468,163.418L199.601,163.364L199.734,163.036L199.867,162.927L200,162.873L200.133,162.655L200.266,162.491L200.399,162.218L200.532,162.164L200.665,161.945L200.798,161.673L200.931,161.564L201.064,161.455L201.197,161.345L201.33,161.236L201.463,161.073L201.596,161.018L201.729,161.018L201.862,160.909L201.995,160.745L202.128,160.745L202.261,160.691L202.394,160.582L202.527,160.527L202.66,160.309L202.793,159.927L202.926,159.818L203.059,159.6L203.191,159.327L203.324,159.164L203.457,158.836L203.59,158.727L203.723,158.564L203.856,158.291L203.989,158.291L204.122,157.909L204.255,157.909L204.388,157.8L204.521,157.8L204.654,157.691L204.787,157.636L204.92,157.636L205.053,157.636L205.186,157.636L205.319,157.582L205.452,157.582L205.585,157.582L205.718,157.145L205.851,156.873L205.984,156.818L206.117,156.655L206.25,156.491L206.383,156.164L206.516,155.945L206.649,155.727L206.782,155.564L206.915,155.4L207.048,155.073L207.181,154.964L207.314,154.691L207.447,154.691L207.58,154.527L207.713,154.309L207.846,154.091L207.979,153.927L208.112,153.764L208.245,153.6L208.378,153.273L208.511,153.164L208.644,152.945L208.777,152.727L208.91,152.727L209.043,152.509L209.176,152.345L209.309,152.291L209.441,152.018L209.574,151.855L209.707,151.582L209.84,151.418L209.973,151.2L210.106,150.982L210.239,150.818L210.372,150.709L210.505,150.436L210.638,150.273L210.771,150.273L210.904,150.055L211.037,150L211.17,149.782L211.303,149.618L211.436,149.509L211.569,149.291L211.702,149.182L211.835,148.964L211.968,148.691L212.101,148.636L212.234,148.418L212.367,148.309L212.5,148.255L212.633,148.036L212.766,147.873L212.899,147.873L213.032,147.709L213.165,147.6L213.298,147.491L213.431,147.327L213.564,147.327L213.697,147.164L213.83,147.164L213.963,147.164L214.096,147.109L214.229,147.109L214.362,147.055L214.495,147.055L214.628,147.055L214.761,147L214.894,147L215.027,147L215.16,147L215.293,147L215.426,147L215.559,146.891L215.691,146.891L215.824,146.836L215.957,146.836L216.09,146.673L216.223,146.673L216.356,146.673L216.489,146.673L216.622,146.673L216.755,146.673L216.888,146.673L217.021,146.618L217.154,146.618L217.287,146.509L217.42,146.509L217.553,146.509L217.686,146.455L217.819,146.455L217.952,146.4L218.085,146.4L218.218,146.4L218.351,146.4L218.484,146.4L218.617,146.345L218.75,146.291L218.883,146.291L219.016,146.291L219.149,146.291L219.282,146.291L219.415,146.291L219.548,146.182L219.681,146.182L219.814,146.182L219.947,146.182L220.08,146.127L220.213,146.127L220.346,146.127L220.479,146.018L220.612,146.018L220.745,145.964L220.878,145.964L221.011,145.964L221.144,145.964L221.277,145.964L221.41,145.909L221.543,145.909L221.676,145.909L221.809,145.855L221.941,145.855L222.074,145.855L222.207,145.855L222.34,145.691L222.473,145.691L222.606,145.691L222.739,145.691L222.872,145.691L223.005,145.691L223.138,145.691L223.271,145.691L223.404,145.691L223.537,145.636L223.67,145.582L223.803,145.582L223.936,145.582L224.069,145.582L224.202,145.527L224.335,145.527L224.468,145.473L224.601,145.473L224.734,145.418L224.867,145.418L225,145.309L225.133,144.927L225.266,144.764L225.399,144.491L225.532,144.273L225.665,143.945L225.798,143.945L225.931,143.782L226.064,143.564L226.197,143.455L226.33,143.236L226.463,143.182L226.596,143.018L226.729,142.745L226.862,142.527L226.995,142.309L227.128,141.982L227.261,141.709L227.394,141.491L227.527,141.273L227.66,141.109L227.793,141.055L227.926,140.836L228.059,140.618L228.191,140.291L228.324,140.018L228.457,139.8L228.59,139.527L228.723,139.2L228.856,138.982L228.989,138.764L229.122,138.6L229.255,138.382L229.388,138.218L229.521,138L229.654,137.727L229.787,137.509L229.92,137.236L230.053,136.964L230.186,136.745L230.319,136.527L230.452,136.473L230.585,136.036L230.718,135.982L230.851,135.818L230.984,135.6L231.117,135.436L231.25,135.218L231.383,135L231.516,134.727L231.649,134.618L231.782,134.236L231.915,134.073L232.048,134.073L232.181,133.691L232.314,133.582L232.447,133.418L232.58,133.145L232.713,132.873L232.846,132.709L232.979,132.327L233.112,132.164L233.245,132L233.378,131.727L233.511,131.618L233.644,131.509L233.777,131.4L233.91,131.4L234.043,131.4L234.176,131.4L234.309,131.291L234.441,131.236L234.574,131.182L234.707,131.182L234.84,131.073L234.973,131.073L235.106,130.964L235.239,130.964L235.372,130.964L235.505,130.964L235.638,130.909L235.771,130.909L235.904,130.636L236.037,130.636L236.17,130.636L236.303,130.636L236.436,130.582L236.569,130.527L236.702,130.309L236.835,129.982L236.968,129.982L237.101,129.764L237.234,129.6L237.367,129.273L237.5,129.218L237.633,128.945L237.766,128.727L237.899,128.618L238.032,128.4L238.165,128.4L238.298,128.236L238.431,128.236L238.564,128.127L238.697,128.018L238.83,127.691L238.963,127.582L239.096,127.418L239.229,127.255L239.362,127.145L239.495,126.982L239.628,126.818L239.761,126.818L239.894,126.382L240.027,126.218L240.16,126.218L240.293,126.218L240.426,126.218L240.559,126.218L240.691,126.218L240.824,126.055L240.957,126.055L241.09,126L241.223,126L241.356,125.891L241.489,125.891L241.622,125.782L241.755,125.782L241.888,125.782L242.021,125.782L242.154,125.782L242.287,125.782L242.42,125.727L242.553,125.727L242.686,125.727L242.819,125.727L242.952,125.727L243.085,125.727L243.218,125.509L243.351,125.509L243.484,125.509L243.617,125.509L243.75,125.291L243.883,125.291L244.016,125.236L244.149,125.236L244.282,125.236L244.415,125.236L244.548,125.236L244.681,125.236L244.814,125.182L244.947,125.127L245.08,125.127L245.213,125.127L245.346,125.127L245.479,125.018L245.612,125.018L245.745,124.964L245.878,124.964L246.011,124.964L246.144,124.964L246.277,124.909L246.41,124.855L246.543,124.855L246.676,124.855L246.809,124.8L246.941,124.745L247.074,124.745L247.207,124.691L247.34,124.582L247.473,124.582L247.606,124.582L247.739,124.473L247.872,124.473L248.005,124.473L248.138,124.473L248.271,124.418L248.404,124.418L248.537,124.309L248.67,124.2L248.803,124.091L248.936,124.091L249.069,123.818L249.202,123.655L249.335,123.655L249.468,123.327L249.601,123.109L249.734,123L249.867,122.836L250,122.564L250.133,122.291L250.266,122.018L250.399,121.8L250.532,121.582L250.665,121.309L250.798,121.091L250.931,121.036L251.064,120.873L251.197,120.6L251.33,120.273L251.463,120.055L251.596,119.727L251.729,119.455L251.862,119.182L251.995,119.018L252.128,118.745L252.261,118.691L252.394,118.527L252.527,118.255L252.66,118.036L252.793,117.709L252.926,117.491L253.059,117.218L253.191,117.055L253.324,116.782L253.457,116.509L253.59,116.291L253.723,116.073L253.856,115.964L253.989,115.909L254.122,115.636L254.255,115.473L254.388,115.2L254.521,115.036L254.654,114.764L254.787,114.491L254.92,114.218L255.053,114.218L255.186,113.945L255.319,113.673L255.452,113.673L255.585,113.345L255.718,113.127L255.851,112.964L255.984,112.691L256.117,112.527L256.25,112.145L256.383,111.873L256.516,111.491L256.649,111.382L256.782,111L256.915,110.782L257.048,110.782L257.181,110.4L257.314,110.182L257.447,110.073L257.58,109.855L257.713,109.473L257.846,109.364L257.979,109.036L258.112,109.036L258.245,108.818L258.378,108.545L258.511,108.545L258.644,108.218L258.777,107.891L258.91,107.836L259.043,107.618L259.176,107.345L259.309,107.182L259.441,106.964L259.574,106.8L259.707,106.582L259.84,106.473L259.973,106.255L260.106,106.145L260.239,106.036L260.372,105.818L260.505,105.6L260.638,105.491L260.771,105.273L260.904,105.164L261.037,105L261.17,104.836L261.303,104.727L261.436,104.727L261.569,104.455L261.702,104.455L261.835,104.182L261.968,103.964L262.101,103.855L262.234,103.636L262.367,103.527L262.5,103.418L262.633,103.2L262.766,103.2L262.899,103.091L263.032,103.091L263.165,103.036L263.298,102.982L263.431,102.982L263.564,102.982L263.697,102.982L263.83,102.982L263.963,102.982L264.096,102.982L264.229,102.873L264.362,102.818L264.495,102.818L264.628,102.818L264.761,102.818L264.894,102.764L265.027,102.764L265.16,102.764L265.293,102.709L265.426,102.709L265.559,102.709L265.691,102.709L265.824,102.709L265.957,102.709L266.09,102.6L266.223,102.6L266.356,102.6L266.489,102.545L266.622,102.545L266.755,102.382L266.888,102.382L267.021,102.382L267.154,102.382L267.287,102.382L267.42,102.382L267.553,102.382L267.686,102.382L267.819,102.273L267.952,102.273L268.085,102.273L268.218,102.273L268.351,102.273L268.484,102.109L268.617,102.109L268.75,102.109L268.883,102.109L269.016,102.109L269.149,102L269.282,102L269.415,102L269.548,102L269.681,102L269.814,101.945L269.947,101.945L270.08,101.891L270.213,101.836L270.346,101.782L270.479,101.782L270.612,101.782L270.745,101.782L270.878,101.782L271.011,101.782L271.144,101.727L271.277,101.727L271.41,101.673L271.543,101.673L271.676,101.618L271.809,101.618L271.941,101.618L272.074,101.564L272.207,101.564L272.34,101.564L272.473,101.509L272.606,101.509L272.739,101.509L272.872,101.4L273.005,101.4L273.138,101.4L273.271,101.291L273.404,101.291L273.537,101.182L273.67,101.182L273.803,101.182L273.936,101.182L274.069,101.182L274.202,101.127L274.335,101.073L274.468,101.073L274.601,101.073L274.734,100.964L274.867,100.964L275,100.964L275.133,100.909L275.266,100.855L275.399,100.855L275.532,100.8L275.665,100.8L275.798,100.8L275.931,100.8L276.064,100.745L276.197,100.745L276.33,100.691L276.463,100.691L276.596,100.691L276.729,100.636L276.862,100.636L276.995,100.636L277.128,100.636L277.261,100.582L277.394,100.582L277.527,100.582L277.66,100.582L277.793,100.527L277.926,100.527L278.059,100.527L278.191,100.418L278.324,100.418L278.457,100.418L278.59,100.364L278.723,100.364L278.856,100.364L278.989,100.364L279.122,100.309L279.255,100.309L279.388,100.309L279.521,100.309L279.654,100.309L279.787,100.255L279.92,100.2L280.053,100.2L280.186,100.091L280.319,100.091L280.452,100.091L280.585,100.091L280.718,100.091L280.851,100.091L280.984,100.091L281.117,100.091L281.25,99.982L281.383,99.982L281.516,99.927L281.649,99.927L281.782,99.873L281.915,99.873L282.048,99.818L282.181,99.818L282.314,99.764L282.447,99.764L282.58,99.709L282.713,99.709L282.846,99.709L282.979,99.709L283.112,99.655L283.245,99.655L283.378,99.655L283.511,99.655L283.644,99.655L283.777,99.655L283.91,99.491L284.043,99.436L284.176,99.436L284.309,99.436L284.441,99.327L284.574,99.327L284.707,99.327L284.84,99.327L284.973,99.327L285.106,99.327L285.239,99.327L285.372,99.327L285.505,99.218L285.638,99.218L285.771,99.218L285.904,99.218L286.037,99.218L286.17,99.218L286.303,99.164L286.436,99.164L286.569,99.055L286.702,99.055L286.835,99L286.968,99L287.101,99L287.234,99L287.367,98.945L287.5,98.945L287.633,98.945L287.766,98.945L287.899,98.945L288.032,98.945L288.165,98.945L288.298,98.836L288.431,98.836L288.564,98.673L288.697,98.618L288.83,98.618L288.963,98.564L289.096,98.236L289.229,97.964L289.362,97.855L289.495,97.636L289.628,97.527L289.761,97.418L289.894,97.145L290.027,96.927L290.16,96.655L290.293,96.491L290.426,96.218L290.559,95.891L290.691,95.727L290.824,95.455L290.957,95.236L291.09,94.909L291.223,94.8L291.356,94.745L291.489,94.418L291.622,94.145L291.755,93.927L291.888,93.873L292.021,93.545L292.154,93.545L292.287,93.382L292.42,93.218L292.553,93.218L292.686,92.891L292.819,92.727L292.952,92.4L293.085,92.182L293.218,91.8L293.351,91.636L293.484,91.527L293.617,91.255L293.75,91.091L293.883,90.982L294.016,90.709L294.149,90.491L294.282,90.382L294.415,90.273L294.548,90L294.681,89.782L294.814,89.509L294.947,89.455L295.08,89.127L295.213,88.909L295.346,88.691L295.479,88.418L295.612,88.255L295.745,88.091L295.878,87.927L296.011,87.709L296.144,87.436L296.277,87.218L296.41,87.055L296.543,86.836L296.676,86.564L296.809,86.291L296.941,86.182L297.074,85.964L297.207,85.964L297.34,85.636L297.473,85.527L297.606,85.309L297.739,85.2L297.872,85.036L298.005,84.927L298.138,84.709L298.271,84.382L298.404,84.055L298.537,83.891L298.67,83.618L298.803,83.4L298.936,83.073L299.069,83.018L299.202,82.691L299.335,82.582L299.468,82.255L299.601,81.982L299.734,81.764L299.867,81.491L300,81.327L300.133,81.109L300.266,81L300.399,80.782L300.532,80.509L300.665,80.4L300.798,80.127L300.931,80.018L301.064,79.745L301.197,79.473L301.33,79.309L301.463,79.036L301.596,78.818L301.729,78.545L301.862,78.273L301.995,78.218L302.128,78.164L302.261,77.891L302.394,77.727L302.527,77.564L302.66,77.291L302.793,77.127L302.926,76.855L303.059,76.691L303.191,76.364L303.324,76.364L303.457,75.927L303.59,75.709L303.723,75.709L303.856,75.491L303.989,75.218L304.122,75L304.255,74.782L304.388,74.618L304.521,74.455L304.654,74.236L304.787,74.236L304.92,74.127L305.053,74.127L305.186,74.127L305.319,74.018L305.452,73.964L305.585,73.964L305.718,73.964L305.851,73.855L305.984,73.855L306.117,73.855L306.25,73.855L306.383,73.855L306.516,73.855L306.649,73.8L306.782,73.8L306.915,73.691L307.048,73.691L307.181,73.691L307.314,73.691L307.447,73.527L307.58,73.527L307.713,73.527L307.846,73.527L307.979,73.527L308.112,73.473L308.245,73.473L308.378,73.364L308.511,73.364L308.644,73.364L308.777,73.255L308.91,73.2L309.043,73.2L309.176,73.2L309.309,73.145L309.441,73.145L309.574,73.145L309.707,73.145L309.84,73.145L309.973,73.145L310.106,73.145L310.239,73.145L310.372,73.091L310.505,73.091L310.638,73.091L310.771,73.091L310.904,73.036L311.037,73.036L311.17,73.036L311.303,73.036L311.436,72.873L311.569,72.818L311.702,72.6L311.835,72.327L311.968,72.164L312.101,71.836L312.234,71.618L312.367,71.4L312.5,71.182L312.633,70.964L312.766,70.745L312.899,70.691L313.032,70.364L313.165,70.145L313.298,69.982L313.431,69.764L313.564,69.545L313.697,69.273L313.83,69.055L313.963,68.891L314.096,68.782L314.229,68.509L314.362,68.4L314.495,68.236L314.628,68.127L314.761,67.964L314.894,67.8L315.027,67.636L315.16,67.364L315.293,67.091L315.426,66.982L315.559,66.927L315.691,66.709L315.824,66.382L315.957,66.382L316.09,66.327L316.223,66.055L316.356,65.891L316.489,65.673L316.622,65.345L316.755,65.236L316.888,64.964L317.021,64.745L317.154,64.582L317.287,64.364L317.42,64.255L317.553,64.2L317.686,63.873L317.819,63.545L317.952,63.382L318.085,63.164L318.218,62.945L318.351,62.618L318.484,62.455L318.617,62.455L318.75,62.127L318.883,61.964L319.016,61.855L319.149,61.745L319.282,61.473L319.415,61.364L319.548,61.2L319.681,61.036L319.814,60.818L319.947,60.655L320.08,60.436L320.213,60.436L320.346,60.109L320.479,59.891L320.612,59.891L320.745,59.782L320.878,59.564L321.011,59.345L321.144,59.127L321.277,58.909L321.41,58.636L321.543,58.473L321.676,58.418L321.809,58.309L321.941,58.036L322.074,58.036L322.207,57.818L322.34,57.655L322.473,57.436L322.606,57.109L322.739,56.945L322.872,56.727L323.005,56.564L323.138,56.345L323.271,56.236L323.404,56.018L323.537,55.745L323.67,55.745L323.803,55.473L323.936,55.418L324.069,55.036L324.202,54.818L324.335,54.655L324.468,54.436L324.601,54.218L324.734,54L324.867,54L325,53.673L325.133,53.673L325.266,53.345L325.399,53.127L325.532,53.018L325.665,52.745L325.798,52.636L325.931,52.309L326.064,52.091L326.197,51.927L326.33,51.764L326.463,51.436L326.596,51.273L326.729,51.218L326.862,51.218L326.995,51.109L327.128,51.055L327.261,51.055L327.394,50.945L327.527,50.945L327.66,50.945L327.793,50.891L327.926,50.891L328.059,50.891L328.191,50.836L328.324,50.836L328.457,50.836L328.59,50.836L328.723,50.836L328.856,50.836L328.989,50.727L329.122,50.727L329.255,50.673L329.388,50.673L329.521,50.673L329.654,50.673L329.787,50.673L329.92,50.618L330.053,50.618L330.186,50.455L330.319,50.455L330.452,50.455L330.585,50.4L330.718,50.4L330.851,50.4L330.984,50.345L331.117,50.291L331.25,50.291L331.383,50.291L331.516,50.182L331.649,50.127L331.782,50.127L331.915,50.127L332.048,50.018L332.181,49.8L332.314,49.636L332.447,49.636L332.58,49.364L332.713,49.091L332.846,49.036L332.979,48.764L333.112,48.6L333.245,48.382L333.378,48.055L333.511,47.891L333.644,47.618L333.777,47.509L333.91,47.236L334.043,47.182L334.176,46.964L334.309,46.745L334.441,46.691L334.574,46.582L334.707,46.309L334.84,45.982L334.973,45.818L335.106,45.655L335.239,45.491L335.372,45.273L335.505,45L335.638,45L335.771,44.727L335.904,44.673L336.037,44.564L336.17,44.291L336.303,44.018L336.436,43.745L336.569,43.582L336.702,43.418L336.835,43.145L336.968,42.873L337.101,42.709L337.234,42.6L337.367,42.491L337.5,42.273L337.633,42.273L337.766,41.945L337.899,41.782L338.032,41.455L338.165,41.236L338.298,40.855L338.431,40.636L338.564,40.418L338.697,40.255L338.83,40.091L338.963,39.873L339.096,39.873L339.229,39.655L339.362,39.436L339.495,39.273L339.628,39.109L339.761,38.891L339.894,38.782L340.027,38.509L340.16,38.455L340.293,38.455L340.426,38.455L340.559,38.455L340.691,38.455L340.824,38.4L340.957,38.345L341.09,38.345L341.223,38.345L341.356,38.236L341.489,38.236L341.622,38.236L341.755,38.182L341.888,38.182L342.021,38.182L342.154,38.182L342.287,38.182L342.42,38.073L342.553,38.073L342.686,38.073L342.819,38.073L342.952,37.909L343.085,37.909L343.218,37.909L343.351,37.855L343.484,37.855L343.617,37.855L343.75,37.855L343.883,37.8L344.016,37.8L344.149,37.8L344.282,37.745L344.415,37.527L344.548,37.364L344.681,37.145L344.814,37.091L344.947,36.982L345.08,36.927L345.213,36.873L345.346,36.873L345.479,36.873L345.612,36.873L345.745,36.764L345.878,36.764L346.011,36.709L346.144,36.545L346.277,36.545L346.41,36.545L346.543,36.545L346.676,36.545L346.809,36.545L346.941,36.491L347.074,36.491L347.207,36.382L347.34,36.382L347.473,36.382L347.606,36.382L347.739,36.382L347.872,36.273L348.005,36.273L348.138,36.273L348.271,36.218L348.404,36.164L348.537,36.164L348.67,36.164L348.803,36.164L348.936,36.164L349.069,36.164L349.202,36L349.335,36L349.468,36L349.601,35.891L349.734,35.836L349.867,35.836L350,35.836L350.133,35.836L350.266,35.836L350.399,35.782L350.532,35.782L350.665,35.782L350.798,35.782L350.931,35.727L351.064,35.727L351.197,35.727L351.33,35.727L351.463,35.727L351.596,35.618L351.729,35.564L351.862,35.564L351.995,35.564L352.128,35.564L352.261,35.509L352.394,35.509L352.527,35.509L352.66,35.455L352.793,35.4L352.926,35.4L353.059,35.4L353.191,35.4L353.324,35.4L353.457,35.4L353.59,35.4L353.723,35.4L353.856,35.4L353.989,35.4L354.122,35.4L354.255,35.4L354.388,35.4L354.521,35.345L354.654,35.291L354.787,35.236L354.92,35.236L355.053,35.236L355.186,35.236L355.319,35.182L355.452,35.182L355.585,35.182L355.718,35.127L355.851,35.073L355.984,35.073L356.117,35.073L356.25,34.964L356.383,34.964L356.516,34.964L356.649,34.964L356.782,34.964L356.915,34.964L357.048,34.964L357.181,34.964L357.314,34.964L357.447,34.909L357.58,34.8L357.713,34.745L357.846,34.745L357.979,34.745L358.112,34.582L358.245,34.582L358.378,34.527L358.511,34.527L358.644,34.527L358.777,34.527L358.91,34.418L359.043,34.418L359.176,34.418L359.309,34.418L359.441,34.364L359.574,34.364L359.707,34.364L359.84,34.364L359.973,34.309L360.106,34.309L360.239,34.309L360.372,34.309L360.505,34.309L360.638,34.255L360.771,34.255L360.904,34.145L361.037,34.145L361.17,34.145L361.303,34.145L361.436,34.145L361.569,34.145L361.702,34.145L361.835,34.145L361.968,34.091L362.101,34.091L362.234,34.091L362.367,34.036L362.5,34.036L362.633,33.982L362.766,33.982L362.899,33.982L363.032,33.982L363.165,33.982L363.298,33.982L363.431,33.873L363.564,33.873L363.697,33.873L363.83,33.873L363.963,33.873L364.096,33.873L364.229,33.873L364.362,33.873L364.495,33.873L364.628,33.873L364.761,33.873L364.894,33.873L365.027,33.764L365.16,33.764L365.293,33.764L365.426,33.764L365.559,33.764L365.691,33.709L365.824,33.709L365.957,33.655L366.09,33.655L366.223,33.545L366.356,33.545L366.489,33.545L366.622,33.545L366.755,33.545L366.888,33.545L367.021,33.545L367.154,33.545L367.287,33.545L367.42,33.545L367.553,33.545L367.686,33.545L367.819,33.545L367.952,33.545L368.085,33.545L368.218,33.545L368.351,33.545L368.484,33.545L368.617,33.491L368.75,33.382L368.883,33.273L369.016,33.164L369.149,33L369.282,33L369.415,33L369.548,33L369.681,32.891L369.814,32.782L369.947,32.782L370.08,32.727L370.213,32.727L370.346,32.618L370.479,32.509L370.612,32.509L370.745,32.509L370.878,32.236L371.011,32.236L371.144,32.182L371.277,32.073L371.41,32.073L371.543,32.073L371.676,32.073L371.809,32.073L371.941,32.073L372.074,32.018L372.207,32.018L372.34,32.018L372.473,32.018L372.606,32.018L372.739,32.018L372.872,31.964L373.005,31.964L373.138,31.964L373.271,31.855L373.404,31.855L373.537,31.8L373.67,31.8L373.803,31.745L373.936,31.745L374.069,31.691L374.202,31.691L374.335,31.691L374.468,31.691L374.601,31.691L374.734,31.691L374.867,31.691L375,31.636L375.133,31.527L375.266,31.527L375.399,31.527L375.532,31.527L375.665,31.527L375.798,31.418L375.931,31.418L376.064,31.364L376.197,31.364L376.33,31.309L376.463,31.309L376.596,31.255L376.729,31.255L376.862,31.255L376.995,31.255L377.128,31.145L377.261,31.145L377.394,31.145L377.527,31.145L377.66,31.091L377.793,31.091L377.926,31.036L378.059,31.036L378.191,31.036L378.324,31.036L378.457,30.982L378.59,30.982L378.723,30.982L378.856,30.873L378.989,30.873L379.122,30.873L379.255,30.873L379.388,30.818L379.521,30.764L379.654,30.709L379.787,30.709L379.92,30.655L380.053,30.655L380.186,30.655L380.319,30.6L380.452,30.6L380.585,30.6L380.718,30.491L380.851,30.491L380.984,30.491L381.117,30.436L381.25,30.436L381.383,30.382L381.516,30.382L381.649,30.382L381.782,30.327L381.915,30.327L382.048,30.327L382.181,30.273L382.314,30.273L382.447,30.273L382.58,30.218L382.713,30.218L382.846,30.218L382.979,30.218L383.112,30.164L383.245,30.164L383.378,30.164L383.511,30.164L383.644,30.164L383.777,30.055L383.91,30.055L384.043,30.055L384.176,30L384.309,30L384.441,29.891L384.574,29.891L384.707,29.891L384.84,29.782L384.973,29.782L385.106,29.782L385.239,29.673L385.372,29.673L385.505,29.673L385.638,29.618L385.771,29.618L385.904,29.4L386.037,29.4L386.17,29.4L386.303,29.4L386.436,29.345L386.569,29.345L386.702,29.345L386.835,29.345L386.968,29.236L387.101,29.236L387.234,29.236L387.367,29.236L387.5,29.236L387.633,29.236L387.766,29.236L387.899,29.236L388.032,29.236L388.165,29.236L388.298,29.236L388.431,29.236L388.564,29.236L388.697,29.127L388.83,28.964L388.963,28.964L389.096,28.909L389.229,28.909L389.362,28.8L389.495,28.8L389.628,28.8L389.761,28.8L389.894,28.8L390.027,28.745L390.16,28.745L390.293,28.745L390.426,28.745L390.559,28.745L390.691,28.745L390.824,28.745L390.957,28.745L391.09,28.745L391.223,28.745L391.356,28.745L391.489,28.745L391.622,28.745L391.755,28.745L391.888,28.745L392.021,28.745L392.154,28.745L392.287,28.745L392.42,28.745L392.553,28.745L392.686,28.745L392.819,28.745L392.952,28.745L393.085,28.745L393.218,28.745L393.351,28.745L393.484,28.745L393.617,28.745L393.75,28.745L393.883,28.745L394.016,28.745L394.149,28.745L394.282,28.745L394.415,28.745L394.548,28.691L394.681,28.691L394.814,28.691L394.947,28.691L395.08,28.691L395.213,28.691L395.346,28.636L395.479,28.636L395.612,28.636L395.745,28.473L395.878,28.473L396.011,28.473L396.144,28.473L396.277,28.473L396.41,28.473L396.543,28.473L396.676,28.473L396.809,28.473L396.941,28.473L397.074,28.473L397.207,28.473L397.34,28.473L397.473,28.473L397.606,28.473L397.739,28.473L397.872,28.473L398.005,28.473L398.138,28.309L398.271,27.545L398.404,27.436L398.537,26.727L398.67,26.509L398.803,26.236L398.936,26.127L399.069,26.127L399.202,26.127L399.335,26.127L399.468,26.127L399.601,25.964L399.734,25.964L399.867,25.964L400,25.964L400.133,25.909L400.266,25.909L400.399,25.8L400.532,25.473L400.665,25.2L400.798,24.982L400.931,24.6L401.064,24.6L401.197,24.218L401.33,24L401.463,24L401.596,24L401.729,24L401.862,24L401.995,23.891L402.128,23.891L402.261,23.891L402.394,23.891L402.527,23.836L402.66,23.782L402.793,23.782L402.926,23.727L403.059,23.727L403.191,23.727L403.324,23.673L403.457,23.673L403.59,23.673L403.723,23.564L403.856,23.509L403.989,23.509L404.122,23.509L404.255,23.455L404.388,23.455L404.521,23.4L404.654,23.4L404.787,23.345L404.92,23.291L405.053,23.236L405.186,23.236L405.319,23.182L405.452,23.127L405.585,23.018L405.718,23.018L405.851,23.018L405.984,23.018L406.117,23.018L406.25,22.964L406.383,22.964L406.516,22.964L406.649,22.855L406.782,22.855L406.915,22.8L407.048,22.691L407.181,22.473L407.314,22.473L407.447,22.364L407.58,22.145L407.713,22.145L407.846,22.145L407.979,22.145L408.112,21.982L408.245,21.873L408.378,21.873L408.511,21.873L408.644,21.873L408.777,21.6L408.91,21.6L409.043,21.545L409.176,21.327L409.309,21.327L409.441,21.327L409.574,21.327L409.707,21.327L409.84,21.327L409.973,21.327L410.106,21.327L410.239,21.327L410.372,21.327L410.505,21.327L410.638,21.327L410.771,21.327L410.904,21.327L411.037,21.327L411.17,21.327L411.303,21.327L411.436,21.327L411.569,21.327L411.702,21.327L411.835,21.327L411.968,21.327L412.101,21.327L412.234,21.327L412.367,21.327L412.5,21.327L412.633,21.327L412.766,21.327L412.899,21.327L413.032,21.327L413.165,21.327L413.298,21.327L413.431,21.327L413.564,21.327L413.697,21.327L413.83,21.327L413.963,21.327L414.096,21.327L414.229,21.327L414.362,21.327L414.495,21.327L414.628,21.327L414.761,21.327L414.894,21.327L415.027,21.327L415.16,21.327L415.293,21.327L415.426,21.327L415.559,21.327L415.691,21.327L415.824,21.327L415.957,21.327L416.09,21.327L416.223,21.327L416.356,21.327L416.489,21.327L416.622,21.327L416.755,21.327L416.888,21.327L417.021,21.327L417.154,21.327L417.287,21.327L417.42,21.327L417.553,21.327L417.686,21.327L417.819,21.327L417.952,21.327L418.085,21.273L418.218,21.273L418.351,21.273L418.484,21.273L418.617,21.273L418.75,21.273L418.883,21.273L419.016,21.273L419.149,21.273L419.282,21.273L419.415,21.273L419.548,21.273L419.681,21.273L419.814,21.273L419.947,21.273L420.08,21.273L420.213,21.273L420.346,21.273L420.479,21.273L420.612,21.273L420.745,21.273L420.878,21.273L421.011,21.273L421.144,21.273L421.277,21.273L421.41,21.273L421.543,21.273L421.676,21.273L421.809,21.273L421.941,21.273L422.074,21.273L422.207,21.273L422.34,21.273L422.473,21.273L422.606,21.273L422.739,21.273L422.872,21.273L423.005,21.273L423.138,21.273L423.271,21.273L423.404,21.273L423.537,21.273L423.67,21.273L423.803,21.273L423.936,21.273L424.069,21.273L424.202,21.273L424.335,21.273L424.468,21.273L424.601,21.273L424.734,21.273L424.867,21.273L425,21.273L425.133,21.273L425.266,21.273L425.399,21.273L425.532,21.273L425.665,21.273L425.798,21.273L425.931,21.273L426.064,21.273L426.197,21.273L426.33,21.273L426.463,21.109L426.596,20.945L426.729,20.945L426.862,20.945L426.995,20.945L427.128,20.945L427.261,20.945L427.394,20.945L427.527,20.836L427.66,20.836L427.793,20.836L427.926,20.673L428.059,20.673L428.191,20.673L428.324,20.673L428.457,20.618L428.59,20.618L428.723,20.455L428.856,20.345L428.989,20.345L429.122,20.345L429.255,20.345L429.388,20.345L429.521,20.345L429.654,20.345L429.787,20.345L429.92,20.345L430.053,20.345L430.186,20.345L430.319,20.345L430.452,20.345L430.585,20.345L430.718,20.345L430.851,20.345L430.984,20.345L431.117,20.345L431.25,20.345L431.383,20.345L431.516,20.345L431.649,20.345L431.782,20.345L431.915,20.345L432.048,20.345L432.181,20.345L432.314,20.345L432.447,20.345L432.58,20.345L432.713,20.345L432.846,20.345L432.979,20.345L433.112,20.345L433.245,20.345L433.378,20.345L433.511,20.345L433.644,20.345L433.777,20.345L433.91,20.127L434.043,20.127L434.176,20.127L434.309,20.127L434.441,20.127L434.574,20.127L434.707,20.127L434.84,20.127L434.973,20.127L435.106,20.073L435.239,20.073L435.372,20.073L435.505,20.073L435.638,20.073L435.771,20.073L435.904,20.073L436.037,20.073L436.17,20.073L436.303,20.073L436.436,20.073L436.569,20.073L436.702,19.8L436.835,19.8L436.968,19.8L437.101,19.8L437.234,19.8L437.367,19.8L437.5,19.745L437.633,19.745L437.766,19.745L437.899,19.745L438.032,19.745L438.165,19.745L438.298,19.745L438.431,19.745L438.564,19.745L438.697,19.745L438.83,19.745L438.963,19.745L439.096,19.745L439.229,19.745L439.362,19.745L439.495,19.745L439.628,19.745L439.761,19.745L439.894,19.745L440.027,19.745L440.16,19.745L440.293,19.745L440.426,19.745L440.559,19.745L440.691,19.745L440.824,19.745L440.957,19.745L441.09,19.691L441.223,19.691L441.356,19.691L441.489,19.636L441.622,19.527L441.755,19.527L441.888,19.527L442.021,19.418L442.154,19.418L442.287,19.418L442.42,19.418L442.553,19.418L442.686,19.418L442.819,19.309L442.952,19.309L443.085,19.255L443.218,19.2L443.351,19.2L443.484,19.2L443.617,19.2L443.75,19.2L443.883,19.145L444.016,19.145L444.149,19.145L444.282,19.091L444.415,19.091L444.548,19.091L444.681,19.091L444.814,18.982L444.947,18.927L445.08,18.927L445.213,18.927L445.346,18.927L445.479,18.873L445.612,18.873L445.745,18.873L445.878,18.873L446.011,18.818L446.144,18.818L446.277,18.818L446.41,18.655L446.543,18.655L446.676,18.655L446.809,18.6L446.941,18.6L447.074,18.6L447.207,18.6L447.34,18.6L447.473,18.6L447.606,18.6L447.739,18.491L447.872,18.491L448.005,18.491L448.138,18.491L448.271,18.491L448.404,18.491L448.537,18.491L448.67,18.491L448.803,18.436L448.936,18.436L449.069,18.327L449.202,18.327L449.335,18.327L449.468,18.218L449.601,18.218L449.734,18.218L449.867,18.218L450,18.218L450.133,18.164L450.266,18.164L450.399,18.164L450.532,18.164L450.665,18.164L450.798,18.109L450.931,18.109L451.064,18.109L451.197,18.109L451.33,18.109L451.463,18.109L451.596,18.055L451.729,18.055L451.862,18.055L451.995,17.945L452.128,17.836L452.261,17.782L452.394,17.782L452.527,17.782L452.66,17.782L452.793,17.782L452.926,17.782L453.059,17.782L453.191,17.782L453.324,17.782L453.457,17.782L453.59,17.782L453.723,17.782L453.856,17.727L453.989,17.618L454.122,17.618L454.255,17.564L454.388,17.564L454.521,17.564L454.654,17.564L454.787,17.564L454.92,17.564L455.053,17.564L455.186,17.564L455.319,17.564L455.452,17.564L455.585,17.455L455.718,17.455L455.851,17.455L455.984,17.455L456.117,17.455L456.25,17.455L456.383,17.455L456.516,17.455L456.649,17.4L456.782,17.4L456.915,17.4L457.048,17.345L457.181,17.345L457.314,17.345L457.447,17.182L457.58,17.182L457.713,17.182L457.846,17.127L457.979,17.127L458.112,17.127L458.245,16.909L458.378,16.909L458.511,16.909L458.644,16.855L458.777,16.855L458.91,16.855L459.043,16.855L459.176,16.855L459.309,16.745L459.441,16.691L459.574,16.691L459.707,16.691L459.84,16.636L459.973,16.636L460.106,16.582L460.239,16.473L460.372,16.473L460.505,16.473L460.638,16.473L460.771,16.473L460.904,16.418L461.037,16.418L461.17,16.255L461.303,16.255L461.436,16.255L461.569,16.255L461.702,16.2L461.835,16.091L461.968,16.091L462.101,16.091L462.234,15.982L462.367,15.982L462.5,15.982L462.633,15.982L462.766,15.873L462.899,15.873L463.032,15.873L463.165,15.764L463.298,15.764L463.431,15.709L463.564,15.709L463.697,15.6L463.83,15.6L463.963,15.6L464.096,15.545L464.229,15.545L464.362,15.491L464.495,15.436L464.628,15.436L464.761,15.436L464.894,15.436L465.027,15.436L465.16,15.436L465.293,15.273L465.426,15.273L465.559,15.164L465.691,15.164L465.824,15.164L465.957,15.164L466.09,15.164L466.223,15.109L466.356,15.109L466.489,15.109L466.622,15.055L466.755,15.055L466.888,15L467.021,15L467.154,15L467.287,14.945L467.42,14.945L467.553,14.891L467.686,14.782L467.819,14.782L467.952,14.727L468.085,14.673L468.218,14.618L468.351,14.509L468.484,14.236L468.617,13.964L468.75,13.909L468.883,13.745L469.016,13.527L469.149,13.418L469.282,12.982L469.415,12.927L469.548,12.545L469.681,12.436L469.814,12.382L469.947,12.382L470.08,12.382L470.213,12.382L470.346,12.382L470.479,12.382L470.612,12.382L470.745,12.327L470.878,12.327L471.011,12.327L471.144,12.327L471.277,12.218L471.41,12.218L471.543,12.218L471.676,12.164L471.809,12.109L471.941,12.109L472.074,12.109L472.207,12.055L472.34,12.055L472.473,12.055L472.606,12.055L472.739,12.055L472.872,12.055L473.005,12.055L473.138,12.055L473.271,12.055L473.404,12L473.537,12L473.67,12L473.803,11.836L473.936,11.836L474.069,11.836L474.202,11.836L474.335,11.836L474.468,11.836L474.601,11.836L474.734,11.836L474.867,11.836L475,11.836L475.133,11.673L475.266,11.673L475.399,11.673L475.532,11.673L475.665,11.509L475.798,11.4L475.931,11.127L476.064,11.127L476.197,11.073L476.33,11.018L476.463,10.964L476.596,10.964L476.729,10.909L476.862,10.909L476.995,10.909L477.128,10.909L477.261,10.909L477.394,10.909L477.527,10.909L477.66,10.909L477.793,10.909L477.926,10.855L478.059,10.855L478.191,10.855L478.324,10.745L478.457,10.745L478.59,10.745L478.723,10.745L478.856,10.636L478.989,10.636L479.122,10.636L479.255,10.527L479.388,10.418L479.521,10.255L479.654,10.145L479.787,10.145L479.92,10.036L480.053,10.036L480.186,10.036L480.319,9.818L480.452,9.818L480.585,9.818L480.718,9.655L480.851,9.545L480.984,9.491L481.117,9.491L481.25,9.491L481.383,9.491L481.516,9.436L481.649,9.436L481.782,9.436L481.915,9.273L482.048,9.164L482.181,9.164L482.314,9L482.447,9L482.58,8.945L482.713,8.945L482.846,8.945L482.979,8.945L483.112,8.945L483.245,8.945L483.378,8.891L483.511,8.891L483.644,8.673L483.777,8.673L483.91,8.673L484.043,8.618L484.176,8.509L484.309,8.509L484.441,8.455L484.574,8.345L484.707,8.345L484.84,8.073L484.973,8.073L485.106,7.964L485.239,7.909L485.372,7.8L485.505,7.636L485.638,7.636L485.771,7.145L485.904,7.145L486.037,7.145L486.17,7.145L486.303,7.145L486.436,7.145L486.569,7.145L486.702,7.091L486.835,7.091L486.968,6.655L487.101,6.218L487.234,6L487.367,5.891L487.5,5.564L487.633,5.509L487.766,5.509L487.899,5.345L488.032,5.345L488.165,5.345L488.298,5.345L488.431,5.345L488.564,5.182L488.697,5.182L488.83,5.182L488.963,5.073L489.096,5.073L489.229,5.073L489.362,5.073L489.495,5.073L489.628,5.073L489.761,5.073L489.894,5.073L490.027,5.073L490.16,5.073L490.293,5.018L490.426,5.018L490.559,5.018L490.691,5.018L490.824,5.018L490.957,5.018L491.09,5.018L491.223,5.018L491.356,5.018L491.489,5.018L491.622,5.018L491.755,5.018L491.888,5.018L492.021,5.018L492.154,5.018L492.287,5.018L492.42,4.964L492.553,4.964L492.686,4.964L492.819,4.964L492.952,4.964L493.085,4.964L493.218,4.964L493.351,4.964L493.484,4.964L493.617,4.964L493.75,4.909L493.883,4.909L494.016,4.909L494.149,4.909L494.282,4.909L494.415,4.909L494.548,4.909L494.681,4.855L494.814,4.855L494.947,4.8L495.08,4.8L495.213,4.582L495.346,4.582L495.479,4.582L495.612,4.582L495.745,4.582L495.878,4.582L496.011,4.582L496.144,4.582L496.277,4.582L496.41,4.582L496.543,4.582L496.676,4.527L496.809,4.527L496.941,4.527L497.074,4.527L497.207,4.473L497.34,4.418L497.473,4.364L497.606,4.309L497.739,4.255L497.872,4.255L498.005,4.255L498.138,4.255L498.271,4.255L498.404,4.255L498.537,4.255L498.67,4.255L498.803,4.145L498.936,4.091L499.069,4.036L499.202,4.036L499.335,4.036L499.468,4.036L499.601,3.818L499.734,3.764L499.867,3.764L500,3.709" stroke="#4c78a8" stroke-width="2"/></g></g><path class="foreground" aria-hidden="true" d="" display="none"/></g></g></g></svg>