<svg xmlns="http://www.w3.org/2000/svg" xmlns:xlink="http://www.w3.org/1999/xlink" version="1.1" class="marks" width="549" height="347" viewBox="0 0 549 347"><rect width="549" height="347" fill="white"/><g fill="none" stroke-miterlimit="10" transform="translate(39,10)"><g class="mark-group role-frame root" role="graphics-object" aria-roledescription="group mark container"><g transform="translate(0,0)"><path class="background" aria-hidden="true" d="M0.5,0.5h500v300h-500Z" stroke="#ddd"/><g><g class="mark-group role-axis" aria-hidden="true"><g transform="translate(0.5,300.5)"><path class="background" aria-hidden="true" d="M0,0h0v0h0Z" pointer-events="none"/><g><g class="mark-rule role-axis-grid" pointer-events="none"><line transform="translate(13,-300)" x2="0" y2="300" stroke="#ddd" stroke-width="1" opacity="1"/><line transform="translate(43,-300)" x2="0" y2="300" stroke="#ddd" stroke-width="1" opacity="1"/><line transform="translate(73,-300)" x2="0" y2="300" stroke="#ddd" stroke-width="1" opacity="1"/><line transform="translate(103,-300)" x2="0" y2="300" stroke="#ddd" stroke-width="1" opacity="1"/><line transform="translate(133,-300)" x2="0" y2="300" stroke="#ddd" stroke-width="1" opacity="1"/><line transform="translate(163,-300)" x2="0" y2="300" stroke="#ddd" stroke-width="1" opacity="1"/><line transform="translate(193,-300)" x2="0" y2="300" stroke="#ddd" stroke-width="1" opacity="1"/><line transform="translate(223,-300)" x2="0" y2="300" stroke="#ddd" stroke-width="1" opacity="1"/><line transform="translate(253,-300)" x2="0" y2="300" stroke="#ddd" stroke-width="1" opacity="1"/><line transform="translate(282,-300)" x2="0" y2="300" stroke="#ddd" stroke-width="1" opacity="1"/><line transform="translate(312,-300)" x2="0" y2="300" stroke="#ddd" stroke-width="1" opacity="1"/><line transform="translate(342,-300)" x2="0" y2="300" stroke="#ddd" stroke-width="1" opacity="1"/><line transform="translate(372,-300)" x2="0" y2="300" stroke="#ddd" stroke-width="1" opacity="1"/><line transform="translate(402,-300)" x2="0" y2="300" stroke="#ddd" stroke-width="1" opacity="1"/><line transform="translate(432,-300)" x2="0" y2="300" stroke="#ddd" stroke-width="1" opacity="1"/><line transform="translate(462,-300)" x2="0" y2="300" stroke="#ddd" stroke-width="1" opacity="1"/><line transform="translate(492,-300)" x2="0" y2="300" stroke="#ddd" stroke-width="1" opacity="1"/></g></g><path class="foreground" aria-hidden="true" d="" pointer-events="none" display="none"/></g></g><g class="mark-group role-axis" aria-hidden="true"><g transform="translate(0.5,0.5)"><path class="background" aria-hidden="true" d="M0,0h0v0h0Z" pointer-events="none"/><g><g class="mark-rule role-axis-grid" pointer-events="none"><line transform="translate(0,300)" x2="500" y2="0" stroke="#ddd" stroke-width="1" opacity="1"/><line transform="translate(0,270)" x2="500" y2="0" stroke="#ddd" stroke-width="1" opacity="1"/><line transform="translate(0,240)" x2="500" y2="0" stroke="#ddd" stroke-width="1" opacity="1"/><line transform="translate(0,210)" x2="500" y2="0" stroke="#ddd" stroke-width="1" opacity="1"/><line transform="translate(0,180)" x2="500" y2="0" stroke="#ddd" stroke-width="1" opacity="1"/><line transform="translate(0,150)" x2="500" y2="0" stroke="#ddd" stroke-width="1" opacity="1"/><line transform="translate(0,120)" x2="500" y2="0" stroke="#ddd" stroke-width="1" opacity="1"/><line transform="translate(0,90)" x2="500" y2="0" stroke="#ddd" stroke-width="1" opacity="1"/><line transform="translate(0,60)" x2="500" y2="0" stroke="#ddd" stroke-width="1" opacity="1"/><line transform="translate(0,30)" x2="500" y2="0" stroke="#ddd" stroke-width="1" opacity="1"/><line transform="translate(0,0)" x2="500" y2="0" stroke="#ddd" stroke-width="1" opacity="1"/></g></g><path class="foreground" aria-hidden="true" d="" pointer-events="none" display="none"/></g></g><g class="mark-group role-axis" role="graphics-symbol" aria-roledescription="axis" aria-label="X-axis titled 'Time' for a time scale with values from Wednesday, 26 June 2024, 10:38:23 AM to Wednesday, 26 June 2024, 2:49:03 PM"><g transform="translate(0.5,300.5)"><path class="background" aria-hidden="true" d="M0,0h0v0h0Z" pointer-events="none"/><g><g class="mark-rule role-axis-tick" pointer-events="none"><line transform="translate(13,0)" x2="0" y2="5" stroke="#888" stroke-width="1" opacity="1"/><line transform="translate(43,0)" x2="0" y2="5" stroke="#888" stroke-width="1" opacity="1"/><line transform="translate(73,0)" x2="0" y2="5" stroke="#888" stroke-width="1" opacity="1"/><line transform="translate(103,0)" x2="0" y2="5" stroke="#888" stroke-width="1" opacity="1"/><line transform="translate(133,0)" x2="0" y2="5" stroke="#888" stroke-width="1" opacity="1"/><line transform="translate(163,0)" x2="0" y2="5" stroke="#888" stroke-width="1" opacity="1"/><line transform="translate(193,0)" x2="0" y2="5" stroke="#888" stroke-width="1" opacity="1"/><line transform="translate(223,0)" x2="0" y2="5" stroke="#888" stroke-width="1" opacity="1"/><line transform="translate(253,0)" x2="0" y2="5" stroke="#888" stroke-width="1" opacity="1"/><line transform="translate(282,0)" x2="0" y2="5" stroke="#888" stroke-width="1" opacity="1"/><line transform="translate(312,0)" x2="0" y2="5" stroke="#888" stroke-width="1" opacity="1"/><line transform="translate(342,0)" x2="0" y2="5" stroke="#888" stroke-width="1" opacity="1"/><line transform="translate(372,0)" x2="0" y2="5" stroke="#888" stroke-width="1" opacity="1"/><line transform="translate(402,0)" x2="0" y2="5" stroke="#888" stroke-width="1" opacity="1"/><line transform="translate(432,0)" x2="0" y2="5" stroke="#888" stroke-width="1" opacity="1"/><line transform="translate(462,0)" x2="0" y2="5" stroke="#888" stroke-width="1" opacity="1"/><line transform="translate(492,0)" x2="0" y2="5" stroke="#888" stroke-width="1" opacity="1"/></g><g class="mark-text role-axis-label" pointer-events="none"><text text-anchor="middle" transform="translate(13.198138297872342,15)" font-family="sans-serif" font-size="10px" fill="#000" opacity="1">10:45</text><text text-anchor="middle" transform="translate(43.118351063829785,15)" font-family="sans-serif" font-size="10px" fill="#000" opacity="1">11 AM</text><text text-anchor="middle" transform="translate(73.03856382978724,15)" font-family="sans-serif" font-size="10px" fill="#000" opacity="1">11:15</text><text text-anchor="middle" transform="translate(102.95877659574468,15)" font-family="sans-serif" font-size="10px" fill="#000" opacity="1">11:30</text><text text-anchor="middle" transform="translate(132.8789893617021,15)" font-family="sans-serif" font-size="10px" fill="#000" opacity="1">11:45</text><text text-anchor="middle" transform="translate(162.79920212765958,15)" font-family="sans-serif" font-size="10px" fill="#000" opacity="1">12 PM</text><text text-anchor="middle" transform="translate(192.71941489361703,15)" font-family="sans-serif" font-size="10px" fill="#000" opacity="1">12:15</text><text text-anchor="middle" transform="translate(222.63962765957444,15)" font-family="sans-serif" font-size="10px" fill="#000" opacity="1">12:30</text><text text-anchor="middle" transform="translate(252.55984042553192,15)" font-family="sans-serif" font-size="10px" fill="#000" opacity="1">12:45</text><text text-anchor="middle" transform="translate(282.4800531914894,15)" font-family="sans-serif" font-size="10px" fill="#000" opacity="1">01 PM</text><text text-anchor="middle" transform="translate(312.4002659574468,15)" font-family="sans-serif" font-size="10px" fill="#000" opacity="1">01:15</text><text text-anchor="middle" transform="translate(342.3204787234043,15)" font-family="sans-serif" font-size="10px" fill="#000" opacity="1">01:30</text><text text-anchor="middle" transform="translate(372.24069148936167,15)" font-family="sans-serif" font-size="10px" fill="#000" opacity="1">01:45</text><text text-anchor="middle" transform="translate(402.16090425531917,15)" font-family="sans-serif" font-size="10px" fill="#000" opacity="1">02 PM</text><text text-anchor="middle" transform="translate(432.0811170212766,15)" font-family="sans-serif" font-size="10px" fill="#000" opacity="1">02:15</text><text text-anchor="middle" transform="translate(462.001329787234,15)" font-family="sans-serif" font-size="10px" fill="#000" opacity="1">02:30</text><text text-anchor="middle" transform="translate(491.9215425531915,15)" font-family="sans-serif" font-size="10px" fill="#000" opacity="1">02:45</text></g><g class="mark-rule role-axis-domain" pointer-events="none"><line transform="translate(0,0)" x2="500" y2="0" stroke="#888" stroke-width="1" opacity="1"/></g><g class="mark-text role-axis-title" pointer-events="none"><text text-anchor="middle" transform="translate(250,30)" font-family="sans-serif" font-size="11px" font-weight="bold" fill="#000" opacity="1">Time</text></g></g><path class="foreground" aria-hidden="true" d="" pointer-events="none" display="none"/></g></g><g class="mark-group role-axis" role="graphics-symbol" aria-roledescription="axis" aria-label="Y-axis titled 'Elevation difference / m' for a linear scale with values from −7 to 3"><g transform="translate(0.5,0.5)"><path class="background" aria-hidden="true" d="M0,0h0v0h0Z" pointer-events="none"/><g><g class="mark-rule role-axis-tick" pointer-events="none"><line transform="translate(0,300)" x2="-5" y2="0" stroke="#888" stroke-width="1" opacity="1"/><line transform="translate(0,270)" x2="-5" y2="0" stroke="#888" stroke-width="1" opacity="1"/><line transform="translate(0,240)" x2="-5" y2="0" stroke="#888" stroke-width="1" opacity="1"/><line transform="translate(0,210)" x2="-5" y2="0" stroke="#888" stroke-width="1" opacity="1"/><line transform="translate(0,180)" x2="-5" y2="0" stroke="#888" stroke-width="1" opacity="1"/><line transform="translate(0,150)" x2="-5" y2="0" stroke="#888" stroke-width="1" opacity="1"/><line transform="translate(0,120)" x2="-5" y2="0" stroke="#888" stroke-width="1" opacity="1"/><line transform="translate(0,90)" x2="-5" y2="0" stroke="#888" stroke-width="1" opacity="1"/><line transform="translate(0,60)" x2="-5" y2="0" stroke="#888" stroke-width="1" opacity="1"/><line transform="translate(0,30)" x2="-5" y2="0" stroke="#888" stroke-width="1" opacity="1"/><line transform="translate(0,0)" x2="-5" y2="0" stroke="#888" stroke-width="1" opacity="1"/></g><g class="mark-text role-axis-label" pointer-events="none"><text text-anchor="end" transform="translate(-7,303)" font-family="sans-serif" font-size="10px" fill="#000" opacity="1">−7</text><text text-anchor="end" transform="translate(-7,273)" font-family="sans-serif" font-size="10px" fill="#000" opacity="1">−6</text><text text-anchor="end" transform="translate(-7,243)" font-family="sans-serif" font-size="10px" fill="#000" opacity="1">−5</text><text text-anchor="end" transform="translate(-7,213)" font-family="sans-serif" font-size="10px" fill="#000" opacity="1">−4</text><text text-anchor="end" transform="translate(-7,183)" font-family="sans-serif" font-size="10px" fill="#000" opacity="1">−3</text><text text-anchor="end" transform="translate(-7,153)" font-family="sans-serif" font-size="10px" fill="#000" opacity="1">−2</text><text text-anchor="end" transform="translate(-7,123)" font-family="sans-serif" font-size="10px" fill="#000" opacity="1">−1</text><text text-anchor="end" transform="translate(-7,93.00000000000001)" font-family="sans-serif" font-size="10px" fill="#000" opacity="1">0</text><text text-anchor="end" transform="translate(-7,62.999999999999986)" font-family="sans-serif" font-size="10px" fill="#000" opacity="1">1</text><text text-anchor="end" transform="translate(-7,32.99999999999999)" font-family="sans-serif" font-size="10px" fill="#000" opacity="1">2</text><text text-anchor="end" transform="translate(-7,3)" font-family="sans-serif" font-size="10px" fill="#000" opacity="1">3</text></g><g class="mark-rule role-axis-domain" pointer-events="none"><line transform="translate(0,300)" x2="0" y2="-300" stroke="#888" stroke-width="1" opacity="1"/></g><g class="mark-text role-axis-title" pointer-events="none"><text text-anchor="middle" transform="translate(-22.4013671875,150) rotate(-90) translate(0,-2)" font-family="sans-serif" font-size="11px" font-weight="bold" fill="#000" opacity="1">Elevation difference / m</text></g></g><path class="foreground" aria-hidden="true" d="" pointer-events="none" display="none"/></g></g><g class="mark-line role-mark marks" role="graphics-symbol" aria-roledescription="line mark container"><path d="M0.133,90L0.266,108L0.399,84L0.532,90L0.665,90L0.798,90L0.931,102L1.064,78L1.197,84L1.33,96L1.463,96L1.596,96L1.729,66L1.862,90L1.995,102L2.128,78L2.261,90L2.394,78L2.527,84L2.66,72L2.793,108L2.926,90L3.059,102L3.191,60L3.324,114L3.457,72L3.59,90L3.723,78L3.856,96L3.989,84L4.122,72L4.255,72L4.388,96L4.521,96L4.654,78L4.787,78L4.92,78L5.053,90L5.186,90L5.319,72L5.452,96L5.585,78L5.718,84L5.851,78L5.984,84L6.117,90L6.25,72L6.383,78L6.516,84L6.649,90L6.782,96L6.915,126L7.048,102L7.181,78L7.314,120L7.447,96L7.58,96L7.713,84L7.846,108L7.979,114L8.112,90L8.245,60L8.378,78L8.511,84L8.644,84L8.777,96L8.91,102L9.043,96L9.176,84L9.309,60L9.441,102L9.574,96L9.707,90L9.84,72L9.973,78L10.106,84L10.239,96L10.372,132L10.505,60L10.638,78L10.771,90L10.904,84L11.037,78L11.17,102L11.303,78L11.436,108L11.569,66L11.702,90L11.835,78L11.968,102L12.101,78L12.234,78L12.367,84L12.5,66L12.633,96L12.766,102L12.899,78L13.032,84L13.165,54L13.298,120L13.431,96L13.564,54L13.697,78L13.83,84L13.963,90L14.096,72L14.229,72L14.362,90L14.495,60L14.628,72L14.761,102L14.894,90L15.027,60L15.16,96L15.293,96L15.426,84L15.559,72L15.691,60L15.824,84L15.957,90L16.09,84L16.223,72L16.356,90L16.489,96L16.622,90L16.755,90L16.888,96L17.021,84L17.154,78L17.287,96L17.42,90L17.553,96L17.686,66L17.819,90L17.952,90L18.085,102L18.218,78L18.351,120L18.484,48L18.617,108L18.75,72L18.883,120L19.016,90L19.149,102L19.282,96L19.415,66L19.548,84L19.681,120L19.814,90L19.947,84L20.08,102L20.213,90L20.346,60L20.479,132L20.612,90L20.745,90L20.878,132L21.011,78L21.144,90L21.277,108L21.41,102L21.543,48L21.676,108L21.809,132L21.941,114L22.074,72L22.207,90L22.34,72L22.473,84L22.606,102L22.739,102L22.872,120L23.005,114L23.138,60L23.271,102L23.404,108L23.537,114L23.67,90L23.803,48L23.936,102L24.069,108L24.202,102L24.335,102L24.468,66L24.601,84L24.734,84L24.867,78L25,96L25.133,90L25.266,90L25.399,84L25.532,108L25.665,66L25.798,78L25.931,84L26.064,96L26.197,96L26.33,108L26.463,84L26.596,102L26.729,72L26.862,114L26.995,96L27.128,102L27.261,102L27.394,126L27.527,102L27.66,96L27.793,66L27.926,120L28.059,84L28.191,102L28.324,78L28.457,96L28.59,126L28.723,90L28.856,96L28.989,96L29.122,90L29.255,108L29.388,66L29.654,156L29.787,90L29.92,72L30.053,84L30.186,96L30.319,72L30.452,108L30.585,96L30.718,84L30.851,66L30.984,114L31.117,84L31.25,66L31.383,84L31.516,90L31.649,78L31.782,78L31.915,78L32.048,66L32.181,108L32.314,72L32.447,78L32.58,96L32.713,72L32.846,102L32.979,96L33.112,96L33.245,96L33.378,108L33.511,60L33.644,114L33.777,102L33.91,72L34.043,78L34.176,78L34.309,72L34.441,90L34.574,78L34.707,42L34.84,66L34.973,126L35.106,84L35.239,78L35.372,60L35.505,96L35.638,120L35.771,66L35.904,96L36.037,90L36.17,126L36.303,66L36.436,66L36.569,120L36.702,90L36.835,90L36.968,96L37.101,102L37.234,90L37.367,84L37.5,90L37.633,90L37.766,114L37.899,72L38.032,102L38.165,90L38.298,48L38.431,102L38.564,84L38.697,90L38.83,102L38.963,84L39.096,90L39.229,84L39.362,84L39.495,96L39.628,78L39.761,48L39.894,102L40.027,90L40.16,126L40.293,48L40.426,96L40.559,84L40.691,90L40.824,90L40.957,96L41.09,60L41.223,126L41.356,138L41.489,150L41.622,42L41.755,90L41.888,36L42.021,60L42.154,72L42.287,54L42.42,108L42.553,102L42.686,60L42.819,84L42.952,90L43.085,114L43.218,84L43.351,90L43.484,102L43.617,84L43.75,90L43.883,96L44.016,90L44.149,72L44.282,102L44.415,90L44.548,84L44.681,66L44.814,102L44.947,96L45.08,78L45.213,120L45.346,78L45.479,78L45.612,78L45.745,90L45.878,126L46.011,78L46.144,120L46.277,120L46.41,102L46.543,60L46.676,90L46.809,120L46.941,96L47.074,114L47.207,96L47.34,72L47.473,102L47.606,120L47.739,102L47.872,138L48.005,42L48.138,132L48.271,96L48.404,126L48.537,96L48.67,90L48.803,84L48.936,90L49.069,78L49.202,120L49.335,96L49.468,96L49.601,102L49.734,78L49.867,90L50,90L50.133,90L50.266,60L50.399,108L50.532,84L50.665,84L50.798,132L50.931,72L51.064,102L51.197,96L51.33,72L51.463,90L51.596,108L51.729,84L51.862,72L51.995,120L52.128,102L52.261,102L52.394,66L52.527,102L52.66,102L52.793,102L52.926,90L53.059,96L53.191,66L53.324,114L53.457,66L53.59,96L53.723,78L53.856,108L53.989,108L54.122,78L54.255,60L54.388,96L54.521,96L54.654,90L54.787,90L54.92,84L55.053,102L55.186,78L55.319,72L55.452,108L55.585,102L55.718,60L55.851,120L55.984,90L56.117,108L56.25,102L56.383,78L56.516,84L56.649,126L56.782,102L56.915,78L57.048,84L57.181,60L57.314,156L57.447,54L57.58,60L57.713,78L57.846,84L57.979,84L58.112,72L58.245,108L58.378,72L58.511,102L58.644,78L58.777,108L58.91,108L59.043,96L59.176,90L59.309,108L59.441,72L59.574,150L59.707,108L59.84,84L59.973,78L60.106,96L60.239,60L60.372,114L60.505,78L60.638,96L60.771,90L60.904,102L61.037,66L61.17,126L61.303,78L61.436,66L61.569,108L61.702,36L61.835,120L61.968,102L62.101,120L62.234,72L62.367,72L62.5,90L62.633,84L62.766,90L62.899,66L63.032,108L63.165,96L63.298,90L63.431,78L63.564,102L63.697,84L63.83,78L63.963,102L64.096,78L64.229,90L64.362,102L64.495,78L64.628,96L64.761,102L64.894,78L65.027,90L65.16,102L65.293,78L65.426,90L65.559,84L65.691,72L65.824,66L65.957,90L66.09,90L66.223,96L66.356,102L66.489,72L66.622,102L66.755,120L66.888,72L67.021,102L67.154,102L67.287,60L67.42,108L67.553,90L67.686,78L67.819,90L67.952,90L68.085,102L68.218,96L68.351,90L68.484,72L68.617,102L68.75,90L68.883,72L69.016,84L69.149,96L69.282,96L69.415,90L69.548,108L69.681,48L69.814,96L69.947,72L70.08,72L70.213,102L70.346,96L70.479,66L70.612,108L70.745,78L70.878,102L71.011,66L71.144,84L71.277,84L71.41,84L71.543,66L71.676,90L71.809,126L71.941,96L72.074,132L72.207,144L72.34,138L72.473,132L72.606,78L72.739,96L72.872,78L73.005,108L73.138,90L73.271,78L73.404,78L73.537,114L73.67,78L73.803,72L73.936,102L74.069,108L74.202,66L74.335,108L74.468,114L74.601,72L74.734,66L74.867,78L75,108L75.133,90L75.266,78L75.399,126L75.532,72L75.665,66L75.798,108L75.931,66L76.064,84L76.197,108L76.33,96L76.463,102L76.596,114L76.729,102L76.862,66L76.995,96L77.128,78L77.261,72L77.394,108L77.527,78L77.66,90L77.793,102L77.926,72L78.059,90L78.191,84L78.324,84L78.457,108L78.59,72L78.723,60L78.856,156L78.989,84L79.122,102L79.255,90L79.388,72L79.521,78L79.654,84L79.787,96L79.92,90L80.053,90L80.186,78L80.319,90L80.452,72L80.585,102L80.718,90L80.851,90L80.984,78L81.117,96L81.25,132L81.383,102L81.516,96L81.649,102L81.782,72L81.915,78L82.048,108L82.181,90L82.314,78L82.447,108L82.58,66L82.713,90L82.846,90L82.979,78L83.112,102L83.245,78L83.378,90L83.511,90L83.644,84L83.777,108L83.91,90L84.043,90L84.176,90L84.309,66L84.441,78L84.574,96L84.707,84L84.84,78L84.973,78L85.106,96L85.239,96L85.372,84L85.505,90L85.638,84L85.771,90L85.904,96L86.037,90L86.17,96L86.303,102L86.436,102L86.569,66L86.702,120L86.835,102L86.968,78L87.101,96L87.234,84L87.367,72L87.5,72L87.633,102L87.766,84L87.899,102L88.032,102L88.165,90L88.298,78L88.431,90L88.564,72L88.697,84L88.83,78L88.963,102L89.096,90L89.229,84L89.362,96L89.495,78L89.628,90L89.761,90L89.894,96L90.027,78L90.16,126L90.293,84L90.426,102L90.559,120L90.691,102L90.824,90L90.957,78L91.09,96L91.223,90L91.356,78L91.489,96L91.622,90L91.755,84L91.888,96L92.021,96L92.154,78L92.287,102L92.42,84L92.553,90L92.686,84L92.819,84L92.952,72L93.085,90L93.218,96L93.351,102L93.484,72L93.617,96L93.75,102L93.883,84L94.016,96L94.149,90L94.282,96L94.415,72L94.548,102L94.681,90L94.814,84L94.947,90L95.08,78L95.213,90L95.346,108L95.479,90L95.612,90L95.745,90L95.878,114L96.011,78L96.144,72L96.277,96L96.41,90L96.543,90L96.676,90L96.809,84L96.941,72L97.074,78L97.207,108L97.34,90L97.473,90L97.606,96L97.739,78L97.872,96L98.005,90L98.138,90L98.271,78L98.404,108L98.537,90L98.67,84L98.803,78L98.936,96L99.069,72L99.202,114L99.335,90L99.468,72L99.601,90L99.734,90L99.867,84L100,84L100.133,96L100.266,84L100.399,84L100.532,96L100.665,102L100.798,96L100.931,90L101.064,96L101.197,96L101.33,72L101.463,108L101.596,84L101.729,102L101.862,78L101.995,78L102.128,102L102.261,90L102.394,102L102.527,90L102.66,90L102.793,84L102.926,90L103.059,90L103.191,84L103.324,96L103.457,84L103.59,90L103.723,84L103.856,102L103.989,90L104.122,90L104.255,84L104.388,90L104.521,84L104.654,102L104.787,90L104.92,90L105.053,102L105.186,78L105.319,78L105.452,96L105.585,96L105.718,84L105.851,96L105.984,90L106.117,90L106.25,90L106.383,96L106.516,90L106.649,90L106.782,102L106.915,96L107.048,66L107.181,108L107.314,96L107.447,96L107.58,96L107.713,84L107.846,84L107.979,84L108.112,90L108.245,102L108.378,84L108.511,90L108.644,102L108.777,78L108.91,84L109.043,96L109.176,102L109.309,72L109.441,102L109.574,90L109.707,102L109.84,102L109.973,78L110.106,90L110.239,84L110.372,72L110.505,78L110.638,66L110.771,90L110.904,102L111.037,84L111.17,78L111.303,84L111.436,96L111.569,90L111.702,96L111.835,96L111.968,78L112.101,54L112.234,72L112.367,60L112.5,60L112.633,60L112.766,60L112.899,66L113.032,66L113.165,72L113.298,84L113.431,54L113.564,78L113.697,84L113.83,54L113.963,66L114.096,66L114.229,96L114.362,114L114.495,174L114.628,120L114.761,150L114.894,54L115.027,78L115.16,6L115.293,42L115.426,30L115.559,60L115.691,84L115.824,54L115.957,54L116.09,84L116.223,108L116.356,60L116.489,72L116.622,102L116.755,102L116.888,90L117.021,84L117.154,84L117.287,90L117.42,90L117.553,114L117.686,72L117.819,90L117.952,84L118.085,72L118.218,72L118.351,72L118.484,66L118.617,60L118.75,90L118.883,60L119.016,78L119.149,78L119.282,84L119.415,90L119.548,102L119.681,90L119.814,90L119.947,96L120.08,84L120.213,102L120.346,90L120.479,72L120.612,60L120.745,78L120.878,84L121.011,90L121.144,78L121.277,84L121.41,96L121.543,54L121.676,72L121.809,78L121.941,54L122.074,60L122.207,54L122.34,42L122.473,66L122.606,60L122.739,78L122.872,90L123.005,84L123.138,72L123.271,90L123.404,78L123.537,66L123.67,78L123.803,66L123.936,72L124.069,90L124.202,66L124.335,90L124.468,90L124.601,78L124.734,90L124.867,66L125,90L125.133,78L125.266,84L125.399,72L125.532,90L125.665,96L125.798,84L125.931,108L126.064,108L126.197,114L126.33,126L126.463,78L126.596,84L126.729,108L126.862,78L126.995,120L127.128,90L127.261,66L127.394,96L127.527,78L127.66,120L127.793,72L127.926,96L128.059,108L128.191,114L128.324,72L128.457,132L128.59,84L128.723,66L128.856,96L128.989,102L129.122,96L129.255,102L129.388,102L129.521,96L129.654,108L129.787,66L129.92,78L130.053,132L130.186,96L130.319,114L130.452,120L130.585,108L130.718,102L130.851,96L130.984,90L131.117,84L131.25,96L131.383,78L131.516,120L131.649,90L131.782,90L131.915,120L132.048,84L132.181,126L132.314,132L132.447,90L132.58,108L132.713,102L132.846,114L132.979,72L133.112,132L133.245,72L133.378,120L133.511,102L133.644,96L133.777,132L133.91,126L134.043,126L134.176,126L134.309,108L134.441,138L134.574,54L134.707,96L134.84,60L134.973,78L135.106,66L135.239,96L135.372,78L135.505,78L135.638,54L135.771,24L135.904,54L136.037,54L136.17,60L136.303,60L136.436,90L136.569,66L136.702,78L136.835,90L136.968,60L137.101,66L137.234,72L137.367,72L137.5,90L137.633,78L137.766,108L137.899,120L138.032,144L138.165,126L138.298,114L138.431,90L138.564,84L138.697,90L138.83,78L138.963,90L139.096,96L139.229,78L139.362,78L139.495,60L139.628,72L139.761,54L139.894,84L140.027,54L140.16,72L140.293,78L140.426,78L140.559,66L140.691,66L140.824,108L140.957,60L141.09,66L141.223,54L141.356,60L141.489,78L141.622,54L141.755,60L141.888,54L142.021,72L142.154,84L142.287,84L142.42,72L142.553,60L142.686,66L142.819,72L142.952,84L143.085,42L143.218,96L143.351,60L143.484,78L143.617,72L143.75,60L143.883,66L144.016,84L144.149,72L144.282,84L144.415,66L144.548,78L144.681,66L144.814,48L144.947,60L145.08,60L145.213,72L145.346,60L145.479,78L145.612,24L145.745,114L145.878,78L146.011,84L146.144,84L146.277,54L146.41,72L146.543,78L146.676,66L146.809,72L146.941,60L147.074,60L147.207,66L147.34,78L147.473,60L147.606,90L147.739,72L147.872,54L148.005,66L148.138,72L148.271,78L148.404,54L148.537,90L148.67,42L148.803,90L148.936,60L149.069,78L149.202,78L149.335,66L149.468,60L149.601,84L149.734,54L149.867,96L150,66L150.133,60L150.266,90L150.399,54L150.532,78L150.665,90L150.798,54L150.931,90L151.064,48L151.197,78L151.33,60L151.463,72L151.596,72L151.729,78L151.862,90L151.995,66L152.128,66L152.261,78L152.394,72L152.527,90L152.66,90L152.793,66L152.926,96L153.059,102L153.191,72L153.324,84L153.457,90L153.59,90L153.723,84L153.856,84L153.989,90L154.122,66L154.255,72L154.388,90L154.521,96L154.654,84L154.787,96L154.92,90L155.053,72L155.186,66L155.319,96L155.452,78L155.585,78L155.718,54L155.851,78L155.984,66L156.117,66L156.25,66L156.383,54L156.516,72L156.649,78L156.782,72L156.915,72L157.048,48L157.181,96L157.314,84L157.447,78L157.58,72L157.713,108L157.846,72L157.979,90L158.112,96L158.245,90L158.378,90L158.511,102L158.644,84L158.777,84L158.91,102L159.043,96L159.176,90L159.309,90L159.441,84L159.574,102L159.707,96L159.84,78L159.973,90L160.106,90L160.239,102L160.372,84L160.505,96L160.638,90L160.771,78L160.904,84L161.037,96L161.17,90L161.303,84L161.436,102L161.569,96L161.702,90L161.835,78L161.968,96L162.101,96L162.234,78L162.367,90L162.5,90L162.633,90L162.766,96L162.899,96L163.032,90L163.165,78L163.298,90L163.431,114L163.564,90L163.697,90L163.83,84L163.963,90L164.096,78L164.229,90L164.362,108L164.495,78L164.628,96L164.761,78L164.894,102L165.027,96L165.16,96L165.293,84L165.426,90L165.559,102L165.691,78L165.824,90L165.957,84L166.09,84L166.223,66L166.356,84L166.489,84L166.622,72L166.755,60L166.888,72L167.021,60L167.154,78L167.287,60L167.42,66L167.553,72L167.686,66L167.819,66L167.952,54L168.085,72L168.218,48L168.351,66L168.484,78L168.617,66L168.75,90L168.883,78L169.016,78L169.149,42L169.282,90L169.415,66L169.548,66L169.681,78L169.814,60L169.947,78L170.08,54L170.213,42L170.346,102L170.479,66L170.612,54L170.745,78L170.878,60L171.011,60L171.144,72L171.277,72L171.41,90L171.543,66L171.676,84L171.809,54L171.941,66L172.074,90L172.207,84L172.34,54L172.473,78L172.606,78L172.739,54L172.872,66L173.005,66L173.138,78L173.271,60L173.404,78L173.537,66L173.67,72L173.803,84L173.936,78L174.069,66L174.202,48L174.335,78L174.468,84L174.601,54L174.734,72L174.867,48L175,72L175.133,72L175.266,72L175.399,78L175.532,72L175.665,72L175.798,72L175.931,78L176.064,84L176.197,60L176.33,78L176.463,60L176.596,78L176.729,54L176.862,84L176.995,66L177.128,78L177.261,90L177.394,54L177.527,72L177.66,60L177.793,84L177.926,60L178.059,72L178.191,66L178.324,60L178.457,72L178.59,72L178.723,60L178.856,72L178.989,54L179.122,72L179.255,54L179.388,84L179.521,66L179.654,72L179.787,72L179.92,72L180.053,84L180.186,60L180.319,60L180.452,72L180.585,72L180.718,66L180.851,66L180.984,54L181.117,72L181.25,90L181.383,54L181.516,78L181.649,66L181.782,78L181.915,72L182.048,54L182.181,66L182.314,60L182.447,60L182.58,72L182.713,66L182.846,78L182.979,54L183.112,78L183.245,66L183.378,72L183.511,66L183.644,72L183.777,72L183.91,72L184.043,90L184.176,96L184.309,90L184.441,90L184.574,78L184.707,90L184.84,90L184.973,84L185.106,108L185.239,96L185.372,90L185.505,90L185.638,78L185.771,96L185.904,90L186.037,90L186.17,96L186.303,96L186.436,72L186.569,90L186.702,78L186.835,42L186.968,66L187.101,60L187.234,60L187.367,78L187.5,48L187.633,78L187.766,78L187.899,78L188.032,54L188.165,78L188.298,60L188.431,84L188.564,72L188.697,72L188.83,66L188.963,60L189.096,72L189.229,60L189.362,90L189.495,54L189.628,54L189.761,72L189.894,60L190.027,72L190.16,66L190.293,60L190.426,72L190.559,66L190.691,78L190.824,66L190.957,72L191.09,54L191.223,66L191.356,66L191.489,66L191.622,60L191.755,54L191.888,72L192.021,90L192.154,42L192.287,72L192.42,84L192.553,72L192.686,72L192.819,72L192.952,78L193.085,90L193.218,78L193.351,84L193.484,78L193.617,78L193.75,84L193.883,72L194.016,84L194.149,102L194.282,78L194.415,78L194.548,78L194.681,90L194.814,72L194.947,96L195.08,60L195.213,78L195.346,84L195.479,72L195.612,66L195.745,36L195.878,72L196.011,72L196.144,48L196.277,72L196.41,78L196.543,90L196.676,36L196.809,90L196.941,84L197.074,60L197.207,66L197.34,72L197.473,54L197.606,84L197.739,78L197.872,60L198.005,72L198.138,90L198.271,54L198.404,78L198.537,72L198.67,66L198.803,72L198.936,60L199.069,60L199.202,66L199.335,78L199.468,66L199.601,84L199.734,54L199.867,78L200,84L200.133,66L200.266,72L200.399,60L200.532,84L200.665,66L200.798,60L200.931,78L201.064,78L201.197,78L201.33,78L201.463,72L201.596,84L201.729,90L201.862,78L201.995,72L202.128,114L202.261,84L202.394,78L202.527,84L202.66,66L202.793,48L202.926,78L203.059,66L203.191,60L203.324,72L203.457,54L203.59,78L203.723,72L203.856,60L203.989,90L204.122,48L204.255,102L204.388,78L204.521,96L204.654,78L204.787,84L204.92,102L205.053,90L205.186,90L205.319,84L205.452,96L205.585,96L205.718,42L205.851,60L205.984,84L206.117,72L206.25,72L206.383,54L206.516,66L206.649,66L206.782,72L206.915,72L207.048,54L207.181,78L207.314,60L207.447,90L207.58,72L207.713,66L207.846,66L207.979,72L208.112,72L208.245,72L208.378,54L208.511,78L208.644,66L208.777,66L208.91,90L209.043,66L209.176,72L209.309,84L209.441,60L209.574,72L209.707,60L209.84,72L209.973,66L210.106,66L210.239,72L210.372,78L210.505,60L210.638,72L210.771,90L210.904,66L211.037,84L211.17,66L211.303,72L211.436,78L211.569,66L211.702,78L211.835,66L211.968,60L212.101,84L212.234,66L212.367,78L212.5,84L212.633,66L212.766,72L212.899,90L213.032,72L213.165,78L213.298,78L213.431,72L213.564,90L213.697,72L213.83,90L213.963,96L214.096,84L214.229,90L214.362,84L214.495,96L214.628,90L214.761,84L214.894,90L215.027,90L215.16,102L215.293,90L215.426,108L215.559,78L215.691,102L215.824,84L215.957,96L216.09,72L216.223,102L216.356,90L216.489,90L216.622,96L216.755,90L216.888,90L217.021,84L217.154,96L217.287,78L217.42,102L217.553,90L217.686,84L217.819,96L217.952,84L218.085,90L218.218,96L218.351,90L218.484,90L218.617,84L218.75,84L218.883,90L219.016,96L219.149,90L219.282,108L219.415,90L219.548,78L219.681,96L219.814,96L219.947,96L220.08,84L220.213,90L220.346,90L220.479,78L220.612,96L220.745,84L220.878,90L221.011,90L221.144,96L221.277,90L221.41,84L221.543,96L221.676,90L221.809,84L221.941,90L222.074,96L222.207,90L222.34,72L222.473,90L222.606,102L222.739,90L222.872,90L223.005,90L223.138,90L223.271,90L223.404,96L223.537,84L223.67,84L223.803,90L223.936,120L224.069,120L224.202,84L224.335,96L224.468,84L224.601,120L224.734,84L224.867,90L225,78L225.133,48L225.266,72L225.399,60L225.532,66L225.665,54L225.798,90L225.931,72L226.064,66L226.197,78L226.33,66L226.463,84L226.596,72L226.729,60L226.862,66L226.995,66L227.128,54L227.261,60L227.394,66L227.527,66L227.66,72L227.793,84L227.926,66L228.059,66L228.191,54L228.324,60L228.457,66L228.59,60L228.723,54L228.856,66L228.989,66L229.122,72L229.255,66L229.388,72L229.521,66L229.654,60L229.787,66L229.92,60L230.053,60L230.186,66L230.319,66L230.452,84L230.585,42L230.718,84L230.851,72L230.984,66L231.117,72L231.25,66L231.383,66L231.516,60L231.649,78L231.782,48L231.915,72L232.048,90L232.181,48L232.314,78L232.447,72L232.58,60L232.713,60L232.846,72L232.979,48L233.112,72L233.245,72L233.378,60L233.511,78L233.644,78L233.777,78L233.91,90L234.043,102L234.176,96L234.309,78L234.441,84L234.574,84L234.707,102L234.84,78L234.973,102L235.106,78L235.239,90L235.372,90L235.505,102L235.638,84L235.771,90L235.904,60L236.037,90L236.17,96L236.303,96L236.436,84L236.569,84L236.702,66L236.835,54L236.968,90L237.101,66L237.234,72L237.367,54L237.5,84L237.633,60L237.766,66L237.899,78L238.032,66L238.165,108L238.298,72L238.431,90L238.564,78L238.697,78L238.83,54L238.963,78L239.096,72L239.229,72L239.362,78L239.495,72L239.628,72L239.761,90L239.894,42L240.027,72L240.16,90L240.293,114L240.426,96L240.559,102L240.691,90L240.824,72L240.957,114L241.09,84L241.223,102L241.356,78L241.489,96L241.622,78L241.755,102L241.888,90L242.021,90L242.154,90L242.287,90L242.42,84L242.553,90L242.686,96L242.819,90L242.952,90L243.085,90L243.218,66L243.351,108L243.484,96L243.617,102L243.75,66L243.883,96L244.016,84L244.149,102L244.282,90L244.415,90L244.548,96L244.681,90L244.814,84L244.947,84L245.08,96L245.213,96L245.346,102L245.479,78L245.612,96L245.745,84L245.878,90L246.011,102L246.144,96L246.277,84L246.41,84L246.543,102L246.676,90L246.809,84L246.941,84L247.074,102L247.207,84L247.34,78L247.473,114L247.606,90L247.739,78L247.872,96L248.005,90L248.138,90L248.271,84L248.404,108L248.537,78L248.67,78L248.803,78L248.936,90L249.069,60L249.202,72L249.335,90L249.468,54L249.601,66L249.734,78L249.867,72L250,60L250.133,60L250.266,60L250.399,66L250.532,66L250.665,60L250.798,66L250.931,84L251.064,72L251.197,60L251.33,54L251.463,66L251.596,54L251.729,60L251.862,60L251.995,72L252.128,60L252.261,84L252.394,72L252.527,60L252.66,66L252.793,54L252.926,66L253.059,60L253.191,72L253.324,60L253.457,60L253.59,66L253.723,66L253.856,78L253.989,84L254.122,60L254.255,72L254.388,60L254.521,72L254.654,60L254.787,60L254.92,60L255.053,90L255.186,60L255.319,60L255.452,90L255.585,54L255.718,66L255.851,72L255.984,60L256.117,72L256.25,48L256.383,60L256.516,48L256.649,78L256.782,48L256.915,66L257.048,90L257.181,48L257.314,66L257.447,78L257.58,66L257.713,48L257.846,78L257.979,54L258.112,90L258.245,66L258.378,60L258.511,90L258.644,54L258.777,54L258.91,84L259.043,66L259.176,60L259.309,72L259.441,66L259.574,72L259.707,66L259.84,78L259.973,66L260.106,78L260.239,78L260.372,66L260.505,66L260.638,78L260.771,66L260.904,78L261.037,72L261.17,72L261.303,78L261.436,90L261.569,60L261.702,90L261.835,60L261.968,66L262.101,78L262.234,66L262.367,78L262.5,78L262.633,66L262.766,90L262.899,78L263.032,90L263.165,84L263.298,84L263.431,96L263.564,90L263.697,108L263.83,96L263.963,90L264.096,96L264.229,78L264.362,84L264.495,96L264.628,90L264.761,90L264.894,84L265.027,90L265.16,96L265.293,84L265.426,96L265.559,90L265.691,96L265.824,96L265.957,90L266.09,78L266.223,90L266.356,102L266.489,84L266.622,96L266.755,72L266.888,96L267.021,96L267.154,90L267.287,90L267.42,90L267.553,90L267.686,90L267.819,78L267.952,90L268.085,108L268.218,90L268.351,96L268.484,72L268.617,102L268.75,90L268.883,90L269.016,90L269.149,78L269.282,90L269.415,90L269.548,102L269.681,96L269.814,84L269.947,90L270.08,84L270.213,84L270.346,84L270.479,96L270.612,90L270.745,96L270.878,96L271.011,90L271.144,84L271.277,90L271.41,84L271.543,96L271.676,84L271.809,96L271.941,102L272.074,84L272.207,90L272.34,90L272.473,84L272.606,96L272.739,90L272.872,78L273.005,108L273.138,90L273.271,78L273.404,108L273.537,78L273.67,96L273.803,90L273.936,90L274.069,96L274.202,84L274.335,84L274.468,96L274.601,102L274.734,78L274.867,96L275,96L275.133,84L275.266,84L275.399,96L275.532,84L275.665,90L275.798,90L275.931,102L276.064,84L276.197,90L276.33,84L276.463,102L276.596,96L276.729,84L276.862,96L276.995,90L277.128,90L277.261,84L277.394,90L277.527,96L277.66,90L277.793,84L277.926,90L278.059,102L278.191,78L278.324,96L278.457,90L278.59,84L278.723,90L278.856,90L278.989,96L279.122,84L279.255,90L279.388,90L279.521,90L279.654,96L279.787,84L279.92,84L280.053,108L280.186,78L280.319,90L280.452,90L280.585,90L280.718,96L280.851,90L280.984,96L281.117,96L281.25,78L281.383,102L281.516,84L281.649,96L281.782,84L281.915,102L282.048,84L282.181,90L282.314,84L282.447,96L282.58,84L282.713,90L282.846,90L282.979,96L283.112,84L283.245,96L283.378,90L283.511,90L283.644,90L283.777,114L283.91,72L284.043,84L284.176,102L284.309,90L284.441,78L284.574,90L284.707,90L284.84,90L284.973,90L285.106,96L285.239,90L285.372,90L285.505,78L285.638,96L285.771,90L285.904,90L286.037,96L286.17,90L286.303,84L286.436,102L286.569,78L286.702,96L286.835,84L286.968,96L287.101,90L287.234,90L287.367,84L287.5,90L287.633,96L287.766,90L287.899,90L288.032,96L288.165,96L288.298,78L288.431,102L288.564,72L288.697,84L288.83,90L288.963,84L289.096,54L289.229,60L289.362,78L289.495,66L289.628,78L289.761,78L289.894,60L290.027,66L290.16,60L290.293,72L290.426,60L290.559,54L290.691,72L290.824,60L290.957,66L291.09,54L291.223,78L291.356,84L291.489,54L291.622,60L291.755,66L291.888,84L292.021,54L292.154,90L292.287,72L292.42,72L292.553,90L292.686,54L292.819,72L292.952,54L293.085,66L293.218,48L293.351,72L293.484,78L293.617,60L293.75,72L293.883,78L294.016,60L294.149,66L294.282,78L294.415,78L294.548,60L294.681,66L294.814,60L294.947,84L295.08,54L295.213,66L295.346,66L295.479,60L295.612,72L295.745,72L295.878,72L296.011,66L296.144,60L296.277,66L296.41,72L296.543,66L296.676,60L296.809,60L296.941,78L297.074,66L297.207,90L297.34,54L297.473,78L297.606,66L297.739,78L297.872,72L298.005,78L298.138,66L298.271,54L298.404,54L298.537,72L298.67,60L298.803,66L298.936,54L299.069,84L299.202,54L299.335,78L299.468,54L299.601,60L299.734,66L299.867,60L300,72L300.133,66L300.266,78L300.399,66L300.532,60L300.665,78L300.798,60L300.931,78L301.064,60L301.197,60L301.33,72L301.463,60L301.596,66L301.729,60L301.862,60L301.995,84L302.128,84L302.261,60L302.394,72L302.527,72L302.66,60L302.793,72L302.926,60L303.059,72L303.191,54L303.324,90L303.457,42L303.59,66L303.723,96L303.856,66L303.989,60L304.122,66L304.255,66L304.388,72L304.521,72L304.654,66L304.787,96L304.92,78L305.053,90L305.186,96L305.319,78L305.452,84L305.585,96L305.718,96L305.851,78L305.984,90L306.117,90L306.25,96L306.383,90L306.516,90L306.649,84L306.782,102L306.915,78L307.048,96L307.181,96L307.314,96L307.447,72L307.58,102L307.713,90L307.846,90L307.979,90L308.112,84L308.245,102L308.378,78L308.511,96L308.644,96L308.777,78L308.91,84L309.043,90L309.176,96L309.309,84L309.441,90L309.574,90L309.707,90L309.84,90L309.973,90L310.106,90L310.239,96L310.372,84L310.505,90L310.638,90L310.771,90L310.904,84L311.037,90L311.17,96L311.303,90L311.436,72L311.569,84L311.702,66L311.835,60L311.968,72L312.101,54L312.234,66L312.367,66L312.5,66L312.633,66L312.766,66L312.899,84L313.032,54L313.165,66L313.298,72L313.431,66L313.564,66L313.697,60L313.83,66L313.963,72L314.096,78L314.229,60L314.362,78L314.495,72L314.628,78L314.761,72L314.894,72L315.027,72L315.16,60L315.293,60L315.426,78L315.559,84L315.691,66L315.824,54L315.957,90L316.09,84L316.223,60L316.356,72L316.489,66L316.622,54L316.755,78L316.888,60L317.021,66L317.154,72L317.287,66L317.42,78L317.553,84L317.686,54L317.819,54L317.952,72L318.085,66L318.218,66L318.351,54L318.484,72L318.617,90L318.75,54L318.883,72L319.016,78L319.149,78L319.282,60L319.415,78L319.548,72L319.681,72L319.814,66L319.947,72L320.08,66L320.213,90L320.346,54L320.479,66L320.612,90L320.745,78L320.878,66L321.011,66L321.144,66L321.277,66L321.41,60L321.543,72L321.676,84L321.809,78L321.941,60L322.074,90L322.207,66L322.34,72L322.473,66L322.606,54L322.739,72L322.872,66L323.005,72L323.138,66L323.271,78L323.404,66L323.537,60L323.67,90L323.803,60L323.936,84L324.069,48L324.202,66L324.335,72L324.468,66L324.601,66L324.734,66L324.867,90L325,54L325.133,96L325.266,54L325.399,66L325.532,78L325.665,60L325.798,78L325.931,54L326.064,66L326.197,72L326.33,72L326.463,54L326.596,72L326.729,84L326.862,102L326.995,78L327.128,84L327.261,108L327.394,78L327.527,90L327.66,96L327.793,84L327.926,90L328.059,96L328.191,84L328.324,96L328.457,90L328.59,90L328.723,90L328.856,96L328.989,78L329.122,96L329.255,84L329.388,90L329.521,96L329.654,96L329.787,96L329.92,84L330.053,96L330.186,72L330.319,90L330.452,96L330.585,84L330.718,90L330.851,108L330.984,84L331.117,84L331.25,90L331.383,102L331.516,78L331.649,84L331.782,90L331.915,102L332.048,78L332.181,66L332.314,72L332.447,90L332.58,60L332.713,60L332.846,84L332.979,60L333.112,72L333.245,66L333.378,54L333.511,72L333.644,60L333.777,78L333.91,60L334.043,84L334.176,66L334.309,66L334.441,84L334.574,78L334.707,60L334.84,54L334.973,72L335.106,72L335.239,72L335.372,66L335.505,60L335.638,90L335.771,60L335.904,84L336.037,78L336.17,60L336.303,60L336.436,60L336.569,72L336.702,72L336.835,60L336.968,60L337.101,72L337.234,78L337.367,78L337.5,66L337.633,90L337.766,54L337.899,72L338.032,54L338.165,66L338.298,48L338.431,66L338.564,66L338.697,72L338.83,72L338.963,66L339.096,96L339.229,66L339.362,66L339.495,72L339.628,72L339.761,66L339.894,78L340.027,60L340.16,84L340.293,96L340.426,90L340.559,96L340.691,90L340.824,84L340.957,84L341.09,96L341.223,90L341.356,78L341.489,90L341.622,96L341.755,84L341.888,90L342.021,96L342.154,90L342.287,90L342.42,78L342.553,96L342.686,96L342.819,90L342.952,72L343.085,96L343.218,90L343.351,84L343.484,96L343.617,90L343.75,96L343.883,84L344.016,96L344.149,102L344.282,84L344.415,66L344.548,72L344.681,66L344.814,84L344.947,78L345.08,84L345.213,84L345.346,90L345.479,96L345.612,108L345.745,78L345.878,96L346.011,84L346.144,72L346.277,90L346.41,96L346.543,90L346.676,96L346.809,96L346.941,84L347.074,90L347.207,78L347.34,90L347.473,96L347.606,90L347.739,96L347.872,78L348.005,96L348.138,96L348.271,84L348.404,84L348.537,90L348.67,90L348.803,96L348.936,90L349.069,96L349.202,72L349.335,114L349.468,90L349.601,78L349.734,84L349.867,90L350,90L350.133,90L350.266,90L350.399,84L350.532,96L350.665,90L350.798,90L350.931,84L351.064,90L351.197,96L351.33,90L351.463,96L351.596,78L351.729,84L351.862,90L351.995,96L352.128,90L352.261,84L352.394,102L352.527,90L352.66,84L352.793,84L352.926,90L353.059,90L353.191,90L353.324,96L353.457,90L353.59,90L353.723,90L353.856,102L353.989,90L354.122,90L354.255,90L354.388,96L354.521,84L354.654,84L354.787,84L354.92,96L355.053,90L355.186,90L355.319,84L355.452,90L355.585,102L355.718,84L355.851,84L355.984,102L356.117,96L356.25,78L356.383,90L356.516,90L356.649,102L356.782,90L356.915,96L357.048,90L357.181,90L357.314,96L357.447,84L357.58,78L357.713,84L357.846,96L357.979,96L358.112,72L358.245,102L358.378,84L358.511,90L358.644,90L358.777,90L358.91,78L359.043,102L359.176,96L359.309,90L359.441,84L359.574,90L359.707,90L359.84,90L359.973,84L360.106,90L360.239,90L360.372,90L360.505,96L360.638,84L360.771,96L360.904,78L361.037,108L361.17,96L361.303,114L361.436,102L361.569,114L361.702,96L361.835,90L361.968,84L362.101,102L362.234,90L362.367,84L362.5,96L362.633,84L362.766,90L362.899,90L363.032,90L363.165,90L363.298,96L363.431,78L363.564,96L363.697,96L363.83,90L363.963,90L364.096,90L364.229,90L364.362,90L364.495,90L364.628,90L364.761,90L364.894,90L365.027,78L365.16,108L365.293,90L365.426,96L365.559,90L365.691,84L365.824,90L365.957,84L366.09,102L366.223,78L366.356,90L366.489,102L366.622,96L366.755,96L366.888,108L367.021,90L367.154,96L367.287,114L367.42,102L367.553,102L367.686,96L367.819,102L367.952,102L368.085,90L368.218,114L368.351,90L368.484,90L368.617,84L368.75,78L368.883,78L369.016,78L369.149,72L369.282,90L369.415,90L369.548,90L369.681,78L369.814,78L369.947,108L370.08,84L370.213,90L370.346,78L370.479,78L370.612,90L370.745,96L370.878,60L371.011,90L371.144,84L371.277,78L371.41,90L371.543,90L371.676,96L371.809,90L371.941,96L372.074,84L372.207,90L372.34,96L372.473,96L372.606,90L372.739,90L372.872,84L373.005,90L373.138,96L373.271,78L373.404,102L373.537,84L373.67,90L373.803,84L373.936,90L374.069,84L374.202,96L374.335,90L374.468,102L374.601,90L374.734,90L374.867,96L375,84L375.133,78L375.266,96L375.399,90L375.532,96L375.665,90L375.798,78L375.931,108L376.064,84L376.197,90L376.33,84L376.463,90L376.596,84L376.729,90L376.862,90L376.995,96L377.128,78L377.261,96L377.394,102L377.527,90L377.66,84L377.793,90L377.926,84L378.059,90L378.191,90L378.324,96L378.457,84L378.59,96L378.723,102L378.856,78L378.989,102L379.122,90L379.255,96L379.388,84L379.521,84L379.654,84L379.787,96L379.92,84L380.053,90L380.186,96L380.319,84L380.452,90L380.585,102L380.718,78L380.851,96L380.984,90L381.117,84L381.25,102L381.383,84L381.516,90L381.649,90L381.782,84L381.915,96L382.048,90L382.181,84L382.314,90L382.447,96L382.58,84L382.713,96L382.846,96L382.979,90L383.112,84L383.245,90L383.378,90L383.511,90L383.644,90L383.777,78L383.91,90L384.043,96L384.176,84L384.309,102L384.441,78L384.574,96L384.707,90L384.84,78L384.973,90L385.106,90L385.239,78L385.372,114L385.505,114L385.638,84L385.771,90L385.904,66L386.037,90L386.17,90L386.303,108L386.436,84L386.569,90L386.702,102L386.835,90L386.968,78L387.101,96L387.234,96L387.367,96L387.5,102L387.633,114L387.766,96L387.899,114L388.032,120L388.165,108L388.298,102L388.431,96L388.564,108L388.697,78L388.83,72L388.963,90L389.096,84L389.229,96L389.362,78L389.495,102L389.628,90L389.761,90L389.894,90L390.027,84L390.16,102L390.293,114L390.426,180L390.559,156L390.691,204L390.824,204L390.957,228L391.09,180L391.223,90L391.356,216L391.489,168L391.622,204L391.755,150L391.888,162L392.021,192L392.154,168L392.287,180L392.42,192L392.553,156L392.686,174L392.819,120L392.952,186L393.085,138L393.218,192L393.351,222L393.484,234L393.617,216L393.75,204L393.883,234L394.016,222L394.149,210L394.282,132L394.415,102L394.548,84L394.681,90L394.814,90L394.947,96L395.08,96L395.213,102L395.346,84L395.479,102L395.612,96L395.745,72L395.878,102L396.011,102L396.144,156L396.277,120L396.41,138L396.543,126L396.676,120L396.809,138L396.941,120L397.074,90L397.207,132L397.34,198L397.473,90L397.606,198L397.739,132L397.872,150L398.005,150L398.138,72L398.271,6L398.404,78L398.537,12L398.67,66L398.803,60L398.936,78L399.069,90L399.202,90L399.335,120L399.468,132L399.601,72L399.734,114L399.867,96L400,102L400.133,84L400.266,90L400.399,78L400.532,54L400.665,60L400.798,66L400.931,48L401.064,114L401.197,48L401.33,66L401.463,96L401.596,90L401.729,126L401.862,90L401.995,78L402.128,96L402.261,102L402.394,96L402.527,84L402.66,84L402.793,96L402.926,84L403.059,90L403.191,90L403.324,84L403.457,102L403.59,90L403.723,78L403.856,84L403.989,90L404.122,96L404.255,84L404.388,96L404.521,84L404.654,96L404.787,84L404.92,84L405.053,84L405.186,96L405.319,84L405.452,84L405.585,78L405.718,96L405.851,90L405.984,90L406.117,90L406.25,84L406.383,96L406.516,108L406.649,78L406.782,90L406.915,84L407.048,78L407.181,66L407.314,90L407.447,78L407.58,66L407.713,90L407.846,90L407.979,102L408.112,72L408.245,78L408.378,114L408.511,90L408.644,90L408.777,60L408.91,120L409.043,84L409.176,66L409.309,90L409.441,114L409.574,126L409.707,180L409.84,168L409.973,120L410.106,216L410.239,210L410.372,180L410.505,210L410.638,108L410.771,252L410.904,228L411.037,228L411.17,240L411.303,264L411.436,120L411.569,198L411.702,192L411.835,168L411.968,162L412.101,126L412.234,150L412.367,168L412.5,162L412.633,174L412.766,192L412.899,192L413.032,120L413.165,228L413.298,222L413.431,168L413.564,156L413.697,168L413.83,246L413.963,204L414.096,150L414.229,198L414.362,186L414.495,120L414.628,168L414.761,174L414.894,198L415.027,222L415.16,132L415.293,186L415.426,204L415.559,204L415.691,210L415.824,228L415.957,252L416.09,120L416.223,246L416.356,282L416.489,180L416.622,192L416.755,234L416.888,228L417.021,180L417.154,210L417.287,174L417.42,258L417.553,246L417.686,120L417.819,240L417.952,204L418.085,84L418.218,90L418.351,108L418.484,102L418.617,120L418.75,96L418.883,102L419.016,120L419.149,120L419.282,138L419.415,120L419.548,114L419.681,120L419.814,120L419.947,102L420.08,180L420.213,222L420.346,168L420.479,162L420.612,192L420.745,120L420.878,246L421.011,156L421.144,180L421.277,216L421.41,186L421.543,216L421.676,210L421.809,180L421.941,192L422.074,204L422.207,240L422.34,120L422.473,204L422.606,216L422.739,120L422.872,132L423.005,216L423.138,174L423.271,228L423.404,228L423.537,282L423.67,186L423.803,198L423.936,120L424.069,186L424.202,186L424.335,192L424.468,186L424.601,222L424.734,210L424.867,264L425,180L425.133,204L425.266,216L425.399,120L425.532,174L425.665,198L425.798,228L425.931,192L426.064,204L426.197,138L426.33,102L426.463,72L426.596,72L426.729,90L426.862,108L426.995,96L427.128,96L427.261,90L427.394,96L427.527,78L427.66,96L427.793,96L427.926,72L428.059,90L428.191,96L428.324,96L428.457,84L428.59,96L428.723,72L428.856,78L428.989,90L429.122,102L429.255,186L429.388,216L429.521,204L429.654,222L429.787,246L429.92,222L430.053,120L430.186,204L430.319,210L430.452,222L430.585,204L430.718,168L430.851,222L430.984,186L431.117,222L431.25,174L431.383,180L431.516,120L431.649,204L431.782,222L431.915,204L432.048,204L432.181,204L432.314,186L432.447,186L432.58,180L432.713,258L432.846,204L432.979,282L433.112,120L433.245,174L433.378,210L433.511,120L433.644,174L433.777,156L433.91,66L434.043,144L434.176,108L434.309,102L434.441,96L434.574,108L434.707,102L434.84,90L434.973,90L435.106,84L435.239,150L435.372,132L435.505,90L435.638,114L435.771,132L435.904,132L436.037,108L436.17,90L436.303,108L436.436,96L436.569,114L436.702,60L436.835,90L436.968,114L437.101,126L437.234,132L437.367,114L437.5,84L437.633,114L437.766,132L437.899,114L438.032,114L438.165,108L438.298,120L438.431,90L438.564,90L438.697,102L438.83,102L438.963,108L439.096,96L439.229,90L439.362,96L439.495,90L439.628,90L439.761,102L439.894,102L440.027,114L440.16,144L440.293,90L440.426,120L440.559,126L440.691,90L440.824,132L440.957,96L441.09,84L441.223,90L441.356,96L441.489,84L441.622,78L441.755,102L441.888,90L442.021,78L442.154,90L442.287,90L442.42,96L442.553,90L442.686,90L442.819,78L442.952,96L443.085,84L443.218,84L443.351,96L443.484,90L443.617,96L443.75,90L443.883,84L444.016,96L444.149,96L444.282,84L444.415,102L444.548,90L444.681,96L444.814,78L444.947,84L445.08,96L445.213,96L445.346,108L445.479,84L445.612,90L445.745,96L445.878,90L446.011,84L446.144,90L446.277,90L446.41,72L446.543,126L446.676,96L446.809,84L446.941,90L447.074,96L447.207,90L447.34,96L447.473,90L447.606,102L447.739,78L447.872,90L448.005,90L448.138,96L448.271,96L448.404,96L448.537,96L448.67,90L448.803,84L448.936,108L449.069,78L449.202,96L449.335,108L449.468,78L449.601,96L449.734,90L449.867,90L450,114L450.133,84L450.266,90L450.399,96L450.532,90L450.665,102L450.798,84L450.931,90L451.064,96L451.197,90L451.33,90L451.463,90L451.596,84L451.729,108L451.862,102L451.995,78L452.128,78L452.261,84L452.394,102L452.527,90L452.66,90L452.793,102L452.926,90L453.059,90L453.191,90L453.324,90L453.457,96L453.59,96L453.723,96L453.856,84L453.989,78L454.122,132L454.255,84L454.388,90L454.521,90L454.654,96L454.787,90L454.92,102L455.053,96L455.186,96L455.319,90L455.452,96L455.585,78L455.718,102L455.851,102L455.984,102L456.117,90L456.25,90L456.383,96L456.516,90L456.649,84L456.782,102L456.915,90L457.048,84L457.181,90L457.314,102L457.447,72L457.58,108L457.713,90L457.846,84L457.979,96L458.112,102L458.245,66L458.378,102L458.511,90L458.644,84L458.777,90L458.91,96L459.043,90L459.176,90L459.309,78L459.441,84L459.574,90L459.707,90L459.84,84L459.973,96L460.106,84L460.239,78L460.372,90L460.505,96L460.638,102L460.771,90L460.904,84L461.037,96L461.17,72L461.303,102L461.436,90L461.569,90L461.702,84L461.835,78L461.968,102L462.101,90L462.234,78L462.367,96L462.5,90L462.633,90L462.766,78L462.899,108L463.032,90L463.165,78L463.298,90L463.431,84L463.564,108L463.697,78L463.83,90L463.963,96L464.096,84L464.229,96L464.362,84L464.495,84L464.628,96L464.761,90L464.894,90L465.027,102L465.16,96L465.293,72L465.426,96L465.559,78L465.691,90L465.824,90L465.957,96L466.09,90L466.223,84L466.356,102L466.489,102L466.622,84L466.755,108L466.888,84L467.021,108L467.154,90L467.287,84L467.42,96L467.553,84L467.686,78L467.819,102L467.952,84L468.085,84L468.218,84L468.351,78L468.484,60L468.617,60L468.75,84L468.883,72L469.016,66L469.149,78L469.282,42L469.415,84L469.548,48L469.681,78L469.814,84L469.947,102L470.08,114L470.213,138L470.346,90L470.479,96L470.612,90L470.745,84L470.878,114L471.011,96L471.144,102L471.277,78L471.41,90L471.543,102L471.676,84L471.809,84L471.941,102L472.074,90L472.207,84L472.34,90L472.473,96L472.606,96L472.739,90L472.872,90L473.005,90L473.138,102L473.271,102L473.404,84L473.537,96L473.67,102L473.803,72L473.936,96L474.069,120L474.202,120L474.335,114L474.468,90L474.601,102L474.734,90L474.867,102L475,90L475.133,72L475.266,96L475.399,120L475.532,96L475.665,72L475.798,78L475.931,60L476.064,90L476.197,84L476.33,84L476.463,84L476.596,96L476.729,84L476.862,90L476.995,90L477.128,90L477.261,96L477.394,90L477.527,90L477.66,96L477.793,138L477.926,84L478.059,96L478.191,96L478.324,78L478.457,114L478.59,90L478.723,114L478.856,78L478.989,114L479.122,90L479.255,78L479.388,78L479.521,72L479.654,78L479.787,102L479.92,78L480.053,102L480.186,90L480.319,66L480.452,102L480.585,108L480.718,72L480.851,78L480.984,84L481.117,90L481.25,90L481.383,96L481.516,84L481.649,96L481.782,90L481.915,72L482.048,78L482.181,90L482.314,72L482.447,90L482.58,84L482.713,90L482.846,102L482.979,120L483.112,90L483.245,102L483.378,84L483.511,90L483.644,66L483.777,90L483.91,90L484.043,84L484.176,78L484.309,102L484.441,84L484.574,78L484.707,102L484.84,60L484.973,96L485.106,78L485.239,84L485.372,78L485.505,72L485.638,114L485.771,36L485.904,102L486.037,90L486.17,102L486.303,96L486.436,114L486.569,132L486.702,84L486.835,96L486.968,42L487.101,42L487.234,66L487.367,78L487.5,54L487.633,84L487.766,96L487.899,72L488.032,90L488.165,108L488.298,90L488.431,90L488.564,72L488.697,96L488.83,102L488.963,78L489.096,90L489.229,96L489.362,90L489.495,90L489.628,90L489.761,108L489.894,132L490.027,90L490.16,90L490.293,84L490.426,108L490.559,120L490.691,102L490.824,102L490.957,108L491.09,102L491.223,90L491.356,108L491.489,108L491.622,96L491.755,96L491.888,96L492.021,90L492.154,108L492.287,102L492.42,84L492.553,102L492.686,138L492.819,96L492.952,90L493.085,96L493.218,96L493.351,90L493.484,90L493.617,102L493.75,84L493.883,120L494.016,102L494.149,90L494.282,90L494.415,102L494.548,96L494.681,84L494.814,96L494.947,84L495.08,96L495.213,66L495.346,114L495.479,102L495.612,96L495.745,96L495.878,90L496.011,108L496.144,90L496.277,96L496.41,114L496.543,90L496.676,84L496.809,114L496.941,90L497.074,102L497.207,84L497.34,84L497.473,84L497.606,84L497.739,84L497.872,102L498.005,96L498.138,108L498.271,96L498.404,90L498.537,90L498.67,90L498.803,78L498.936,84L499.069,84L499.202,90L499.335,90L499.468,96L499.601,66L499.734,84L499.867,96L500,84" stroke="#4c78a8" stroke-width="2"/></g></g><path class="foreground" aria-hidden="true" d="" display="none"/></g></g></g></svg>