<svg xmlns="http://www.w3.org/2000/svg" xmlns:xlink="http://www.w3.org/1999/xlink" version="1.1" class="marks" width="1258" height="330" viewBox="0 0 1258 330"><rect width="1258" height="330" fill="white"/><g fill="none" stroke-miterlimit="10" transform="translate(50,5)"><g class="mark-group role-frame root" role="graphics-object" aria-roledescription="group mark container"><g transform="translate(0,0)"><path class="background" aria-hidden="true" d="M0.5,0.5h1080v280h-1080Z" stroke="#ddd"/><g><g class="mark-group role-axis" role="graphics-symbol" aria-roledescription="axis" aria-label="X-axis titled 'ISO Week' for a discrete scale with 54 values: null, 1, 2, 3, 4, ending with 53"><g transform="translate(0.5,280.5)"><path class="background" aria-hidden="true" d="M0,0h0v0h0Z" pointer-events="none"/><g><g class="mark-rule role-axis-tick" pointer-events="none"><line transform="translate(10,0)" x2="0" y2="5" stroke="#888" stroke-width="1" opacity="1"/><line transform="translate(30,0)" x2="0" y2="5" stroke="#888" stroke-width="1" opacity="1"/><line transform="translate(50,0)" x2="0" y2="5" stroke="#888" stroke-width="1" opacity="1"/><line transform="translate(70,0)" x2="0" y2="5" stroke="#888" stroke-width="1" opacity="1"/><line transform="translate(90,0)" x2="0" y2="5" stroke="#888" stroke-width="1" opacity="1"/><line transform="translate(110,0)" x2="0" y2="5" stroke="#888" stroke-width="1" opacity="1"/><line transform="translate(130,0)" x2="0" y2="5" stroke="#888" stroke-width="1" opacity="1"/><line transform="translate(150,0)" x2="0" y2="5" stroke="#888" stroke-width="1" opacity="1"/><line transform="translate(170,0)" x2="0" y2="5" stroke="#888" stroke-width="1" opacity="1"/><line transform="translate(190,0)" x2="0" y2="5" stroke="#888" stroke-width="1" opacity="1"/><line transform="translate(210,0)" x2="0" y2="5" stroke="#888" stroke-width="1" opacity="1"/><line transform="translate(230,0)" x2="0" y2="5" stroke="#888" stroke-width="1" opacity="1"/><line transform="translate(250,0)" x2="0" y2="5" stroke="#888" stroke-width="1" opacity="1"/><line transform="translate(270,0)" x2="0" y2="5" stroke="#888" stroke-width="1" opacity="1"/><line transform="translate(290,0)" x2="0" y2="5" stroke="#888" stroke-width="1" opacity="1"/><line transform="translate(310,0)" x2="0" y2="5" stroke="#888" stroke-width="1" opacity="1"/><line transform="translate(330,0)" x2="0" y2="5" stroke="#888" stroke-width="1" opacity="1"/><line transform="translate(350,0)" x2="0" y2="5" stroke="#888" stroke-width="1" opacity="1"/><line transform="translate(370,0)" x2="0" y2="5" stroke="#888" stroke-width="1" opacity="1"/><line transform="translate(390,0)" x2="0" y2="5" stroke="#888" stroke-width="1" opacity="1"/><line transform="translate(410,0)" x2="0" y2="5" stroke="#888" stroke-width="1" opacity="1"/><line transform="translate(430,0)" x2="0" y2="5" stroke="#888" stroke-width="1" opacity="1"/><line transform="translate(450,0)" x2="0" y2="5" stroke="#888" stroke-width="1" opacity="1"/><line transform="translate(470,0)" x2="0" y2="5" stroke="#888" stroke-width="1" opacity="1"/><line transform="translate(490,0)" x2="0" y2="5" stroke="#888" stroke-width="1" opacity="1"/><line transform="translate(510,0)" x2="0" y2="5" stroke="#888" stroke-width="1" opacity="1"/><line transform="translate(530,0)" x2="0" y2="5" stroke="#888" stroke-width="1" opacity="1"/><line transform="translate(550,0)" x2="0" y2="5" stroke="#888" stroke-width="1" opacity="1"/><line transform="translate(570,0)" x2="0" y2="5" stroke="#888" stroke-width="1" opacity="1"/><line transform="translate(590,0)" x2="0" y2="5" stroke="#888" stroke-width="1" opacity="1"/><line transform="translate(610,0)" x2="0" y2="5" stroke="#888" stroke-width="1" opacity="1"/><line transform="translate(630,0)" x2="0" y2="5" stroke="#888" stroke-width="1" opacity="1"/><line transform="translate(650,0)" x2="0" y2="5" stroke="#888" stroke-width="1" opacity="1"/><line transform="translate(670,0)" x2="0" y2="5" stroke="#888" stroke-width="1" opacity="1"/><line transform="translate(690,0)" x2="0" y2="5" stroke="#888" stroke-width="1" opacity="1"/><line transform="translate(710,0)" x2="0" y2="5" stroke="#888" stroke-width="1" opacity="1"/><line transform="translate(730,0)" x2="0" y2="5" stroke="#888" stroke-width="1" opacity="1"/><line transform="translate(750,0)" x2="0" y2="5" stroke="#888" stroke-width="1" opacity="1"/><line transform="translate(770,0)" x2="0" y2="5" stroke="#888" stroke-width="1" opacity="1"/><line transform="translate(790,0)" x2="0" y2="5" stroke="#888" stroke-width="1" opacity="1"/><line transform="translate(810,0)" x2="0" y2="5" stroke="#888" stroke-width="1" opacity="1"/><line transform="translate(830,0)" x2="0" y2="5" stroke="#888" stroke-width="1" opacity="1"/><line transform="translate(850,0)" x2="0" y2="5" stroke="#888" stroke-width="1" opacity="1"/><line transform="translate(870,0)" x2="0" y2="5" stroke="#888" stroke-width="1" opacity="1"/><line transform="translate(890,0)" x2="0" y2="5" stroke="#888" stroke-width="1" opacity="1"/><line transform="translate(910,0)" x2="0" y2="5" stroke="#888" stroke-width="1" opacity="1"/><line transform="translate(930,0)" x2="0" y2="5" stroke="#888" stroke-width="1" opacity="1"/><line transform="translate(950,0)" x2="0" y2="5" stroke="#888" stroke-width="1" opacity="1"/><line transform="translate(970,0)" x2="0" y2="5" stroke="#888" stroke-width="1" opacity="1"/><line transform="translate(990,0)" x2="0" y2="5" stroke="#888" stroke-width="1" opacity="1"/><line transform="translate(1010,0)" x2="0" y2="5" stroke="#888" stroke-width="1" opacity="1"/><line transform="translate(1030,0)" x2="0" y2="5" stroke="#888" stroke-width="1" opacity="1"/><line transform="translate(1050,0)" x2="0" y2="5" stroke="#888" stroke-width="1" opacity="1"/><line transform="translate(1070,0)" x2="0" y2="5" stroke="#888" stroke-width="1" opacity="1"/></g><g class="mark-text role-axis-label" pointer-events="none"><text text-anchor="end" transform="translate(10,7) rotate(270) translate(0,3)" font-family="sans-serif" font-size="10px" fill="#000" opacity="1">null</text><text text-anchor="end" transform="translate(30,7) rotate(270) translate(0,3)" font-family="sans-serif" font-size="10px" fill="#000" opacity="1">1</text><text text-anchor="end" transform="translate(50,7) rotate(270) translate(0,3)" font-family="sans-serif" font-size="10px" fill="#000" opacity="1">2</text><text text-anchor="end" transform="translate(70,7) rotate(270) translate(0,3)" font-family="sans-serif" font-size="10px" fill="#000" opacity="1">3</text><text text-anchor="end" transform="translate(90,7) rotate(270) translate(0,3)" font-family="sans-serif" font-size="10px" fill="#000" opacity="1">4</text><text text-anchor="end" transform="translate(110,7) rotate(270) translate(0,3)" font-family="sans-serif" font-size="10px" fill="#000" opacity="1">5</text><text text-anchor="end" transform="translate(130,7) rotate(270) translate(0,3)" font-family="sans-serif" font-size="10px" fill="#000" opacity="1">6</text><text text-anchor="end" transform="translate(150,7) rotate(270) translate(0,3)" font-family="sans-serif" font-size="10px" fill="#000" opacity="1">7</text><text text-anchor="end" transform="translate(170,7) rotate(270) translate(0,3)" font-family="sans-serif" font-size="10px" fill="#000" opacity="1">8</text><text text-anchor="end" transform="translate(190,7) rotate(270) translate(0,3)" font-family="sans-serif" font-size="10px" fill="#000" opacity="1">9</text><text text-anchor="end" transform="translate(210,7) rotate(270) translate(0,3)" font-family="sans-serif" font-size="10px" fill="#000" opacity="1">10</text><text text-anchor="end" transform="translate(230,7) rotate(270) translate(0,3)" font-family="sans-serif" font-size="10px" fill="#000" opacity="1">11</text><text text-anchor="end" transform="translate(250,7) rotate(270) translate(0,3)" font-family="sans-serif" font-size="10px" fill="#000" opacity="1">12</text><text text-anchor="end" transform="translate(270,7) rotate(270) translate(0,3)" font-family="sans-serif" font-size="10px" fill="#000" opacity="1">13</text><text text-anchor="end" transform="translate(290,7) rotate(270) translate(0,3)" font-family="sans-serif" font-size="10px" fill="#000" opacity="1">14</text><text text-anchor="end" transform="translate(310,7) rotate(270) translate(0,3)" font-family="sans-serif" font-size="10px" fill="#000" opacity="1">15</text><text text-anchor="end" transform="translate(330,7) rotate(270) translate(0,3)" font-family="sans-serif" font-size="10px" fill="#000" opacity="1">16</text><text text-anchor="end" transform="translate(350,7) rotate(270) translate(0,3)" font-family="sans-serif" font-size="10px" fill="#000" opacity="1">17</text><text text-anchor="end" transform="translate(370,7) rotate(270) translate(0,3)" font-family="sans-serif" font-size="10px" fill="#000" opacity="1">18</text><text text-anchor="end" transform="translate(390,7) rotate(270) translate(0,3)" font-family="sans-serif" font-size="10px" fill="#000" opacity="1">19</text><text text-anchor="end" transform="translate(410,7) rotate(270) translate(0,3)" font-family="sans-serif" font-size="10px" fill="#000" opacity="1">20</text><text text-anchor="end" transform="translate(430,7) rotate(270) translate(0,3)" font-family="sans-serif" font-size="10px" fill="#000" opacity="1">21</text><text text-anchor="end" transform="translate(450,7) rotate(270) translate(0,3)" font-family="sans-serif" font-size="10px" fill="#000" opacity="1">22</text><text text-anchor="end" transform="translate(470,7) rotate(270) translate(0,3)" font-family="sans-serif" font-size="10px" fill="#000" opacity="1">23</text><text text-anchor="end" transform="translate(490,7) rotate(270) translate(0,3)" font-family="sans-serif" font-size="10px" fill="#000" opacity="1">24</text><text text-anchor="end" transform="translate(510,7) rotate(270) translate(0,3)" font-family="sans-serif" font-size="10px" fill="#000" opacity="1">25</text><text text-anchor="end" transform="translate(530,7) rotate(270) translate(0,3)" font-family="sans-serif" font-size="10px" fill="#000" opacity="1">26</text><text text-anchor="end" transform="translate(550,7) rotate(270) translate(0,3)" font-family="sans-serif" font-size="10px" fill="#000" opacity="1">27</text><text text-anchor="end" transform="translate(570,7) rotate(270) translate(0,3)" font-family="sans-serif" font-size="10px" fill="#000" opacity="1">28</text><text text-anchor="end" transform="translate(590,7) rotate(270) translate(0,3)" font-family="sans-serif" font-size="10px" fill="#000" opacity="1">29</text><text text-anchor="end" transform="translate(610,7) rotate(270) translate(0,3)" font-family="sans-serif" font-size="10px" fill="#000" opacity="1">30</text><text text-anchor="end" transform="translate(630,7) rotate(270) translate(0,3)" font-family="sans-serif" font-size="10px" fill="#000" opacity="1">31</text><text text-anchor="end" transform="translate(650,7) rotate(270) translate(0,3)" font-family="sans-serif" font-size="10px" fill="#000" opacity="1">32</text><text text-anchor="end" transform="translate(670,7) rotate(270) translate(0,3)" font-family="sans-serif" font-size="10px" fill="#000" opacity="1">33</text><text text-anchor="end" transform="translate(690,7) rotate(270) translate(0,3)" font-family="sans-serif" font-size="10px" fill="#000" opacity="1">34</text><text text-anchor="end" transform="translate(710,7) rotate(270) translate(0,3)" font-family="sans-serif" font-size="10px" fill="#000" opacity="1">35</text><text text-anchor="end" transform="translate(730,7) rotate(270) translate(0,3)" font-family="sans-serif" font-size="10px" fill="#000" opacity="1">36</text><text text-anchor="end" transform="translate(750,7) rotate(270) translate(0,3)" font-family="sans-serif" font-size="10px" fill="#000" opacity="1">37</text><text text-anchor="end" transform="translate(770,7) rotate(270) translate(0,3)" font-family="sans-serif" font-size="10px" fill="#000" opacity="1">38</text><text text-anchor="end" transform="translate(790,7) rotate(270) translate(0,3)" font-family="sans-serif" font-size="10px" fill="#000" opacity="1">39</text><text text-anchor="end" transform="translate(810,7) rotate(270) translate(0,3)" font-family="sans-serif" font-size="10px" fill="#000" opacity="1">40</text><text text-anchor="end" transform="translate(830,7) rotate(270) translate(0,3)" font-family="sans-serif" font-size="10px" fill="#000" opacity="1">41</text><text text-anchor="end" transform="translate(850,7) rotate(270) translate(0,3)" font-family="sans-serif" font-size="10px" fill="#000" opacity="1">42</text><text text-anchor="end" transform="translate(870,7) rotate(270) translate(0,3)" font-family="sans-serif" font-size="10px" fill="#000" opacity="1">43</text><text text-anchor="end" transform="translate(890,7) rotate(270) translate(0,3)" font-family="sans-serif" font-size="10px" fill="#000" opacity="1">44</text><text text-anchor="end" transform="translate(910,7) rotate(270) translate(0,3)" font-family="sans-serif" font-size="10px" fill="#000" opacity="1">45</text><text text-anchor="end" transform="translate(930,7) rotate(270) translate(0,3)" font-family="sans-serif" font-size="10px" fill="#000" opacity="1">46</text><text text-anchor="end" transform="translate(950,7) rotate(270) translate(0,3)" font-family="sans-serif" font-size="10px" fill="#000" opacity="1">47</text><text text-anchor="end" transform="translate(970,7) rotate(270) translate(0,3)" font-family="sans-serif" font-size="10px" fill="#000" opacity="1">48</text><text text-anchor="end" transform="translate(990,7) rotate(270) translate(0,3)" font-family="sans-serif" font-size="10px" fill="#000" opacity="1">49</text><text text-anchor="end" transform="translate(1010,7) rotate(270) translate(0,3)" font-family="sans-serif" font-size="10px" fill="#000" opacity="1">50</text><text text-anchor="end" transform="translate(1030,7) rotate(270) translate(0,3)" font-family="sans-serif" font-size="10px" fill="#000" opacity="1">51</text><text text-anchor="end" transform="translate(1050,7) rotate(270) translate(0,3)" font-family="sans-serif" font-size="10px" fill="#000" opacity="1">52</text><text text-anchor="end" transform="translate(1070,7) rotate(270) translate(0,3)" font-family="sans-serif" font-size="10px" fill="#000" opacity="1">53</text></g><g class="mark-rule role-axis-domain" pointer-events="none"><line transform="translate(0,0)" x2="1080" y2="0" stroke="#888" stroke-width="1" opacity="1"/></g><g class="mark-text role-axis-title" pointer-events="none"><text text-anchor="middle" transform="translate(540,37.46666717529297)" font-family="sans-serif" font-size="11px" font-weight="bold" fill="#000" opacity="1">ISO Week</text></g></g><path class="foreground" aria-hidden="true" d="" pointer-events="none" display="none"/></g></g><g class="mark-group role-axis" role="graphics-symbol" aria-roledescription="axis" aria-label="Y-axis titled 'ISO Year' for a discrete scale with 14 values: null, 2013, 2014, 2015, 2016, ending with 2025"><g transform="translate(0.5,0.5)"><path class="background" aria-hidden="true" d="M0,0h0v0h0Z" pointer-events="none"/><g><g class="mark-rule role-axis-tick" pointer-events="none"><line transform="translate(0,10)" x2="-5" y2="0" stroke="#888" stroke-width="1" opacity="1"/><line transform="translate(0,30)" x2="-5" y2="0" stroke="#888" stroke-width="1" opacity="1"/><line transform="translate(0,50)" x2="-5" y2="0" stroke="#888" stroke-width="1" opacity="1"/><line transform="translate(0,70)" x2="-5" y2="0" stroke="#888" stroke-width="1" opacity="1"/><line transform="translate(0,90)" x2="-5" y2="0" stroke="#888" stroke-width="1" opacity="1"/><line transform="translate(0,110)" x2="-5" y2="0" stroke="#888" stroke-width="1" opacity="1"/><line transform="translate(0,130)" x2="-5" y2="0" stroke="#888" stroke-width="1" opacity="1"/><line transform="translate(0,150)" x2="-5" y2="0" stroke="#888" stroke-width="1" opacity="1"/><line transform="translate(0,170)" x2="-5" y2="0" stroke="#888" stroke-width="1" opacity="1"/><line transform="translate(0,190)" x2="-5" y2="0" stroke="#888" stroke-width="1" opacity="1"/><line transform="translate(0,210)" x2="-5" y2="0" stroke="#888" stroke-width="1" opacity="1"/><line transform="translate(0,230)" x2="-5" y2="0" stroke="#888" stroke-width="1" opacity="1"/><line transform="translate(0,250)" x2="-5" y2="0" stroke="#888" stroke-width="1" opacity="1"/><line transform="translate(0,270)" x2="-5" y2="0" stroke="#888" stroke-width="1" opacity="1"/></g><g class="mark-text role-axis-label" pointer-events="none"><text text-anchor="end" transform="translate(-7,13)" font-family="sans-serif" font-size="10px" fill="#000" opacity="1">null</text><text text-anchor="end" transform="translate(-7,33)" font-family="sans-serif" font-size="10px" fill="#000" opacity="1">2013</text><text text-anchor="end" transform="translate(-7,53)" font-family="sans-serif" font-size="10px" fill="#000" opacity="1">2014</text><text text-anchor="end" transform="translate(-7,73)" font-family="sans-serif" font-size="10px" fill="#000" opacity="1">2015</text><text text-anchor="end" transform="translate(-7,93)" font-family="sans-serif" font-size="10px" fill="#000" opacity="1">2016</text><text text-anchor="end" transform="translate(-7,113)" font-family="sans-serif" font-size="10px" fill="#000" opacity="1">2017</text><text text-anchor="end" transform="translate(-7,133)" font-family="sans-serif" font-size="10px" fill="#000" opacity="1">2018</text><text text-anchor="end" transform="translate(-7,153)" font-family="sans-serif" font-size="10px" fill="#000" opacity="1">2019</text><text text-anchor="end" transform="translate(-7,173)" font-family="sans-serif" font-size="10px" fill="#000" opacity="1">2020</text><text text-anchor="end" transform="translate(-7,193)" font-family="sans-serif" font-size="10px" fill="#000" opacity="1">2021</text><text text-anchor="end" transform="translate(-7,213)" font-family="sans-serif" font-size="10px" fill="#000" opacity="1">2022</text><text text-anchor="end" transform="translate(-7,233)" font-family="sans-serif" font-size="10px" fill="#000" opacity="1">2023</text><text text-anchor="end" transform="translate(-7,253)" font-family="sans-serif" font-size="10px" fill="#000" opacity="1">2024</text><text text-anchor="end" transform="translate(-7,273)" font-family="sans-serif" font-size="10px" fill="#000" opacity="1">2025</text></g><g class="mark-rule role-axis-domain" pointer-events="none"><line transform="translate(0,0)" x2="0" y2="280" stroke="#888" stroke-width="1" opacity="1"/></g><g class="mark-text role-axis-title" pointer-events="none"><text text-anchor="middle" transform="translate(-33.933332443237305,140) rotate(-90) translate(0,-2)" font-family="sans-serif" font-size="11px" font-weight="bold" fill="#000" opacity="1">ISO Year</text></g></g><path class="foreground" aria-hidden="true" d="" pointer-events="none" display="none"/></g></g><g class="mark-symbol role-mark marks" role="graphics-symbol" aria-roledescription="symbol mark container"><path transform="translate(710,210)" d="M5.052,0A5.052,5.052,0,1,1,-5.052,0A5.052,5.052,0,1,1,5.052,0" fill="#4c78a8" stroke-width="2"/><path transform="translate(270,270)" d="M7.378,0A7.378,7.378,0,1,1,-7.378,0A7.378,7.378,0,1,1,7.378,0" fill="#4c78a8" stroke-width="2"/><path transform="translate(630,230)" d="M7.689,0A7.689,7.689,0,1,1,-7.689,0A7.689,7.689,0,1,1,7.689,0" fill="#4c78a8" stroke-width="2"/><path transform="translate(350,210)" d="M6.024,0A6.024,6.024,0,1,1,-6.024,0A6.024,6.024,0,1,1,6.024,0" fill="#4c78a8" stroke-width="2"/><path transform="translate(590,250)" d="M5.417,0A5.417,5.417,0,1,1,-5.417,0A5.417,5.417,0,1,1,5.417,0" fill="#4c78a8" stroke-width="2"/><path transform="translate(570,230)" d="M5.077,0A5.077,5.077,0,1,1,-5.077,0A5.077,5.077,0,1,1,5.077,0" fill="#4c78a8" stroke-width="2"/><path transform="translate(870,210)" d="M4,0A4,4,0,1,1,-4,0A4,4,0,1,1,4,0" fill="#4c78a8" stroke-width="2"/><path transform="translate(510,230)" d="M4.927,0A4.927,4.927,0,1,1,-4.927,0A4.927,4.927,0,1,1,4.927,0" fill="#4c78a8" stroke-width="2"/><path transform="translate(630,210)" d="M5.111,0A5.111,5.111,0,1,1,-5.111,0A5.111,5.111,0,1,1,5.111,0" fill="#4c78a8" stroke-width="2"/><path transform="translate(570,250)" d="M5.05,0A5.05,5.05,0,1,1,-5.05,0A5.05,5.05,0,1,1,5.05,0" fill="#4c78a8" stroke-width="2"/><path transform="translate(570,210)" d="M4.603,0A4.603,4.603,0,1,1,-4.603,0A4.603,4.603,0,1,1,4.603,0" fill="#4c78a8" stroke-width="2"/><path transform="translate(130,270)" d="M4.775,0A4.775,4.775,0,1,1,-4.775,0A4.775,4.775,0,1,1,4.775,0" fill="#4c78a8" stroke-width="2"/><path transform="translate(730,250)" d="M6.927,0A6.927,6.927,0,1,1,-6.927,0A6.927,6.927,0,1,1,6.927,0" fill="#4c78a8" stroke-width="2"/><path transform="translate(170,270)" d="M7.029,0A7.029,7.029,0,1,1,-7.029,0A7.029,7.029,0,1,1,7.029,0" fill="#4c78a8" stroke-width="2"/><path transform="translate(310,190)" d="M2.36,0A2.36,2.36,0,1,1,-2.36,0A2.36,2.36,0,1,1,2.36,0" fill="#4c78a8" stroke-width="2"/><path transform="translate(730,230)" d="M6.071,0A6.071,6.071,0,1,1,-6.071,0A6.071,6.071,0,1,1,6.071,0" fill="#4c78a8" stroke-width="2"/><path transform="translate(250,270)" d="M8.008,0A8.008,8.008,0,1,1,-8.008,0A8.008,8.008,0,1,1,8.008,0" fill="#4c78a8" stroke-width="2"/><path transform="translate(450,210)" d="M4.253,0A4.253,4.253,0,1,1,-4.253,0A4.253,4.253,0,1,1,4.253,0" fill="#4c78a8" stroke-width="2"/><path transform="translate(410,210)" d="M4.124,0A4.124,4.124,0,1,1,-4.124,0A4.124,4.124,0,1,1,4.124,0" fill="#4c78a8" stroke-width="2"/><path transform="translate(550,190)" d="M3.802,0A3.802,3.802,0,1,1,-3.802,0A3.802,3.802,0,1,1,3.802,0" fill="#4c78a8" stroke-width="2"/><path transform="translate(690,210)" d="M5.043,0A5.043,5.043,0,1,1,-5.043,0A5.043,5.043,0,1,1,5.043,0" fill="#4c78a8" stroke-width="2"/><path transform="translate(510,250)" d="M5.616,0A5.616,5.616,0,1,1,-5.616,0A5.616,5.616,0,1,1,5.616,0" fill="#4c78a8" stroke-width="2"/><path transform="translate(990,150)" d="M4.107,0A4.107,4.107,0,1,1,-4.107,0A4.107,4.107,0,1,1,4.107,0" fill="#4c78a8" stroke-width="2"/><path transform="translate(870,170)" d="M2.206,0A2.206,2.206,0,1,1,-2.206,0A2.206,2.206,0,1,1,2.206,0" fill="#4c78a8" stroke-width="2"/><path transform="translate(970,210)" d="M4.91,0A4.91,4.91,0,1,1,-4.91,0A4.91,4.91,0,1,1,4.91,0" fill="#4c78a8" stroke-width="2"/><path transform="translate(490,270)" d="M8.761,0A8.761,8.761,0,1,1,-8.761,0A8.761,8.761,0,1,1,8.761,0" fill="#4c78a8" stroke-width="2"/><path transform="translate(710,230)" d="M5.818,0A5.818,5.818,0,1,1,-5.818,0A5.818,5.818,0,1,1,5.818,0" fill="#4c78a8" stroke-width="2"/><path transform="translate(430,210)" d="M6.13,0A6.13,6.13,0,1,1,-6.13,0A6.13,6.13,0,1,1,6.13,0" fill="#4c78a8" stroke-width="2"/><path transform="translate(490,110)" d="M2.102,0A2.102,2.102,0,1,1,-2.102,0A2.102,2.102,0,1,1,2.102,0" fill="#4c78a8" stroke-width="2"/><path transform="translate(550,250)" d="M6.643,0A6.643,6.643,0,1,1,-6.643,0A6.643,6.643,0,1,1,6.643,0" fill="#4c78a8" stroke-width="2"/><path transform="translate(90,270)" d="M6.413,0A6.413,6.413,0,1,1,-6.413,0A6.413,6.413,0,1,1,6.413,0" fill="#4c78a8" stroke-width="2"/><path transform="translate(610,190)" d="M3.301,0A3.301,3.301,0,1,1,-3.301,0A3.301,3.301,0,1,1,3.301,0" fill="#4c78a8" stroke-width="2"/><path transform="translate(590,210)" d="M7.009,0A7.009,7.009,0,1,1,-7.009,0A7.009,7.009,0,1,1,7.009,0" fill="#4c78a8" stroke-width="2"/><path transform="translate(790,250)" d="M6.648,0A6.648,6.648,0,1,1,-6.648,0A6.648,6.648,0,1,1,6.648,0" fill="#4c78a8" stroke-width="2"/><path transform="translate(430,230)" d="M5.888,0A5.888,5.888,0,1,1,-5.888,0A5.888,5.888,0,1,1,5.888,0" fill="#4c78a8" stroke-width="2"/><path transform="translate(870,250)" d="M5.095,0A5.095,5.095,0,1,1,-5.095,0A5.095,5.095,0,1,1,5.095,0" fill="#4c78a8" stroke-width="2"/><path transform="translate(530,250)" d="M5.403,0A5.403,5.403,0,1,1,-5.403,0A5.403,5.403,0,1,1,5.403,0" fill="#4c78a8" stroke-width="2"/><path transform="translate(650,210)" d="M5.523,0A5.523,5.523,0,1,1,-5.523,0A5.523,5.523,0,1,1,5.523,0" fill="#4c78a8" stroke-width="2"/><path transform="translate(250,190)" d="M4.033,0A4.033,4.033,0,1,1,-4.033,0A4.033,4.033,0,1,1,4.033,0" fill="#4c78a8" stroke-width="2"/><path transform="translate(370,110)" d="M3.031,0A3.031,3.031,0,1,1,-3.031,0A3.031,3.031,0,1,1,3.031,0" fill="#4c78a8" stroke-width="2"/><path transform="translate(170,230)" d="M5.452,0A5.452,5.452,0,1,1,-5.452,0A5.452,5.452,0,1,1,5.452,0" fill="#4c78a8" stroke-width="2"/><path transform="translate(190,270)" d="M7.859,0A7.859,7.859,0,1,1,-7.859,0A7.859,7.859,0,1,1,7.859,0" fill="#4c78a8" stroke-width="2"/><path transform="translate(110,250)" d="M3.9,0A3.9,3.9,0,1,1,-3.9,0A3.9,3.9,0,1,1,3.9,0" fill="#4c78a8" stroke-width="2"/><path transform="translate(670,30)" d="M2.289,0A2.289,2.289,0,1,1,-2.289,0A2.289,2.289,0,1,1,2.289,0" fill="#4c78a8" stroke-width="2"/><path transform="translate(630,170)" d="M3.408,0A3.408,3.408,0,1,1,-3.408,0A3.408,3.408,0,1,1,3.408,0" fill="#4c78a8" stroke-width="2"/><path transform="translate(390,270)" d="M5.867,0A5.867,5.867,0,1,1,-5.867,0A5.867,5.867,0,1,1,5.867,0" fill="#4c78a8" stroke-width="2"/><path transform="translate(290,210)" d="M4.874,0A4.874,4.874,0,1,1,-4.874,0A4.874,4.874,0,1,1,4.874,0" fill="#4c78a8" stroke-width="2"/><path transform="translate(250,210)" d="M6.32,0A6.32,6.32,0,1,1,-6.32,0A6.32,6.32,0,1,1,6.32,0" fill="#4c78a8" stroke-width="2"/><path transform="translate(190,250)" d="M3.874,0A3.874,3.874,0,1,1,-3.874,0A3.874,3.874,0,1,1,3.874,0" fill="#4c78a8" stroke-width="2"/><path transform="translate(470,250)" d="M4.626,0A4.626,4.626,0,1,1,-4.626,0A4.626,4.626,0,1,1,4.626,0" fill="#4c78a8" stroke-width="2"/><path transform="translate(870,190)" d="M3.616,0A3.616,3.616,0,1,1,-3.616,0A3.616,3.616,0,1,1,3.616,0" fill="#4c78a8" stroke-width="2"/><path transform="translate(810,230)" d="M4.175,0A4.175,4.175,0,1,1,-4.175,0A4.175,4.175,0,1,1,4.175,0" fill="#4c78a8" stroke-width="2"/><path transform="translate(190,230)" d="M4.487,0A4.487,4.487,0,1,1,-4.487,0A4.487,4.487,0,1,1,4.487,0" fill="#4c78a8" stroke-width="2"/><path transform="translate(830,250)" d="M5.499,0A5.499,5.499,0,1,1,-5.499,0A5.499,5.499,0,1,1,5.499,0" fill="#4c78a8" stroke-width="2"/><path transform="translate(50,210)" d="M3.882,0A3.882,3.882,0,1,1,-3.882,0A3.882,3.882,0,1,1,3.882,0" fill="#4c78a8" stroke-width="2"/><path transform="translate(670,210)" d="M5.181,0A5.181,5.181,0,1,1,-5.181,0A5.181,5.181,0,1,1,5.181,0" fill="#4c78a8" stroke-width="2"/><path transform="translate(330,270)" d="M8.63,0A8.63,8.63,0,1,1,-8.63,0A8.63,8.63,0,1,1,8.63,0" fill="#4c78a8" stroke-width="2"/><path transform="translate(750,250)" d="M7.5,0A7.5,7.5,0,1,1,-7.5,0A7.5,7.5,0,1,1,7.5,0" fill="#4c78a8" stroke-width="2"/><path transform="translate(470,210)" d="M3.685,0A3.685,3.685,0,1,1,-3.685,0A3.685,3.685,0,1,1,3.685,0" fill="#4c78a8" stroke-width="2"/><path transform="translate(210,270)" d="M4.26,0A4.26,4.26,0,1,1,-4.26,0A4.26,4.26,0,1,1,4.26,0" fill="#4c78a8" stroke-width="2"/><path transform="translate(330,230)" d="M5.51,0A5.51,5.51,0,1,1,-5.51,0A5.51,5.51,0,1,1,5.51,0" fill="#4c78a8" stroke-width="2"/><path transform="translate(350,250)" d="M4.019,0A4.019,4.019,0,1,1,-4.019,0A4.019,4.019,0,1,1,4.019,0" fill="#4c78a8" stroke-width="2"/><path transform="translate(1030,250)" d="M3.536,0A3.536,3.536,0,1,1,-3.536,0A3.536,3.536,0,1,1,3.536,0" fill="#4c78a8" stroke-width="2"/><path transform="translate(510,210)" d="M5.993,0A5.993,5.993,0,1,1,-5.993,0A5.993,5.993,0,1,1,5.993,0" fill="#4c78a8" stroke-width="2"/><path transform="translate(650,250)" d="M4.149,0A4.149,4.149,0,1,1,-4.149,0A4.149,4.149,0,1,1,4.149,0" fill="#4c78a8" stroke-width="2"/><path transform="translate(590,230)" d="M4.111,0A4.111,4.111,0,1,1,-4.111,0A4.111,4.111,0,1,1,4.111,0" fill="#4c78a8" stroke-width="2"/><path transform="translate(1070,170)" d="M3.458,0A3.458,3.458,0,1,1,-3.458,0A3.458,3.458,0,1,1,3.458,0" fill="#4c78a8" stroke-width="2"/><path transform="translate(150,270)" d="M3.762,0A3.762,3.762,0,1,1,-3.762,0A3.762,3.762,0,1,1,3.762,0" fill="#4c78a8" stroke-width="2"/><path transform="translate(690,230)" d="M9.5,0A9.5,9.5,0,1,1,-9.5,0A9.5,9.5,0,1,1,9.5,0" fill="#4c78a8" stroke-width="2"/><path transform="translate(550,110)" d="M1.523,0A1.523,1.523,0,1,1,-1.523,0A1.523,1.523,0,1,1,1.523,0" fill="#4c78a8" stroke-width="2"/><path transform="translate(1050,250)" d="M3.819,0A3.819,3.819,0,1,1,-3.819,0A3.819,3.819,0,1,1,3.819,0" fill="#4c78a8" stroke-width="2"/><path transform="translate(90,230)" d="M5.201,0A5.201,5.201,0,1,1,-5.201,0A5.201,5.201,0,1,1,5.201,0" fill="#4c78a8" stroke-width="2"/><path transform="translate(1050,210)" d="M3.812,0A3.812,3.812,0,1,1,-3.812,0A3.812,3.812,0,1,1,3.812,0" fill="#4c78a8" stroke-width="2"/><path transform="translate(410,270)" d="M5.735,0A5.735,5.735,0,1,1,-5.735,0A5.735,5.735,0,1,1,5.735,0" fill="#4c78a8" stroke-width="2"/><path transform="translate(1030,230)" d="M4.674,0A4.674,4.674,0,1,1,-4.674,0A4.674,4.674,0,1,1,4.674,0" fill="#4c78a8" stroke-width="2"/><path transform="translate(810,210)" d="M6.996,0A6.996,6.996,0,1,1,-6.996,0A6.996,6.996,0,1,1,6.996,0" fill="#4c78a8" stroke-width="2"/><path transform="translate(150,170)" d="M2.37,0A2.37,2.37,0,1,1,-2.37,0A2.37,2.37,0,1,1,2.37,0" fill="#4c78a8" stroke-width="2"/><path transform="translate(270,110)" d="M2.566,0A2.566,2.566,0,1,1,-2.566,0A2.566,2.566,0,1,1,2.566,0" fill="#4c78a8" stroke-width="2"/><path transform="translate(150,190)" d="M4.821,0A4.821,4.821,0,1,1,-4.821,0A4.821,4.821,0,1,1,4.821,0" fill="#4c78a8" stroke-width="2"/><path transform="translate(510,190)" d="M3.482,0A3.482,3.482,0,1,1,-3.482,0A3.482,3.482,0,1,1,3.482,0" fill="#4c78a8" stroke-width="2"/><path transform="translate(110,230)" d="M4.331,0A4.331,4.331,0,1,1,-4.331,0A4.331,4.331,0,1,1,4.331,0" fill="#4c78a8" stroke-width="2"/><path transform="translate(1030,130)" d="M3.591,0A3.591,3.591,0,1,1,-3.591,0A3.591,3.591,0,1,1,3.591,0" fill="#4c78a8" stroke-width="2"/><path transform="translate(650,230)" d="M6.648,0A6.648,6.648,0,1,1,-6.648,0A6.648,6.648,0,1,1,6.648,0" fill="#4c78a8" stroke-width="2"/><path transform="translate(310,250)" d="M6.623,0A6.623,6.623,0,1,1,-6.623,0A6.623,6.623,0,1,1,6.623,0" fill="#4c78a8" stroke-width="2"/><path transform="translate(1010,210)" d="M4.308,0A4.308,4.308,0,1,1,-4.308,0A4.308,4.308,0,1,1,4.308,0" fill="#4c78a8" stroke-width="2"/><path transform="translate(970,230)" d="M5.4,0A5.4,5.4,0,1,1,-5.4,0A5.4,5.4,0,1,1,5.4,0" fill="#4c78a8" stroke-width="2"/><path transform="translate(710,250)" d="M5.981,0A5.981,5.981,0,1,1,-5.981,0A5.981,5.981,0,1,1,5.981,0" fill="#4c78a8" stroke-width="2"/><path transform="translate(130,230)" d="M8.938,0A8.938,8.938,0,1,1,-8.938,0A8.938,8.938,0,1,1,8.938,0" fill="#4c78a8" stroke-width="2"/><path transform="translate(670,230)" d="M5.76,0A5.76,5.76,0,1,1,-5.76,0A5.76,5.76,0,1,1,5.76,0" fill="#4c78a8" stroke-width="2"/><path transform="translate(390,170)" d="M4.011,0A4.011,4.011,0,1,1,-4.011,0A4.011,4.011,0,1,1,4.011,0" fill="#4c78a8" stroke-width="2"/><path transform="translate(990,250)" d="M4.39,0A4.39,4.39,0,1,1,-4.39,0A4.39,4.39,0,1,1,4.39,0" fill="#4c78a8" stroke-width="2"/><path transform="translate(810,250)" d="M7.718,0A7.718,7.718,0,1,1,-7.718,0A7.718,7.718,0,1,1,7.718,0" fill="#4c78a8" stroke-width="2"/><path transform="translate(350,270)" d="M5.26,0A5.26,5.26,0,1,1,-5.26,0A5.26,5.26,0,1,1,5.26,0" fill="#4c78a8" stroke-width="2"/><path transform="translate(790,130)" d="M2.556,0A2.556,2.556,0,1,1,-2.556,0A2.556,2.556,0,1,1,2.556,0" fill="#4c78a8" stroke-width="2"/><path transform="translate(790,230)" d="M5.824,0A5.824,5.824,0,1,1,-5.824,0A5.824,5.824,0,1,1,5.824,0" fill="#4c78a8" stroke-width="2"/><path transform="translate(470,230)" d="M7.2,0A7.2,7.2,0,1,1,-7.2,0A7.2,7.2,0,1,1,7.2,0" fill="#4c78a8" stroke-width="2"/><path transform="translate(230,250)" d="M5.039,0A5.039,5.039,0,1,1,-5.039,0A5.039,5.039,0,1,1,5.039,0" fill="#4c78a8" stroke-width="2"/><path transform="translate(90,250)" d="M5.362,0A5.362,5.362,0,1,1,-5.362,0A5.362,5.362,0,1,1,5.362,0" fill="#4c78a8" stroke-width="2"/><path transform="translate(670,250)" d="M6.82,0A6.82,6.82,0,1,1,-6.82,0A6.82,6.82,0,1,1,6.82,0" fill="#4c78a8" stroke-width="2"/><path transform="translate(350,230)" d="M4.282,0A4.282,4.282,0,1,1,-4.282,0A4.282,4.282,0,1,1,4.282,0" fill="#4c78a8" stroke-width="2"/><path transform="translate(890,230)" d="M3.492,0A3.492,3.492,0,1,1,-3.492,0A3.492,3.492,0,1,1,3.492,0" fill="#4c78a8" stroke-width="2"/><path transform="translate(710,190)" d="M5.843,0A5.843,5.843,0,1,1,-5.843,0A5.843,5.843,0,1,1,5.843,0" fill="#4c78a8" stroke-width="2"/><path transform="translate(1010,170)" d="M3.163,0A3.163,3.163,0,1,1,-3.163,0A3.163,3.163,0,1,1,3.163,0" fill="#4c78a8" stroke-width="2"/><path transform="translate(770,190)" d="M3.36,0A3.36,3.36,0,1,1,-3.36,0A3.36,3.36,0,1,1,3.36,0" fill="#4c78a8" stroke-width="2"/><path transform="translate(970,190)" d="M2.44,0A2.44,2.44,0,1,1,-2.44,0A2.44,2.44,0,1,1,2.44,0" fill="#4c78a8" stroke-width="2"/><path transform="translate(690,250)" d="M5.57,0A5.57,5.57,0,1,1,-5.57,0A5.57,5.57,0,1,1,5.57,0" fill="#4c78a8" stroke-width="2"/><path transform="translate(50,270)" d="M5.274,0A5.274,5.274,0,1,1,-5.274,0A5.274,5.274,0,1,1,5.274,0" fill="#4c78a8" stroke-width="2"/><path transform="translate(310,230)" d="M3.968,0A3.968,3.968,0,1,1,-3.968,0A3.968,3.968,0,1,1,3.968,0" fill="#4c78a8" stroke-width="2"/><path transform="translate(530,230)" d="M5.081,0A5.081,5.081,0,1,1,-5.081,0A5.081,5.081,0,1,1,5.081,0" fill="#4c78a8" stroke-width="2"/><path transform="translate(950,250)" d="M4.749,0A4.749,4.749,0,1,1,-4.749,0A4.749,4.749,0,1,1,4.749,0" fill="#4c78a8" stroke-width="2"/><path transform="translate(470,190)" d="M5.616,0A5.616,5.616,0,1,1,-5.616,0A5.616,5.616,0,1,1,5.616,0" fill="#4c78a8" stroke-width="2"/><path transform="translate(430,250)" d="M7.527,0A7.527,7.527,0,1,1,-7.527,0A7.527,7.527,0,1,1,7.527,0" fill="#4c78a8" stroke-width="2"/><path transform="translate(270,210)" d="M6.684,0A6.684,6.684,0,1,1,-6.684,0A6.684,6.684,0,1,1,6.684,0" fill="#4c78a8" stroke-width="2"/><path transform="translate(550,230)" d="M4.379,0A4.379,4.379,0,1,1,-4.379,0A4.379,4.379,0,1,1,4.379,0" fill="#4c78a8" stroke-width="2"/><path transform="translate(550,210)" d="M4.979,0A4.979,4.979,0,1,1,-4.979,0A4.979,4.979,0,1,1,4.979,0" fill="#4c78a8" stroke-width="2"/><path transform="translate(850,250)" d="M3.6,0A3.6,3.6,0,1,1,-3.6,0A3.6,3.6,0,1,1,3.6,0" fill="#4c78a8" stroke-width="2"/><path transform="translate(170,190)" d="M4.237,0A4.237,4.237,0,1,1,-4.237,0A4.237,4.237,0,1,1,4.237,0" fill="#4c78a8" stroke-width="2"/><path transform="translate(850,190)" d="M3.044,0A3.044,3.044,0,1,1,-3.044,0A3.044,3.044,0,1,1,3.044,0" fill="#4c78a8" stroke-width="2"/><path transform="translate(930,210)" d="M4.084,0A4.084,4.084,0,1,1,-4.084,0A4.084,4.084,0,1,1,4.084,0" fill="#4c78a8" stroke-width="2"/><path transform="translate(1050,150)" d="M3.05,0A3.05,3.05,0,1,1,-3.05,0A3.05,3.05,0,1,1,3.05,0" fill="#4c78a8" stroke-width="2"/><path transform="translate(490,230)" d="M4.098,0A4.098,4.098,0,1,1,-4.098,0A4.098,4.098,0,1,1,4.098,0" fill="#4c78a8" stroke-width="2"/><path transform="translate(450,190)" d="M7.07,0A7.07,7.07,0,1,1,-7.07,0A7.07,7.07,0,1,1,7.07,0" fill="#4c78a8" stroke-width="2"/><path transform="translate(910,210)" d="M4.564,0A4.564,4.564,0,1,1,-4.564,0A4.564,4.564,0,1,1,4.564,0" fill="#4c78a8" stroke-width="2"/><path transform="translate(910,250)" d="M3.807,0A3.807,3.807,0,1,1,-3.807,0A3.807,3.807,0,1,1,3.807,0" fill="#4c78a8" stroke-width="2"/><path transform="translate(890,250)" d="M5.257,0A5.257,5.257,0,1,1,-5.257,0A5.257,5.257,0,1,1,5.257,0" fill="#4c78a8" stroke-width="2"/><path transform="translate(50,190)" d="M3.092,0A3.092,3.092,0,1,1,-3.092,0A3.092,3.092,0,1,1,3.092,0" fill="#4c78a8" stroke-width="2"/><path transform="translate(770,150)" d="M5.003,0A5.003,5.003,0,1,1,-5.003,0A5.003,5.003,0,1,1,5.003,0" fill="#4c78a8" stroke-width="2"/><path transform="translate(250,230)" d="M5.892,0A5.892,5.892,0,1,1,-5.892,0A5.892,5.892,0,1,1,5.892,0" fill="#4c78a8" stroke-width="2"/><path transform="translate(490,250)" d="M8.98,0A8.98,8.98,0,1,1,-8.98,0A8.98,8.98,0,1,1,8.98,0" fill="#4c78a8" stroke-width="2"/><path transform="translate(110,270)" d="M6.235,0A6.235,6.235,0,1,1,-6.235,0A6.235,6.235,0,1,1,6.235,0" fill="#4c78a8" stroke-width="2"/><path transform="translate(70,270)" d="M7.283,0A7.283,7.283,0,1,1,-7.283,0A7.283,7.283,0,1,1,7.283,0" fill="#4c78a8" stroke-width="2"/><path transform="translate(610,230)" d="M5.331,0A5.331,5.331,0,1,1,-5.331,0A5.331,5.331,0,1,1,5.331,0" fill="#4c78a8" stroke-width="2"/><path transform="translate(30,210)" d="M3.056,0A3.056,3.056,0,1,1,-3.056,0A3.056,3.056,0,1,1,3.056,0" fill="#4c78a8" stroke-width="2"/><path transform="translate(330,210)" d="M3.937,0A3.937,3.937,0,1,1,-3.937,0A3.937,3.937,0,1,1,3.937,0" fill="#4c78a8" stroke-width="2"/><path transform="translate(970,250)" d="M6.52,0A6.52,6.52,0,1,1,-6.52,0A6.52,6.52,0,1,1,6.52,0" fill="#4c78a8" stroke-width="2"/><path transform="translate(450,270)" d="M4.952,0A4.952,4.952,0,1,1,-4.952,0A4.952,4.952,0,1,1,4.952,0" fill="#4c78a8" stroke-width="2"/><path transform="translate(730,210)" d="M3.678,0A3.678,3.678,0,1,1,-3.678,0A3.678,3.678,0,1,1,3.678,0" fill="#4c78a8" stroke-width="2"/><path transform="translate(670,170)" d="M4.515,0A4.515,4.515,0,1,1,-4.515,0A4.515,4.515,0,1,1,4.515,0" fill="#4c78a8" stroke-width="2"/><path transform="translate(230,210)" d="M5.153,0A5.153,5.153,0,1,1,-5.153,0A5.153,5.153,0,1,1,5.153,0" fill="#4c78a8" stroke-width="2"/><path transform="translate(470,270)" d="M6.783,0A6.783,6.783,0,1,1,-6.783,0A6.783,6.783,0,1,1,6.783,0" fill="#4c78a8" stroke-width="2"/><path transform="translate(190,130)" d="M3.933,0A3.933,3.933,0,1,1,-3.933,0A3.933,3.933,0,1,1,3.933,0" fill="#4c78a8" stroke-width="2"/><path transform="translate(890,210)" d="M2.903,0A2.903,2.903,0,1,1,-2.903,0A2.903,2.903,0,1,1,2.903,0" fill="#4c78a8" stroke-width="2"/><path transform="translate(170,250)" d="M4.883,0A4.883,4.883,0,1,1,-4.883,0A4.883,4.883,0,1,1,4.883,0" fill="#4c78a8" stroke-width="2"/><path transform="translate(830,230)" d="M6.172,0A6.172,6.172,0,1,1,-6.172,0A6.172,6.172,0,1,1,6.172,0" fill="#4c78a8" stroke-width="2"/><path transform="translate(870,230)" d="M4.91,0A4.91,4.91,0,1,1,-4.91,0A4.91,4.91,0,1,1,4.91,0" fill="#4c78a8" stroke-width="2"/><path transform="translate(270,170)" d="M2.343,0A2.343,2.343,0,1,1,-2.343,0A2.343,2.343,0,1,1,2.343,0" fill="#4c78a8" stroke-width="2"/><path transform="translate(630,190)" d="M4.466,0A4.466,4.466,0,1,1,-4.466,0A4.466,4.466,0,1,1,4.466,0" fill="#4c78a8" stroke-width="2"/><path transform="translate(690,50)" d="M1.127,0A1.127,1.127,0,1,1,-1.127,0A1.127,1.127,0,1,1,1.127,0" fill="#4c78a8" stroke-width="2"/><path transform="translate(510,170)" d="M1.541,0A1.541,1.541,0,1,1,-1.541,0A1.541,1.541,0,1,1,1.541,0" fill="#4c78a8" stroke-width="2"/><path transform="translate(150,250)" d="M5.644,0A5.644,5.644,0,1,1,-5.644,0A5.644,5.644,0,1,1,5.644,0" fill="#4c78a8" stroke-width="2"/><path transform="translate(630,250)" d="M8.781,0A8.781,8.781,0,1,1,-8.781,0A8.781,8.781,0,1,1,8.781,0" fill="#4c78a8" stroke-width="2"/><path transform="translate(250,250)" d="M4.881,0A4.881,4.881,0,1,1,-4.881,0A4.881,4.881,0,1,1,4.881,0" fill="#4c78a8" stroke-width="2"/><path transform="translate(70,210)" d="M2.528,0A2.528,2.528,0,1,1,-2.528,0A2.528,2.528,0,1,1,2.528,0" fill="#4c78a8" stroke-width="2"/><path transform="translate(290,270)" d="M6.558,0A6.558,6.558,0,1,1,-6.558,0A6.558,6.558,0,1,1,6.558,0" fill="#4c78a8" stroke-width="2"/><path transform="translate(210,190)" d="M2.204,0A2.204,2.204,0,1,1,-2.204,0A2.204,2.204,0,1,1,2.204,0" fill="#4c78a8" stroke-width="2"/><path transform="translate(430,270)" d="M6.432,0A6.432,6.432,0,1,1,-6.432,0A6.432,6.432,0,1,1,6.432,0" fill="#4c78a8" stroke-width="2"/><path transform="translate(310,270)" d="M5.535,0A5.535,5.535,0,1,1,-5.535,0A5.535,5.535,0,1,1,5.535,0" fill="#4c78a8" stroke-width="2"/><path transform="translate(270,230)" d="M3.436,0A3.436,3.436,0,1,1,-3.436,0A3.436,3.436,0,1,1,3.436,0" fill="#4c78a8" stroke-width="2"/><path transform="translate(610,250)" d="M2.81,0A2.81,2.81,0,1,1,-2.81,0A2.81,2.81,0,1,1,2.81,0" fill="#4c78a8" stroke-width="2"/><path transform="translate(130,210)" d="M2.525,0A2.525,2.525,0,1,1,-2.525,0A2.525,2.525,0,1,1,2.525,0" fill="#4c78a8" stroke-width="2"/><path transform="translate(450,250)" d="M3.564,0A3.564,3.564,0,1,1,-3.564,0A3.564,3.564,0,1,1,3.564,0" fill="#4c78a8" stroke-width="2"/><path transform="translate(1010,150)" d="M2.153,0A2.153,2.153,0,1,1,-2.153,0A2.153,2.153,0,1,1,2.153,0" fill="#4c78a8" stroke-width="2"/><path transform="translate(710,170)" d="M1.65,0A1.65,1.65,0,1,1,-1.65,0A1.65,1.65,0,1,1,1.65,0" fill="#4c78a8" stroke-width="2"/><path transform="translate(770,230)" d="M4.511,0A4.511,4.511,0,1,1,-4.511,0A4.511,4.511,0,1,1,4.511,0" fill="#4c78a8" stroke-width="2"/><path transform="translate(290,170)" d="M2.229,0A2.229,2.229,0,1,1,-2.229,0A2.229,2.229,0,1,1,2.229,0" fill="#4c78a8" stroke-width="2"/><path transform="translate(370,90)" d="M1.432,0A1.432,1.432,0,1,1,-1.432,0A1.432,1.432,0,1,1,1.432,0" fill="#4c78a8" stroke-width="2"/><path transform="translate(390,230)" d="M7.113,0A7.113,7.113,0,1,1,-7.113,0A7.113,7.113,0,1,1,7.113,0" fill="#4c78a8" stroke-width="2"/><path transform="translate(810,190)" d="M1.879,0A1.879,1.879,0,1,1,-1.879,0A1.879,1.879,0,1,1,1.879,0" fill="#4c78a8" stroke-width="2"/><path transform="translate(850,210)" d="M5.867,0A5.867,5.867,0,1,1,-5.867,0A5.867,5.867,0,1,1,5.867,0" fill="#4c78a8" stroke-width="2"/><path transform="translate(190,50)" d="M1.61,0A1.61,1.61,0,1,1,-1.61,0A1.61,1.61,0,1,1,1.61,0" fill="#4c78a8" stroke-width="2"/><path transform="translate(750,230)" d="M5.311,0A5.311,5.311,0,1,1,-5.311,0A5.311,5.311,0,1,1,5.311,0" fill="#4c78a8" stroke-width="2"/><path transform="translate(1030,210)" d="M4.179,0A4.179,4.179,0,1,1,-4.179,0A4.179,4.179,0,1,1,4.179,0" fill="#4c78a8" stroke-width="2"/><path transform="translate(70,230)" d="M6.148,0A6.148,6.148,0,1,1,-6.148,0A6.148,6.148,0,1,1,6.148,0" fill="#4c78a8" stroke-width="2"/><path transform="translate(230,230)" d="M6.173,0A6.173,6.173,0,1,1,-6.173,0A6.173,6.173,0,1,1,6.173,0" fill="#4c78a8" stroke-width="2"/><path transform="translate(130,250)" d="M3.168,0A3.168,3.168,0,1,1,-3.168,0A3.168,3.168,0,1,1,3.168,0" fill="#4c78a8" stroke-width="2"/><path transform="translate(210,250)" d="M4.723,0A4.723,4.723,0,1,1,-4.723,0A4.723,4.723,0,1,1,4.723,0" fill="#4c78a8" stroke-width="2"/><path transform="translate(370,150)" d="M1.948,0A1.948,1.948,0,1,1,-1.948,0A1.948,1.948,0,1,1,1.948,0" fill="#4c78a8" stroke-width="2"/><path transform="translate(550,130)" d="M1.092,0A1.092,1.092,0,1,1,-1.092,0A1.092,1.092,0,1,1,1.092,0" fill="#4c78a8" stroke-width="2"/><path transform="translate(410,250)" d="M5.426,0A5.426,5.426,0,1,1,-5.426,0A5.426,5.426,0,1,1,5.426,0" fill="#4c78a8" stroke-width="2"/><path transform="translate(210,230)" d="M3.361,0A3.361,3.361,0,1,1,-3.361,0A3.361,3.361,0,1,1,3.361,0" fill="#4c78a8" stroke-width="2"/><path transform="translate(690,190)" d="M4.022,0A4.022,4.022,0,1,1,-4.022,0A4.022,4.022,0,1,1,4.022,0" fill="#4c78a8" stroke-width="2"/><path transform="translate(410,190)" d="M3.424,0A3.424,3.424,0,1,1,-3.424,0A3.424,3.424,0,1,1,3.424,0" fill="#4c78a8" stroke-width="2"/><path transform="translate(1010,250)" d="M4.918,0A4.918,4.918,0,1,1,-4.918,0A4.918,4.918,0,1,1,4.918,0" fill="#4c78a8" stroke-width="2"/><path transform="translate(390,190)" d="M4.333,0A4.333,4.333,0,1,1,-4.333,0A4.333,4.333,0,1,1,4.333,0" fill="#4c78a8" stroke-width="2"/><path transform="translate(530,210)" d="M4.265,0A4.265,4.265,0,1,1,-4.265,0A4.265,4.265,0,1,1,4.265,0" fill="#4c78a8" stroke-width="2"/><path transform="translate(610,210)" d="M3.805,0A3.805,3.805,0,1,1,-3.805,0A3.805,3.805,0,1,1,3.805,0" fill="#4c78a8" stroke-width="2"/><path transform="translate(710,130)" d="M2.796,0A2.796,2.796,0,1,1,-2.796,0A2.796,2.796,0,1,1,2.796,0" fill="#4c78a8" stroke-width="2"/><path transform="translate(630,50)" d="M3.166,0A3.166,3.166,0,1,1,-3.166,0A3.166,3.166,0,1,1,3.166,0" fill="#4c78a8" stroke-width="2"/><path transform="translate(870,150)" d="M2.45,0A2.45,2.45,0,1,1,-2.45,0A2.45,2.45,0,1,1,2.45,0" fill="#4c78a8" stroke-width="2"/><path transform="translate(990,210)" d="M3.509,0A3.509,3.509,0,1,1,-3.509,0A3.509,3.509,0,1,1,3.509,0" fill="#4c78a8" stroke-width="2"/><path transform="translate(1030,170)" d="M1.497,0A1.497,1.497,0,1,1,-1.497,0A1.497,1.497,0,1,1,1.497,0" fill="#4c78a8" stroke-width="2"/><path transform="translate(50,230)" d="M4.455,0A4.455,4.455,0,1,1,-4.455,0A4.455,4.455,0,1,1,4.455,0" fill="#4c78a8" stroke-width="2"/><path transform="translate(390,250)" d="M4.241,0A4.241,4.241,0,1,1,-4.241,0A4.241,4.241,0,1,1,4.241,0" fill="#4c78a8" stroke-width="2"/><path transform="translate(490,210)" d="M5.463,0A5.463,5.463,0,1,1,-5.463,0A5.463,5.463,0,1,1,5.463,0" fill="#4c78a8" stroke-width="2"/><path transform="translate(70,250)" d="M2.032,0A2.032,2.032,0,1,1,-2.032,0A2.032,2.032,0,1,1,2.032,0" fill="#4c78a8" stroke-width="2"/><path transform="translate(330,250)" d="M3.411,0A3.411,3.411,0,1,1,-3.411,0A3.411,3.411,0,1,1,3.411,0" fill="#4c78a8" stroke-width="2"/><path transform="translate(550,170)" d="M2.094,0A2.094,2.094,0,1,1,-2.094,0A2.094,2.094,0,1,1,2.094,0" fill="#4c78a8" stroke-width="2"/><path transform="translate(90,190)" d="M2.396,0A2.396,2.396,0,1,1,-2.396,0A2.396,2.396,0,1,1,2.396,0" fill="#4c78a8" stroke-width="2"/><path transform="translate(950,170)" d="M4.06,0A4.06,4.06,0,1,1,-4.06,0A4.06,4.06,0,1,1,4.06,0" fill="#4c78a8" stroke-width="2"/><path transform="translate(750,190)" d="M2.811,0A2.811,2.811,0,1,1,-2.811,0A2.811,2.811,0,1,1,2.811,0" fill="#4c78a8" stroke-width="2"/><path transform="translate(770,250)" d="M7.615,0A7.615,7.615,0,1,1,-7.615,0A7.615,7.615,0,1,1,7.615,0" fill="#4c78a8" stroke-width="2"/><path transform="translate(230,190)" d="M5.448,0A5.448,5.448,0,1,1,-5.448,0A5.448,5.448,0,1,1,5.448,0" fill="#4c78a8" stroke-width="2"/><path transform="translate(730,110)" d="M2.831,0A2.831,2.831,0,1,1,-2.831,0A2.831,2.831,0,1,1,2.831,0" fill="#4c78a8" stroke-width="2"/><path transform="translate(30,150)" d="M2.787,0A2.787,2.787,0,1,1,-2.787,0A2.787,2.787,0,1,1,2.787,0" fill="#4c78a8" stroke-width="2"/><path transform="translate(630,150)" d="M6.801,0A6.801,6.801,0,1,1,-6.801,0A6.801,6.801,0,1,1,6.801,0" fill="#4c78a8" stroke-width="2"/><path transform="translate(650,190)" d="M2.122,0A2.122,2.122,0,1,1,-2.122,0A2.122,2.122,0,1,1,2.122,0" fill="#4c78a8" stroke-width="2"/><path transform="translate(290,250)" d="M3.886,0A3.886,3.886,0,1,1,-3.886,0A3.886,3.886,0,1,1,3.886,0" fill="#4c78a8" stroke-width="2"/><path transform="translate(290,190)" d="M3.154,0A3.154,3.154,0,1,1,-3.154,0A3.154,3.154,0,1,1,3.154,0" fill="#4c78a8" stroke-width="2"/><path transform="translate(430,190)" d="M2.859,0A2.859,2.859,0,1,1,-2.859,0A2.859,2.859,0,1,1,2.859,0" fill="#4c78a8" stroke-width="2"/><path transform="translate(990,170)" d="M3.612,0A3.612,3.612,0,1,1,-3.612,0A3.612,3.612,0,1,1,3.612,0" fill="#4c78a8" stroke-width="2"/><path transform="translate(490,190)" d="M2.639,0A2.639,2.639,0,1,1,-2.639,0A2.639,2.639,0,1,1,2.639,0" fill="#4c78a8" stroke-width="2"/><path transform="translate(170,130)" d="M1.88,0A1.88,1.88,0,1,1,-1.88,0A1.88,1.88,0,1,1,1.88,0" fill="#4c78a8" stroke-width="2"/><path transform="translate(30,250)" d="M6.673,0A6.673,6.673,0,1,1,-6.673,0A6.673,6.673,0,1,1,6.673,0" fill="#4c78a8" stroke-width="2"/><path transform="translate(70,190)" d="M3.173,0A3.173,3.173,0,1,1,-3.173,0A3.173,3.173,0,1,1,3.173,0" fill="#4c78a8" stroke-width="2"/><path transform="translate(930,250)" d="M4.679,0A4.679,4.679,0,1,1,-4.679,0A4.679,4.679,0,1,1,4.679,0" fill="#4c78a8" stroke-width="2"/><path transform="translate(910,190)" d="M3.887,0A3.887,3.887,0,1,1,-3.887,0A3.887,3.887,0,1,1,3.887,0" fill="#4c78a8" stroke-width="2"/><path transform="translate(270,190)" d="M4.156,0A4.156,4.156,0,1,1,-4.156,0A4.156,4.156,0,1,1,4.156,0" fill="#4c78a8" stroke-width="2"/><path transform="translate(790,210)" d="M3.247,0A3.247,3.247,0,1,1,-3.247,0A3.247,3.247,0,1,1,3.247,0" fill="#4c78a8" stroke-width="2"/><path transform="translate(750,150)" d="M1.719,0A1.719,1.719,0,1,1,-1.719,0A1.719,1.719,0,1,1,1.719,0" fill="#4c78a8" stroke-width="2"/><path transform="translate(530,170)" d="M4.097,0A4.097,4.097,0,1,1,-4.097,0A4.097,4.097,0,1,1,4.097,0" fill="#4c78a8" stroke-width="2"/><path transform="translate(950,210)" d="M7.07,0A7.07,7.07,0,1,1,-7.07,0A7.07,7.07,0,1,1,7.07,0" fill="#4c78a8" stroke-width="2"/><path transform="translate(450,170)" d="M1.799,0A1.799,1.799,0,1,1,-1.799,0A1.799,1.799,0,1,1,1.799,0" fill="#4c78a8" stroke-width="2"/><path transform="translate(790,30)" d="M3.703,0A3.703,3.703,0,1,1,-3.703,0A3.703,3.703,0,1,1,3.703,0" fill="#4c78a8" stroke-width="2"/><path transform="translate(990,230)" d="M2.695,0A2.695,2.695,0,1,1,-2.695,0A2.695,2.695,0,1,1,2.695,0" fill="#4c78a8" stroke-width="2"/><path transform="translate(30,230)" d="M4.641,0A4.641,4.641,0,1,1,-4.641,0A4.641,4.641,0,1,1,4.641,0" fill="#4c78a8" stroke-width="2"/><path transform="translate(950,230)" d="M3.875,0A3.875,3.875,0,1,1,-3.875,0A3.875,3.875,0,1,1,3.875,0" fill="#4c78a8" stroke-width="2"/><path transform="translate(970,150)" d="M2.912,0A2.912,2.912,0,1,1,-2.912,0A2.912,2.912,0,1,1,2.912,0" fill="#4c78a8" stroke-width="2"/><path transform="translate(370,250)" d="M5.475,0A5.475,5.475,0,1,1,-5.475,0A5.475,5.475,0,1,1,5.475,0" fill="#4c78a8" stroke-width="2"/><path transform="translate(110,210)" d="M2.617,0A2.617,2.617,0,1,1,-2.617,0A2.617,2.617,0,1,1,2.617,0" fill="#4c78a8" stroke-width="2"/><path transform="translate(590,190)" d="M2.342,0A2.342,2.342,0,1,1,-2.342,0A2.342,2.342,0,1,1,2.342,0" fill="#4c78a8" stroke-width="2"/><path transform="translate(890,150)" d="M1.316,0A1.316,1.316,0,1,1,-1.316,0A1.316,1.316,0,1,1,1.316,0" fill="#4c78a8" stroke-width="2"/><path transform="translate(1010,230)" d="M4.236,0A4.236,4.236,0,1,1,-4.236,0A4.236,4.236,0,1,1,4.236,0" fill="#4c78a8" stroke-width="2"/><path transform="translate(470,170)" d="M2.819,0A2.819,2.819,0,1,1,-2.819,0A2.819,2.819,0,1,1,2.819,0" fill="#4c78a8" stroke-width="2"/><path transform="translate(410,170)" d="M1.876,0A1.876,1.876,0,1,1,-1.876,0A1.876,1.876,0,1,1,1.876,0" fill="#4c78a8" stroke-width="2"/><path transform="translate(650,170)" d="M1.641,0A1.641,1.641,0,1,1,-1.641,0A1.641,1.641,0,1,1,1.641,0" fill="#4c78a8" stroke-width="2"/><path transform="translate(910,170)" d="M1.779,0A1.779,1.779,0,1,1,-1.779,0A1.779,1.779,0,1,1,1.779,0" fill="#4c78a8" stroke-width="2"/><path transform="translate(970,170)" d="M1.895,0A1.895,1.895,0,1,1,-1.895,0A1.895,1.895,0,1,1,1.895,0" fill="#4c78a8" stroke-width="2"/><path transform="translate(370,270)" d="M7.901,0A7.901,7.901,0,1,1,-7.901,0A7.901,7.901,0,1,1,7.901,0" fill="#4c78a8" stroke-width="2"/><path transform="translate(430,170)" d="M1.304,0A1.304,1.304,0,1,1,-1.304,0A1.304,1.304,0,1,1,1.304,0" fill="#4c78a8" stroke-width="2"/><path transform="translate(70,70)" d="M1.98,0A1.98,1.98,0,1,1,-1.98,0A1.98,1.98,0,1,1,1.98,0" fill="#4c78a8" stroke-width="2"/><path transform="translate(830,210)" d="M7.212,0A7.212,7.212,0,1,1,-7.212,0A7.212,7.212,0,1,1,7.212,0" fill="#4c78a8" stroke-width="2"/><path transform="translate(850,30)" d="M1.537,0A1.537,1.537,0,1,1,-1.537,0A1.537,1.537,0,1,1,1.537,0" fill="#4c78a8" stroke-width="2"/><path transform="translate(390,210)" d="M4.962,0A4.962,4.962,0,1,1,-4.962,0A4.962,4.962,0,1,1,4.962,0" fill="#4c78a8" stroke-width="2"/><path transform="translate(530,190)" d="M4.925,0A4.925,4.925,0,1,1,-4.925,0A4.925,4.925,0,1,1,4.925,0" fill="#4c78a8" stroke-width="2"/><path transform="translate(1030,190)" d="M1.925,0A1.925,1.925,0,1,1,-1.925,0A1.925,1.925,0,1,1,1.925,0" fill="#4c78a8" stroke-width="2"/><path transform="translate(670,150)" d="M1.425,0A1.425,1.425,0,1,1,-1.425,0A1.425,1.425,0,1,1,1.425,0" fill="#4c78a8" stroke-width="2"/><path transform="translate(890,190)" d="M5.886,0A5.886,5.886,0,1,1,-5.886,0A5.886,5.886,0,1,1,5.886,0" fill="#4c78a8" stroke-width="2"/><path transform="translate(290,230)" d="M8.165,0A8.165,8.165,0,1,1,-8.165,0A8.165,8.165,0,1,1,8.165,0" fill="#4c78a8" stroke-width="2"/><path transform="translate(290,30)" d="M1.676,0A1.676,1.676,0,1,1,-1.676,0A1.676,1.676,0,1,1,1.676,0" fill="#4c78a8" stroke-width="2"/><path transform="translate(270,250)" d="M4.475,0A4.475,4.475,0,1,1,-4.475,0A4.475,4.475,0,1,1,4.475,0" fill="#4c78a8" stroke-width="2"/><path transform="translate(30,270)" d="M2.771,0A2.771,2.771,0,1,1,-2.771,0A2.771,2.771,0,1,1,2.771,0" fill="#4c78a8" stroke-width="2"/><path transform="translate(930,230)" d="M2.411,0A2.411,2.411,0,1,1,-2.411,0A2.411,2.411,0,1,1,2.411,0" fill="#4c78a8" stroke-width="2"/><path transform="translate(610,170)" d="M3.923,0A3.923,3.923,0,1,1,-3.923,0A3.923,3.923,0,1,1,3.923,0" fill="#4c78a8" stroke-width="2"/><path transform="translate(610,30)" d="M1.303,0A1.303,1.303,0,1,1,-1.303,0A1.303,1.303,0,1,1,1.303,0" fill="#4c78a8" stroke-width="2"/><path transform="translate(450,230)" d="M3.881,0A3.881,3.881,0,1,1,-3.881,0A3.881,3.881,0,1,1,3.881,0" fill="#4c78a8" stroke-width="2"/><path transform="translate(370,230)" d="M3.816,0A3.816,3.816,0,1,1,-3.816,0A3.816,3.816,0,1,1,3.816,0" fill="#4c78a8" stroke-width="2"/><path transform="translate(1050,190)" d="M2.658,0A2.658,2.658,0,1,1,-2.658,0A2.658,2.658,0,1,1,2.658,0" fill="#4c78a8" stroke-width="2"/><path transform="translate(450,30)" d="M1.152,0A1.152,1.152,0,1,1,-1.152,0A1.152,1.152,0,1,1,1.152,0" fill="#4c78a8" stroke-width="2"/><path transform="translate(670,70)" d="M1.552,0A1.552,1.552,0,1,1,-1.552,0A1.552,1.552,0,1,1,1.552,0" fill="#4c78a8" stroke-width="2"/><path transform="translate(910,230)" d="M2.488,0A2.488,2.488,0,1,1,-2.488,0A2.488,2.488,0,1,1,2.488,0" fill="#4c78a8" stroke-width="2"/><path transform="translate(1010,50)" d="M1.223,0A1.223,1.223,0,1,1,-1.223,0A1.223,1.223,0,1,1,1.223,0" fill="#4c78a8" stroke-width="2"/><path transform="translate(570,170)" d="M3.259,0A3.259,3.259,0,1,1,-3.259,0A3.259,3.259,0,1,1,3.259,0" fill="#4c78a8" stroke-width="2"/><path transform="translate(50,250)" d="M3.234,0A3.234,3.234,0,1,1,-3.234,0A3.234,3.234,0,1,1,3.234,0" fill="#4c78a8" stroke-width="2"/><path transform="translate(850,230)" d="M4.077,0A4.077,4.077,0,1,1,-4.077,0A4.077,4.077,0,1,1,4.077,0" fill="#4c78a8" stroke-width="2"/><path transform="translate(770,210)" d="M4.503,0A4.503,4.503,0,1,1,-4.503,0A4.503,4.503,0,1,1,4.503,0" fill="#4c78a8" stroke-width="2"/><path transform="translate(890,170)" d="M1.173,0A1.173,1.173,0,1,1,-1.173,0A1.173,1.173,0,1,1,1.173,0" fill="#4c78a8" stroke-width="2"/><path transform="translate(410,130)" d="M1.586,0A1.586,1.586,0,1,1,-1.586,0A1.586,1.586,0,1,1,1.586,0" fill="#4c78a8" stroke-width="2"/><path transform="translate(370,210)" d="M5.664,0A5.664,5.664,0,1,1,-5.664,0A5.664,5.664,0,1,1,5.664,0" fill="#4c78a8" stroke-width="2"/><path transform="translate(310,210)" d="M3.571,0A3.571,3.571,0,1,1,-3.571,0A3.571,3.571,0,1,1,3.571,0" fill="#4c78a8" stroke-width="2"/><path transform="translate(150,230)" d="M8.019,0A8.019,8.019,0,1,1,-8.019,0A8.019,8.019,0,1,1,8.019,0" fill="#4c78a8" stroke-width="2"/><path transform="translate(270,50)" d="M3.119,0A3.119,3.119,0,1,1,-3.119,0A3.119,3.119,0,1,1,3.119,0" fill="#4c78a8" stroke-width="2"/><path transform="translate(430,150)" d="M1.092,0A1.092,1.092,0,1,1,-1.092,0A1.092,1.092,0,1,1,1.092,0" fill="#4c78a8" stroke-width="2"/><path transform="translate(590,170)" d="M1.707,0A1.707,1.707,0,1,1,-1.707,0A1.707,1.707,0,1,1,1.707,0" fill="#4c78a8" stroke-width="2"/><path transform="translate(450,150)" d="M1.618,0A1.618,1.618,0,1,1,-1.618,0A1.618,1.618,0,1,1,1.618,0" fill="#4c78a8" stroke-width="2"/><path transform="translate(1050,170)" d="M2.299,0A2.299,2.299,0,1,1,-2.299,0A2.299,2.299,0,1,1,2.299,0" fill="#4c78a8" stroke-width="2"/><path transform="translate(690,170)" d="M3.532,0A3.532,3.532,0,1,1,-3.532,0A3.532,3.532,0,1,1,3.532,0" fill="#4c78a8" stroke-width="2"/><path transform="translate(650,30)" d="M2.58,0A2.58,2.58,0,1,1,-2.58,0A2.58,2.58,0,1,1,2.58,0" fill="#4c78a8" stroke-width="2"/><path transform="translate(490,170)" d="M1.461,0A1.461,1.461,0,1,1,-1.461,0A1.461,1.461,0,1,1,1.461,0" fill="#4c78a8" stroke-width="2"/><path transform="translate(90,210)" d="M1.26,0A1.26,1.26,0,1,1,-1.26,0A1.26,1.26,0,1,1,1.26,0" fill="#4c78a8" stroke-width="2"/><path transform="translate(730,190)" d="M1.643,0A1.643,1.643,0,1,1,-1.643,0A1.643,1.643,0,1,1,1.643,0" fill="#4c78a8" stroke-width="2"/><path transform="translate(750,210)" d="M2.595,0A2.595,2.595,0,1,1,-2.595,0A2.595,2.595,0,1,1,2.595,0" fill="#4c78a8" stroke-width="2"/><path transform="translate(830,190)" d="M1.59,0A1.59,1.59,0,1,1,-1.59,0A1.59,1.59,0,1,1,1.59,0" fill="#4c78a8" stroke-width="2"/><path transform="translate(350,190)" d="M1.997,0A1.997,1.997,0,1,1,-1.997,0A1.997,1.997,0,1,1,1.997,0" fill="#4c78a8" stroke-width="2"/><path transform="translate(410,230)" d="M3.181,0A3.181,3.181,0,1,1,-3.181,0A3.181,3.181,0,1,1,3.181,0" fill="#4c78a8" stroke-width="2"/><path transform="translate(190,190)" d="M3.766,0A3.766,3.766,0,1,1,-3.766,0A3.766,3.766,0,1,1,3.766,0" fill="#4c78a8" stroke-width="2"/><path transform="translate(710,110)" d="M1.136,0A1.136,1.136,0,1,1,-1.136,0A1.136,1.136,0,1,1,1.136,0" fill="#4c78a8" stroke-width="2"/><path transform="translate(30,190)" d="M2.554,0A2.554,2.554,0,1,1,-2.554,0A2.554,2.554,0,1,1,2.554,0" fill="#4c78a8" stroke-width="2"/><path transform="translate(670,190)" d="M1.906,0A1.906,1.906,0,1,1,-1.906,0A1.906,1.906,0,1,1,1.906,0" fill="#4c78a8" stroke-width="2"/><path transform="translate(370,30)" d="M1.019,0A1.019,1.019,0,1,1,-1.019,0A1.019,1.019,0,1,1,1.019,0" fill="#4c78a8" stroke-width="2"/><path transform="translate(690,130)" d="M1.941,0A1.941,1.941,0,1,1,-1.941,0A1.941,1.941,0,1,1,1.941,0" fill="#4c78a8" stroke-width="2"/><path transform="translate(230,270)" d="M4.477,0A4.477,4.477,0,1,1,-4.477,0A4.477,4.477,0,1,1,4.477,0" fill="#4c78a8" stroke-width="2"/><path transform="translate(630,130)" d="M3.24,0A3.24,3.24,0,1,1,-3.24,0A3.24,3.24,0,1,1,3.24,0" fill="#4c78a8" stroke-width="2"/><path transform="translate(130,190)" d="M2.382,0A2.382,2.382,0,1,1,-2.382,0A2.382,2.382,0,1,1,2.382,0" fill="#4c78a8" stroke-width="2"/><path transform="translate(730,150)" d="M1.028,0A1.028,1.028,0,1,1,-1.028,0A1.028,1.028,0,1,1,1.028,0" fill="#4c78a8" stroke-width="2"/><path transform="translate(190,70)" d="M3.086,0A3.086,3.086,0,1,1,-3.086,0A3.086,3.086,0,1,1,3.086,0" fill="#4c78a8" stroke-width="2"/><path transform="translate(310,50)" d="M1.596,0A1.596,1.596,0,1,1,-1.596,0A1.596,1.596,0,1,1,1.596,0" fill="#4c78a8" stroke-width="2"/><path transform="translate(570,30)" d="M2.189,0A2.189,2.189,0,1,1,-2.189,0A2.189,2.189,0,1,1,2.189,0" fill="#4c78a8" stroke-width="2"/><path transform="translate(650,50)" d="M1.906,0A1.906,1.906,0,1,1,-1.906,0A1.906,1.906,0,1,1,1.906,0" fill="#4c78a8" stroke-width="2"/><path transform="translate(130,170)" d="M1.412,0A1.412,1.412,0,1,1,-1.412,0A1.412,1.412,0,1,1,1.412,0" fill="#4c78a8" stroke-width="2"/><path transform="translate(810,30)" d="M2.016,0A2.016,2.016,0,1,1,-2.016,0A2.016,2.016,0,1,1,2.016,0" fill="#4c78a8" stroke-width="2"/><path transform="translate(210,210)" d="M1.2,0A1.2,1.2,0,1,1,-1.2,0A1.2,1.2,0,1,1,1.2,0" fill="#4c78a8" stroke-width="2"/><path transform="translate(790,190)" d="M2.173,0A2.173,2.173,0,1,1,-2.173,0A2.173,2.173,0,1,1,2.173,0" fill="#4c78a8" stroke-width="2"/><path transform="translate(710,150)" d="M2.95,0A2.95,2.95,0,1,1,-2.95,0A2.95,2.95,0,1,1,2.95,0" fill="#4c78a8" stroke-width="2"/><path transform="translate(830,110)" d="M1.167,0A1.167,1.167,0,1,1,-1.167,0A1.167,1.167,0,1,1,1.167,0" fill="#4c78a8" stroke-width="2"/><path transform="translate(950,150)" d="M1.815,0A1.815,1.815,0,1,1,-1.815,0A1.815,1.815,0,1,1,1.815,0" fill="#4c78a8" stroke-width="2"/><path transform="translate(950,190)" d="M3.354,0A3.354,3.354,0,1,1,-3.354,0A3.354,3.354,0,1,1,3.354,0" fill="#4c78a8" stroke-width="2"/><path transform="translate(770,170)" d="M2.386,0A2.386,2.386,0,1,1,-2.386,0A2.386,2.386,0,1,1,2.386,0" fill="#4c78a8" stroke-width="2"/><path transform="translate(530,130)" d="M1.606,0A1.606,1.606,0,1,1,-1.606,0A1.606,1.606,0,1,1,1.606,0" fill="#4c78a8" stroke-width="2"/><path transform="translate(370,190)" d="M2.356,0A2.356,2.356,0,1,1,-2.356,0A2.356,2.356,0,1,1,2.356,0" fill="#4c78a8" stroke-width="2"/><path transform="translate(810,150)" d="M1.595,0A1.595,1.595,0,1,1,-1.595,0A1.595,1.595,0,1,1,1.595,0" fill="#4c78a8" stroke-width="2"/><path transform="translate(150,210)" d="M1.119,0A1.119,1.119,0,1,1,-1.119,0A1.119,1.119,0,1,1,1.119,0" fill="#4c78a8" stroke-width="2"/><path transform="translate(310,150)" d="M1.349,0A1.349,1.349,0,1,1,-1.349,0A1.349,1.349,0,1,1,1.349,0" fill="#4c78a8" stroke-width="2"/><path transform="translate(90,170)" d="M1.727,0A1.727,1.727,0,1,1,-1.727,0A1.727,1.727,0,1,1,1.727,0" fill="#4c78a8" stroke-width="2"/><path transform="translate(290,70)" d="M1.212,0A1.212,1.212,0,1,1,-1.212,0A1.212,1.212,0,1,1,1.212,0" fill="#4c78a8" stroke-width="2"/><path transform="translate(250,170)" d="M1.608,0A1.608,1.608,0,1,1,-1.608,0A1.608,1.608,0,1,1,1.608,0" fill="#4c78a8" stroke-width="2"/><path transform="translate(290,130)" d="M2.221,0A2.221,2.221,0,1,1,-2.221,0A2.221,2.221,0,1,1,2.221,0" fill="#4c78a8" stroke-width="2"/><path transform="translate(990,30)" d="M1.204,0A1.204,1.204,0,1,1,-1.204,0A1.204,1.204,0,1,1,1.204,0" fill="#4c78a8" stroke-width="2"/><path transform="translate(650,150)" d="M1.198,0A1.198,1.198,0,1,1,-1.198,0A1.198,1.198,0,1,1,1.198,0" fill="#4c78a8" stroke-width="2"/><path transform="translate(790,170)" d="M1.488,0A1.488,1.488,0,1,1,-1.488,0A1.488,1.488,0,1,1,1.488,0" fill="#4c78a8" stroke-width="2"/><path transform="translate(570,190)" d="M1.966,0A1.966,1.966,0,1,1,-1.966,0A1.966,1.966,0,1,1,1.966,0" fill="#4c78a8" stroke-width="2"/><path transform="translate(750,170)" d="M1.136,0A1.136,1.136,0,1,1,-1.136,0A1.136,1.136,0,1,1,1.136,0" fill="#4c78a8" stroke-width="2"/><path transform="translate(210,170)" d="M1.583,0A1.583,1.583,0,1,1,-1.583,0A1.583,1.583,0,1,1,1.583,0" fill="#4c78a8" stroke-width="2"/><path transform="translate(830,150)" d="M1.585,0A1.585,1.585,0,1,1,-1.585,0A1.585,1.585,0,1,1,1.585,0" fill="#4c78a8" stroke-width="2"/><path transform="translate(110,190)" d="M2.268,0A2.268,2.268,0,1,1,-2.268,0A2.268,2.268,0,1,1,2.268,0" fill="#4c78a8" stroke-width="2"/><path transform="translate(570,150)" d="M3.33,0A3.33,3.33,0,1,1,-3.33,0A3.33,3.33,0,1,1,3.33,0" fill="#4c78a8" stroke-width="2"/><path transform="translate(310,170)" d="M1.545,0A1.545,1.545,0,1,1,-1.545,0A1.545,1.545,0,1,1,1.545,0" fill="#4c78a8" stroke-width="2"/><path transform="translate(10,10)" d="M1.13,0A1.13,1.13,0,1,1,-1.13,0A1.13,1.13,0,1,1,1.13,0" fill="#4c78a8" stroke-width="2"/><path transform="translate(790,150)" d="M1.785,0A1.785,1.785,0,1,1,-1.785,0A1.785,1.785,0,1,1,1.785,0" fill="#4c78a8" stroke-width="2"/><path transform="translate(830,30)" d="M1.175,0A1.175,1.175,0,1,1,-1.175,0A1.175,1.175,0,1,1,1.175,0" fill="#4c78a8" stroke-width="2"/><path transform="translate(810,130)" d="M1.185,0A1.185,1.185,0,1,1,-1.185,0A1.185,1.185,0,1,1,1.185,0" fill="#4c78a8" stroke-width="2"/><path transform="translate(530,150)" d="M1.844,0A1.844,1.844,0,1,1,-1.844,0A1.844,1.844,0,1,1,1.844,0" fill="#4c78a8" stroke-width="2"/><path transform="translate(210,70)" d="M1.243,0A1.243,1.243,0,1,1,-1.243,0A1.243,1.243,0,1,1,1.243,0" fill="#4c78a8" stroke-width="2"/><path transform="translate(770,30)" d="M1.908,0A1.908,1.908,0,1,1,-1.908,0A1.908,1.908,0,1,1,1.908,0" fill="#4c78a8" stroke-width="2"/><path transform="translate(570,130)" d="M1.139,0A1.139,1.139,0,1,1,-1.139,0A1.139,1.139,0,1,1,1.139,0" fill="#4c78a8" stroke-width="2"/><path transform="translate(610,150)" d="M1.138,0A1.138,1.138,0,1,1,-1.138,0A1.138,1.138,0,1,1,1.138,0" fill="#4c78a8" stroke-width="2"/><path transform="translate(930,150)" d="M1.1,0A1.1,1.1,0,1,1,-1.1,0A1.1,1.1,0,1,1,1.1,0" fill="#4c78a8" stroke-width="2"/><path transform="translate(990,190)" d="M1.2,0A1.2,1.2,0,1,1,-1.2,0A1.2,1.2,0,1,1,1.2,0" fill="#4c78a8" stroke-width="2"/><path transform="translate(1050,230)" d="M2.452,0A2.452,2.452,0,1,1,-2.452,0A2.452,2.452,0,1,1,2.452,0" fill="#4c78a8" stroke-width="2"/><path transform="translate(590,150)" d="M1.252,0A1.252,1.252,0,1,1,-1.252,0A1.252,1.252,0,1,1,1.252,0" fill="#4c78a8" stroke-width="2"/><path transform="translate(310,130)" d="M1.108,0A1.108,1.108,0,1,1,-1.108,0A1.108,1.108,0,1,1,1.108,0" fill="#4c78a8" stroke-width="2"/><path transform="translate(270,30)" d="M1.662,0A1.662,1.662,0,1,1,-1.662,0A1.662,1.662,0,1,1,1.662,0" fill="#4c78a8" stroke-width="2"/><path transform="translate(250,130)" d="M1.596,0A1.596,1.596,0,1,1,-1.596,0A1.596,1.596,0,1,1,1.596,0" fill="#4c78a8" stroke-width="2"/><path transform="translate(650,130)" d="M1.298,0A1.298,1.298,0,1,1,-1.298,0A1.298,1.298,0,1,1,1.298,0" fill="#4c78a8" stroke-width="2"/><path transform="translate(50,170)" d="M1.412,0A1.412,1.412,0,1,1,-1.412,0A1.412,1.412,0,1,1,1.412,0" fill="#4c78a8" stroke-width="2"/><path transform="translate(370,170)" d="M3.969,0A3.969,3.969,0,1,1,-3.969,0A3.969,3.969,0,1,1,3.969,0" fill="#4c78a8" stroke-width="2"/><path transform="translate(730,170)" d="M1.363,0A1.363,1.363,0,1,1,-1.363,0A1.363,1.363,0,1,1,1.363,0" fill="#4c78a8" stroke-width="2"/><path transform="translate(330,170)" d="M1.813,0A1.813,1.813,0,1,1,-1.813,0A1.813,1.813,0,1,1,1.813,0" fill="#4c78a8" stroke-width="2"/><path transform="translate(330,190)" d="M1.112,0A1.112,1.112,0,1,1,-1.112,0A1.112,1.112,0,1,1,1.112,0" fill="#4c78a8" stroke-width="2"/><path transform="translate(250,110)" d="M1.286,0A1.286,1.286,0,1,1,-1.286,0A1.286,1.286,0,1,1,1.286,0" fill="#4c78a8" stroke-width="2"/><path transform="translate(230,170)" d="M1.723,0A1.723,1.723,0,1,1,-1.723,0A1.723,1.723,0,1,1,1.723,0" fill="#4c78a8" stroke-width="2"/><path transform="translate(710,50)" d="M1.199,0A1.199,1.199,0,1,1,-1.199,0A1.199,1.199,0,1,1,1.199,0" fill="#4c78a8" stroke-width="2"/><path transform="translate(170,170)" d="M1.102,0A1.102,1.102,0,1,1,-1.102,0A1.102,1.102,0,1,1,1.102,0" fill="#4c78a8" stroke-width="2"/><path transform="translate(470,30)" d="M2.464,0A2.464,2.464,0,1,1,-2.464,0A2.464,2.464,0,1,1,2.464,0" fill="#4c78a8" stroke-width="2"/><path transform="translate(850,150)" d="M1.376,0A1.376,1.376,0,1,1,-1.376,0A1.376,1.376,0,1,1,1.376,0" fill="#4c78a8" stroke-width="2"/><path transform="translate(170,50)" d="M1.226,0A1.226,1.226,0,1,1,-1.226,0A1.226,1.226,0,1,1,1.226,0" fill="#4c78a8" stroke-width="2"/><path transform="translate(90,50)" d="M1.188,0A1.188,1.188,0,1,1,-1.188,0A1.188,1.188,0,1,1,1.188,0" fill="#4c78a8" stroke-width="2"/><path transform="translate(750,70)" d="M1.583,0A1.583,1.583,0,1,1,-1.583,0A1.583,1.583,0,1,1,1.583,0" fill="#4c78a8" stroke-width="2"/><path transform="translate(590,130)" d="M1.581,0A1.581,1.581,0,1,1,-1.581,0A1.581,1.581,0,1,1,1.581,0" fill="#4c78a8" stroke-width="2"/><path transform="translate(510,150)" d="M1.136,0A1.136,1.136,0,1,1,-1.136,0A1.136,1.136,0,1,1,1.136,0" fill="#4c78a8" stroke-width="2"/><path transform="translate(470,70)" d="M1.261,0A1.261,1.261,0,1,1,-1.261,0A1.261,1.261,0,1,1,1.261,0" fill="#4c78a8" stroke-width="2"/><path transform="translate(550,30)" d="M1.485,0A1.485,1.485,0,1,1,-1.485,0A1.485,1.485,0,1,1,1.485,0" fill="#4c78a8" stroke-width="2"/><path transform="translate(430,30)" d="M1.074,0A1.074,1.074,0,1,1,-1.074,0A1.074,1.074,0,1,1,1.074,0" fill="#4c78a8" stroke-width="2"/><path transform="translate(170,110)" d="M1.084,0A1.084,1.084,0,1,1,-1.084,0A1.084,1.084,0,1,1,1.084,0" fill="#4c78a8" stroke-width="2"/><path transform="translate(650,70)" d="M1.073,0A1.073,1.073,0,1,1,-1.073,0A1.073,1.073,0,1,1,1.073,0" fill="#4c78a8" stroke-width="2"/><path transform="translate(270,130)" d="M1.076,0A1.076,1.076,0,1,1,-1.076,0A1.076,1.076,0,1,1,1.076,0" fill="#4c78a8" stroke-width="2"/><path transform="translate(550,150)" d="M1.119,0A1.119,1.119,0,1,1,-1.119,0A1.119,1.119,0,1,1,1.119,0" fill="#4c78a8" stroke-width="2"/></g><g class="mark-group role-legend" role="graphics-symbol" aria-roledescription="legend" aria-label="Symbol legend titled 'Total distance / km' for size with values from 0 to 429"><g transform="translate(1098,0)"><path class="background" aria-hidden="true" d="M0,0h105v106h-105Z" pointer-events="none"/><g><g class="mark-group role-legend-entry"><g transform="translate(0,16)"><path class="background" aria-hidden="true" d="M0,0h0v0h0Z" pointer-events="none"/><g><g class="mark-group role-scope" role="graphics-object" aria-roledescription="group mark container"><g transform="translate(0,0)"><path class="background" aria-hidden="true" d="M0,0h41.20000076293945v10h-41.20000076293945Z" pointer-events="none" opacity="1"/><g><g class="mark-symbol role-legend-symbol" pointer-events="none"><path transform="translate(10,5)" d="M1,0A1,1,0,1,1,-1,0A1,1,0,1,1,1,0" fill="#4c78a8" stroke-width="1.5" opacity="1"/></g><g class="mark-text role-legend-label" pointer-events="none"><text text-anchor="start" transform="translate(24,8)" font-family="sans-serif" font-size="10px" fill="#000" opacity="1">0</text></g></g><path class="foreground" aria-hidden="true" d="" pointer-events="none" display="none"/></g><g transform="translate(0,13)"><path class="background" aria-hidden="true" d="M0,0h41.20000076293945v11.671967420726912h-41.20000076293945Z" pointer-events="none" opacity="1"/><g><g class="mark-symbol role-legend-symbol" pointer-events="none"><path transform="translate(10,5.5)" d="M4.672,0A4.672,4.672,0,1,1,-4.672,0A4.672,4.672,0,1,1,4.672,0" fill="#4c78a8" stroke-width="1.5" opacity="1"/></g><g class="mark-text role-legend-label" pointer-events="none"><text text-anchor="start" transform="translate(24,8.5)" font-family="sans-serif" font-size="10px" fill="#000" opacity="1">100</text></g></g><path class="foreground" aria-hidden="true" d="" pointer-events="none" display="none"/></g><g transform="translate(0,28)"><path class="background" aria-hidden="true" d="M0,0h41.20000076293945v15.53104579379653h-41.20000076293945Z" pointer-events="none" opacity="1"/><g><g class="mark-symbol role-legend-symbol" pointer-events="none"><path transform="translate(10,7.5)" d="M6.531,0A6.531,6.531,0,1,1,-6.531,0A6.531,6.531,0,1,1,6.531,0" fill="#4c78a8" stroke-width="1.5" opacity="1"/></g><g class="mark-text role-legend-label" pointer-events="none"><text text-anchor="start" transform="translate(24,10.5)" font-family="sans-serif" font-size="10px" fill="#000" opacity="1">200</text></g></g><path class="foreground" aria-hidden="true" d="" pointer-events="none" display="none"/></g><g transform="translate(0,47)"><path class="background" aria-hidden="true" d="M0,0h41.20000076293945v18.467549105026023h-41.20000076293945Z" pointer-events="none" opacity="1"/><g><g class="mark-symbol role-legend-symbol" pointer-events="none"><path transform="translate(10,9)" d="M7.968,0A7.968,7.968,0,1,1,-7.968,0A7.968,7.968,0,1,1,7.968,0" fill="#4c78a8" stroke-width="1.5" opacity="1"/></g><g class="mark-text role-legend-label" pointer-events="none"><text text-anchor="start" transform="translate(24,12)" font-family="sans-serif" font-size="10px" fill="#000" opacity="1">300</text></g></g><path class="foreground" aria-hidden="true" d="" pointer-events="none" display="none"/></g><g transform="translate(0,69)"><path class="background" aria-hidden="true" d="M0,0h41.20000076293945v20.681999690771875h-41.20000076293945Z" pointer-events="none" opacity="1"/><g><g class="mark-symbol role-legend-symbol" pointer-events="none"><path transform="translate(10,10)" d="M9.182,0A9.182,9.182,0,1,1,-9.182,0A9.182,9.182,0,1,1,9.182,0" fill="#4c78a8" stroke-width="1.5" opacity="1"/></g><g class="mark-text role-legend-label" pointer-events="none"><text text-anchor="start" transform="translate(24,13)" font-family="sans-serif" font-size="10px" fill="#000" opacity="1">400</text></g></g><path class="foreground" aria-hidden="true" d="" pointer-events="none" display="none"/></g></g></g><path class="foreground" aria-hidden="true" d="" pointer-events="none" display="none"/></g></g><g class="mark-text role-legend-title" pointer-events="none"><text text-anchor="start" transform="translate(0,9)" font-family="sans-serif" font-size="11px" font-weight="bold" fill="#000" opacity="1">Total distance / km</text></g></g><path class="foreground" aria-hidden="true" d="" pointer-events="none" display="none"/></g></g></g><path class="foreground" aria-hidden="true" d="" display="none"/></g></g></g></svg>