<svg xmlns="http://www.w3.org/2000/svg" xmlns:xlink="http://www.w3.org/1999/xlink" version="1.1" class="marks" width="1201" height="184" viewBox="0 0 1201 184"><rect width="1201" height="184" fill="white"/><g fill="none" stroke-miterlimit="10" transform="translate(33,5)"><g class="mark-group role-frame root" role="graphics-object" aria-roledescription="group mark container"><g transform="translate(0,0)"><path class="background" aria-hidden="true" d="M0.5,0.5h1040v140h-1040Z" stroke="#ddd"/><g><g class="mark-rect role-mark marks" role="graphics-symbol" aria-roledescription="rect mark container"><path d="M400,60h20v20h-20Z" fill="rgb(194, 231, 181)"/><path d="M460,0h20v20h-20Z" fill="rgb(213, 239, 180)"/><path d="M920,80h20v20h-20Z" fill="rgb(233, 247, 186)"/><path d="M340,80h20v20h-20Z" fill="rgb(224, 243, 182)"/><path d="M280,80h20v20h-20Z" fill="rgb(207, 236, 180)"/><path d="M780,0h20v20h-20Z" fill="rgb(221, 242, 181)"/><path d="M520,20h20v20h-20Z" fill="rgb(205, 235, 180)"/><path d="M600,120h20v20h-20Z" fill="rgb(218, 240, 180)"/><path d="M100,100h20v20h-20Z" fill="rgb(201, 234, 181)"/><path d="M960,100h20v20h-20Z" fill="rgb(223, 243, 182)"/><path d="M900,80h20v20h-20Z" fill="rgb(213, 239, 180)"/><path d="M760,20h20v20h-20Z" fill="rgb(96, 193, 191)"/><path d="M480,20h20v20h-20Z" fill="rgb(210, 237, 180)"/><path d="M200,40h20v20h-20Z" fill="rgb(192, 230, 181)"/><path d="M820,0h20v20h-20Z" fill="rgb(193, 231, 181)"/><path d="M340,60h20v20h-20Z" fill="rgb(181, 226, 182)"/><path d="M440,120h20v20h-20Z" fill="rgb(210, 237, 180)"/><path d="M920,120h20v20h-20Z" fill="rgb(195, 232, 181)"/><path d="M60,0h20v20h-20Z" fill="rgb(222, 242, 181)"/><path d="M720,0h20v20h-20Z" fill="rgb(176, 224, 182)"/><path d="M1020,20h20v20h-20Z" fill="rgb(229, 245, 185)"/><path d="M1020,60h20v20h-20Z" fill="rgb(189, 229, 181)"/><path d="M520,60h20v20h-20Z" fill="rgb(116, 201, 189)"/><path d="M400,20h20v20h-20Z" fill="rgb(143, 211, 186)"/><path d="M580,40h20v20h-20Z" fill="rgb(211, 238, 180)"/><path d="M660,0h20v20h-20Z" fill="rgb(175, 223, 182)"/><path d="M940,60h20v20h-20Z" fill="rgb(149, 214, 185)"/><path d="M20,60h20v20h-20Z" fill="rgb(224, 243, 182)"/><path d="M220,60h20v20h-20Z" fill="rgb(126, 205, 188)"/><path d="M880,20h20v20h-20Z" fill="rgb(235, 247, 187)"/><path d="M660,100h20v20h-20Z" fill="rgb(188, 228, 181)"/><path d="M740,20h20v20h-20Z" fill="rgb(154, 215, 184)"/><path d="M160,120h20v20h-20Z" fill="rgb(143, 211, 186)"/><path d="M640,60h20v20h-20Z" fill="rgb(217, 240, 180)"/><path d="M480,60h20v20h-20Z" fill="rgb(191, 230, 181)"/><path d="M60,60h20v20h-20Z" fill="rgb(230, 245, 185)"/><path d="M820,100h20v20h-20Z" fill="rgb(224, 243, 182)"/><path d="M100,80h20v20h-20Z" fill="rgb(210, 237, 180)"/><path d="M60,40h20v20h-20Z" fill="rgb(227, 244, 184)"/><path d="M600,40h20v20h-20Z" fill="rgb(222, 242, 181)"/><path d="M620,60h20v20h-20Z" fill="rgb(231, 246, 185)"/><path d="M440,20h20v20h-20Z" fill="rgb(229, 245, 185)"/><path d="M460,20h20v20h-20Z" fill="rgb(225, 244, 183)"/><path d="M940,20h20v20h-20Z" fill="rgb(91, 190, 192)"/><path d="M280,100h20v20h-20Z" fill="rgb(224, 243, 182)"/><path d="M280,20h20v20h-20Z" fill="rgb(228, 245, 184)"/><path d="M920,20h20v20h-20Z" fill="rgb(211, 238, 180)"/><path d="M640,100h20v20h-20Z" fill="rgb(30, 56, 140)"/><path d="M360,60h20v20h-20Z" fill="rgb(221, 242, 181)"/><path d="M220,100h20v20h-20Z" fill="rgb(180, 225, 182)"/><path d="M720,20h20v20h-20Z" fill="rgb(232, 246, 186)"/><path d="M500,0h20v20h-20Z" fill="rgb(227, 244, 184)"/><path d="M600,80h20v20h-20Z" fill="rgb(224, 243, 182)"/><path d="M60,120h20v20h-20Z" fill="rgb(58, 170, 193)"/><path d="M880,120h20v20h-20Z" fill="rgb(188, 229, 181)"/><path d="M840,0h20v20h-20Z" fill="rgb(232, 246, 186)"/><path d="M560,80h20v20h-20Z" fill="rgb(135, 208, 186)"/><path d="M120,0h20v20h-20Z" fill="rgb(220, 241, 180)"/><path d="M400,40h20v20h-20Z" fill="rgb(166, 220, 183)"/><path d="M620,100h20v20h-20Z" fill="rgb(221, 242, 181)"/><path d="M580,0h20v20h-20Z" fill="rgb(238, 249, 189)"/><path d="M820,60h20v20h-20Z" fill="rgb(226, 244, 183)"/><path d="M900,20h20v20h-20Z" fill="rgb(236, 248, 187)"/><path d="M480,0h20v20h-20Z" fill="rgb(234, 247, 187)"/><path d="M280,0h20v20h-20Z" fill="rgb(216, 240, 180)"/><path d="M440,80h20v20h-20Z" fill="rgb(230, 245, 185)"/><path d="M460,100h20v20h-20Z" fill="rgb(213, 239, 180)"/><path d="M620,20h20v20h-20Z" fill="rgb(35, 77, 159)"/><path d="M360,40h20v20h-20Z" fill="rgb(225, 244, 183)"/><path d="M380,120h20v20h-20Z" fill="rgb(224, 243, 182)"/><path d="M800,20h20v20h-20Z" fill="rgb(200, 233, 181)"/><path d="M80,60h20v20h-20Z" fill="rgb(226, 244, 183)"/><path d="M120,20h20v20h-20Z" fill="rgb(38, 144, 188)"/><path d="M380,20h20v20h-20Z" fill="rgb(215, 240, 180)"/><path d="M720,100h20v20h-20Z" fill="rgb(118, 202, 189)"/><path d="M380,60h20v20h-20Z" fill="rgb(216, 240, 180)"/><path d="M860,100h20v20h-20Z" fill="rgb(28, 49, 133)"/><path d="M180,40h20v20h-20Z" fill="rgb(200, 234, 181)"/><path d="M620,120h20v20h-20Z" fill="rgb(189, 229, 181)"/><path d="M340,40h20v20h-20Z" fill="rgb(223, 243, 182)"/><path d="M140,80h20v20h-20Z" fill="rgb(219, 241, 180)"/><path d="M140,120h20v20h-20Z" fill="rgb(231, 246, 185)"/><path d="M540,120h20v20h-20Z" fill="rgb(212, 238, 180)"/><path d="M860,0h20v20h-20Z" fill="rgb(223, 242, 182)"/><path d="M480,120h20v20h-20Z" fill="rgb(232, 246, 186)"/><path d="M460,60h20v20h-20Z" fill="rgb(231, 246, 185)"/><path d="M1000,80h20v20h-20Z" fill="rgb(196, 232, 181)"/><path d="M660,20h20v20h-20Z" fill="rgb(226, 244, 183)"/><path d="M560,100h20v20h-20Z" fill="rgb(226, 244, 183)"/><path d="M740,40h20v20h-20Z" fill="rgb(228, 245, 184)"/><path d="M240,0h20v20h-20Z" fill="rgb(234, 247, 187)"/><path d="M700,80h20v20h-20Z" fill="rgb(219, 241, 180)"/><path d="M920,40h20v20h-20Z" fill="rgb(229, 245, 185)"/><path d="M780,100h20v20h-20Z" fill="rgb(197, 232, 181)"/><path d="M860,20h20v20h-20Z" fill="rgb(232, 246, 186)"/><path d="M620,0h20v20h-20Z" fill="rgb(220, 241, 180)"/><path d="M940,40h20v20h-20Z" fill="rgb(132, 207, 187)"/><path d="M500,80h20v20h-20Z" fill="rgb(231, 246, 186)"/><path d="M980,60h20v20h-20Z" fill="rgb(228, 245, 184)"/><path d="M680,60h20v20h-20Z" fill="rgb(235, 247, 187)"/><path d="M640,80h20v20h-20Z" fill="rgb(177, 224, 182)"/><path d="M500,120h20v20h-20Z" fill="rgb(226, 244, 183)"/><path d="M400,100h20v20h-20Z" fill="rgb(223, 243, 182)"/><path d="M240,20h20v20h-20Z" fill="rgb(231, 246, 185)"/><path d="M420,0h20v20h-20Z" fill="rgb(235, 248, 187)"/><path d="M360,100h20v20h-20Z" fill="rgb(227, 244, 184)"/><path d="M800,100h20v20h-20Z" fill="rgb(162, 218, 184)"/><path d="M520,80h20v20h-20Z" fill="rgb(224, 243, 182)"/><path d="M80,100h20v20h-20Z" fill="rgb(225, 243, 183)"/><path d="M1020,80h20v20h-20Z" fill="rgb(228, 245, 184)"/><path d="M120,120h20v20h-20Z" fill="rgb(229, 245, 185)"/><path d="M700,0h20v20h-20Z" fill="rgb(175, 224, 182)"/><path d="M720,80h20v20h-20Z" fill="rgb(212, 238, 180)"/><path d="M700,20h20v20h-20Z" fill="rgb(185, 227, 181)"/><path d="M60,20h20v20h-20Z" fill="rgb(232, 246, 186)"/><path d="M500,60h20v20h-20Z" fill="rgb(152, 214, 185)"/><path d="M840,80h20v20h-20Z" fill="rgb(213, 239, 180)"/><path d="M740,80h20v20h-20Z" fill="rgb(201, 234, 181)"/><path d="M20,120h20v20h-20Z" fill="rgb(233, 247, 186)"/><path d="M320,120h20v20h-20Z" fill="rgb(229, 245, 185)"/><path d="M0,20h20v20h-20Z" fill="rgb(233, 247, 187)"/><path d="M340,120h20v20h-20Z" fill="rgb(231, 246, 186)"/><path d="M280,40h20v20h-20Z" fill="rgb(225, 243, 183)"/><path d="M840,100h20v20h-20Z" fill="rgb(226, 244, 183)"/><path d="M320,80h20v20h-20Z" fill="rgb(225, 243, 183)"/><path d="M0,0h20v20h-20Z" fill="rgb(226, 244, 183)"/><path d="M540,60h20v20h-20Z" fill="rgb(229, 245, 185)"/><path d="M620,40h20v20h-20Z" fill="rgb(177, 224, 182)"/><path d="M720,60h20v20h-20Z" fill="rgb(206, 236, 180)"/><path d="M1000,120h20v20h-20Z" fill="rgb(167, 221, 183)"/><path d="M40,120h20v20h-20Z" fill="rgb(232, 246, 186)"/><path d="M900,0h20v20h-20Z" fill="rgb(223, 243, 182)"/><path d="M1020,0h20v20h-20Z" fill="rgb(238, 248, 188)"/><path d="M200,20h20v20h-20Z" fill="rgb(230, 245, 185)"/><path d="M40,100h20v20h-20Z" fill="rgb(224, 243, 182)"/><path d="M740,60h20v20h-20Z" fill="rgb(235, 247, 187)"/><path d="M320,100h20v20h-20Z" fill="rgb(175, 224, 182)"/><path d="M540,40h20v20h-20Z" fill="rgb(215, 239, 180)"/><path d="M680,20h20v20h-20Z" fill="rgb(206, 236, 180)"/><path d="M180,0h20v20h-20Z" fill="rgb(221, 242, 181)"/><path d="M160,60h20v20h-20Z" fill="rgb(226, 244, 183)"/><path d="M420,120h20v20h-20Z" fill="rgb(235, 247, 187)"/><path d="M560,40h20v20h-20Z" fill="rgb(218, 241, 180)"/><path d="M660,80h20v20h-20Z" fill="rgb(236, 248, 188)"/><path d="M960,0h20v20h-20Z" fill="rgb(232, 246, 186)"/><path d="M660,60h20v20h-20Z" fill="rgb(222, 242, 181)"/><path d="M680,100h20v20h-20Z" fill="rgb(165, 220, 183)"/><path d="M140,60h20v20h-20Z" fill="rgb(227, 244, 184)"/><path d="M60,100h20v20h-20Z" fill="rgb(233, 247, 186)"/><path d="M780,120h20v20h-20Z" fill="rgb(129, 206, 187)"/><path d="M980,0h20v20h-20Z" fill="rgb(234, 247, 187)"/><path d="M760,60h20v20h-20Z" fill="rgb(228, 245, 184)"/><path d="M780,80h20v20h-20Z" fill="rgb(216, 240, 180)"/><path d="M320,40h20v20h-20Z" fill="rgb(136, 209, 186)"/><path d="M520,120h20v20h-20Z" fill="rgb(173, 223, 183)"/><path d="M880,0h20v20h-20Z" fill="rgb(238, 248, 188)"/><path d="M480,80h20v20h-20Z" fill="rgb(230, 245, 185)"/><path d="M440,0h20v20h-20Z" fill="rgb(221, 242, 181)"/><path d="M980,120h20v20h-20Z" fill="rgb(191, 230, 181)"/><path d="M820,80h20v20h-20Z" fill="rgb(226, 244, 183)"/><path d="M340,20h20v20h-20Z" fill="rgb(234, 247, 187)"/><path d="M540,0h20v20h-20Z" fill="rgb(235, 247, 187)"/><path d="M540,100h20v20h-20Z" fill="rgb(220, 242, 181)"/><path d="M600,100h20v20h-20Z" fill="rgb(86, 188, 192)"/><path d="M500,20h20v20h-20Z" fill="rgb(235, 247, 187)"/><path d="M760,0h20v20h-20Z" fill="rgb(230, 245, 185)"/><path d="M300,80h20v20h-20Z" fill="rgb(235, 247, 187)"/><path d="M520,0h20v20h-20Z" fill="rgb(232, 246, 186)"/><path d="M320,20h20v20h-20Z" fill="rgb(128, 206, 187)"/><path d="M600,20h20v20h-20Z" fill="rgb(215, 239, 180)"/><path d="M800,40h20v20h-20Z" fill="rgb(233, 246, 186)"/><path d="M100,0h20v20h-20Z" fill="rgb(224, 243, 182)"/><path d="M700,60h20v20h-20Z" fill="rgb(202, 234, 181)"/><path d="M480,40h20v20h-20Z" fill="rgb(234, 247, 187)"/><path d="M360,20h20v20h-20Z" fill="rgb(176, 224, 182)"/><path d="M120,40h20v20h-20Z" fill="rgb(233, 247, 186)"/><path d="M180,60h20v20h-20Z" fill="rgb(221, 242, 181)"/><path d="M180,100h20v20h-20Z" fill="rgb(33, 99, 170)"/><path d="M980,100h20v20h-20Z" fill="rgb(209, 237, 180)"/><path d="M220,80h20v20h-20Z" fill="rgb(237, 248, 188)"/><path d="M860,120h20v20h-20Z" fill="rgb(224, 243, 182)"/><path d="M220,20h20v20h-20Z" fill="rgb(237, 248, 188)"/><path d="M560,120h20v20h-20Z" fill="rgb(197, 232, 181)"/><path d="M800,120h20v20h-20Z" fill="rgb(33, 131, 184)"/><path d="M560,60h20v20h-20Z" fill="rgb(237, 248, 188)"/><path d="M100,60h20v20h-20Z" fill="rgb(238, 249, 188)"/><path d="M800,0h20v20h-20Z" fill="rgb(233, 246, 186)"/><path d="M440,40h20v20h-20Z" fill="rgb(235, 248, 187)"/><path d="M960,20h20v20h-20Z" fill="rgb(231, 246, 185)"/><path d="M840,120h20v20h-20Z" fill="rgb(223, 243, 182)"/><path d="M500,40h20v20h-20Z" fill="rgb(220, 242, 181)"/><path d="M680,0h20v20h-20Z" fill="rgb(238, 249, 188)"/><path d="M360,80h20v20h-20Z" fill="rgb(203, 234, 181)"/><path d="M840,40h20v20h-20Z" fill="rgb(222, 242, 181)"/><path d="M860,60h20v20h-20Z" fill="rgb(172, 222, 183)"/><path d="M280,60h20v20h-20Z" fill="rgb(33, 126, 182)"/><path d="M440,60h20v20h-20Z" fill="rgb(230, 246, 185)"/><path d="M760,40h20v20h-20Z" fill="rgb(219, 241, 180)"/><path d="M540,20h20v20h-20Z" fill="rgb(237, 248, 188)"/><path d="M200,60h20v20h-20Z" fill="rgb(231, 246, 186)"/><path d="M120,100h20v20h-20Z" fill="rgb(230, 245, 185)"/><path d="M240,40h20v20h-20Z" fill="rgb(211, 238, 180)"/><path d="M900,100h20v20h-20Z" fill="rgb(229, 245, 184)"/><path d="M100,40h20v20h-20Z" fill="rgb(235, 248, 187)"/><path d="M740,100h20v20h-20Z" fill="rgb(230, 245, 185)"/><path d="M980,80h20v20h-20Z" fill="rgb(238, 249, 189)"/><path d="M300,60h20v20h-20Z" fill="rgb(221, 242, 181)"/><path d="M380,80h20v20h-20Z" fill="rgb(132, 207, 187)"/><path d="M600,0h20v20h-20Z" fill="rgb(223, 243, 182)"/><path d="M940,80h20v20h-20Z" fill="rgb(230, 246, 185)"/><path d="M860,80h20v20h-20Z" fill="rgb(237, 248, 188)"/><path d="M80,120h20v20h-20Z" fill="rgb(216, 240, 180)"/><path d="M60,80h20v20h-20Z" fill="rgb(233, 247, 186)"/><path d="M640,40h20v20h-20Z" fill="rgb(236, 248, 187)"/><path d="M900,120h20v20h-20Z" fill="rgb(224, 243, 182)"/><path d="M40,20h20v20h-20Z" fill="rgb(239, 249, 189)"/><path d="M260,120h20v20h-20Z" fill="rgb(231, 246, 186)"/><path d="M940,100h20v20h-20Z" fill="rgb(230, 245, 185)"/><path d="M800,80h20v20h-20Z" fill="rgb(211, 238, 180)"/><path d="M660,120h20v20h-20Z" fill="rgb(238, 248, 188)"/><path d="M480,100h20v20h-20Z" fill="rgb(236, 248, 188)"/><path d="M260,100h20v20h-20Z" fill="rgb(218, 241, 180)"/><path d="M940,120h20v20h-20Z" fill="rgb(235, 247, 187)"/><path d="M980,40h20v20h-20Z" fill="rgb(238, 249, 188)"/><path d="M600,60h20v20h-20Z" fill="rgb(237, 248, 188)"/><path d="M580,80h20v20h-20Z" fill="rgb(224, 243, 182)"/><path d="M300,0h20v20h-20Z" fill="rgb(238, 249, 189)"/><path d="M500,100h20v20h-20Z" fill="rgb(209, 237, 180)"/><path d="M1020,100h20v20h-20Z" fill="rgb(238, 249, 189)"/><path d="M300,100h20v20h-20Z" fill="rgb(237, 248, 188)"/><path d="M200,120h20v20h-20Z" fill="rgb(226, 244, 183)"/><path d="M860,40h20v20h-20Z" fill="rgb(237, 248, 188)"/><path d="M120,60h20v20h-20Z" fill="rgb(235, 247, 187)"/><path d="M280,120h20v20h-20Z" fill="rgb(219, 241, 180)"/><path d="M20,40h20v20h-20Z" fill="rgb(233, 247, 186)"/><path d="M440,100h20v20h-20Z" fill="rgb(235, 247, 187)"/><path d="M40,0h20v20h-20Z" fill="rgb(229, 245, 184)"/><path d="M520,100h20v20h-20Z" fill="rgb(230, 246, 185)"/><path d="M800,60h20v20h-20Z" fill="rgb(33, 106, 173)"/><path d="M780,20h20v20h-20Z" fill="rgb(234, 247, 187)"/><path d="M140,0h20v20h-20Z" fill="rgb(236, 248, 187)"/><path d="M920,100h20v20h-20Z" fill="rgb(233, 247, 186)"/><path d="M720,40h20v20h-20Z" fill="rgb(188, 228, 181)"/><path d="M720,120h20v20h-20Z" fill="rgb(236, 248, 188)"/><path d="M760,100h20v20h-20Z" fill="rgb(206, 236, 180)"/><path d="M40,60h20v20h-20Z" fill="rgb(231, 246, 185)"/><path d="M240,60h20v20h-20Z" fill="rgb(238, 249, 189)"/><path d="M160,20h20v20h-20Z" fill="rgb(235, 248, 187)"/><path d="M700,120h20v20h-20Z" fill="rgb(227, 244, 184)"/><path d="M640,120h20v20h-20Z" fill="rgb(194, 231, 181)"/><path d="M340,100h20v20h-20Z" fill="rgb(235, 248, 187)"/><path d="M80,80h20v20h-20Z" fill="rgb(227, 244, 183)"/><path d="M260,80h20v20h-20Z" fill="rgb(234, 247, 187)"/><path d="M400,0h20v20h-20Z" fill="rgb(238, 249, 188)"/><path d="M220,0h20v20h-20Z" fill="rgb(233, 247, 186)"/><path d="M380,0h20v20h-20Z" fill="rgb(233, 247, 186)"/><path d="M740,0h20v20h-20Z" fill="rgb(227, 244, 184)"/><path d="M580,120h20v20h-20Z" fill="rgb(231, 246, 185)"/><path d="M560,0h20v20h-20Z" fill="rgb(238, 248, 188)"/><path d="M760,80h20v20h-20Z" fill="rgb(221, 242, 181)"/><path d="M840,20h20v20h-20Z" fill="rgb(222, 242, 181)"/><path d="M580,60h20v20h-20Z" fill="rgb(231, 246, 186)"/><path d="M780,40h20v20h-20Z" fill="rgb(237, 248, 188)"/><path d="M740,120h20v20h-20Z" fill="rgb(236, 248, 188)"/><path d="M620,80h20v20h-20Z" fill="rgb(239, 249, 189)"/><path d="M820,120h20v20h-20Z" fill="rgb(237, 248, 188)"/><path d="M0,80h20v20h-20Z" fill="rgb(236, 248, 188)"/><path d="M240,120h20v20h-20Z" fill="rgb(239, 249, 189)"/><path d="M200,0h20v20h-20Z" fill="rgb(238, 249, 189)"/><path d="M1000,20h20v20h-20Z" fill="rgb(237, 248, 188)"/><path d="M420,80h20v20h-20Z" fill="rgb(235, 247, 187)"/><path d="M900,60h20v20h-20Z" fill="rgb(236, 248, 187)"/><path d="M820,40h20v20h-20Z" fill="rgb(238, 249, 189)"/><path d="M20,0h20v20h-20Z" fill="rgb(233, 247, 186)"/><path d="M340,0h20v20h-20Z" fill="rgb(232, 246, 186)"/><path d="M160,80h20v20h-20Z" fill="rgb(238, 249, 188)"/><path d="M1000,60h20v20h-20Z" fill="rgb(237, 248, 188)"/><path d="M420,60h20v20h-20Z" fill="rgb(225, 243, 183)"/><path d="M1000,0h20v20h-20Z" fill="rgb(230, 245, 185)"/><path d="M880,100h20v20h-20Z" fill="rgb(209, 237, 180)"/><path d="M180,80h20v20h-20Z" fill="rgb(237, 248, 188)"/><path d="M20,20h20v20h-20Z" fill="rgb(173, 223, 183)"/><path d="M580,100h20v20h-20Z" fill="rgb(237, 248, 188)"/><path d="M660,40h20v20h-20Z" fill="rgb(236, 248, 187)"/><path d="M960,40h20v20h-20Z" fill="rgb(238, 248, 188)"/><path d="M400,120h20v20h-20Z" fill="rgb(237, 248, 188)"/><path d="M540,80h20v20h-20Z" fill="rgb(238, 249, 189)"/><path d="M140,100h20v20h-20Z" fill="rgb(230, 246, 185)"/><path d="M980,20h20v20h-20Z" fill="rgb(238, 249, 189)"/><path d="M260,40h20v20h-20Z" fill="rgb(237, 248, 188)"/><path d="M20,100h20v20h-20Z" fill="rgb(235, 247, 187)"/><path d="M80,20h20v20h-20Z" fill="rgb(231, 246, 185)"/><path d="M260,60h20v20h-20Z" fill="rgb(237, 248, 188)"/><path d="M680,120h20v20h-20Z" fill="rgb(236, 248, 188)"/><path d="M80,0h20v20h-20Z" fill="rgb(191, 230, 181)"/><path d="M1020,40h20v20h-20Z" fill="rgb(234, 247, 187)"/><path d="M680,40h20v20h-20Z" fill="rgb(138, 209, 186)"/><path d="M360,120h20v20h-20Z" fill="rgb(238, 249, 189)"/><path d="M240,80h20v20h-20Z" fill="rgb(233, 246, 186)"/><path d="M880,40h20v20h-20Z" fill="rgb(238, 249, 189)"/><path d="M700,100h20v20h-20Z" fill="rgb(239, 249, 189)"/><path d="M920,0h20v20h-20Z" fill="rgb(238, 249, 189)"/><path d="M960,120h20v20h-20Z" fill="rgb(229, 245, 184)"/><path d="M260,20h20v20h-20Z" fill="rgb(231, 246, 185)"/><path d="M640,0h20v20h-20Z" fill="rgb(193, 231, 181)"/><path d="M880,80h20v20h-20Z" fill="rgb(185, 227, 181)"/><path d="M560,20h20v20h-20Z" fill="rgb(235, 247, 187)"/><path d="M760,120h20v20h-20Z" fill="rgb(224, 243, 182)"/><path d="M300,20h20v20h-20Z" fill="rgb(222, 242, 181)"/><path d="M940,0h20v20h-20Z" fill="rgb(167, 220, 183)"/><path d="M360,0h20v20h-20Z" fill="rgb(237, 248, 188)"/><path d="M0,60h20v20h-20Z" fill="rgb(239, 249, 189)"/><path d="M180,20h20v20h-20Z" fill="rgb(217, 240, 180)"/><path d="M640,20h20v20h-20Z" fill="rgb(234, 247, 187)"/><path d="M320,0h20v20h-20Z" fill="rgb(237, 248, 188)"/><path d="M700,40h20v20h-20Z" fill="rgb(236, 248, 188)"/><path d="M420,40h20v20h-20Z" fill="rgb(235, 247, 187)"/><path d="M460,40h20v20h-20Z" fill="rgb(223, 243, 182)"/><path d="M1000,40h20v20h-20Z" fill="rgb(230, 246, 185)"/><path d="M220,120h20v20h-20Z" fill="rgb(230, 246, 185)"/><path d="M240,100h20v20h-20Z" fill="rgb(233, 246, 186)"/><path d="M200,80h20v20h-20Z" fill="rgb(237, 248, 188)"/><path d="M520,40h20v20h-20Z" fill="rgb(237, 248, 188)"/><path d="M200,100h20v20h-20Z" fill="rgb(237, 248, 188)"/><path d="M220,40h20v20h-20Z" fill="rgb(228, 245, 184)"/><path d="M100,120h20v20h-20Z" fill="rgb(237, 248, 188)"/><path d="M920,60h20v20h-20Z" fill="rgb(239, 249, 189)"/><path d="M420,100h20v20h-20Z" fill="rgb(233, 246, 186)"/><path d="M580,20h20v20h-20Z" fill="rgb(239, 249, 189)"/><path d="M0,40h20v20h-20Z" fill="rgb(231, 246, 185)"/><path d="M140,20h20v20h-20Z" fill="rgb(231, 246, 185)"/><path d="M460,80h20v20h-20Z" fill="rgb(236, 248, 188)"/><path d="M960,80h20v20h-20Z" fill="rgb(239, 249, 189)"/><path d="M40,80h20v20h-20Z" fill="rgb(238, 249, 188)"/><path d="M680,80h20v20h-20Z" fill="rgb(239, 249, 189)"/></g><g class="mark-group role-legend" role="graphics-symbol" aria-roledescription="legend" aria-label="Gradient legend titled 'Total distance / km' for fill color with values from 0 to 219"><g transform="translate(1058,0)"><path class="background" aria-hidden="true" d="M0,0h105v156h-105Z" pointer-events="none"/><g><g class="mark-group role-legend-entry"><g transform="translate(0,16)"><path class="background" aria-hidden="true" d="M0,0h0v0h0Z" pointer-events="none"/><g><g class="mark-rect role-legend-gradient" pointer-events="none"><path d="M0,0h16v140h-16Z" fill="url(#gradient_0)" stroke="#ddd" stroke-width="0" opacity="1"/></g><g class="mark-text role-legend-label" pointer-events="none"><text text-anchor="start" transform="translate(18,138)" font-family="sans-serif" font-size="10px" fill="#000" opacity="1">0</text><text text-anchor="start" transform="translate(18,8)" font-family="sans-serif" font-size="10px" fill="#000" opacity="1">219</text></g></g><path class="foreground" aria-hidden="true" d="" pointer-events="none" display="none"/></g></g><g class="mark-text role-legend-title" pointer-events="none"><text text-anchor="start" transform="translate(0,9)" font-family="sans-serif" font-size="11px" font-weight="bold" fill="#000" opacity="1">Total distance / km</text></g></g><path class="foreground" aria-hidden="true" d="" pointer-events="none" display="none"/></g></g><g class="mark-group role-axis" role="graphics-symbol" aria-roledescription="axis" aria-label="X-axis titled 'ISO Week' for a discrete scale with 52 values: 1, 2, 3, 4, 5, ending with 52"><g transform="translate(0.5,140.5)"><path class="background" aria-hidden="true" d="M0,0h0v0h0Z" pointer-events="none"/><g><g class="mark-rule role-axis-tick" pointer-events="none"><line transform="translate(10,0)" x2="0" y2="5" stroke="#888" stroke-width="1" opacity="1"/><line transform="translate(30,0)" x2="0" y2="5" stroke="#888" stroke-width="1" opacity="1"/><line transform="translate(50,0)" x2="0" y2="5" stroke="#888" stroke-width="1" opacity="1"/><line transform="translate(70,0)" x2="0" y2="5" stroke="#888" stroke-width="1" opacity="1"/><line transform="translate(90,0)" x2="0" y2="5" stroke="#888" stroke-width="1" opacity="1"/><line transform="translate(110,0)" x2="0" y2="5" stroke="#888" stroke-width="1" opacity="1"/><line transform="translate(130,0)" x2="0" y2="5" stroke="#888" stroke-width="1" opacity="1"/><line transform="translate(150,0)" x2="0" y2="5" stroke="#888" stroke-width="1" opacity="1"/><line transform="translate(170,0)" x2="0" y2="5" stroke="#888" stroke-width="1" opacity="1"/><line transform="translate(190,0)" x2="0" y2="5" stroke="#888" stroke-width="1" opacity="1"/><line transform="translate(210,0)" x2="0" y2="5" stroke="#888" stroke-width="1" opacity="1"/><line transform="translate(230,0)" x2="0" y2="5" stroke="#888" stroke-width="1" opacity="1"/><line transform="translate(250,0)" x2="0" y2="5" stroke="#888" stroke-width="1" opacity="1"/><line transform="translate(270,0)" x2="0" y2="5" stroke="#888" stroke-width="1" opacity="1"/><line transform="translate(290,0)" x2="0" y2="5" stroke="#888" stroke-width="1" opacity="1"/><line transform="translate(310,0)" x2="0" y2="5" stroke="#888" stroke-width="1" opacity="1"/><line transform="translate(330,0)" x2="0" y2="5" stroke="#888" stroke-width="1" opacity="1"/><line transform="translate(350,0)" x2="0" y2="5" stroke="#888" stroke-width="1" opacity="1"/><line transform="translate(370,0)" x2="0" y2="5" stroke="#888" stroke-width="1" opacity="1"/><line transform="translate(390,0)" x2="0" y2="5" stroke="#888" stroke-width="1" opacity="1"/><line transform="translate(410,0)" x2="0" y2="5" stroke="#888" stroke-width="1" opacity="1"/><line transform="translate(430,0)" x2="0" y2="5" stroke="#888" stroke-width="1" opacity="1"/><line transform="translate(450,0)" x2="0" y2="5" stroke="#888" stroke-width="1" opacity="1"/><line transform="translate(470,0)" x2="0" y2="5" stroke="#888" stroke-width="1" opacity="1"/><line transform="translate(490,0)" x2="0" y2="5" stroke="#888" stroke-width="1" opacity="1"/><line transform="translate(510,0)" x2="0" y2="5" stroke="#888" stroke-width="1" opacity="1"/><line transform="translate(530,0)" x2="0" y2="5" stroke="#888" stroke-width="1" opacity="1"/><line transform="translate(550,0)" x2="0" y2="5" stroke="#888" stroke-width="1" opacity="1"/><line transform="translate(570,0)" x2="0" y2="5" stroke="#888" stroke-width="1" opacity="1"/><line transform="translate(590,0)" x2="0" y2="5" stroke="#888" stroke-width="1" opacity="1"/><line transform="translate(610,0)" x2="0" y2="5" stroke="#888" stroke-width="1" opacity="1"/><line transform="translate(630,0)" x2="0" y2="5" stroke="#888" stroke-width="1" opacity="1"/><line transform="translate(650,0)" x2="0" y2="5" stroke="#888" stroke-width="1" opacity="1"/><line transform="translate(670,0)" x2="0" y2="5" stroke="#888" stroke-width="1" opacity="1"/><line transform="translate(690,0)" x2="0" y2="5" stroke="#888" stroke-width="1" opacity="1"/><line transform="translate(710,0)" x2="0" y2="5" stroke="#888" stroke-width="1" opacity="1"/><line transform="translate(730,0)" x2="0" y2="5" stroke="#888" stroke-width="1" opacity="1"/><line transform="translate(750,0)" x2="0" y2="5" stroke="#888" stroke-width="1" opacity="1"/><line transform="translate(770,0)" x2="0" y2="5" stroke="#888" stroke-width="1" opacity="1"/><line transform="translate(790,0)" x2="0" y2="5" stroke="#888" stroke-width="1" opacity="1"/><line transform="translate(810,0)" x2="0" y2="5" stroke="#888" stroke-width="1" opacity="1"/><line transform="translate(830,0)" x2="0" y2="5" stroke="#888" stroke-width="1" opacity="1"/><line transform="translate(850,0)" x2="0" y2="5" stroke="#888" stroke-width="1" opacity="1"/><line transform="translate(870,0)" x2="0" y2="5" stroke="#888" stroke-width="1" opacity="1"/><line transform="translate(890,0)" x2="0" y2="5" stroke="#888" stroke-width="1" opacity="1"/><line transform="translate(910,0)" x2="0" y2="5" stroke="#888" stroke-width="1" opacity="1"/><line transform="translate(930,0)" x2="0" y2="5" stroke="#888" stroke-width="1" opacity="1"/><line transform="translate(950,0)" x2="0" y2="5" stroke="#888" stroke-width="1" opacity="1"/><line transform="translate(970,0)" x2="0" y2="5" stroke="#888" stroke-width="1" opacity="1"/><line transform="translate(990,0)" x2="0" y2="5" stroke="#888" stroke-width="1" opacity="1"/><line transform="translate(1010,0)" x2="0" y2="5" stroke="#888" stroke-width="1" opacity="1"/><line transform="translate(1030,0)" x2="0" y2="5" stroke="#888" stroke-width="1" opacity="1"/></g><g class="mark-text role-axis-label" pointer-events="none"><text text-anchor="end" transform="translate(9.5,7) rotate(270) translate(0,3)" font-family="sans-serif" font-size="10px" fill="#000" opacity="1">1</text><text text-anchor="end" transform="translate(29.5,7) rotate(270) translate(0,3)" font-family="sans-serif" font-size="10px" fill="#000" opacity="1">2</text><text text-anchor="end" transform="translate(49.5,7) rotate(270) translate(0,3)" font-family="sans-serif" font-size="10px" fill="#000" opacity="1">3</text><text text-anchor="end" transform="translate(69.5,7) rotate(270) translate(0,3)" font-family="sans-serif" font-size="10px" fill="#000" opacity="1">4</text><text text-anchor="end" transform="translate(89.5,7) rotate(270) translate(0,3)" font-family="sans-serif" font-size="10px" fill="#000" opacity="1">5</text><text text-anchor="end" transform="translate(109.5,7) rotate(270) translate(0,3)" font-family="sans-serif" font-size="10px" fill="#000" opacity="1">6</text><text text-anchor="end" transform="translate(129.5,7) rotate(270) translate(0,3)" font-family="sans-serif" font-size="10px" fill="#000" opacity="1">7</text><text text-anchor="end" transform="translate(149.5,7) rotate(270) translate(0,3)" font-family="sans-serif" font-size="10px" fill="#000" opacity="1">8</text><text text-anchor="end" transform="translate(169.5,7) rotate(270) translate(0,3)" font-family="sans-serif" font-size="10px" fill="#000" opacity="1">9</text><text text-anchor="end" transform="translate(189.5,7) rotate(270) translate(0,3)" font-family="sans-serif" font-size="10px" fill="#000" opacity="1">10</text><text text-anchor="end" transform="translate(209.5,7) rotate(270) translate(0,3)" font-family="sans-serif" font-size="10px" fill="#000" opacity="1">11</text><text text-anchor="end" transform="translate(229.5,7) rotate(270) translate(0,3)" font-family="sans-serif" font-size="10px" fill="#000" opacity="1">12</text><text text-anchor="end" transform="translate(249.5,7) rotate(270) translate(0,3)" font-family="sans-serif" font-size="10px" fill="#000" opacity="1">13</text><text text-anchor="end" transform="translate(269.5,7) rotate(270) translate(0,3)" font-family="sans-serif" font-size="10px" fill="#000" opacity="1">14</text><text text-anchor="end" transform="translate(289.5,7) rotate(270) translate(0,3)" font-family="sans-serif" font-size="10px" fill="#000" opacity="1">15</text><text text-anchor="end" transform="translate(309.5,7) rotate(270) translate(0,3)" font-family="sans-serif" font-size="10px" fill="#000" opacity="1">16</text><text text-anchor="end" transform="translate(329.5,7) rotate(270) translate(0,3)" font-family="sans-serif" font-size="10px" fill="#000" opacity="1">17</text><text text-anchor="end" transform="translate(349.5,7) rotate(270) translate(0,3)" font-family="sans-serif" font-size="10px" fill="#000" opacity="1">18</text><text text-anchor="end" transform="translate(369.5,7) rotate(270) translate(0,3)" font-family="sans-serif" font-size="10px" fill="#000" opacity="1">19</text><text text-anchor="end" transform="translate(389.5,7) rotate(270) translate(0,3)" font-family="sans-serif" font-size="10px" fill="#000" opacity="1">20</text><text text-anchor="end" transform="translate(409.5,7) rotate(270) translate(0,3)" font-family="sans-serif" font-size="10px" fill="#000" opacity="1">21</text><text text-anchor="end" transform="translate(429.5,7) rotate(270) translate(0,3)" font-family="sans-serif" font-size="10px" fill="#000" opacity="1">22</text><text text-anchor="end" transform="translate(449.5,7) rotate(270) translate(0,3)" font-family="sans-serif" font-size="10px" fill="#000" opacity="1">23</text><text text-anchor="end" transform="translate(469.5,7) rotate(270) translate(0,3)" font-family="sans-serif" font-size="10px" fill="#000" opacity="1">24</text><text text-anchor="end" transform="translate(489.5,7) rotate(270) translate(0,3)" font-family="sans-serif" font-size="10px" fill="#000" opacity="1">25</text><text text-anchor="end" transform="translate(509.5,7) rotate(270) translate(0,3)" font-family="sans-serif" font-size="10px" fill="#000" opacity="1">26</text><text text-anchor="end" transform="translate(529.5,7) rotate(270) translate(0,3)" font-family="sans-serif" font-size="10px" fill="#000" opacity="1">27</text><text text-anchor="end" transform="translate(549.5,7) rotate(270) translate(0,3)" font-family="sans-serif" font-size="10px" fill="#000" opacity="1">28</text><text text-anchor="end" transform="translate(569.5,7) rotate(270) translate(0,3)" font-family="sans-serif" font-size="10px" fill="#000" opacity="1">29</text><text text-anchor="end" transform="translate(589.5,7) rotate(270) translate(0,3)" font-family="sans-serif" font-size="10px" fill="#000" opacity="1">30</text><text text-anchor="end" transform="translate(609.5,7) rotate(270) translate(0,3)" font-family="sans-serif" font-size="10px" fill="#000" opacity="1">31</text><text text-anchor="end" transform="translate(629.5,7) rotate(270) translate(0,3)" font-family="sans-serif" font-size="10px" fill="#000" opacity="1">32</text><text text-anchor="end" transform="translate(649.5,7) rotate(270) translate(0,3)" font-family="sans-serif" font-size="10px" fill="#000" opacity="1">33</text><text text-anchor="end" transform="translate(669.5,7) rotate(270) translate(0,3)" font-family="sans-serif" font-size="10px" fill="#000" opacity="1">34</text><text text-anchor="end" transform="translate(689.5,7) rotate(270) translate(0,3)" font-family="sans-serif" font-size="10px" fill="#000" opacity="1">35</text><text text-anchor="end" transform="translate(709.5,7) rotate(270) translate(0,3)" font-family="sans-serif" font-size="10px" fill="#000" opacity="1">36</text><text text-anchor="end" transform="translate(729.5,7) rotate(270) translate(0,3)" font-family="sans-serif" font-size="10px" fill="#000" opacity="1">37</text><text text-anchor="end" transform="translate(749.5,7) rotate(270) translate(0,3)" font-family="sans-serif" font-size="10px" fill="#000" opacity="1">38</text><text text-anchor="end" transform="translate(769.5,7) rotate(270) translate(0,3)" font-family="sans-serif" font-size="10px" fill="#000" opacity="1">39</text><text text-anchor="end" transform="translate(789.5,7) rotate(270) translate(0,3)" font-family="sans-serif" font-size="10px" fill="#000" opacity="1">40</text><text text-anchor="end" transform="translate(809.5,7) rotate(270) translate(0,3)" font-family="sans-serif" font-size="10px" fill="#000" opacity="1">41</text><text text-anchor="end" transform="translate(829.5,7) rotate(270) translate(0,3)" font-family="sans-serif" font-size="10px" fill="#000" opacity="1">42</text><text text-anchor="end" transform="translate(849.5,7) rotate(270) translate(0,3)" font-family="sans-serif" font-size="10px" fill="#000" opacity="1">43</text><text text-anchor="end" transform="translate(869.5,7) rotate(270) translate(0,3)" font-family="sans-serif" font-size="10px" fill="#000" opacity="1">44</text><text text-anchor="end" transform="translate(889.5,7) rotate(270) translate(0,3)" font-family="sans-serif" font-size="10px" fill="#000" opacity="1">45</text><text text-anchor="end" transform="translate(909.5,7) rotate(270) translate(0,3)" font-family="sans-serif" font-size="10px" fill="#000" opacity="1">46</text><text text-anchor="end" transform="translate(929.5,7) rotate(270) translate(0,3)" font-family="sans-serif" font-size="10px" fill="#000" opacity="1">47</text><text text-anchor="end" transform="translate(949.5,7) rotate(270) translate(0,3)" font-family="sans-serif" font-size="10px" fill="#000" opacity="1">48</text><text text-anchor="end" transform="translate(969.5,7) rotate(270) translate(0,3)" font-family="sans-serif" font-size="10px" fill="#000" opacity="1">49</text><text text-anchor="end" transform="translate(989.5,7) rotate(270) translate(0,3)" font-family="sans-serif" font-size="10px" fill="#000" opacity="1">50</text><text text-anchor="end" transform="translate(1009.5,7) rotate(270) translate(0,3)" font-family="sans-serif" font-size="10px" fill="#000" opacity="1">51</text><text text-anchor="end" transform="translate(1029.5,7) rotate(270) translate(0,3)" font-family="sans-serif" font-size="10px" fill="#000" opacity="1">52</text></g><g class="mark-rule role-axis-domain" pointer-events="none"><line transform="translate(0,0)" x2="1040" y2="0" stroke="#888" stroke-width="1" opacity="1"/></g><g class="mark-text role-axis-title" pointer-events="none"><text text-anchor="middle" transform="translate(520,31.466666221618652)" font-family="sans-serif" font-size="11px" font-weight="bold" fill="#000" opacity="1">ISO Week</text></g></g><path class="foreground" aria-hidden="true" d="" pointer-events="none" display="none"/></g></g><g class="mark-group role-axis" role="graphics-symbol" aria-roledescription="axis" aria-label="Y-axis titled 'ISO Day' for a discrete scale with 7 values: 1, 2, 3, 4, 5, 6, 7"><g transform="translate(0.5,0.5)"><path class="background" aria-hidden="true" d="M0,0h0v0h0Z" pointer-events="none"/><g><g class="mark-rule role-axis-tick" pointer-events="none"><line transform="translate(0,10)" x2="-5" y2="0" stroke="#888" stroke-width="1" opacity="1"/><line transform="translate(0,30)" x2="-5" y2="0" stroke="#888" stroke-width="1" opacity="1"/><line transform="translate(0,50)" x2="-5" y2="0" stroke="#888" stroke-width="1" opacity="1"/><line transform="translate(0,70)" x2="-5" y2="0" stroke="#888" stroke-width="1" opacity="1"/><line transform="translate(0,90)" x2="-5" y2="0" stroke="#888" stroke-width="1" opacity="1"/><line transform="translate(0,110)" x2="-5" y2="0" stroke="#888" stroke-width="1" opacity="1"/><line transform="translate(0,130)" x2="-5" y2="0" stroke="#888" stroke-width="1" opacity="1"/></g><g class="mark-text role-axis-label" pointer-events="none"><text text-anchor="end" transform="translate(-7,12.5)" font-family="sans-serif" font-size="10px" fill="#000" opacity="1">1</text><text text-anchor="end" transform="translate(-7,32.5)" font-family="sans-serif" font-size="10px" fill="#000" opacity="1">2</text><text text-anchor="end" transform="translate(-7,52.5)" font-family="sans-serif" font-size="10px" fill="#000" opacity="1">3</text><text text-anchor="end" transform="translate(-7,72.5)" font-family="sans-serif" font-size="10px" fill="#000" opacity="1">4</text><text text-anchor="end" transform="translate(-7,92.5)" font-family="sans-serif" font-size="10px" fill="#000" opacity="1">5</text><text text-anchor="end" transform="translate(-7,112.5)" font-family="sans-serif" font-size="10px" fill="#000" opacity="1">6</text><text text-anchor="end" transform="translate(-7,132.5)" font-family="sans-serif" font-size="10px" fill="#000" opacity="1">7</text></g><g class="mark-rule role-axis-domain" pointer-events="none"><line transform="translate(0,0)" x2="0" y2="140" stroke="#888" stroke-width="1" opacity="1"/></g><g class="mark-text role-axis-title" pointer-events="none"><text text-anchor="middle" transform="translate(-16.733333110809326,70) rotate(-90) translate(0,-2)" font-family="sans-serif" font-size="11px" font-weight="bold" fill="#000" opacity="1">ISO Day</text></g></g><path class="foreground" aria-hidden="true" d="" pointer-events="none" display="none"/></g></g></g><path class="foreground" aria-hidden="true" d="" display="none"/></g></g></g><defs><linearGradient id="gradient_0" x1="0" x2="0" y1="1" y2="0"><stop offset="0" stop-color="rgb(239, 249, 189)"/><stop offset="0.0905193957817038" stop-color="rgb(221, 242, 181)"/><stop offset="0.18179813887863755" stop-color="rgb(194, 231, 181)"/><stop offset="0.27307688197557134" stop-color="rgb(159, 217, 184)"/><stop offset="0.364355625072505" stop-color="rgb(120, 203, 188)"/><stop offset="0.4556343681694388" stop-color="rgb(85, 188, 192)"/><stop offset="0.5469131112663725" stop-color="rgb(57, 170, 193)"/><stop offset="0.6381918543633064" stop-color="rgb(40, 147, 189)"/><stop offset="0.7294705974602401" stop-color="rgb(33, 121, 180)"/><stop offset="0.8207493405571739" stop-color="rgb(33, 93, 167)"/><stop offset="0.9120280836541077" stop-color="rgb(34, 68, 153)"/><stop offset="1" stop-color="rgb(28, 49, 133)"/></linearGradient></defs></svg>