<svg xmlns="http://www.w3.org/2000/svg" xmlns:xlink="http://www.w3.org/1999/xlink" version="1.1" class="marks" width="1183" height="349" viewBox="0 0 1183 349"><rect width="1183" height="349" fill="white"/><g fill="none" stroke-miterlimit="10" transform="translate(45,10)"><g class="mark-group role-frame root" role="graphics-object" aria-roledescription="group mark container"><g transform="translate(0,0)"><path class="background" aria-hidden="true" d="M0.5,0.5h1040v300h-1040Z" stroke="#ddd"/><g><g class="mark-group role-axis" aria-hidden="true"><g transform="translate(0.5,0.5)"><path class="background" aria-hidden="true" d="M0,0h0v0h0Z" pointer-events="none"/><g><g class="mark-rule role-axis-grid" pointer-events="none"><line transform="translate(0,300)" x2="1040" y2="0" stroke="#ddd" stroke-width="1" opacity="1"/><line transform="translate(0,263)" x2="1040" y2="0" stroke="#ddd" stroke-width="1" opacity="1"/><line transform="translate(0,225)" x2="1040" y2="0" stroke="#ddd" stroke-width="1" opacity="1"/><line transform="translate(0,188)" x2="1040" y2="0" stroke="#ddd" stroke-width="1" opacity="1"/><line transform="translate(0,150)" x2="1040" y2="0" stroke="#ddd" stroke-width="1" opacity="1"/><line transform="translate(0,113)" x2="1040" y2="0" stroke="#ddd" stroke-width="1" opacity="1"/><line transform="translate(0,75)" x2="1040" y2="0" stroke="#ddd" stroke-width="1" opacity="1"/><line transform="translate(0,38)" x2="1040" y2="0" stroke="#ddd" stroke-width="1" opacity="1"/><line transform="translate(0,0)" x2="1040" y2="0" stroke="#ddd" stroke-width="1" opacity="1"/></g></g><path class="foreground" aria-hidden="true" d="" pointer-events="none" display="none"/></g></g><g class="mark-group role-axis" role="graphics-symbol" aria-roledescription="axis" aria-label="X-axis titled 'ISO Week' for a discrete scale with 52 values: 1, 2, 3, 4, 5, ending with 52"><g transform="translate(0.5,300.5)"><path class="background" aria-hidden="true" d="M0,0h0v0h0Z" pointer-events="none"/><g><g class="mark-rule role-axis-tick" pointer-events="none"><line transform="translate(10,0)" x2="0" y2="5" stroke="#888" stroke-width="1" opacity="1"/><line transform="translate(30,0)" x2="0" y2="5" stroke="#888" stroke-width="1" opacity="1"/><line transform="translate(50,0)" x2="0" y2="5" stroke="#888" stroke-width="1" opacity="1"/><line transform="translate(70,0)" x2="0" y2="5" stroke="#888" stroke-width="1" opacity="1"/><line transform="translate(90,0)" x2="0" y2="5" stroke="#888" stroke-width="1" opacity="1"/><line transform="translate(110,0)" x2="0" y2="5" stroke="#888" stroke-width="1" opacity="1"/><line transform="translate(130,0)" x2="0" y2="5" stroke="#888" stroke-width="1" opacity="1"/><line transform="translate(150,0)" x2="0" y2="5" stroke="#888" stroke-width="1" opacity="1"/><line transform="translate(170,0)" x2="0" y2="5" stroke="#888" stroke-width="1" opacity="1"/><line transform="translate(190,0)" x2="0" y2="5" stroke="#888" stroke-width="1" opacity="1"/><line transform="translate(210,0)" x2="0" y2="5" stroke="#888" stroke-width="1" opacity="1"/><line transform="translate(230,0)" x2="0" y2="5" stroke="#888" stroke-width="1" opacity="1"/><line transform="translate(250,0)" x2="0" y2="5" stroke="#888" stroke-width="1" opacity="1"/><line transform="translate(270,0)" x2="0" y2="5" stroke="#888" stroke-width="1" opacity="1"/><line transform="translate(290,0)" x2="0" y2="5" stroke="#888" stroke-width="1" opacity="1"/><line transform="translate(310,0)" x2="0" y2="5" stroke="#888" stroke-width="1" opacity="1"/><line transform="translate(330,0)" x2="0" y2="5" stroke="#888" stroke-width="1" opacity="1"/><line transform="translate(350,0)" x2="0" y2="5" stroke="#888" stroke-width="1" opacity="1"/><line transform="translate(370,0)" x2="0" y2="5" stroke="#888" stroke-width="1" opacity="1"/><line transform="translate(390,0)" x2="0" y2="5" stroke="#888" stroke-width="1" opacity="1"/><line transform="translate(410,0)" x2="0" y2="5" stroke="#888" stroke-width="1" opacity="1"/><line transform="translate(430,0)" x2="0" y2="5" stroke="#888" stroke-width="1" opacity="1"/><line transform="translate(450,0)" x2="0" y2="5" stroke="#888" stroke-width="1" opacity="1"/><line transform="translate(470,0)" x2="0" y2="5" stroke="#888" stroke-width="1" opacity="1"/><line transform="translate(490,0)" x2="0" y2="5" stroke="#888" stroke-width="1" opacity="1"/><line transform="translate(510,0)" x2="0" y2="5" stroke="#888" stroke-width="1" opacity="1"/><line transform="translate(530,0)" x2="0" y2="5" stroke="#888" stroke-width="1" opacity="1"/><line transform="translate(550,0)" x2="0" y2="5" stroke="#888" stroke-width="1" opacity="1"/><line transform="translate(570,0)" x2="0" y2="5" stroke="#888" stroke-width="1" opacity="1"/><line transform="translate(590,0)" x2="0" y2="5" stroke="#888" stroke-width="1" opacity="1"/><line transform="translate(610,0)" x2="0" y2="5" stroke="#888" stroke-width="1" opacity="1"/><line transform="translate(630,0)" x2="0" y2="5" stroke="#888" stroke-width="1" opacity="1"/><line transform="translate(650,0)" x2="0" y2="5" stroke="#888" stroke-width="1" opacity="1"/><line transform="translate(670,0)" x2="0" y2="5" stroke="#888" stroke-width="1" opacity="1"/><line transform="translate(690,0)" x2="0" y2="5" stroke="#888" stroke-width="1" opacity="1"/><line transform="translate(710,0)" x2="0" y2="5" stroke="#888" stroke-width="1" opacity="1"/><line transform="translate(730,0)" x2="0" y2="5" stroke="#888" stroke-width="1" opacity="1"/><line transform="translate(750,0)" x2="0" y2="5" stroke="#888" stroke-width="1" opacity="1"/><line transform="translate(770,0)" x2="0" y2="5" stroke="#888" stroke-width="1" opacity="1"/><line transform="translate(790,0)" x2="0" y2="5" stroke="#888" stroke-width="1" opacity="1"/><line transform="translate(810,0)" x2="0" y2="5" stroke="#888" stroke-width="1" opacity="1"/><line transform="translate(830,0)" x2="0" y2="5" stroke="#888" stroke-width="1" opacity="1"/><line transform="translate(850,0)" x2="0" y2="5" stroke="#888" stroke-width="1" opacity="1"/><line transform="translate(870,0)" x2="0" y2="5" stroke="#888" stroke-width="1" opacity="1"/><line transform="translate(890,0)" x2="0" y2="5" stroke="#888" stroke-width="1" opacity="1"/><line transform="translate(910,0)" x2="0" y2="5" stroke="#888" stroke-width="1" opacity="1"/><line transform="translate(930,0)" x2="0" y2="5" stroke="#888" stroke-width="1" opacity="1"/><line transform="translate(950,0)" x2="0" y2="5" stroke="#888" stroke-width="1" opacity="1"/><line transform="translate(970,0)" x2="0" y2="5" stroke="#888" stroke-width="1" opacity="1"/><line transform="translate(990,0)" x2="0" y2="5" stroke="#888" stroke-width="1" opacity="1"/><line transform="translate(1010,0)" x2="0" y2="5" stroke="#888" stroke-width="1" opacity="1"/><line transform="translate(1030,0)" x2="0" y2="5" stroke="#888" stroke-width="1" opacity="1"/></g><g class="mark-text role-axis-label" pointer-events="none"><text text-anchor="end" transform="translate(9.5,7) rotate(270) translate(0,3)" font-family="sans-serif" font-size="10px" fill="#000" opacity="1">1</text><text text-anchor="end" transform="translate(29.5,7) rotate(270) translate(0,3)" font-family="sans-serif" font-size="10px" fill="#000" opacity="1">2</text><text text-anchor="end" transform="translate(49.5,7) rotate(270) translate(0,3)" font-family="sans-serif" font-size="10px" fill="#000" opacity="1">3</text><text text-anchor="end" transform="translate(69.5,7) rotate(270) translate(0,3)" font-family="sans-serif" font-size="10px" fill="#000" opacity="1">4</text><text text-anchor="end" transform="translate(89.5,7) rotate(270) translate(0,3)" font-family="sans-serif" font-size="10px" fill="#000" opacity="1">5</text><text text-anchor="end" transform="translate(109.5,7) rotate(270) translate(0,3)" font-family="sans-serif" font-size="10px" fill="#000" opacity="1">6</text><text text-anchor="end" transform="translate(129.5,7) rotate(270) translate(0,3)" font-family="sans-serif" font-size="10px" fill="#000" opacity="1">7</text><text text-anchor="end" transform="translate(149.5,7) rotate(270) translate(0,3)" font-family="sans-serif" font-size="10px" fill="#000" opacity="1">8</text><text text-anchor="end" transform="translate(169.5,7) rotate(270) translate(0,3)" font-family="sans-serif" font-size="10px" fill="#000" opacity="1">9</text><text text-anchor="end" transform="translate(189.5,7) rotate(270) translate(0,3)" font-family="sans-serif" font-size="10px" fill="#000" opacity="1">10</text><text text-anchor="end" transform="translate(209.5,7) rotate(270) translate(0,3)" font-family="sans-serif" font-size="10px" fill="#000" opacity="1">11</text><text text-anchor="end" transform="translate(229.5,7) rotate(270) translate(0,3)" font-family="sans-serif" font-size="10px" fill="#000" opacity="1">12</text><text text-anchor="end" transform="translate(249.5,7) rotate(270) translate(0,3)" font-family="sans-serif" font-size="10px" fill="#000" opacity="1">13</text><text text-anchor="end" transform="translate(269.5,7) rotate(270) translate(0,3)" font-family="sans-serif" font-size="10px" fill="#000" opacity="1">14</text><text text-anchor="end" transform="translate(289.5,7) rotate(270) translate(0,3)" font-family="sans-serif" font-size="10px" fill="#000" opacity="1">15</text><text text-anchor="end" transform="translate(309.5,7) rotate(270) translate(0,3)" font-family="sans-serif" font-size="10px" fill="#000" opacity="1">16</text><text text-anchor="end" transform="translate(329.5,7) rotate(270) translate(0,3)" font-family="sans-serif" font-size="10px" fill="#000" opacity="1">17</text><text text-anchor="end" transform="translate(349.5,7) rotate(270) translate(0,3)" font-family="sans-serif" font-size="10px" fill="#000" opacity="1">18</text><text text-anchor="end" transform="translate(369.5,7) rotate(270) translate(0,3)" font-family="sans-serif" font-size="10px" fill="#000" opacity="1">19</text><text text-anchor="end" transform="translate(389.5,7) rotate(270) translate(0,3)" font-family="sans-serif" font-size="10px" fill="#000" opacity="1">20</text><text text-anchor="end" transform="translate(409.5,7) rotate(270) translate(0,3)" font-family="sans-serif" font-size="10px" fill="#000" opacity="1">21</text><text text-anchor="end" transform="translate(429.5,7) rotate(270) translate(0,3)" font-family="sans-serif" font-size="10px" fill="#000" opacity="1">22</text><text text-anchor="end" transform="translate(449.5,7) rotate(270) translate(0,3)" font-family="sans-serif" font-size="10px" fill="#000" opacity="1">23</text><text text-anchor="end" transform="translate(469.5,7) rotate(270) translate(0,3)" font-family="sans-serif" font-size="10px" fill="#000" opacity="1">24</text><text text-anchor="end" transform="translate(489.5,7) rotate(270) translate(0,3)" font-family="sans-serif" font-size="10px" fill="#000" opacity="1">25</text><text text-anchor="end" transform="translate(509.5,7) rotate(270) translate(0,3)" font-family="sans-serif" font-size="10px" fill="#000" opacity="1">26</text><text text-anchor="end" transform="translate(529.5,7) rotate(270) translate(0,3)" font-family="sans-serif" font-size="10px" fill="#000" opacity="1">27</text><text text-anchor="end" transform="translate(549.5,7) rotate(270) translate(0,3)" font-family="sans-serif" font-size="10px" fill="#000" opacity="1">28</text><text text-anchor="end" transform="translate(569.5,7) rotate(270) translate(0,3)" font-family="sans-serif" font-size="10px" fill="#000" opacity="1">29</text><text text-anchor="end" transform="translate(589.5,7) rotate(270) translate(0,3)" font-family="sans-serif" font-size="10px" fill="#000" opacity="1">30</text><text text-anchor="end" transform="translate(609.5,7) rotate(270) translate(0,3)" font-family="sans-serif" font-size="10px" fill="#000" opacity="1">31</text><text text-anchor="end" transform="translate(629.5,7) rotate(270) translate(0,3)" font-family="sans-serif" font-size="10px" fill="#000" opacity="1">32</text><text text-anchor="end" transform="translate(649.5,7) rotate(270) translate(0,3)" font-family="sans-serif" font-size="10px" fill="#000" opacity="1">33</text><text text-anchor="end" transform="translate(669.5,7) rotate(270) translate(0,3)" font-family="sans-serif" font-size="10px" fill="#000" opacity="1">34</text><text text-anchor="end" transform="translate(689.5,7) rotate(270) translate(0,3)" font-family="sans-serif" font-size="10px" fill="#000" opacity="1">35</text><text text-anchor="end" transform="translate(709.5,7) rotate(270) translate(0,3)" font-family="sans-serif" font-size="10px" fill="#000" opacity="1">36</text><text text-anchor="end" transform="translate(729.5,7) rotate(270) translate(0,3)" font-family="sans-serif" font-size="10px" fill="#000" opacity="1">37</text><text text-anchor="end" transform="translate(749.5,7) rotate(270) translate(0,3)" font-family="sans-serif" font-size="10px" fill="#000" opacity="1">38</text><text text-anchor="end" transform="translate(769.5,7) rotate(270) translate(0,3)" font-family="sans-serif" font-size="10px" fill="#000" opacity="1">39</text><text text-anchor="end" transform="translate(789.5,7) rotate(270) translate(0,3)" font-family="sans-serif" font-size="10px" fill="#000" opacity="1">40</text><text text-anchor="end" transform="translate(809.5,7) rotate(270) translate(0,3)" font-family="sans-serif" font-size="10px" fill="#000" opacity="1">41</text><text text-anchor="end" transform="translate(829.5,7) rotate(270) translate(0,3)" font-family="sans-serif" font-size="10px" fill="#000" opacity="1">42</text><text text-anchor="end" transform="translate(849.5,7) rotate(270) translate(0,3)" font-family="sans-serif" font-size="10px" fill="#000" opacity="1">43</text><text text-anchor="end" transform="translate(869.5,7) rotate(270) translate(0,3)" font-family="sans-serif" font-size="10px" fill="#000" opacity="1">44</text><text text-anchor="end" transform="translate(889.5,7) rotate(270) translate(0,3)" font-family="sans-serif" font-size="10px" fill="#000" opacity="1">45</text><text text-anchor="end" transform="translate(909.5,7) rotate(270) translate(0,3)" font-family="sans-serif" font-size="10px" fill="#000" opacity="1">46</text><text text-anchor="end" transform="translate(929.5,7) rotate(270) translate(0,3)" font-family="sans-serif" font-size="10px" fill="#000" opacity="1">47</text><text text-anchor="end" transform="translate(949.5,7) rotate(270) translate(0,3)" font-family="sans-serif" font-size="10px" fill="#000" opacity="1">48</text><text text-anchor="end" transform="translate(969.5,7) rotate(270) translate(0,3)" font-family="sans-serif" font-size="10px" fill="#000" opacity="1">49</text><text text-anchor="end" transform="translate(989.5,7) rotate(270) translate(0,3)" font-family="sans-serif" font-size="10px" fill="#000" opacity="1">50</text><text text-anchor="end" transform="translate(1009.5,7) rotate(270) translate(0,3)" font-family="sans-serif" font-size="10px" fill="#000" opacity="1">51</text><text text-anchor="end" transform="translate(1029.5,7) rotate(270) translate(0,3)" font-family="sans-serif" font-size="10px" fill="#000" opacity="1">52</text></g><g class="mark-rule role-axis-domain" pointer-events="none"><line transform="translate(0,0)" x2="1040" y2="0" stroke="#888" stroke-width="1" opacity="1"/></g><g class="mark-text role-axis-title" pointer-events="none"><text text-anchor="middle" transform="translate(520,31.466666221618652)" font-family="sans-serif" font-size="11px" font-weight="bold" fill="#000" opacity="1">ISO Week</text></g></g><path class="foreground" aria-hidden="true" d="" pointer-events="none" display="none"/></g></g><g class="mark-group role-axis" role="graphics-symbol" aria-roledescription="axis" aria-label="Y-axis titled 'Total distance / km' for a linear scale with values from 0 to 400"><g transform="translate(0.5,0.5)"><path class="background" aria-hidden="true" d="M0,0h0v0h0Z" pointer-events="none"/><g><g class="mark-rule role-axis-tick" pointer-events="none"><line transform="translate(0,300)" x2="-5" y2="0" stroke="#888" stroke-width="1" opacity="1"/><line transform="translate(0,263)" x2="-5" y2="0" stroke="#888" stroke-width="1" opacity="1"/><line transform="translate(0,225)" x2="-5" y2="0" stroke="#888" stroke-width="1" opacity="1"/><line transform="translate(0,188)" x2="-5" y2="0" stroke="#888" stroke-width="1" opacity="1"/><line transform="translate(0,150)" x2="-5" y2="0" stroke="#888" stroke-width="1" opacity="1"/><line transform="translate(0,113)" x2="-5" y2="0" stroke="#888" stroke-width="1" opacity="1"/><line transform="translate(0,75)" x2="-5" y2="0" stroke="#888" stroke-width="1" opacity="1"/><line transform="translate(0,38)" x2="-5" y2="0" stroke="#888" stroke-width="1" opacity="1"/><line transform="translate(0,0)" x2="-5" y2="0" stroke="#888" stroke-width="1" opacity="1"/></g><g class="mark-text role-axis-label" pointer-events="none"><text text-anchor="end" transform="translate(-7,303)" font-family="sans-serif" font-size="10px" fill="#000" opacity="1">0</text><text text-anchor="end" transform="translate(-7,265.5)" font-family="sans-serif" font-size="10px" fill="#000" opacity="1">50</text><text text-anchor="end" transform="translate(-7,228)" font-family="sans-serif" font-size="10px" fill="#000" opacity="1">100</text><text text-anchor="end" transform="translate(-7,190.5)" font-family="sans-serif" font-size="10px" fill="#000" opacity="1">150</text><text text-anchor="end" transform="translate(-7,153)" font-family="sans-serif" font-size="10px" fill="#000" opacity="1">200</text><text text-anchor="end" transform="translate(-7,115.5)" font-family="sans-serif" font-size="10px" fill="#000" opacity="1">250</text><text text-anchor="end" transform="translate(-7,78)" font-family="sans-serif" font-size="10px" fill="#000" opacity="1">300</text><text text-anchor="end" transform="translate(-7,40.5)" font-family="sans-serif" font-size="10px" fill="#000" opacity="1">350</text><text text-anchor="end" transform="translate(-7,3)" font-family="sans-serif" font-size="10px" fill="#000" opacity="1">400</text></g><g class="mark-rule role-axis-domain" pointer-events="none"><line transform="translate(0,300)" x2="0" y2="-300" stroke="#888" stroke-width="1" opacity="1"/></g><g class="mark-text role-axis-title" pointer-events="none"><text text-anchor="middle" transform="translate(-28.200000762939453,150) rotate(-90) translate(0,-2)" font-family="sans-serif" font-size="11px" font-weight="bold" fill="#000" opacity="1">Total distance / km</text></g></g><path class="foreground" aria-hidden="true" d="" pointer-events="none" display="none"/></g></g><g class="mark-rect role-mark marks" role="graphics-symbol" aria-roledescription="rect mark container"><path d="M581,208.92913212135215h18v75.16885399984187h-18Z" fill="#54a24b"/><path d="M261,246.6440783095868h18v43.26441226980381h-18Z" fill="#54a24b"/><path d="M761,210.10499539498906h18v82.70437906406531h-18Z" fill="#54a24b"/><path d="M501,186.36672197849393h18v94.30569865565317h-18Z" fill="#54a24b"/><path d="M441,216.865809149657h18v62.73596237413605h-18Z" fill="#54a24b"/><path d="M121,280.3568048320028h18v18.19532850441408h-18Z" fill="#54a24b"/><path d="M521,179.10004673263256h18v112.84962145489573h-18Z" fill="#54a24b"/><path d="M381,285.677949125498h18v14.322050874501997h-18Z" fill="#eeca3b"/><path d="M81,284.5972463241588h18v15.402753675841211h-18Z" fill="#eeca3b"/><path d="M201,132.46497290235976h18v153.57582546803764h-18Z" fill="#54a24b"/><path d="M661,198.31772308302612h18v69.34190101833212h-18Z" fill="#54a24b"/><path d="M1021,294.49791431865134h18v5.50208568134866h-18Z" fill="#b279a2"/><path d="M481,151.62854654103276h18v136.44058299295594h-18Z" fill="#54a24b"/><path d="M181,143.57194383632685h18v144.33148576395496h-18Z" fill="#54a24b"/><path d="M41,220.2849469124013h18v74.24245974343435h-18Z" fill="#54a24b"/><path d="M661,267.65962410135825h18v32.34037589864175h-18Z" fill="#eeca3b"/><path d="M401,179.13051633781689h18v99.91365647741097h-18Z" fill="#54a24b"/><path d="M61,282.23109162878563h18v17.768908371214366h-18Z" fill="#eeca3b"/><path d="M101,269.67893240907176h18v23.700277456214792h-18Z" fill="#54a24b"/><path d="M921,281.68713115406246h18v18.312868845937544h-18Z" fill="#eeca3b"/><path d="M441,279.6017715237931h18v15.136928754428254h-18Z" fill="#eeca3b"/><path d="M841,254.99251864584602h18v35.69871821767953h-18Z" fill="#54a24b"/><path d="M801,254.65154459344117h18v2.9805454855508913h-18Z" fill="#72b7b2"/><path d="M521,175.64638257840812h18v3.453664154224441h-18Z" fill="#72b7b2"/><path d="M281,143.52950886093697h18v153.10593318642526h-18Z" fill="#54a24b"/><path d="M821,261.77778795967765h18v25.51988625513701h-18Z" fill="#54a24b"/><path d="M901,186.0316069579858h18v103.12326234761201h-18Z" fill="#54a24b"/><path d="M61,224.81688132383508h18v57.41421030495056h-18Z" fill="#54a24b"/><path d="M341,263.85314402749225h18v30.32689284366637h-18Z" fill="#54a24b"/><path d="M941,213.90903292373386h18v77.20325975261099h-18Z" fill="#54a24b"/><path d="M1,270.28539029743627h18v21.651516328675143h-18Z" fill="#54a24b"/><path d="M681,165.85815101354012h18v124.69505688609587h-18Z" fill="#54a24b"/><path d="M1001,266.1329652569159h18v28.568073201079585h-18Z" fill="#54a24b"/><path d="M421,204.4968613303034h18v93.08743900468212h-18Z" fill="#54a24b"/><path d="M981,275.3886152149356h18v19.1481179639253h-18Z" fill="#54a24b"/><path d="M161,289.6487580064641h18v10.351241993535893h-18Z" fill="#eeca3b"/><path d="M741,286.84162056606044h18v13.158379433939558h-18Z" fill="#eeca3b"/><path d="M541,280.2535905362397h18v19.7464094637603h-18Z" fill="#eeca3b"/><path d="M261,289.9084905793906h18v10.091509420609384h-18Z" fill="#eeca3b"/><path d="M781,177.5750658625832h18v108.57405647525059h-18Z" fill="#54a24b"/><path d="M21,262.8856320967294h18v24.91107987759193h-18Z" fill="#54a24b"/><path d="M101,293.37920986528655h18v6.620790134713445h-18Z" fill="#eeca3b"/><path d="M461,290.7315719254769h18v9.268428074523115h-18Z" fill="#eeca3b"/><path d="M221,160.2391836071976h18v129.78763687682957h-18Z" fill="#54a24b"/><path d="M501,280.6724206341471h18v19.3275793658529h-18Z" fill="#eeca3b"/><path d="M621,213.28553435382236h18v77.97397696476696h-18Z" fill="#54a24b"/><path d="M861,250.40143279227678h18v40.35201824906929h-18Z" fill="#54a24b"/><path d="M641,285.70321979533304h18v14.296780204666959h-18Z" fill="#eeca3b"/><path d="M81,254.33982830150498h18v30.25741802265381h-18Z" fill="#54a24b"/><path d="M241,271.6429114500457h18v25.199858981283683h-18Z" fill="#54a24b"/><path d="M641,213.17769134009612h18v72.52552845523692h-18Z" fill="#54a24b"/><path d="M961,267.4151110033199h18v25.517175166391382h-18Z" fill="#54a24b"/><path d="M981,294.5367331788609h18v5.4632668211390865h-18Z" fill="#eeca3b"/><path d="M541,173.0894105708916h18v107.1641799653481h-18Z" fill="#54a24b"/><path d="M121,298.5521333364169h18v1.4478666635831132h-18Z" fill="#eeca3b"/><path d="M481,288.0691295339887h18v11.9308704660113h-18Z" fill="#eeca3b"/><path d="M161,235.0078450279871h18v54.64091297847702h-18Z" fill="#54a24b"/><path d="M641,208.22145830538523h18v4.956233034710891h-18Z" fill="#72b7b2"/><path d="M21,287.79671197432134h18v12.20328802567866h-18Z" fill="#eeca3b"/><path d="M321,291.0693605523172h18v8.930639447682779h-18Z" fill="#eeca3b"/><path d="M961,292.9322861697113h18v7.06771383028871h-18Z" fill="#eeca3b"/><path d="M721,258.6475895230957h18v34.6230901952718h-18Z" fill="#54a24b"/><path d="M741,231.72216558777043h18v55.11945497829001h-18Z" fill="#54a24b"/><path d="M441,212.22651692773474h18v4.639292221922261h-18Z" fill="#72b7b2"/><path d="M801,284.62814527098277h18v15.37185472901723h-18Z" fill="#eeca3b"/><path d="M881,282.2601545762326h18v4.927515580774582h-18Z" fill="#72b7b2"/><path d="M581,284.097986121194h18v15.902013878805974h-18Z" fill="#eeca3b"/><path d="M201,286.0407983703974h18v13.959201629602603h-18Z" fill="#eeca3b"/><path d="M841,290.69123686352555h18v9.308763136474454h-18Z" fill="#eeca3b"/><path d="M901,289.1548693055978h18v10.8451306944022h-18Z" fill="#eeca3b"/><path d="M601,235.54014548259963h18v60.5577465999427h-18Z" fill="#54a24b"/><path d="M861,290.75345104134607h18v9.246548958653932h-18Z" fill="#eeca3b"/><path d="M321,228.9387559261146h18v9.0821653475343h-18Z" fill="#72b7b2"/><path d="M461,257.42833294061126h18v33.30323898486563h-18Z" fill="#54a24b"/><path d="M141,224.47744043327515h18v4.4727784720909085h-18Z" fill="#72b7b2"/><path d="M41,215.84693692994367h18v4.438009982457629h-18Z" fill="#72b7b2"/><path d="M701,268.19445566525644h18v13.746046739563496h-18Z" fill="#54a24b"/><path d="M701,289.7897094311447h18v10.210290568855328h-18Z" fill="#b279a2"/><path d="M361,124.23592421663827h18v165.03479270993986h-18Z" fill="#54a24b"/><path d="M301,256.25963826016914h18v21.1894551440339h-18Z" fill="#54a24b"/><path d="M381,270.6300039361542h18v4.53337571694351h-18Z" fill="#72b7b2"/><path d="M761,292.80937445905437h18v7.190625540945632h-18Z" fill="#eeca3b"/><path d="M681,290.55320789963594h18v9.446792100364064h-18Z" fill="#eeca3b"/><path d="M301,277.44909340420304h18v18.893245221490247h-18Z" fill="#eeca3b"/><path d="M141,291.968009127974h18v8.031990872025972h-18Z" fill="#eeca3b"/><path d="M781,286.1491223378338h18v10.271782411989705h-18Z" fill="#eeca3b"/><path d="M621,291.2595113185893h18v8.740488681410682h-18Z" fill="#eeca3b"/><path d="M721,13.072573063042425h18v245.57501646005326h-18Z" fill="#4c78a8"/><path d="M561,292.8555044546092h18v7.144495545390782h-18Z" fill="#eeca3b"/><path d="M341,294.1800368711586h18v5.81996312884138h-18Z" fill="#eeca3b"/><path d="M361,289.27071692657813h18v10.729283073421868h-18Z" fill="#eeca3b"/><path d="M321,238.0209212736489h18v53.048439278668326h-18Z" fill="#54a24b"/><path d="M521,291.9496681875283h18v8.050331812471711h-18Z" fill="#eeca3b"/><path d="M281,296.6354420473623h18v3.3645579526377105h-18Z" fill="#eeca3b"/><path d="M801,257.63209007899206h18v26.996055191990706h-18Z" fill="#54a24b"/><path d="M1021,277.6147465684911h18v14.35624133270062h-18Z" fill="#54a24b"/><path d="M141,228.95021890536606h18v63.01779022260797h-18Z" fill="#54a24b"/><path d="M701,281.94050240481994h18v7.849207026324734h-18Z" fill="#eeca3b"/><path d="M601,296.09789208254233h18v3.90210791745767h-18Z" fill="#eeca3b"/><path d="M721,293.2706797183675h18v6.729320281632511h-18Z" fill="#eeca3b"/><path d="M821,287.2976742148146h18v12.702325785185394h-18Z" fill="#eeca3b"/><path d="M41,294.52740665583565h18v5.472593344164352h-18Z" fill="#eeca3b"/><path d="M1,291.9369066261114h18v8.063093373888591h-18Z" fill="#eeca3b"/><path d="M561,286.14683951583453h18v6.708664938774689h-18Z" fill="#54a24b"/><path d="M881,297.46892577755796h18v2.5310742224420437h-18Z" fill="#eeca3b"/><path d="M881,287.1876701570072h18v10.28125562055078h-18Z" fill="#54a24b"/><path d="M221,290.02682048402716h18v9.973179515972845h-18Z" fill="#eeca3b"/><path d="M381,275.1633796530977h18v10.514569472400296h-18Z" fill="#54a24b"/><path d="M941,291.11229267634485h18v5.602987326823552h-18Z" fill="#eeca3b"/><path d="M421,297.5843003349855h18v2.415699665014472h-18Z" fill="#eeca3b"/><path d="M761,209.6510408735435h18v0.4539545214455529h-18Z" fill="#f58518"/><path d="M241,268.16753428247324h18v3.4753771675724465h-18Z" fill="#f58518"/><path d="M401,279.04417281522785h18v17.679014064126875h-18Z" fill="#eeca3b"/><path d="M541,26.644291601287108h18v146.4451189696045h-18Z" fill="#4c78a8"/><path d="M441,294.73870027822136h18v5.2612997217786415h-18Z" fill="#b279a2"/><path d="M301,296.3423386256933h18v3.657661374306713h-18Z" fill="#b279a2"/><path d="M181,287.9034296002818h18v4.619748439374007h-18Z" fill="#eeca3b"/><path d="M241,296.84277043132937h18v3.1572295686706298h-18Z" fill="#eeca3b"/><path d="M881,280.06813259100574h18v2.1920219852268588h-18Z" fill="#f58518"/><path d="M981,147.32986707641248h18v128.05874813852313h-18Z" fill="#f58518"/><path d="M641,202.36898495618394h18v2.5258504735920724h-18Z" fill="#4c78a8"/><path d="M1,248.50494023542046h18v21.780450062015802h-18Z" fill="#4c78a8"/><path d="M1001,294.7010384579955h18v5.29896154200452h-18Z" fill="#eeca3b"/><path d="M1021,291.97098790119173h18v2.526926417459606h-18Z" fill="#eeca3b"/><path d="M161,175.60729545152094h18v59.40054957646615h-18Z" fill="#4c78a8"/><path d="M781,43.01724267378264h18v134.55782318880054h-18Z" fill="#4c78a8"/><path d="M781,296.4209047498235h18v3.579095250176522h-18Z" fill="#b279a2"/><path d="M261,231.25928160492876h18v15.384796704658044h-18Z" fill="#4c78a8"/><path d="M81,245.81864005519807h18v8.521188246306878h-18Z" fill="#4c78a8"/><path d="M661,150.64777624796167h18v17.09756075188872h-18Z" fill="#4c78a8"/><path d="M141,193.1490338325802h18v31.32840660069496h-18Z" fill="#4c78a8"/><path d="M361,118.72975332367149h18v5.506170892966779h-18Z" fill="#e45756"/><path d="M461,251.84510322544514h18v5.583229715166112h-18Z" fill="#4c78a8"/><path d="M181,292.5231780396558h18v7.476821960344182h-18Z" fill="#b279a2"/><path d="M761,199.70214351752145h18v9.948897356022059h-18Z" fill="#4c78a8"/><path d="M321,216.34339172916853h18v12.595364196946065h-18Z" fill="#4c78a8"/><path d="M281,135.04027811409892h18v8.489230746838047h-18Z" fill="#4c78a8"/><path d="M901,183.9862647231718h18v2.045342234814001h-18Z" fill="#4c78a8"/><path d="M681,146.871032301209h18v18.987118712331124h-18Z" fill="#4c78a8"/><path d="M121,278.41653188359976h18v1.9402729484030488h-18Z" fill="#4c78a8"/><path d="M401,172.45491027458567h18v6.675606063231214h-18Z" fill="#4c78a8"/><path d="M241,247.4641712934834h18v20.703362988989852h-18Z" fill="#4c78a8"/><path d="M941,205.26901578342273h18v8.64001714031113h-18Z" fill="#4c78a8"/><path d="M701,258.5709211562843h18v9.623534508972114h-18Z" fill="#4c78a8"/><path d="M181,141.7318409011189h18v1.840102935207966h-18Z" fill="#4c78a8"/><path d="M561,270.0133543868079h18v13.371769629004575h-18Z" fill="#4c78a8"/><path d="M301,246.96251684709497h18v9.297121413074166h-18Z" fill="#4c78a8"/><path d="M41,215.1296839409319h18v0.7172529890117687h-18Z" fill="#4c78a8"/><path d="M881,272.97108660987163h18v7.097045981134102h-18Z" fill="#4c78a8"/><path d="M961,264.8398346733781h18v2.5752763299418007h-18Z" fill="#4c78a8"/><path d="M661,167.7453369998504h18v30.57238608317573h-18Z" fill="#f58518"/><path d="M341,261.38119595259354h18v2.4719480748987053h-18Z" fill="#f58518"/><path d="M1001,259.11375152375234h18v7.019213733163554h-18Z" fill="#4c78a8"/><path d="M821,257.1547071316144h18v4.62308082806328h-18Z" fill="#4c78a8"/><path d="M501,183.0953855111003h18v3.2713364673936383h-18Z" fill="#4c78a8"/><path d="M1021,273.28966139903173h18v4.325085169459385h-18Z" fill="#4c78a8"/><path d="M621,208.4652234855755h18v4.82031086824685h-18Z" fill="#4c78a8"/><path d="M381,270.2169647974454h18v0.4130391387087684h-18Z" fill="#4c78a8"/><path d="M581,204.6057407190815h18v4.3233914022706585h-18Z" fill="#4c78a8"/><path d="M601,227.31856276322645h18v8.221582719373174h-18Z" fill="#4c78a8"/><path d="M201,112.1231535857602h18v20.341819316599555h-18Z" fill="#4c78a8"/><path d="M361,88.01428645098436h18v30.71546687268713h-18Z" fill="#4c78a8"/><path d="M221,140.9571268405204h18v19.2820567666771h-18Z" fill="#f58518"/><path d="M641,204.89483542977598h18v3.326622875609246h-18Z" fill="#e45756"/><path d="M61,201.17678568047808h18v23.640095643357h-18Z" fill="#f58518"/><path d="M561,283.3851240158125h18v2.761715500022035h-18Z" fill="#e45756"/><path d="M401,296.7231868793547h18v3.276813120645272h-18Z" fill="#b279a2"/><path d="M941,296.7152800031684h18v3.2847199968315977h-18Z" fill="#b279a2"/></g><g class="mark-group role-legend" role="graphics-symbol" aria-roledescription="legend" aria-label="Symbol legend titled 'Activity kind' for fill color with 7 values: Autofahrt, Bahnfahrt, Busfahrt, Lauf, Radfahrt, Spaziergang, Wanderung"><g transform="translate(1058,0)"><path class="background" aria-hidden="true" d="M0,0h75v105h-75Z" pointer-events="none"/><g><g class="mark-group role-legend-entry"><g transform="translate(0,16)"><path class="background" aria-hidden="true" d="M0,0h0v0h0Z" pointer-events="none"/><g><g class="mark-group role-scope" role="graphics-object" aria-roledescription="group mark container"><g transform="translate(0,0)"><path class="background" aria-hidden="true" d="M0,0h74.20000076293945v11h-74.20000076293945Z" pointer-events="none" opacity="1"/><g><g class="mark-symbol role-legend-symbol" pointer-events="none"><path transform="translate(6,6)" d="M-5,-5h10v10h-10Z" fill="#4c78a8" stroke-width="1.5" opacity="1"/></g><g class="mark-text role-legend-label" pointer-events="none"><text text-anchor="start" transform="translate(16,9)" font-family="sans-serif" font-size="10px" fill="#000" opacity="1">Autofahrt</text></g></g><path class="foreground" aria-hidden="true" d="" pointer-events="none" display="none"/></g><g transform="translate(0,13)"><path class="background" aria-hidden="true" d="M0,0h74.20000076293945v11h-74.20000076293945Z" pointer-events="none" opacity="1"/><g><g class="mark-symbol role-legend-symbol" pointer-events="none"><path transform="translate(6,6)" d="M-5,-5h10v10h-10Z" fill="#f58518" stroke-width="1.5" opacity="1"/></g><g class="mark-text role-legend-label" pointer-events="none"><text text-anchor="start" transform="translate(16,9)" font-family="sans-serif" font-size="10px" fill="#000" opacity="1">Bahnfahrt</text></g></g><path class="foreground" aria-hidden="true" d="" pointer-events="none" display="none"/></g><g transform="translate(0,26)"><path class="background" aria-hidden="true" d="M0,0h74.20000076293945v11h-74.20000076293945Z" pointer-events="none" opacity="1"/><g><g class="mark-symbol role-legend-symbol" pointer-events="none"><path transform="translate(6,6)" d="M-5,-5h10v10h-10Z" fill="#e45756" stroke-width="1.5" opacity="1"/></g><g class="mark-text role-legend-label" pointer-events="none"><text text-anchor="start" transform="translate(16,9)" font-family="sans-serif" font-size="10px" fill="#000" opacity="1">Busfahrt</text></g></g><path class="foreground" aria-hidden="true" d="" pointer-events="none" display="none"/></g><g transform="translate(0,39)"><path class="background" aria-hidden="true" d="M0,0h74.20000076293945v11h-74.20000076293945Z" pointer-events="none" opacity="1"/><g><g class="mark-symbol role-legend-symbol" pointer-events="none"><path transform="translate(6,6)" d="M-5,-5h10v10h-10Z" fill="#72b7b2" stroke-width="1.5" opacity="1"/></g><g class="mark-text role-legend-label" pointer-events="none"><text text-anchor="start" transform="translate(16,9)" font-family="sans-serif" font-size="10px" fill="#000" opacity="1">Lauf</text></g></g><path class="foreground" aria-hidden="true" d="" pointer-events="none" display="none"/></g><g transform="translate(0,52)"><path class="background" aria-hidden="true" d="M0,0h74.20000076293945v11h-74.20000076293945Z" pointer-events="none" opacity="1"/><g><g class="mark-symbol role-legend-symbol" pointer-events="none"><path transform="translate(6,6)" d="M-5,-5h10v10h-10Z" fill="#54a24b" stroke-width="1.5" opacity="1"/></g><g class="mark-text role-legend-label" pointer-events="none"><text text-anchor="start" transform="translate(16,9)" font-family="sans-serif" font-size="10px" fill="#000" opacity="1">Radfahrt</text></g></g><path class="foreground" aria-hidden="true" d="" pointer-events="none" display="none"/></g><g transform="translate(0,65)"><path class="background" aria-hidden="true" d="M0,0h74.20000076293945v11h-74.20000076293945Z" pointer-events="none" opacity="1"/><g><g class="mark-symbol role-legend-symbol" pointer-events="none"><path transform="translate(6,6)" d="M-5,-5h10v10h-10Z" fill="#eeca3b" stroke-width="1.5" opacity="1"/></g><g class="mark-text role-legend-label" pointer-events="none"><text text-anchor="start" transform="translate(16,9)" font-family="sans-serif" font-size="10px" fill="#000" opacity="1">Spaziergang</text></g></g><path class="foreground" aria-hidden="true" d="" pointer-events="none" display="none"/></g><g transform="translate(0,78)"><path class="background" aria-hidden="true" d="M0,0h74.20000076293945v11h-74.20000076293945Z" pointer-events="none" opacity="1"/><g><g class="mark-symbol role-legend-symbol" pointer-events="none"><path transform="translate(6,6)" d="M-5,-5h10v10h-10Z" fill="#b279a2" stroke-width="1.5" opacity="1"/></g><g class="mark-text role-legend-label" pointer-events="none"><text text-anchor="start" transform="translate(16,9)" font-family="sans-serif" font-size="10px" fill="#000" opacity="1">Wanderung</text></g></g><path class="foreground" aria-hidden="true" d="" pointer-events="none" display="none"/></g></g></g><path class="foreground" aria-hidden="true" d="" pointer-events="none" display="none"/></g></g><g class="mark-text role-legend-title" pointer-events="none"><text text-anchor="start" transform="translate(0,9)" font-family="sans-serif" font-size="11px" font-weight="bold" fill="#000" opacity="1">Activity kind</text></g></g><path class="foreground" aria-hidden="true" d="" pointer-events="none" display="none"/></g></g></g><path class="foreground" aria-hidden="true" d="" display="none"/></g></g></g></svg>