<svg xmlns="http://www.w3.org/2000/svg" xmlns:xlink="http://www.w3.org/1999/xlink" version="1.1" class="marks" width="431" height="347" viewBox="0 0 431 347"><rect width="431" height="347" fill="white"/><g fill="none" stroke-miterlimit="10" transform="translate(53,10)"><g class="mark-group role-frame root" role="graphics-object" aria-roledescription="group mark container"><g transform="translate(0,0)"><path class="background" aria-hidden="true" d="M0.5,0.5h280v300h-280Z" stroke="#ddd"/><g><g class="mark-group role-axis" aria-hidden="true"><g transform="translate(0.5,0.5)"><path class="background" aria-hidden="true" d="M0,0h0v0h0Z" pointer-events="none"/><g><g class="mark-rule role-axis-grid" pointer-events="none"><line transform="translate(0,300)" x2="280" y2="0" stroke="#ddd" stroke-width="1" opacity="1"/><line transform="translate(0,267)" x2="280" y2="0" stroke="#ddd" stroke-width="1" opacity="1"/><line transform="translate(0,233)" x2="280" y2="0" stroke="#ddd" stroke-width="1" opacity="1"/><line transform="translate(0,200)" x2="280" y2="0" stroke="#ddd" stroke-width="1" opacity="1"/><line transform="translate(0,167)" x2="280" y2="0" stroke="#ddd" stroke-width="1" opacity="1"/><line transform="translate(0,133)" x2="280" y2="0" stroke="#ddd" stroke-width="1" opacity="1"/><line transform="translate(0,100)" x2="280" y2="0" stroke="#ddd" stroke-width="1" opacity="1"/><line transform="translate(0,67)" x2="280" y2="0" stroke="#ddd" stroke-width="1" opacity="1"/><line transform="translate(0,33)" x2="280" y2="0" stroke="#ddd" stroke-width="1" opacity="1"/><line transform="translate(0,0)" x2="280" y2="0" stroke="#ddd" stroke-width="1" opacity="1"/></g></g><path class="foreground" aria-hidden="true" d="" pointer-events="none" display="none"/></g></g><g class="mark-group role-axis" role="graphics-symbol" aria-roledescription="axis" aria-label="X-axis titled 'Year' for a discrete scale with 14 values: 1970, 2013, 2014, 2015, 2016, ending with 2025"><g transform="translate(0.5,300.5)"><path class="background" aria-hidden="true" d="M0,0h0v0h0Z" pointer-events="none"/><g><g class="mark-rule role-axis-tick" pointer-events="none"><line transform="translate(10,0)" x2="0" y2="5" stroke="#888" stroke-width="1" opacity="1"/><line transform="translate(30,0)" x2="0" y2="5" stroke="#888" stroke-width="1" opacity="1"/><line transform="translate(50,0)" x2="0" y2="5" stroke="#888" stroke-width="1" opacity="1"/><line transform="translate(70,0)" x2="0" y2="5" stroke="#888" stroke-width="1" opacity="1"/><line transform="translate(90,0)" x2="0" y2="5" stroke="#888" stroke-width="1" opacity="1"/><line transform="translate(110,0)" x2="0" y2="5" stroke="#888" stroke-width="1" opacity="1"/><line transform="translate(130,0)" x2="0" y2="5" stroke="#888" stroke-width="1" opacity="1"/><line transform="translate(150,0)" x2="0" y2="5" stroke="#888" stroke-width="1" opacity="1"/><line transform="translate(170,0)" x2="0" y2="5" stroke="#888" stroke-width="1" opacity="1"/><line transform="translate(190,0)" x2="0" y2="5" stroke="#888" stroke-width="1" opacity="1"/><line transform="translate(210,0)" x2="0" y2="5" stroke="#888" stroke-width="1" opacity="1"/><line transform="translate(230,0)" x2="0" y2="5" stroke="#888" stroke-width="1" opacity="1"/><line transform="translate(250,0)" x2="0" y2="5" stroke="#888" stroke-width="1" opacity="1"/><line transform="translate(270,0)" x2="0" y2="5" stroke="#888" stroke-width="1" opacity="1"/></g><g class="mark-text role-axis-label" pointer-events="none"><text text-anchor="middle" transform="translate(9.5,15)" font-family="sans-serif" font-size="10px" fill="#000" opacity="1">1970</text><text text-anchor="middle" transform="translate(29.5,15)" font-family="sans-serif" font-size="10px" fill="#000" opacity="0">2013</text><text text-anchor="middle" transform="translate(49.5,15)" font-family="sans-serif" font-size="10px" fill="#000" opacity="1">2014</text><text text-anchor="middle" transform="translate(69.5,15)" font-family="sans-serif" font-size="10px" fill="#000" opacity="0">2015</text><text text-anchor="middle" transform="translate(89.5,15)" font-family="sans-serif" font-size="10px" fill="#000" opacity="1">2016</text><text text-anchor="middle" transform="translate(109.5,15)" font-family="sans-serif" font-size="10px" fill="#000" opacity="0">2017</text><text text-anchor="middle" transform="translate(129.5,15)" font-family="sans-serif" font-size="10px" fill="#000" opacity="1">2018</text><text text-anchor="middle" transform="translate(149.5,15)" font-family="sans-serif" font-size="10px" fill="#000" opacity="0">2019</text><text text-anchor="middle" transform="translate(169.5,15)" font-family="sans-serif" font-size="10px" fill="#000" opacity="1">2020</text><text text-anchor="middle" transform="translate(189.5,15)" font-family="sans-serif" font-size="10px" fill="#000" opacity="0">2021</text><text text-anchor="middle" transform="translate(209.5,15)" font-family="sans-serif" font-size="10px" fill="#000" opacity="1">2022</text><text text-anchor="middle" transform="translate(229.5,15)" font-family="sans-serif" font-size="10px" fill="#000" opacity="0">2023</text><text text-anchor="middle" transform="translate(249.5,15)" font-family="sans-serif" font-size="10px" fill="#000" opacity="1">2024</text><text text-anchor="middle" transform="translate(269.5,15)" font-family="sans-serif" font-size="10px" fill="#000" opacity="0">2025</text></g><g class="mark-rule role-axis-domain" pointer-events="none"><line transform="translate(0,0)" x2="280" y2="0" stroke="#888" stroke-width="1" opacity="1"/></g><g class="mark-text role-axis-title" pointer-events="none"><text text-anchor="middle" transform="translate(140,30)" font-family="sans-serif" font-size="11px" font-weight="bold" fill="#000" opacity="1">Year</text></g></g><path class="foreground" aria-hidden="true" d="" pointer-events="none" display="none"/></g></g><g class="mark-group role-axis" role="graphics-symbol" aria-roledescription="axis" aria-label="Y-axis titled 'Total distance / km' for a linear scale with values from 0 to 9,000"><g transform="translate(0.5,0.5)"><path class="background" aria-hidden="true" d="M0,0h0v0h0Z" pointer-events="none"/><g><g class="mark-rule role-axis-tick" pointer-events="none"><line transform="translate(0,300)" x2="-5" y2="0" stroke="#888" stroke-width="1" opacity="1"/><line transform="translate(0,267)" x2="-5" y2="0" stroke="#888" stroke-width="1" opacity="1"/><line transform="translate(0,233)" x2="-5" y2="0" stroke="#888" stroke-width="1" opacity="1"/><line transform="translate(0,200)" x2="-5" y2="0" stroke="#888" stroke-width="1" opacity="1"/><line transform="translate(0,167)" x2="-5" y2="0" stroke="#888" stroke-width="1" opacity="1"/><line transform="translate(0,133)" x2="-5" y2="0" stroke="#888" stroke-width="1" opacity="1"/><line transform="translate(0,100)" x2="-5" y2="0" stroke="#888" stroke-width="1" opacity="1"/><line transform="translate(0,67)" x2="-5" y2="0" stroke="#888" stroke-width="1" opacity="1"/><line transform="translate(0,33)" x2="-5" y2="0" stroke="#888" stroke-width="1" opacity="1"/><line transform="translate(0,0)" x2="-5" y2="0" stroke="#888" stroke-width="1" opacity="1"/></g><g class="mark-text role-axis-label" pointer-events="none"><text text-anchor="end" transform="translate(-7,303)" font-family="sans-serif" font-size="10px" fill="#000" opacity="1">0</text><text text-anchor="end" transform="translate(-7,269.66666666666663)" font-family="sans-serif" font-size="10px" fill="#000" opacity="1">1,000</text><text text-anchor="end" transform="translate(-7,236.33333333333334)" font-family="sans-serif" font-size="10px" fill="#000" opacity="1">2,000</text><text text-anchor="end" transform="translate(-7,203.00000000000003)" font-family="sans-serif" font-size="10px" fill="#000" opacity="1">3,000</text><text text-anchor="end" transform="translate(-7,169.66666666666669)" font-family="sans-serif" font-size="10px" fill="#000" opacity="1">4,000</text><text text-anchor="end" transform="translate(-7,136.33333333333331)" font-family="sans-serif" font-size="10px" fill="#000" opacity="1">5,000</text><text text-anchor="end" transform="translate(-7,103.00000000000001)" font-family="sans-serif" font-size="10px" fill="#000" opacity="1">6,000</text><text text-anchor="end" transform="translate(-7,69.66666666666666)" font-family="sans-serif" font-size="10px" fill="#000" opacity="1">7,000</text><text text-anchor="end" transform="translate(-7,36.33333333333335)" font-family="sans-serif" font-size="10px" fill="#000" opacity="1">8,000</text><text text-anchor="end" transform="translate(-7,3)" font-family="sans-serif" font-size="10px" fill="#000" opacity="1">9,000</text></g><g class="mark-rule role-axis-domain" pointer-events="none"><line transform="translate(0,300)" x2="0" y2="-300" stroke="#888" stroke-width="1" opacity="1"/></g><g class="mark-text role-axis-title" pointer-events="none"><text text-anchor="middle" transform="translate(-36.60000038146973,150) rotate(-90) translate(0,-2)" font-family="sans-serif" font-size="11px" font-weight="bold" fill="#000" opacity="1">Total distance / km</text></g></g><path class="foreground" aria-hidden="true" d="" pointer-events="none" display="none"/></g></g><g class="mark-rect role-mark marks" role="graphics-symbol" aria-roledescription="rect mark container"><path d="M221,275.94169549729475h18v21.160478862118794h-18Z" fill="#eeca3b"/><path d="M241,99.60923027085677h18v170.41137007020535h-18Z" fill="#54a24b"/><path d="M201,175.48323195494518h18v103.38517323345482h-18Z" fill="#54a24b"/><path d="M261,282.7366158121738h18v16.36316966035696h-18Z" fill="#eeca3b"/><path d="M201,278.8684051884h18v18.614684047834373h-18Z" fill="#eeca3b"/><path d="M181,226.42855702539464h18v63.420728929782854h-18Z" fill="#54a24b"/><path d="M101,297.26308540947207h18v2.2990908529172316h-18Z" fill="#54a24b"/><path d="M121,298.28434536079175h18v1.7156546392082532h-18Z" fill="#eeca3b"/><path d="M221,111.24856185544915h18v164.69313364184558h-18Z" fill="#54a24b"/><path d="M241,270.02060034106216h18v26.66587028503892h-18Z" fill="#eeca3b"/><path d="M261,202.29124530185294h18v80.44537051032086h-18Z" fill="#54a24b"/><path d="M161,268.59585191136665h18v26.160580062646147h-18Z" fill="#54a24b"/><path d="M121,290.67866441969767h18v7.605680941094079h-18Z" fill="#54a24b"/><path d="M181,289.8492859551775h18v9.584801798367778h-18Z" fill="#eeca3b"/><path d="M161,294.7564319740128h18v4.538078177149998h-18Z" fill="#eeca3b"/><path d="M141,297.57009149018245h18v2.125941842678344h-18Z" fill="#eeca3b"/><path d="M221,83.80778459128845h18v21.44202491371071h-18Z" fill="#4c78a8"/><path d="M261,170.01330929400356h18v25.189064780512638h-18Z" fill="#4c78a8"/><path d="M201,297.4830892362344h18v2.5169107637656225h-18Z" fill="#b279a2"/><path d="M241,296.6864706261011h18v3.313529373898916h-18Z" fill="#b279a2"/><path d="M41,298.18069675782266h18v0.09328280963961788h-18Z" fill="#f58518"/><path d="M141,299.6960333328608h18v0.30396666713920695h-18Z" fill="#b279a2"/><path d="M201,169.46810387610174h18v4.090450040016634h-18Z" fill="#f58518"/><path d="M141,287.1391809012499h18v10.430910588932534h-18Z" fill="#54a24b"/><path d="M181,224.62979267300486h18v1.7987643523897816h-18Z" fill="#72b7b2"/><path d="M221,297.10217435941354h18v2.8978256405864613h-18Z" fill="#b279a2"/><path d="M21,294.7530605300359h18v0.13093149133533188h-18Z" fill="#72b7b2"/><path d="M261,200.3816599715231h18v1.9095853303298327h-18Z" fill="#72b7b2"/><path d="M241,96.70899977019153h18v2.900230500665245h-18Z" fill="#72b7b2"/><path d="M201,173.70640382170097h18v1.7768281332442086h-18Z" fill="#72b7b2"/><path d="M221,109.49716253570467h18v1.751399319744479h-18Z" fill="#72b7b2"/><path d="M21,294.8839920213712h18v4.0085550334268305h-18Z" fill="#54a24b"/><path d="M61,295.2245391338073h18v3.7519691474620345h-18Z" fill="#54a24b"/><path d="M1,299.5410098879682h18v0.45899011203181317h-18Z" fill="#54a24b"/><path d="M61,298.97650828126933h18v0.7931845791565024h-18Z" fill="#eeca3b"/><path d="M21,298.89254705479806h18v1.107452945201942h-18Z" fill="#eeca3b"/><path d="M101,299.5621762623893h18v0.4378237376106995h-18Z" fill="#eeca3b"/><path d="M41,299.59086288369565h18v0.40913711630435046h-18Z" fill="#eeca3b"/><path d="M41,298.2739795674623h18v1.3168833162333726h-18Z" fill="#54a24b"/><path d="M141,286.69812074563066h18v0.4410601556192546h-18Z" fill="#72b7b2"/><path d="M161,268.05281580848606h18v0.5430361028805919h-18Z" fill="#72b7b2"/><path d="M161,299.2945101511628h18v0.7054898488372032h-18Z" fill="#b279a2"/><path d="M201,145.43510402053747h18v24.0329998555643h-18Z" fill="#4c78a8"/><path d="M81,299.9481061464812h18v0.05189385351877718h-18Z" fill="#eeca3b"/><path d="M241,19.739853565357414h18v71.41112208609508h-18Z" fill="#4c78a8"/><path d="M181,224.3702352624956h18v0.2595574105092453h-18Z" fill="#e45756"/><path d="M261,195.2023740745162h18v4.396474495851038h-18Z" fill="#f58518"/><path d="M221,105.24980950499916h18v3.636758025598155h-18Z" fill="#f58518"/><path d="M161,260.9780439949908h18v7.074771813495261h-18Z" fill="#f58518"/><path d="M181,299.43408775354527h18v0.5659122464547295h-18Z" fill="#b279a2"/><path d="M241,91.15097565145248h18v4.910997726187318h-18Z" fill="#f58518"/><path d="M261,299.09978547253075h18v0.9002145274692452h-18Z" fill="#b279a2"/><path d="M61,299.76969286042583h18v0.23030713957416538h-18Z" fill="#b279a2"/><path d="M141,284.0608496656231h18v1.980381397597455h-18Z" fill="#4c78a8"/><path d="M181,204.1323250348799h18v15.70770286654863h-18Z" fill="#4c78a8"/><path d="M261,199.59884857036724h18v0.7828114011558682h-18Z" fill="#e45756"/><path d="M161,257.41323334959867h18v3.5648106453921287h-18Z" fill="#4c78a8"/><path d="M101,296.18677493821747h18v0.025639553772066392h-18Z" fill="#4c78a8"/><path d="M41,297.71372484248553h18v0.4669719153371261h-18Z" fill="#4c78a8"/><path d="M121,289.7336662599399h18v0.9449981597577448h-18Z" fill="#4c78a8"/><path d="M221,108.88656753059732h18v0.6105950051073563h-18Z" fill="#e45756"/><path d="M241,96.06197337763984h18v0.6470263925516804h-18Z" fill="#e45756"/><path d="M141,286.04123106322055h18v0.6568896824101103h-18Z" fill="#f58518"/><path d="M181,219.84002790142853h18v4.5302073610670845h-18Z" fill="#f58518"/><path d="M201,173.55855391611837h18v0.14784990558260347h-18Z" fill="#e45756"/><path d="M101,296.21241449198953h18v1.0506709174825346h-18Z" fill="#f58518"/></g><g class="mark-group role-legend" role="graphics-symbol" aria-roledescription="legend" aria-label="Symbol legend titled 'Activity kind' for fill color with 7 values: Autofahrt, Bahnfahrt, Busfahrt, Lauf, Radfahrt, Spaziergang, Wanderung"><g transform="translate(298,0)"><path class="background" aria-hidden="true" d="M0,0h75v105h-75Z" pointer-events="none"/><g><g class="mark-group role-legend-entry"><g transform="translate(0,16)"><path class="background" aria-hidden="true" d="M0,0h0v0h0Z" pointer-events="none"/><g><g class="mark-group role-scope" role="graphics-object" aria-roledescription="group mark container"><g transform="translate(0,0)"><path class="background" aria-hidden="true" d="M0,0h74.20000076293945v11h-74.20000076293945Z" pointer-events="none" opacity="1"/><g><g class="mark-symbol role-legend-symbol" pointer-events="none"><path transform="translate(6,6)" d="M-5,-5h10v10h-10Z" fill="#4c78a8" stroke-width="1.5" opacity="1"/></g><g class="mark-text role-legend-label" pointer-events="none"><text text-anchor="start" transform="translate(16,9)" font-family="sans-serif" font-size="10px" fill="#000" opacity="1">Autofahrt</text></g></g><path class="foreground" aria-hidden="true" d="" pointer-events="none" display="none"/></g><g transform="translate(0,13)"><path class="background" aria-hidden="true" d="M0,0h74.20000076293945v11h-74.20000076293945Z" pointer-events="none" opacity="1"/><g><g class="mark-symbol role-legend-symbol" pointer-events="none"><path transform="translate(6,6)" d="M-5,-5h10v10h-10Z" fill="#f58518" stroke-width="1.5" opacity="1"/></g><g class="mark-text role-legend-label" pointer-events="none"><text text-anchor="start" transform="translate(16,9)" font-family="sans-serif" font-size="10px" fill="#000" opacity="1">Bahnfahrt</text></g></g><path class="foreground" aria-hidden="true" d="" pointer-events="none" display="none"/></g><g transform="translate(0,26)"><path class="background" aria-hidden="true" d="M0,0h74.20000076293945v11h-74.20000076293945Z" pointer-events="none" opacity="1"/><g><g class="mark-symbol role-legend-symbol" pointer-events="none"><path transform="translate(6,6)" d="M-5,-5h10v10h-10Z" fill="#e45756" stroke-width="1.5" opacity="1"/></g><g class="mark-text role-legend-label" pointer-events="none"><text text-anchor="start" transform="translate(16,9)" font-family="sans-serif" font-size="10px" fill="#000" opacity="1">Busfahrt</text></g></g><path class="foreground" aria-hidden="true" d="" pointer-events="none" display="none"/></g><g transform="translate(0,39)"><path class="background" aria-hidden="true" d="M0,0h74.20000076293945v11h-74.20000076293945Z" pointer-events="none" opacity="1"/><g><g class="mark-symbol role-legend-symbol" pointer-events="none"><path transform="translate(6,6)" d="M-5,-5h10v10h-10Z" fill="#72b7b2" stroke-width="1.5" opacity="1"/></g><g class="mark-text role-legend-label" pointer-events="none"><text text-anchor="start" transform="translate(16,9)" font-family="sans-serif" font-size="10px" fill="#000" opacity="1">Lauf</text></g></g><path class="foreground" aria-hidden="true" d="" pointer-events="none" display="none"/></g><g transform="translate(0,52)"><path class="background" aria-hidden="true" d="M0,0h74.20000076293945v11h-74.20000076293945Z" pointer-events="none" opacity="1"/><g><g class="mark-symbol role-legend-symbol" pointer-events="none"><path transform="translate(6,6)" d="M-5,-5h10v10h-10Z" fill="#54a24b" stroke-width="1.5" opacity="1"/></g><g class="mark-text role-legend-label" pointer-events="none"><text text-anchor="start" transform="translate(16,9)" font-family="sans-serif" font-size="10px" fill="#000" opacity="1">Radfahrt</text></g></g><path class="foreground" aria-hidden="true" d="" pointer-events="none" display="none"/></g><g transform="translate(0,65)"><path class="background" aria-hidden="true" d="M0,0h74.20000076293945v11h-74.20000076293945Z" pointer-events="none" opacity="1"/><g><g class="mark-symbol role-legend-symbol" pointer-events="none"><path transform="translate(6,6)" d="M-5,-5h10v10h-10Z" fill="#eeca3b" stroke-width="1.5" opacity="1"/></g><g class="mark-text role-legend-label" pointer-events="none"><text text-anchor="start" transform="translate(16,9)" font-family="sans-serif" font-size="10px" fill="#000" opacity="1">Spaziergang</text></g></g><path class="foreground" aria-hidden="true" d="" pointer-events="none" display="none"/></g><g transform="translate(0,78)"><path class="background" aria-hidden="true" d="M0,0h74.20000076293945v11h-74.20000076293945Z" pointer-events="none" opacity="1"/><g><g class="mark-symbol role-legend-symbol" pointer-events="none"><path transform="translate(6,6)" d="M-5,-5h10v10h-10Z" fill="#b279a2" stroke-width="1.5" opacity="1"/></g><g class="mark-text role-legend-label" pointer-events="none"><text text-anchor="start" transform="translate(16,9)" font-family="sans-serif" font-size="10px" fill="#000" opacity="1">Wanderung</text></g></g><path class="foreground" aria-hidden="true" d="" pointer-events="none" display="none"/></g></g></g><path class="foreground" aria-hidden="true" d="" pointer-events="none" display="none"/></g></g><g class="mark-text role-legend-title" pointer-events="none"><text text-anchor="start" transform="translate(0,9)" font-family="sans-serif" font-size="11px" font-weight="bold" fill="#000" opacity="1">Activity kind</text></g></g><path class="foreground" aria-hidden="true" d="" pointer-events="none" display="none"/></g></g></g><path class="foreground" aria-hidden="true" d="" display="none"/></g></g></g></svg>